<svg width="233" height="376" viewBox="0 0 233 376" fill="none" xmlns="http://www.w3.org/2000/svg">
<g clip-path="url(#clip0_3511_100960)">
<mask id="path-1-inside-1_3511_100960" fill="white">
<path d="M0 0H233V376H0V0Z"/>
</mask>
<path d="M0 0H233V376H0V0Z" fill="white" style="fill:white;fill-opacity:1;"/>
<path d="M29.3413 70.9462H32.0234V80.0366C32.0234 82.5747 30.2413 84.1588 27.6132 84.1588C25.2551 84.1588 23.401 82.9167 23.419 80.3426H26.1191C26.1371 81.3686 26.7672 81.9807 27.7392 81.9807C28.7653 81.9807 29.3413 81.3146 29.3413 80.0366V70.9462ZM39.8768 79.8206V74.2043H42.5409V83.9788H39.9848V82.2147H39.8768C39.4268 83.3487 38.3827 84.1048 36.9066 84.1048C34.9446 84.1048 33.6125 82.7187 33.6125 80.4326V74.2043H36.2766V79.9646C36.2766 81.1166 36.9426 81.8547 37.9867 81.8547C38.9587 81.8547 39.8768 81.1526 39.8768 79.8206ZM46.7221 78.3265V83.9788H44.058V74.2043H46.5961V75.9144H46.7041C47.1541 74.7804 48.1982 74.0783 49.6382 74.0783C51.6723 74.0783 53.0224 75.4644 53.0044 77.7505V83.9788H50.3583V78.2185C50.3583 77.0125 49.6922 76.2924 48.5942 76.2924C47.4781 76.2924 46.7221 77.0305 46.7221 78.3265ZM58.9497 84.1768C55.9615 84.1768 54.1255 82.2327 54.1255 79.1366C54.1255 76.1124 55.9795 74.0783 58.8417 74.0783C61.4158 74.0783 63.4319 75.6984 63.4319 79.0285V79.7846H56.7536C56.7536 81.2606 57.6356 82.1787 59.0037 82.1787C59.9037 82.1787 60.5517 81.7827 60.8217 81.1886H63.3599C62.9818 82.9887 61.3618 84.1768 58.9497 84.1768ZM56.7536 78.1105H60.9118C60.9118 76.9225 60.0837 76.0764 58.8957 76.0764C57.6716 76.0764 56.7986 76.9855 56.7536 78.1105ZM68.2301 83.9788L68.2121 82.0167L72.8923 77.7145C74.1164 76.5444 74.7644 75.8244 74.7644 74.7984C74.7644 73.6463 73.8824 72.9263 72.6943 72.9263C71.4703 72.9263 70.6782 73.7003 70.6782 74.9424H68.1041C68.0861 72.3863 69.9762 70.7662 72.7303 70.7662C75.5205 70.7662 77.3745 72.3503 77.3745 74.6184C77.3745 76.0944 76.6545 77.3185 73.9724 79.7486L71.9923 81.6747V81.7467H77.5545V83.9788H68.2301ZM83.8238 84.1588C80.8537 84.1588 78.7116 82.5927 78.7116 80.4686C78.7116 78.8305 79.9717 77.4985 81.5918 77.2465V77.1565C80.1877 76.8865 79.2157 75.6984 79.2157 74.2763C79.2157 72.2423 81.1597 70.7662 83.8238 70.7662C86.488 70.7662 88.432 72.2423 88.45 74.2763C88.432 75.7164 87.442 76.8865 86.0739 77.1565V77.2465C87.658 77.4985 88.9361 78.8305 88.9361 80.4686C88.9361 82.5927 86.794 84.1588 83.8238 84.1588ZM83.8238 82.0887C85.1919 82.0887 86.1099 81.3146 86.1099 80.1986C86.1099 79.0645 85.1559 78.2365 83.8238 78.2365C82.4918 78.2365 81.5198 79.0645 81.5378 80.1986C81.5198 81.3146 82.4378 82.0887 83.8238 82.0887ZM83.8238 76.3284C84.9759 76.3284 85.8039 75.5904 85.8039 74.5464C85.8039 73.5383 84.9939 72.8183 83.8238 72.8183C82.6538 72.8183 81.8618 73.5203 81.8618 74.5464C81.8618 75.5904 82.6718 76.3284 83.8238 76.3284ZM95.4034 74.2043V76.2024H93.5673V80.9726C93.5673 81.7467 93.9453 81.9447 94.4853 81.9627C94.7554 81.9627 95.2234 81.9447 95.5474 81.9087V84.0148C95.2594 84.0688 94.7914 84.1048 94.1253 84.1048C92.1992 84.1048 90.8852 83.2407 90.9032 81.3506V76.2024H89.5531V74.2043H90.9032V71.8642H93.5673V74.2043H95.4034ZM99.4046 78.3265V83.9788H96.7405V70.9462H99.3326V75.9144H99.4406C99.8906 74.7804 100.881 74.0783 102.357 74.0783C104.391 74.0783 105.741 75.4464 105.741 77.7505V83.9788H103.077V78.2185C103.077 77.0125 102.429 76.2924 101.313 76.2924C100.197 76.2924 99.4046 77.0305 99.4046 78.3265Z" fill="#121212" style="fill:#121212;fill:color(display-p3 0.0714 0.0714 0.0714);fill-opacity:1;"/>
<path d="M23.461 121.489H29.1943V122.33H26.8107V129.092H25.8551V122.33H23.461V121.489ZM31.5178 129.207C31.0033 129.207 30.5483 129.087 30.1528 128.845C29.7607 128.6 29.4562 128.255 29.2392 127.811C29.0222 127.366 28.9137 126.852 28.9137 126.267C28.9137 125.683 29.0222 125.168 29.2392 124.724C29.4562 124.276 29.7607 123.929 30.1528 123.684C30.5483 123.439 31.0033 123.317 31.5178 123.317C32.0288 123.317 32.4786 123.439 32.8671 123.684C33.2591 123.929 33.5619 124.276 33.7754 124.724C33.9924 125.168 34.1009 125.683 34.1009 126.267C34.1009 126.852 33.9924 127.366 33.7754 127.811C33.5619 128.255 33.2591 128.6 32.8671 128.845C32.4786 129.087 32.0288 129.207 31.5178 129.207ZM31.5178 128.409C31.8853 128.409 32.1951 128.313 32.4471 128.121C32.6991 127.924 32.8864 127.665 33.0089 127.343C33.1349 127.018 33.1979 126.659 33.1979 126.267C33.1979 125.875 33.1349 125.516 33.0089 125.191C32.8864 124.865 32.6991 124.605 32.4471 124.409C32.1951 124.213 31.8853 124.115 31.5178 124.115C31.1433 124.115 30.8283 124.213 30.5728 124.409C30.3208 124.605 30.1318 124.865 30.0058 125.191C29.8797 125.516 29.8167 125.875 29.8167 126.267C29.8167 126.659 29.8797 127.018 30.0058 127.343C30.1318 127.665 30.3208 127.924 30.5728 128.121C30.8283 128.313 31.1433 128.409 31.5178 128.409ZM37.4535 124.146H36.2565V127.454C36.2565 127.79 36.323 128.016 36.456 128.131C36.589 128.247 36.771 128.304 37.002 128.304C37.177 128.304 37.3555 128.297 37.5375 128.283V129.123C37.3555 129.151 37.1455 129.165 36.9075 129.165C36.6415 129.165 36.3895 129.111 36.1515 129.003C35.9134 128.891 35.7192 128.723 35.5687 128.499C35.4182 128.275 35.3429 128.003 35.3429 127.685V124.146H34.4819V123.39H35.3429V122.025H36.2565V123.39H37.4535V124.146ZM38.0235 127.475C38.0235 126.883 38.2247 126.467 38.6272 126.225C39.0333 125.984 39.546 125.84 40.1656 125.795C40.4036 125.777 40.6696 125.761 40.9636 125.747C41.2611 125.73 41.5096 125.718 41.7091 125.711V125.249C41.7091 124.881 41.5989 124.599 41.3784 124.403C41.1614 124.204 40.8411 124.104 40.4176 124.104C40.0711 124.104 39.7875 124.176 39.567 124.319C39.3465 124.459 39.203 124.643 39.1365 124.871H38.1915C38.23 124.566 38.349 124.297 38.5485 124.062C38.748 123.828 39.0123 123.646 39.3413 123.516C39.6738 123.383 40.0466 123.317 40.4596 123.317C41.0056 123.317 41.4991 123.457 41.9401 123.737C42.3812 124.013 42.6017 124.545 42.6017 125.333V129.092H41.7091V128.315H41.6671C41.5971 128.462 41.4886 128.605 41.3416 128.745C41.1981 128.882 41.0091 128.997 40.7746 129.092C40.5436 129.183 40.2741 129.228 39.9661 129.228C39.602 129.228 39.273 129.158 38.979 129.018C38.685 128.878 38.4522 128.677 38.2807 128.415C38.1092 128.149 38.0235 127.835 38.0235 127.475ZM38.9265 127.517C38.9265 127.807 39.035 128.031 39.252 128.189C39.4725 128.343 39.763 128.42 40.1236 128.42C40.4491 128.42 40.7308 128.355 40.9688 128.226C41.2104 128.096 41.3941 127.924 41.5201 127.711C41.6461 127.497 41.7091 127.268 41.7091 127.023V126.451L40.2706 126.551C39.8436 126.579 39.5128 126.671 39.2783 126.829C39.0438 126.986 38.9265 127.216 38.9265 127.517ZM44.6312 129.092H43.7282V121.489H44.6312V129.092ZM48.1232 123.39H48.9948V124.262H49.0578C49.1628 123.971 49.35 123.738 49.6195 123.563C49.889 123.385 50.1918 123.296 50.5278 123.296C50.7028 123.296 50.8603 123.303 51.0003 123.317V124.23C50.9618 124.216 50.8866 124.202 50.7746 124.188C50.6661 124.174 50.5593 124.167 50.4543 124.167C50.1848 124.167 49.9416 124.225 49.7245 124.34C49.5075 124.456 49.336 124.615 49.21 124.818C49.0875 125.021 49.0263 125.249 49.0263 125.501V129.092H48.1232V123.39ZM53.7754 129.207C53.2329 129.207 52.7604 129.087 52.3578 128.845C51.9553 128.604 51.6456 128.262 51.4286 127.821C51.215 127.38 51.1083 126.869 51.1083 126.288C51.1083 125.707 51.215 125.193 51.4286 124.745C51.6456 124.293 51.9483 123.943 52.3368 123.695C52.7289 123.443 53.1804 123.317 53.6914 123.317C54.1219 123.317 54.5227 123.413 54.8937 123.605C55.2647 123.794 55.5657 124.102 55.7967 124.529C56.0313 124.953 56.1485 125.497 56.1485 126.162V126.54H52.0113C52.0253 126.936 52.1076 127.273 52.2581 127.553C52.4086 127.833 52.6134 128.047 52.8724 128.194C53.1349 128.338 53.4359 128.409 53.7754 128.409C54.0974 128.409 54.3687 128.35 54.5892 128.231C54.8132 128.108 54.983 127.951 55.0985 127.758H56.0645C55.9735 128.045 55.8212 128.299 55.6077 128.52C55.3977 128.737 55.1352 128.906 54.8202 129.029C54.5087 129.148 54.1604 129.207 53.7754 129.207ZM55.235 125.774C55.235 125.455 55.1702 125.172 55.0407 124.923C54.9147 124.671 54.7344 124.473 54.4999 124.33C54.2654 124.186 53.9959 124.115 53.6914 124.115C53.3729 124.115 53.0894 124.19 52.8409 124.34C52.5959 124.491 52.4016 124.694 52.2581 124.949C52.1181 125.201 52.0376 125.476 52.0166 125.774H55.235ZM59.3331 129.207C58.8046 129.207 58.3425 129.083 57.947 128.835C57.555 128.583 57.254 128.234 57.044 127.79C56.834 127.345 56.729 126.838 56.729 126.267C56.729 125.693 56.8357 125.184 57.0492 124.739C57.2662 124.291 57.569 123.943 57.9575 123.695C58.3495 123.443 58.8011 123.317 59.3121 123.317C59.7146 123.317 60.0786 123.392 60.4041 123.542C60.7296 123.689 60.9939 123.899 61.1969 124.172C61.4034 124.442 61.5312 124.755 61.5802 125.112H60.6771C60.6351 124.93 60.5546 124.764 60.4356 124.613C60.3166 124.463 60.1626 124.342 59.9736 124.251C59.7881 124.16 59.5746 124.115 59.3331 124.115C58.9971 124.115 58.6996 124.202 58.4405 124.377C58.185 124.552 57.9855 124.801 57.842 125.123C57.702 125.441 57.632 125.812 57.632 126.236C57.632 126.673 57.7003 127.055 57.8368 127.38C57.9768 127.706 58.1745 127.958 58.43 128.136C58.6891 128.311 58.9901 128.399 59.3331 128.399C59.6726 128.399 59.9614 128.313 60.1994 128.142C60.4409 127.966 60.6001 127.723 60.6771 127.412H61.5802C61.5312 127.755 61.4087 128.063 61.2127 128.336C61.0167 128.605 60.7576 128.819 60.4356 128.976C60.1136 129.13 59.7461 129.207 59.3331 129.207ZM64.7018 129.207C64.1872 129.207 63.7322 129.087 63.3367 128.845C62.9447 128.6 62.6402 128.255 62.4232 127.811C62.2061 127.366 62.0976 126.852 62.0976 126.267C62.0976 125.683 62.2061 125.168 62.4232 124.724C62.6402 124.276 62.9447 123.929 63.3367 123.684C63.7322 123.439 64.1872 123.317 64.7018 123.317C65.2128 123.317 65.6625 123.439 66.0511 123.684C66.4431 123.929 66.7458 124.276 66.9593 124.724C67.1764 125.168 67.2849 125.683 67.2849 126.267C67.2849 126.852 67.1764 127.366 66.9593 127.811C66.7458 128.255 66.4431 128.6 66.0511 128.845C65.6625 129.087 65.2128 129.207 64.7018 129.207ZM64.7018 128.409C65.0693 128.409 65.379 128.313 65.631 128.121C65.8831 127.924 66.0703 127.665 66.1928 127.343C66.3188 127.018 66.3818 126.659 66.3818 126.267C66.3818 125.875 66.3188 125.516 66.1928 125.191C66.0703 124.865 65.8831 124.605 65.631 124.409C65.379 124.213 65.0693 124.115 64.7018 124.115C64.3272 124.115 64.0122 124.213 63.7567 124.409C63.5047 124.605 63.3157 124.865 63.1897 125.191C63.0637 125.516 63.0007 125.875 63.0007 126.267C63.0007 126.659 63.0637 127.018 63.1897 127.343C63.3157 127.665 63.5047 127.924 63.7567 128.121C64.0122 128.313 64.3272 128.409 64.7018 128.409ZM68.1488 123.39H69.0204V124.262H69.0834C69.1884 123.971 69.3756 123.738 69.6452 123.563C69.9147 123.385 70.2174 123.296 70.5534 123.296C70.7284 123.296 70.886 123.303 71.026 123.317V124.23C70.9875 124.216 70.9122 124.202 70.8002 124.188C70.6917 124.174 70.5849 124.167 70.4799 124.167C70.2104 124.167 69.9672 124.225 69.7502 124.34C69.5331 124.456 69.3616 124.615 69.2356 124.818C69.1131 125.021 69.0519 125.249 69.0519 125.501V129.092H68.1488V123.39ZM73.5595 129.207C73.087 129.207 72.667 129.087 72.2995 128.845C71.9354 128.604 71.6502 128.261 71.4437 127.816C71.2372 127.368 71.1339 126.848 71.1339 126.257C71.1339 125.665 71.2372 125.147 71.4437 124.703C71.6502 124.258 71.9372 123.917 72.3047 123.679C72.6722 123.437 73.094 123.317 73.57 123.317C73.906 123.317 74.1843 123.373 74.4048 123.485C74.6253 123.593 74.7881 123.71 74.8931 123.836C74.9981 123.959 75.1066 124.111 75.2186 124.293H75.2816V121.489H76.1951V129.092H75.3131V128.22H75.2186C75.0996 128.406 74.9858 128.562 74.8773 128.688C74.7723 128.814 74.6096 128.933 74.389 129.045C74.1685 129.153 73.892 129.207 73.5595 129.207ZM73.6855 128.399C74.025 128.399 74.3173 128.31 74.5623 128.131C74.8073 127.949 74.9928 127.695 75.1188 127.37C75.2483 127.041 75.3131 126.663 75.3131 126.236C75.3131 125.812 75.2501 125.443 75.1241 125.128C75.0016 124.809 74.8178 124.563 74.5728 124.388C74.3278 124.213 74.032 124.125 73.6855 124.125C73.332 124.125 73.0327 124.218 72.7877 124.403C72.5427 124.585 72.3572 124.836 72.2312 125.154C72.1087 125.473 72.0474 125.833 72.0474 126.236C72.0474 126.649 72.1087 127.02 72.2312 127.349C72.3572 127.674 72.5427 127.931 72.7877 128.121C73.0362 128.306 73.3355 128.399 73.6855 128.399ZM79.8312 129.207C79.2887 129.207 78.8162 129.087 78.4137 128.845C78.0111 128.604 77.7014 128.262 77.4844 127.821C77.2709 127.38 77.1641 126.869 77.1641 126.288C77.1641 125.707 77.2709 125.193 77.4844 124.745C77.7014 124.293 78.0041 123.943 78.3927 123.695C78.7847 123.443 79.2362 123.317 79.7472 123.317C80.1777 123.317 80.5785 123.413 80.9495 123.605C81.3205 123.794 81.6215 124.102 81.8526 124.529C82.0871 124.953 82.2043 125.497 82.2043 126.162V126.54H78.0671C78.0811 126.936 78.1634 127.273 78.3139 127.553C78.4644 127.833 78.6692 128.047 78.9282 128.194C79.1907 128.338 79.4917 128.409 79.8312 128.409C80.1532 128.409 80.4245 128.35 80.645 128.231C80.869 128.108 81.0388 127.951 81.1543 127.758H82.1203C82.0293 128.045 81.8771 128.299 81.6635 128.52C81.4535 128.737 81.191 128.906 80.876 129.029C80.5645 129.148 80.2162 129.207 79.8312 129.207ZM81.2908 125.774C81.2908 125.455 81.226 125.172 81.0965 124.923C80.9705 124.671 80.7903 124.473 80.5557 124.33C80.3212 124.186 80.0517 124.115 79.7472 124.115C79.4287 124.115 79.1452 124.19 78.8967 124.34C78.6517 124.491 78.4574 124.694 78.3139 124.949C78.1739 125.201 78.0934 125.476 78.0724 125.774H81.2908ZM85.2104 129.207C84.7379 129.207 84.3178 129.087 83.9503 128.845C83.5863 128.604 83.3011 128.261 83.0945 127.816C82.888 127.368 82.7848 126.848 82.7848 126.257C82.7848 125.665 82.888 125.147 83.0945 124.703C83.3011 124.258 83.5881 123.917 83.9556 123.679C84.3231 123.437 84.7449 123.317 85.2209 123.317C85.5569 123.317 85.8352 123.373 86.0557 123.485C86.2762 123.593 86.4389 123.71 86.5439 123.836C86.6489 123.959 86.7575 124.111 86.8695 124.293H86.9325V121.489H87.846V129.092H86.964V128.22H86.8695C86.7505 128.406 86.6367 128.562 86.5282 128.688C86.4232 128.814 86.2604 128.933 86.0399 129.045C85.8194 129.153 85.5429 129.207 85.2104 129.207ZM85.3364 128.399C85.6759 128.399 85.9682 128.31 86.2132 128.131C86.4582 127.949 86.6437 127.695 86.7697 127.37C86.8992 127.041 86.964 126.663 86.964 126.236C86.964 125.812 86.901 125.443 86.775 125.128C86.6524 124.809 86.4687 124.563 86.2237 124.388C85.9787 124.213 85.6829 124.125 85.3364 124.125C84.9829 124.125 84.6836 124.218 84.4386 124.403C84.1936 124.585 84.0081 124.836 83.8821 125.154C83.7596 125.473 83.6983 125.833 83.6983 126.236C83.6983 126.649 83.7596 127.02 83.8821 127.349C84.0081 127.674 84.1936 127.931 84.4386 128.121C84.6871 128.306 84.9864 128.399 85.3364 128.399ZM93.9526 124.146H92.7556V127.454C92.7556 127.79 92.8221 128.016 92.9551 128.131C93.0881 128.247 93.2701 128.304 93.5011 128.304C93.6761 128.304 93.8546 128.297 94.0366 128.283V129.123C93.8546 129.151 93.6446 129.165 93.4066 129.165C93.1406 129.165 92.8886 129.111 92.6506 129.003C92.4126 128.891 92.2183 128.723 92.0678 128.499C91.9173 128.275 91.842 128.003 91.842 127.685V124.146H90.981V123.39H91.842V122.025H92.7556V123.39H93.9526V124.146ZM94.7956 123.39H95.6987V129.092H94.7956V123.39ZM95.2471 122.445C95.0721 122.445 94.9234 122.387 94.8009 122.272C94.6784 122.156 94.6171 122.014 94.6171 121.846C94.6171 121.678 94.6784 121.537 94.8009 121.421C94.9234 121.306 95.0721 121.248 95.2471 121.248C95.4221 121.248 95.5726 121.306 95.6987 121.421C95.8247 121.537 95.8877 121.678 95.8877 121.846C95.8877 122.014 95.8247 122.156 95.6987 122.272C95.5726 122.387 95.4221 122.445 95.2471 122.445ZM96.8146 123.39H97.6862V124.283H97.7597C97.8822 123.975 98.0747 123.737 98.3372 123.569C98.6032 123.401 98.9217 123.317 99.2927 123.317C99.6568 123.317 99.9665 123.401 100.222 123.569C100.478 123.733 100.675 123.971 100.815 124.283H100.878C101.029 123.982 101.251 123.745 101.545 123.574C101.839 123.402 102.187 123.317 102.59 123.317C102.936 123.317 103.239 123.388 103.498 123.532C103.761 123.675 103.965 123.894 104.112 124.188C104.259 124.479 104.333 124.843 104.333 125.28V129.092H103.43V125.291C103.43 124.895 103.321 124.603 103.104 124.414C102.887 124.221 102.611 124.125 102.275 124.125C102.016 124.125 101.792 124.179 101.603 124.288C101.414 124.396 101.27 124.545 101.172 124.734C101.074 124.923 101.025 125.14 101.025 125.385V129.092H100.112V125.196C100.112 124.986 100.065 124.801 99.97 124.64C99.8755 124.475 99.7425 124.349 99.571 124.262C99.403 124.171 99.2122 124.125 98.9987 124.125C98.7712 124.125 98.5595 124.186 98.3635 124.309C98.1674 124.428 98.0099 124.594 97.8909 124.808C97.7754 125.021 97.7177 125.263 97.7177 125.532V129.092H96.8146V123.39ZM107.854 129.207C107.311 129.207 106.839 129.087 106.436 128.845C106.033 128.604 105.724 128.262 105.507 127.821C105.293 127.38 105.186 126.869 105.186 126.288C105.186 125.707 105.293 125.193 105.507 124.745C105.724 124.293 106.026 123.943 106.415 123.695C106.807 123.443 107.259 123.317 107.77 123.317C108.2 123.317 108.601 123.413 108.972 123.605C109.343 123.794 109.644 124.102 109.875 124.529C110.109 124.953 110.227 125.497 110.227 126.162V126.54H106.089C106.103 126.936 106.186 127.273 106.336 127.553C106.487 127.833 106.692 128.047 106.951 128.194C107.213 128.338 107.514 128.409 107.854 128.409C108.176 128.409 108.447 128.35 108.667 128.231C108.891 128.108 109.061 127.951 109.177 127.758H110.143C110.052 128.045 109.899 128.299 109.686 128.52C109.476 128.737 109.213 128.906 108.898 129.029C108.587 129.148 108.239 129.207 107.854 129.207ZM109.313 125.774C109.313 125.455 109.248 125.172 109.119 124.923C108.993 124.671 108.813 124.473 108.578 124.33C108.344 124.186 108.074 124.115 107.77 124.115C107.451 124.115 107.168 124.19 106.919 124.34C106.674 124.491 106.48 124.694 106.336 124.949C106.196 125.201 106.116 125.476 106.095 125.774H109.313ZM115.945 124.146H114.748V127.454C114.748 127.79 114.814 128.016 114.947 128.131C115.08 128.247 115.262 128.304 115.493 128.304C115.668 128.304 115.847 128.297 116.029 128.283V129.123C115.847 129.151 115.637 129.165 115.399 129.165C115.133 129.165 114.881 129.111 114.643 129.003C114.405 128.891 114.21 128.723 114.06 128.499C113.909 128.275 113.834 128.003 113.834 127.685V124.146H112.973V123.39H113.834V122.025H114.748V123.39H115.945V124.146ZM119.066 129.207C118.552 129.207 118.097 129.087 117.701 128.845C117.309 128.6 117.005 128.255 116.788 127.811C116.571 127.366 116.462 126.852 116.462 126.267C116.462 125.683 116.571 125.168 116.788 124.724C117.005 124.276 117.309 123.929 117.701 123.684C118.097 123.439 118.552 123.317 119.066 123.317C119.577 123.317 120.027 123.439 120.416 123.684C120.808 123.929 121.11 124.276 121.324 124.724C121.541 125.168 121.649 125.683 121.649 126.267C121.649 126.852 121.541 127.366 121.324 127.811C121.11 128.255 120.808 128.6 120.416 128.845C120.027 129.087 119.577 129.207 119.066 129.207ZM119.066 128.409C119.434 128.409 119.744 128.313 119.996 128.121C120.248 127.924 120.435 127.665 120.557 127.343C120.683 127.018 120.746 126.659 120.746 126.267C120.746 125.875 120.683 125.516 120.557 125.191C120.435 124.865 120.248 124.605 119.996 124.409C119.744 124.213 119.434 124.115 119.066 124.115C118.692 124.115 118.377 124.213 118.121 124.409C117.869 124.605 117.68 124.865 117.554 125.191C117.428 125.516 117.365 125.875 117.365 126.267C117.365 126.659 117.428 127.018 117.554 127.343C117.68 127.665 117.869 127.924 118.121 128.121C118.377 128.313 118.692 128.409 119.066 128.409ZM124.666 129.207C124.194 129.207 123.773 129.087 123.406 128.845C123.042 128.604 122.757 128.261 122.55 127.816C122.344 127.368 122.24 126.848 122.24 126.257C122.24 125.665 122.344 125.147 122.55 124.703C122.757 124.258 123.044 123.917 123.411 123.679C123.779 123.437 124.201 123.317 124.677 123.317C125.013 123.317 125.291 123.373 125.511 123.485C125.732 123.593 125.895 123.71 126 123.836C126.105 123.959 126.213 124.111 126.325 124.293H126.388V121.489H127.302V129.092H126.42V128.22H126.325C126.206 128.406 126.092 128.562 125.984 128.688C125.879 128.814 125.716 128.933 125.496 129.045C125.275 129.153 124.999 129.207 124.666 129.207ZM124.792 128.399C125.132 128.399 125.424 128.31 125.669 128.131C125.914 127.949 126.099 127.695 126.225 127.37C126.355 127.041 126.42 126.663 126.42 126.236C126.42 125.812 126.357 125.443 126.231 125.128C126.108 124.809 125.924 124.563 125.679 124.388C125.434 124.213 125.139 124.125 124.792 124.125C124.439 124.125 124.139 124.218 123.894 124.403C123.649 124.585 123.464 124.836 123.338 125.154C123.215 125.473 123.154 125.833 123.154 126.236C123.154 126.649 123.215 127.02 123.338 127.349C123.464 127.674 123.649 127.931 123.894 128.121C124.143 128.306 124.442 128.399 124.792 128.399ZM128.271 127.475C128.271 126.883 128.472 126.467 128.874 126.225C129.28 125.984 129.793 125.84 130.413 125.795C130.651 125.777 130.917 125.761 131.211 125.747C131.508 125.73 131.757 125.718 131.956 125.711V125.249C131.956 124.881 131.846 124.599 131.626 124.403C131.409 124.204 131.088 124.104 130.665 124.104C130.318 124.104 130.035 124.176 129.814 124.319C129.594 124.459 129.45 124.643 129.384 124.871H128.439C128.477 124.566 128.596 124.297 128.796 124.062C128.995 123.828 129.259 123.646 129.588 123.516C129.921 123.383 130.294 123.317 130.707 123.317C131.253 123.317 131.746 123.457 132.187 123.737C132.628 124.013 132.849 124.545 132.849 125.333V129.092H131.956V128.315H131.914C131.844 128.462 131.736 128.605 131.589 128.745C131.445 128.882 131.256 128.997 131.022 129.092C130.791 129.183 130.521 129.228 130.213 129.228C129.849 129.228 129.52 129.158 129.226 129.018C128.932 128.878 128.699 128.677 128.528 128.415C128.356 128.149 128.271 127.835 128.271 127.475ZM129.174 127.517C129.174 127.807 129.282 128.031 129.499 128.189C129.72 128.343 130.01 128.42 130.371 128.42C130.696 128.42 130.978 128.355 131.216 128.226C131.458 128.096 131.641 127.924 131.767 127.711C131.893 127.497 131.956 127.268 131.956 127.023V126.451L130.518 126.551C130.091 126.579 129.76 126.671 129.525 126.829C129.291 126.986 129.174 127.216 129.174 127.517ZM134.343 131.234C134.161 131.234 133.993 131.227 133.839 131.213V130.404C133.965 130.418 134.112 130.425 134.28 130.425C134.43 130.425 134.556 130.41 134.658 130.378C134.759 130.347 134.861 130.268 134.962 130.142C135.064 130.019 135.162 129.827 135.256 129.564L135.424 129.134L133.314 123.39H134.301L135.855 127.916H135.918L137.472 123.39H138.459L136.044 129.911C135.876 130.355 135.652 130.686 135.372 130.903C135.092 131.124 134.749 131.234 134.343 131.234Z" fill="#9F9F9F" style="fill:#9F9F9F;fill:color(display-p3 0.6235 0.6235 0.6235);fill-opacity:1;"/>
<path d="M24.0536 156.212V153.534L30.9389 142.801H35.1915V153.489H37.2616V156.212H35.1915V159.092H31.9739V156.212H24.0536ZM27.4737 153.489H32.0189V146.514H31.8614L27.4737 153.354V153.489ZM42.1281 152.026V159.092H38.798V142.801H42.0381V149.011H42.1731C42.7357 147.594 43.9732 146.716 45.8183 146.716C48.3609 146.716 50.0485 148.426 50.0485 151.306V159.092H46.7183V151.891C46.7183 150.384 45.9083 149.484 44.5132 149.484C43.1182 149.484 42.1281 150.406 42.1281 152.026ZM56.5188 159.092L56.4963 156.639L62.3466 151.261C63.8767 149.799 64.6867 148.899 64.6867 147.616C64.6867 146.176 63.5841 145.276 62.0991 145.276C60.569 145.276 59.579 146.244 59.579 147.796H56.3613C56.3388 144.601 58.7014 142.576 62.1441 142.576C65.6317 142.576 67.9493 144.556 67.9493 147.391C67.9493 149.236 67.0493 150.766 63.6967 153.804L61.2215 156.212V156.302H68.1743V159.092H56.5188ZM76.2135 159.317C72.1408 159.317 69.6657 156.279 69.6657 150.946C69.6657 145.614 72.1408 142.576 76.2135 142.576C80.2862 142.576 82.7613 145.636 82.7613 150.946C82.7613 156.302 80.2862 159.317 76.2135 159.317ZM76.2135 156.527C78.1036 156.527 79.3186 154.704 79.2961 150.946C79.2961 147.234 78.1036 145.344 76.2135 145.344C74.3234 145.344 73.1309 147.234 73.1309 150.946C73.1084 154.704 74.3234 156.527 76.2135 156.527ZM84.4326 159.092V146.874H87.6053V149.011H87.7403C88.2578 147.594 89.4954 146.716 91.1379 146.716C92.8255 146.716 94.063 147.594 94.4681 149.011H94.5806C95.0981 147.616 96.4706 146.716 98.2707 146.716C100.543 146.716 102.118 148.224 102.118 150.879V159.092H98.7882V151.531C98.7882 150.136 97.9782 149.461 96.8757 149.461C95.6156 149.461 94.8956 150.339 94.8956 151.621V159.092H91.6554V151.441C91.6554 150.226 90.8904 149.461 89.7654 149.461C88.6403 149.461 87.7628 150.361 87.7628 151.756V159.092H84.4326Z" fill="#121212" style="fill:#121212;fill:color(display-p3 0.0714 0.0714 0.0714);fill-opacity:1;"/>
<path d="M29.0683 207.141C28.9983 206.801 28.8583 206.511 28.6483 206.269C28.4417 206.024 28.1897 205.839 27.8922 205.713C27.5982 205.587 27.2832 205.524 26.9472 205.524C26.4817 205.524 26.0634 205.641 25.6924 205.876C25.3249 206.11 25.0344 206.455 24.8208 206.91C24.6073 207.365 24.5006 207.911 24.5006 208.548C24.5006 209.185 24.6073 209.731 24.8208 210.186C25.0344 210.641 25.3249 210.986 25.6924 211.22C26.0634 211.455 26.4817 211.572 26.9472 211.572C27.2832 211.572 27.5982 211.511 27.8922 211.388C28.1862 211.262 28.4365 211.079 28.643 210.837C28.853 210.592 28.9948 210.302 29.0683 209.966H30.0133C29.9223 210.473 29.7333 210.916 29.4463 211.294C29.1593 211.668 28.7988 211.955 28.3647 212.155C27.9342 212.354 27.4617 212.454 26.9472 212.454C26.2962 212.454 25.7169 212.295 25.2094 211.976C24.7018 211.658 24.3046 211.205 24.0176 210.617C23.7305 210.025 23.587 209.335 23.587 208.548C23.587 207.76 23.7305 207.073 24.0176 206.485C24.3046 205.893 24.7018 205.438 25.2094 205.12C25.7169 204.801 26.2962 204.642 26.9472 204.642C27.4582 204.642 27.929 204.742 28.3595 204.941C28.7935 205.141 29.154 205.429 29.441 205.807C29.7316 206.182 29.9223 206.626 30.0133 207.141H29.0683ZM30.8983 206.647H31.7698V207.519H31.8328C31.9378 207.228 32.1251 206.996 32.3946 206.821C32.6641 206.642 32.9669 206.553 33.3029 206.553C33.4779 206.553 33.6354 206.56 33.7754 206.574V207.487C33.7369 207.473 33.6617 207.459 33.5497 207.445C33.4411 207.431 33.3344 207.424 33.2294 207.424C32.9599 207.424 32.7166 207.482 32.4996 207.598C32.2826 207.713 32.1111 207.872 31.9851 208.075C31.8626 208.278 31.8013 208.506 31.8013 208.758V212.349H30.8983V206.647ZM36.5505 212.465C36.0079 212.465 35.5354 212.344 35.1329 212.102C34.7304 211.861 34.4206 211.52 34.2036 211.079C33.9901 210.638 33.8834 210.127 33.8834 209.546C33.8834 208.964 33.9901 208.45 34.2036 208.002C34.4206 207.55 34.7234 207.2 35.1119 206.952C35.5039 206.7 35.9554 206.574 36.4665 206.574C36.897 206.574 37.2978 206.67 37.6688 206.863C38.0398 207.052 38.3408 207.36 38.5718 207.787C38.8063 208.21 38.9236 208.754 38.9236 209.419V209.798H34.7864C34.8004 210.193 34.8827 210.531 35.0332 210.811C35.1837 211.091 35.3884 211.304 35.6474 211.451C35.9099 211.595 36.211 211.667 36.5505 211.667C36.8725 211.667 37.1437 211.607 37.3643 211.488C37.5883 211.366 37.758 211.208 37.8735 211.016H38.8396C38.7486 211.303 38.5963 211.556 38.3828 211.777C38.1728 211.994 37.9103 212.164 37.5953 212.286C37.2838 212.405 36.9355 212.465 36.5505 212.465ZM38.01 209.031C38.01 208.712 37.9453 208.429 37.8158 208.18C37.6898 207.928 37.5095 207.731 37.275 207.587C37.0405 207.444 36.771 207.372 36.4665 207.372C36.148 207.372 35.8644 207.447 35.6159 207.598C35.3709 207.748 35.1767 207.951 35.0332 208.207C34.8932 208.459 34.8126 208.733 34.7916 209.031H38.01ZM39.504 210.732C39.504 210.141 39.7053 209.724 40.1078 209.482C40.5138 209.241 41.0266 209.097 41.6461 209.052C41.8841 209.034 42.1502 209.019 42.4442 209.005C42.7417 208.987 42.9902 208.975 43.1897 208.968V208.506C43.1897 208.138 43.0794 207.857 42.8589 207.661C42.6419 207.461 42.3217 207.361 41.8981 207.361C41.5516 207.361 41.2681 207.433 41.0476 207.577C40.8271 207.717 40.6836 207.9 40.6171 208.128H39.672C39.7105 207.823 39.8296 207.554 40.0291 207.319C40.2286 207.085 40.4928 206.903 40.8218 206.773C41.1544 206.64 41.5271 206.574 41.9401 206.574C42.4862 206.574 42.9797 206.714 43.4207 206.994C43.8617 207.27 44.0822 207.802 44.0822 208.59V212.349H43.1897V211.572H43.1477C43.0777 211.719 42.9692 211.863 42.8222 212.003C42.6787 212.139 42.4897 212.255 42.2552 212.349C42.0241 212.44 41.7546 212.486 41.4466 212.486C41.0826 212.486 40.7536 212.416 40.4596 212.276C40.1656 212.136 39.9328 211.934 39.7613 211.672C39.5898 211.406 39.504 211.093 39.504 210.732ZM40.4071 210.774C40.4071 211.065 40.5156 211.289 40.7326 211.446C40.9531 211.6 41.2436 211.677 41.6041 211.677C41.9296 211.677 42.2114 211.612 42.4494 211.483C42.6909 211.353 42.8747 211.182 43.0007 210.968C43.1267 210.755 43.1897 210.526 43.1897 210.281V209.708L41.7511 209.808C41.3241 209.836 40.9934 209.929 40.7588 210.086C40.5243 210.244 40.4071 210.473 40.4071 210.774ZM47.6973 207.403H46.5003V210.711C46.5003 211.047 46.5668 211.273 46.6998 211.388C46.8328 211.504 47.0148 211.562 47.2458 211.562C47.4208 211.562 47.5993 211.555 47.7813 211.541V212.381C47.5993 212.409 47.3893 212.423 47.1513 212.423C46.8853 212.423 46.6333 212.368 46.3953 212.26C46.1573 212.148 45.963 211.98 45.8125 211.756C45.662 211.532 45.5867 211.261 45.5867 210.942V207.403H44.7257V206.647H45.5867V205.282H46.5003V206.647H47.6973V207.403ZM48.5403 206.647H49.4433V212.349H48.5403V206.647ZM48.9918 205.702C48.8168 205.702 48.6681 205.645 48.5456 205.529C48.423 205.414 48.3618 205.272 48.3618 205.104C48.3618 204.936 48.423 204.794 48.5456 204.679C48.6681 204.563 48.8168 204.505 48.9918 204.505C49.1668 204.505 49.3173 204.563 49.4433 204.679C49.5693 204.794 49.6324 204.936 49.6324 205.104C49.6324 205.272 49.5693 205.414 49.4433 205.529C49.3173 205.645 49.1668 205.702 48.9918 205.702ZM51.4624 212.349H50.5593V206.647H51.4309V207.54H51.5044C51.6479 207.235 51.8561 206.999 52.1291 206.831C52.4057 206.66 52.7539 206.574 53.1739 206.574C53.566 206.574 53.9055 206.654 54.1925 206.815C54.4795 206.973 54.7018 207.213 54.8593 207.535C55.0168 207.857 55.0955 208.254 55.0955 208.726V212.349H54.1925V208.789C54.1925 208.348 54.0787 208.004 53.8512 207.755C53.6237 207.507 53.3069 207.382 52.9009 207.382C52.6209 207.382 52.3724 207.444 52.1554 207.566C51.9384 207.685 51.7686 207.862 51.6461 208.096C51.5236 208.327 51.4624 208.604 51.4624 208.926V212.349ZM58.5321 214.607C58.0736 214.607 57.6676 214.542 57.3141 214.412C56.964 214.283 56.6858 214.094 56.4793 213.845C56.2728 213.597 56.152 213.298 56.117 212.948H57.062C57.125 213.235 57.2826 213.452 57.5346 213.599C57.7901 213.746 58.1226 213.819 58.5321 213.819C59.0361 213.819 59.4246 213.707 59.6977 213.483C59.9707 213.259 60.1072 212.916 60.1072 212.454V211.299H60.0337C59.9322 211.471 59.8254 211.621 59.7134 211.751C59.6014 211.88 59.4334 211.999 59.2094 212.108C58.9889 212.213 58.7106 212.265 58.3746 212.265C57.9091 212.265 57.4926 212.151 57.125 211.924C56.7575 211.696 56.4688 211.369 56.2588 210.942C56.0523 210.512 55.949 210.004 55.949 209.419C55.949 208.845 56.0523 208.343 56.2588 207.913C56.4653 207.482 56.7523 207.151 57.1198 206.92C57.4873 206.689 57.9091 206.574 58.3851 206.574C58.7176 206.574 58.9941 206.628 59.2146 206.737C59.4386 206.845 59.5979 206.957 59.6924 207.073C59.7904 207.185 59.9112 207.344 60.0547 207.55H60.1282V206.647H61.0102V212.507C61.0102 212.979 60.9017 213.371 60.6847 213.683C60.4712 213.998 60.1789 214.23 59.8079 214.381C59.4369 214.531 59.0116 214.607 58.5321 214.607ZM58.5006 211.457C59.0186 211.457 59.4194 211.282 59.7029 210.932C59.9864 210.578 60.1282 210.085 60.1282 209.451C60.1282 209.041 60.0652 208.681 59.9392 208.369C59.8132 208.058 59.6277 207.816 59.3826 207.645C59.1411 207.47 58.8471 207.382 58.5006 207.382C58.1471 207.382 57.8478 207.473 57.6028 207.655C57.3578 207.837 57.1723 208.086 57.0463 208.401C56.9238 208.712 56.8625 209.062 56.8625 209.451C56.8625 209.85 56.9238 210.2 57.0463 210.501C57.1723 210.802 57.3578 211.037 57.6028 211.205C57.8478 211.373 58.1471 211.457 58.5006 211.457ZM64.0507 206.647H65.0063L66.2243 210.995H66.2768L67.4844 206.647H68.4504L69.637 210.974H69.7L70.918 206.647H71.8631L70.1305 212.349H69.2379L67.9989 208.002H67.9149L66.6863 212.349H65.7833L64.0507 206.647ZM72.538 206.647H73.4411V212.349H72.538V206.647ZM72.9895 205.702C72.8145 205.702 72.6658 205.645 72.5433 205.529C72.4208 205.414 72.3595 205.272 72.3595 205.104C72.3595 204.936 72.4208 204.794 72.5433 204.679C72.6658 204.563 72.8145 204.505 72.9895 204.505C73.1646 204.505 73.3151 204.563 73.4411 204.679C73.5671 204.794 73.6301 204.936 73.6301 205.104C73.6301 205.272 73.5671 205.414 73.4411 205.529C73.3151 205.645 73.1646 205.702 72.9895 205.702ZM74.5571 206.647H75.4286V207.519H75.4916C75.5966 207.228 75.7839 206.996 76.0534 206.821C76.3229 206.642 76.6256 206.553 76.9617 206.553C77.1367 206.553 77.2942 206.56 77.4342 206.574V207.487C77.3957 207.473 77.3204 207.459 77.2084 207.445C77.0999 207.431 76.9932 207.424 76.8882 207.424C76.6186 207.424 76.3754 207.482 76.1584 207.598C75.9414 207.713 75.7699 207.872 75.6439 208.075C75.5213 208.278 75.4601 208.506 75.4601 208.758V212.349H74.5571V206.647ZM80.2092 212.465C79.6667 212.465 79.1942 212.344 78.7917 212.102C78.3892 211.861 78.0794 211.52 77.8624 211.079C77.6489 210.638 77.5421 210.127 77.5421 209.546C77.5421 208.964 77.6489 208.45 77.8624 208.002C78.0794 207.55 78.3822 207.2 78.7707 206.952C79.1627 206.7 79.6142 206.574 80.1252 206.574C80.5557 206.574 80.9565 206.67 81.3275 206.863C81.6985 207.052 81.9996 207.36 82.2306 207.787C82.4651 208.21 82.5823 208.754 82.5823 209.419V209.798H78.4452C78.4592 210.193 78.5414 210.531 78.6919 210.811C78.8424 211.091 79.0472 211.304 79.3062 211.451C79.5687 211.595 79.8697 211.667 80.2092 211.667C80.5312 211.667 80.8025 211.607 81.023 211.488C81.247 211.366 81.4168 211.208 81.5323 211.016H82.4983C82.4073 211.303 82.2551 211.556 82.0416 211.777C81.8316 211.994 81.569 212.164 81.254 212.286C80.9425 212.405 80.5942 212.465 80.2092 212.465ZM81.6688 209.031C81.6688 208.712 81.604 208.429 81.4745 208.18C81.3485 207.928 81.1683 207.731 80.9338 207.587C80.6993 207.444 80.4297 207.372 80.1252 207.372C79.8067 207.372 79.5232 207.447 79.2747 207.598C79.0297 207.748 78.8354 207.951 78.6919 208.207C78.5519 208.459 78.4714 208.733 78.4504 209.031H81.6688ZM85.9874 207.403H84.7274V212.349H83.8138V207.403H82.9003V206.647H83.8138V205.87C83.8138 205.566 83.8786 205.303 84.0081 205.083C84.1411 204.859 84.3301 204.687 84.5751 204.568C84.8201 204.449 85.1089 204.39 85.4414 204.39C85.6374 204.39 85.8614 204.411 86.1134 204.453V205.261C85.9454 205.233 85.7879 205.219 85.6409 205.219C85.3259 205.219 85.0949 205.288 84.9479 205.424C84.8009 205.561 84.7274 205.776 84.7274 206.07V206.647H85.9874V207.403ZM86.7359 206.647H87.6074V207.519H87.6704C87.7754 207.228 87.9627 206.996 88.2322 206.821C88.5017 206.642 88.8045 206.553 89.1405 206.553C89.3155 206.553 89.473 206.56 89.613 206.574V207.487C89.5745 207.473 89.4993 207.459 89.3873 207.445C89.2787 207.431 89.172 207.424 89.067 207.424C88.7975 207.424 88.5542 207.482 88.3372 207.598C88.1202 207.713 87.9487 207.872 87.8227 208.075C87.7002 208.278 87.6389 208.506 87.6389 208.758V212.349H86.7359V206.647ZM89.8995 210.732C89.8995 210.141 90.1007 209.724 90.5032 209.482C90.9093 209.241 91.422 209.097 92.0416 209.052C92.2796 209.034 92.5456 209.019 92.8396 209.005C93.1371 208.987 93.3856 208.975 93.5851 208.968V208.506C93.5851 208.138 93.4749 207.857 93.2544 207.661C93.0373 207.461 92.7171 207.361 92.2936 207.361C91.9471 207.361 91.6635 207.433 91.443 207.577C91.2225 207.717 91.079 207.9 91.0125 208.128H90.0675C90.106 207.823 90.225 207.554 90.4245 207.319C90.624 207.085 90.8883 206.903 91.2173 206.773C91.5498 206.64 91.9226 206.574 92.3356 206.574C92.8816 206.574 93.3751 206.714 93.8161 206.994C94.2571 207.27 94.4777 207.802 94.4777 208.59V212.349H93.5851V211.572H93.5431C93.4731 211.719 93.3646 211.863 93.2176 212.003C93.0741 212.139 92.8851 212.255 92.6506 212.349C92.4196 212.44 92.1501 212.486 91.842 212.486C91.478 212.486 91.149 212.416 90.855 212.276C90.561 212.136 90.3282 211.934 90.1567 211.672C89.9852 211.406 89.8995 211.093 89.8995 210.732ZM90.8025 210.774C90.8025 211.065 90.911 211.289 91.128 211.446C91.3485 211.6 91.639 211.677 91.9996 211.677C92.3251 211.677 92.6068 211.612 92.8448 211.483C93.0863 211.353 93.2701 211.182 93.3961 210.968C93.5221 210.755 93.5851 210.526 93.5851 210.281V209.708L92.1466 209.808C91.7195 209.836 91.3888 209.929 91.1543 210.086C90.9198 210.244 90.8025 210.473 90.8025 210.774ZM95.6041 206.647H96.4757V207.54H96.5492C96.6717 207.232 96.8642 206.994 97.1267 206.826C97.3927 206.658 97.7112 206.574 98.0823 206.574C98.4463 206.574 98.756 206.658 99.0115 206.826C99.2671 206.99 99.4648 207.228 99.6048 207.54H99.6678C99.8183 207.239 100.041 207.003 100.335 206.831C100.629 206.66 100.977 206.574 101.379 206.574C101.726 206.574 102.029 206.646 102.288 206.789C102.55 206.933 102.755 207.151 102.902 207.445C103.049 207.736 103.122 208.1 103.122 208.537V212.349H102.219V208.548C102.219 208.152 102.111 207.86 101.894 207.671C101.677 207.479 101.4 207.382 101.064 207.382C100.805 207.382 100.581 207.437 100.392 207.545C100.203 207.654 100.06 207.802 99.9618 207.991C99.8638 208.18 99.8148 208.397 99.8148 208.642V212.349H98.9013V208.453C98.9013 208.243 98.854 208.058 98.7595 207.897C98.665 207.732 98.532 207.606 98.3605 207.519C98.1925 207.428 98.0017 207.382 97.7882 207.382C97.5607 207.382 97.349 207.444 97.153 207.566C96.957 207.685 96.7994 207.851 96.6804 208.065C96.5649 208.278 96.5072 208.52 96.5072 208.789V212.349H95.6041V206.647ZM106.643 212.465C106.101 212.465 105.628 212.344 105.226 212.102C104.823 211.861 104.513 211.52 104.296 211.079C104.083 210.638 103.976 210.127 103.976 209.546C103.976 208.964 104.083 208.45 104.296 208.002C104.513 207.55 104.816 207.2 105.205 206.952C105.597 206.7 106.048 206.574 106.559 206.574C106.99 206.574 107.39 206.67 107.761 206.863C108.132 207.052 108.433 207.36 108.664 207.787C108.899 208.21 109.016 208.754 109.016 209.419V209.798H104.879C104.893 210.193 104.975 210.531 105.126 210.811C105.276 211.091 105.481 211.304 105.74 211.451C106.003 211.595 106.304 211.667 106.643 211.667C106.965 211.667 107.236 211.607 107.457 211.488C107.681 211.366 107.851 211.208 107.966 211.016H108.932C108.841 211.303 108.689 211.556 108.475 211.777C108.265 211.994 108.003 212.164 107.688 212.286C107.376 212.405 107.028 212.465 106.643 212.465ZM108.103 209.031C108.103 208.712 108.038 208.429 107.908 208.18C107.782 207.928 107.602 207.731 107.368 207.587C107.133 207.444 106.864 207.372 106.559 207.372C106.241 207.372 105.957 207.447 105.709 207.598C105.464 207.748 105.269 207.951 105.126 208.207C104.986 208.459 104.905 208.733 104.884 209.031H108.103ZM113.041 208.128C112.974 207.879 112.845 207.687 112.652 207.55C112.463 207.41 112.208 207.34 111.886 207.34C111.655 207.34 111.446 207.379 111.261 207.456C111.079 207.529 110.935 207.633 110.83 207.766C110.729 207.895 110.678 208.04 110.678 208.201C110.678 208.39 110.757 208.551 110.914 208.684C111.075 208.817 111.322 208.922 111.655 208.999L112.505 209.209C113.016 209.332 113.398 209.521 113.65 209.777C113.902 210.029 114.028 210.354 114.028 210.753C114.028 211.086 113.939 211.381 113.76 211.64C113.585 211.896 113.33 212.097 112.994 212.244C112.658 212.391 112.257 212.465 111.791 212.465C111.151 212.465 110.643 212.328 110.269 212.055C109.894 211.779 109.67 211.38 109.597 210.858H110.542C110.594 211.135 110.722 211.341 110.925 211.478C111.128 211.611 111.41 211.677 111.77 211.677C112.176 211.677 112.498 211.598 112.736 211.441C112.974 211.283 113.093 211.072 113.093 210.806C113.093 210.603 113.018 210.435 112.868 210.302C112.717 210.165 112.481 210.06 112.159 209.987L111.298 209.787C110.801 209.672 110.423 209.482 110.164 209.22C109.905 208.957 109.775 208.635 109.775 208.254C109.775 207.932 109.863 207.643 110.038 207.388C110.216 207.132 110.465 206.933 110.783 206.789C111.105 206.646 111.473 206.574 111.886 206.574C112.271 206.574 112.61 206.639 112.904 206.768C113.198 206.898 113.431 207.08 113.603 207.314C113.778 207.549 113.884 207.82 113.923 208.128H113.041Z" fill="#3F3F3F" style="fill:#3F3F3F;fill:color(display-p3 0.2489 0.2489 0.2489);fill-opacity:1;"/>
<path d="M194.763 204.833V211.349H193.403V206.12H193.367L191.873 207.056V205.859L193.484 204.833H194.763ZM196.79 210.557C196.367 210.557 196.025 210.215 196.034 209.801C196.025 209.387 196.367 209.054 196.79 209.054C197.186 209.054 197.537 209.387 197.537 209.801C197.537 210.215 197.186 210.557 196.79 210.557ZM196.79 207.128C196.367 207.128 196.025 206.786 196.034 206.372C196.025 205.958 196.367 205.625 196.79 205.625C197.186 205.625 197.537 205.958 197.537 206.372C197.537 206.786 197.186 207.128 196.79 207.128ZM200.735 211.439C199.304 211.439 198.278 210.647 198.251 209.513H199.619C199.646 209.999 200.114 210.323 200.744 210.323C201.392 210.323 201.86 209.954 201.851 209.432C201.86 208.901 201.383 208.523 200.618 208.523H200.015V207.524H200.618C201.257 207.524 201.707 207.173 201.707 206.66C201.707 206.165 201.329 205.823 200.753 205.823C200.177 205.823 199.7 206.147 199.682 206.642H198.386C198.404 205.517 199.421 204.743 200.753 204.743C202.112 204.743 203.021 205.544 203.012 206.579C203.021 207.308 202.508 207.83 201.779 207.956V208.01C202.733 208.127 203.264 208.712 203.255 209.522C203.264 210.638 202.202 211.439 200.735 211.439ZM206.462 211.439C204.833 211.439 203.842 210.224 203.842 208.091C203.842 205.958 204.833 204.743 206.462 204.743C208.091 204.743 209.081 205.967 209.081 208.091C209.081 210.233 208.091 211.439 206.462 211.439ZM206.462 210.323C207.218 210.323 207.704 209.594 207.695 208.091C207.695 206.606 207.218 205.85 206.462 205.85C205.706 205.85 205.229 206.606 205.229 208.091C205.22 209.594 205.706 210.323 206.462 210.323Z" fill="#3F3F3F" style="fill:#3F3F3F;fill:color(display-p3 0.2489 0.2489 0.2489);fill-opacity:1;"/>
<rect x="23.041" y="223.349" width="22.1443" height="12.2885" rx="3.07213" fill="#F5F5F5" style="fill:#F5F5F5;fill:color(display-p3 0.9621 0.9621 0.9621);fill-opacity:1;"/>
<path d="M26.4133 227.063H30.5085V227.663H28.8059V232.493H28.1234V227.663H26.4133V227.063ZM30.3531 231.338C30.3531 230.916 30.4968 230.618 30.7843 230.446C31.0743 230.273 31.4406 230.171 31.8831 230.138C32.0531 230.126 32.2431 230.114 32.4532 230.104C32.6657 230.092 32.8432 230.083 32.9857 230.078V229.748C32.9857 229.486 32.9069 229.284 32.7494 229.144C32.5944 229.002 32.3656 228.931 32.0631 228.931C31.8156 228.931 31.6131 228.982 31.4556 229.084C31.2981 229.184 31.1956 229.316 31.1481 229.478H30.4731C30.5006 229.261 30.5856 229.068 30.7281 228.901C30.8706 228.733 31.0593 228.603 31.2944 228.51C31.5319 228.415 31.7981 228.368 32.0931 228.368C32.4832 228.368 32.8357 228.468 33.1507 228.668C33.4657 228.866 33.6232 229.246 33.6232 229.808V232.493H32.9857V231.938H32.9557C32.9057 232.043 32.8282 232.146 32.7232 232.246C32.6207 232.343 32.4857 232.426 32.3181 232.493C32.1531 232.558 31.9606 232.591 31.7406 232.591C31.4806 232.591 31.2456 232.541 31.0356 232.441C30.8256 232.341 30.6593 232.197 30.5368 232.009C30.4143 231.819 30.3531 231.596 30.3531 231.338ZM30.9981 231.368C30.9981 231.576 31.0756 231.736 31.2306 231.848C31.3881 231.958 31.5956 232.013 31.8531 232.013C32.0856 232.013 32.2869 231.967 32.4569 231.874C32.6294 231.782 32.7607 231.659 32.8507 231.507C32.9407 231.354 32.9857 231.191 32.9857 231.016V230.607L31.9581 230.678C31.6531 230.698 31.4169 230.764 31.2494 230.877C31.0818 230.989 30.9981 231.153 30.9981 231.368ZM36.6929 229.478C36.6454 229.301 36.5529 229.163 36.4154 229.066C36.2804 228.966 36.0979 228.916 35.8679 228.916C35.7029 228.916 35.5541 228.943 35.4216 228.998C35.2916 229.051 35.1891 229.124 35.1141 229.219C35.0416 229.312 35.0054 229.416 35.0054 229.531C35.0054 229.666 35.0616 229.781 35.1741 229.876C35.2891 229.971 35.4654 230.046 35.7029 230.101L36.3104 230.251C36.6754 230.338 36.9479 230.473 37.128 230.656C37.308 230.836 37.398 231.068 37.398 231.353C37.398 231.591 37.3342 231.802 37.2067 231.987C37.0817 232.169 36.8992 232.313 36.6592 232.418C36.4192 232.523 36.1329 232.576 35.8004 232.576C35.3429 232.576 34.9804 232.478 34.7128 232.283C34.4453 232.086 34.2853 231.801 34.2328 231.428H34.9079C34.9454 231.626 35.0366 231.773 35.1816 231.871C35.3266 231.966 35.5279 232.013 35.7854 232.013C36.0754 232.013 36.3054 231.957 36.4754 231.844C36.6454 231.732 36.7304 231.581 36.7304 231.391C36.7304 231.246 36.6767 231.126 36.5692 231.031C36.4617 230.933 36.2929 230.858 36.0629 230.806L35.4479 230.663C35.0929 230.581 34.8229 230.446 34.6378 230.258C34.4528 230.071 34.3603 229.841 34.3603 229.568C34.3603 229.338 34.4228 229.132 34.5478 228.949C34.6753 228.767 34.8529 228.624 35.0804 228.522C35.3104 228.419 35.5729 228.368 35.8679 228.368C36.1429 228.368 36.3854 228.414 36.5954 228.507C36.8054 228.599 36.9717 228.729 37.0942 228.897C37.2192 229.064 37.2955 229.258 37.323 229.478H36.6929ZM38.0076 227.063H38.6526V230.221H38.7276L40.4902 228.42H41.2852L39.5677 230.164L41.4127 232.493H40.5952L39.0839 230.573L38.6526 230.974V232.493H38.0076V227.063Z" fill="#757575" style="fill:#757575;fill:color(display-p3 0.4588 0.4588 0.4588);fill-opacity:1;"/>
<path d="M173.161 225.977H175.376C175.868 225.977 176.28 226.067 176.613 226.247C176.946 226.427 177.194 226.673 177.356 226.985C177.518 227.294 177.599 227.648 177.599 228.047C177.599 228.443 177.518 228.799 177.356 229.114C177.194 229.426 176.946 229.673 176.613 229.856C176.283 230.036 175.874 230.126 175.385 230.126H173.971V232.493H173.161V225.977ZM175.349 229.406C175.841 229.406 176.205 229.283 176.442 229.037C176.679 228.788 176.798 228.458 176.798 228.047C176.798 227.633 176.679 227.304 176.442 227.061C176.205 226.818 175.838 226.697 175.34 226.697H173.971V229.406H175.349ZM179.131 232.493H178.357V225.977H179.131V232.493ZM179.854 231.107C179.854 230.6 180.026 230.243 180.371 230.036C180.719 229.829 181.159 229.706 181.69 229.667C181.894 229.652 182.122 229.639 182.374 229.627C182.629 229.612 182.842 229.601 183.013 229.595V229.199C183.013 228.884 182.918 228.642 182.729 228.474C182.543 228.303 182.269 228.218 181.906 228.218C181.609 228.218 181.366 228.279 181.177 228.402C180.988 228.522 180.865 228.68 180.808 228.875H179.998C180.031 228.614 180.133 228.383 180.304 228.182C180.475 227.981 180.701 227.825 180.983 227.714C181.268 227.6 181.588 227.543 181.942 227.543C182.41 227.543 182.833 227.663 183.211 227.903C183.589 228.14 183.778 228.596 183.778 229.271V232.493H183.013V231.827H182.977C182.917 231.953 182.824 232.076 182.698 232.196C182.575 232.313 182.413 232.412 182.212 232.493C182.014 232.571 181.783 232.61 181.519 232.61C181.207 232.61 180.925 232.55 180.673 232.43C180.421 232.31 180.221 232.138 180.074 231.913C179.927 231.685 179.854 231.416 179.854 231.107ZM180.628 231.143C180.628 231.392 180.721 231.584 180.907 231.719C181.096 231.851 181.345 231.917 181.654 231.917C181.933 231.917 182.174 231.862 182.378 231.751C182.585 231.64 182.743 231.493 182.851 231.31C182.959 231.127 183.013 230.93 183.013 230.72V230.23L181.78 230.315C181.414 230.339 181.13 230.419 180.929 230.554C180.728 230.689 180.628 230.885 180.628 231.143ZM185.518 232.493H184.743V227.606H185.491V228.371H185.554C185.677 228.11 185.855 227.907 186.089 227.763C186.326 227.616 186.625 227.543 186.985 227.543C187.321 227.543 187.612 227.612 187.858 227.75C188.104 227.885 188.294 228.09 188.429 228.366C188.564 228.642 188.632 228.983 188.632 229.388V232.493H187.858V229.442C187.858 229.064 187.76 228.769 187.565 228.555C187.37 228.342 187.099 228.236 186.751 228.236C186.511 228.236 186.298 228.288 186.112 228.393C185.926 228.495 185.78 228.647 185.675 228.848C185.57 229.046 185.518 229.283 185.518 229.559V232.493ZM190.146 232.547C190.041 232.547 189.944 232.522 189.854 232.471C189.767 232.417 189.696 232.345 189.642 232.255C189.591 232.165 189.567 232.067 189.57 231.962C189.567 231.86 189.591 231.766 189.642 231.679C189.696 231.589 189.767 231.518 189.854 231.467C189.944 231.413 190.041 231.386 190.146 231.386C190.248 231.386 190.343 231.413 190.43 231.467C190.52 231.518 190.59 231.589 190.641 231.679C190.695 231.766 190.722 231.86 190.722 231.962C190.722 232.067 190.695 232.165 190.641 232.255C190.59 232.345 190.52 232.417 190.43 232.471C190.343 232.522 190.248 232.547 190.146 232.547ZM190.146 228.929C190.041 228.929 189.944 228.904 189.854 228.853C189.767 228.799 189.696 228.727 189.642 228.636C189.591 228.546 189.567 228.449 189.57 228.344C189.567 228.242 189.591 228.147 189.642 228.06C189.696 227.97 189.767 227.9 189.854 227.849C189.944 227.795 190.041 227.768 190.146 227.768C190.248 227.768 190.343 227.795 190.43 227.849C190.52 227.9 190.59 227.97 190.641 228.06C190.695 228.147 190.722 228.242 190.722 228.344C190.722 228.449 190.695 228.546 190.641 228.636C190.59 228.727 190.52 228.799 190.43 228.853C190.343 228.904 190.248 228.929 190.146 228.929ZM195.993 232.493H195.173V226.823H195.137L193.553 227.876V227.057L195.173 225.977H195.993V232.493ZM198.011 231.629C197.906 231.629 197.809 231.604 197.719 231.553C197.632 231.499 197.561 231.427 197.507 231.337C197.456 231.247 197.432 231.149 197.435 231.044C197.432 230.942 197.456 230.848 197.507 230.761C197.561 230.671 197.632 230.6 197.719 230.549C197.809 230.495 197.906 230.468 198.011 230.468C198.113 230.468 198.208 230.495 198.295 230.549C198.385 230.6 198.455 230.671 198.506 230.761C198.56 230.848 198.587 230.942 198.587 231.044C198.587 231.149 198.56 231.247 198.506 231.337C198.455 231.427 198.385 231.499 198.295 231.553C198.208 231.604 198.113 231.629 198.011 231.629ZM198.011 228.011C197.906 228.011 197.809 227.985 197.719 227.934C197.632 227.88 197.561 227.808 197.507 227.718C197.456 227.628 197.432 227.531 197.435 227.426C197.432 227.324 197.456 227.229 197.507 227.142C197.561 227.052 197.632 226.982 197.719 226.931C197.809 226.877 197.906 226.85 198.011 226.85C198.113 226.85 198.208 226.877 198.295 226.931C198.385 226.982 198.455 227.052 198.506 227.142C198.56 227.229 198.587 227.324 198.587 227.426C198.587 227.531 198.56 227.628 198.506 227.718C198.455 227.808 198.385 227.88 198.295 227.934C198.208 227.985 198.113 228.011 198.011 228.011ZM201.65 232.583C201.17 232.583 200.759 232.453 200.417 232.192C200.078 231.931 199.818 231.55 199.638 231.049C199.461 230.548 199.373 229.943 199.373 229.235C199.373 228.536 199.463 227.936 199.643 227.435C199.823 226.931 200.084 226.547 200.426 226.283C200.768 226.019 201.176 225.887 201.65 225.887C202.124 225.887 202.532 226.019 202.874 226.283C203.216 226.547 203.477 226.931 203.657 227.435C203.837 227.936 203.927 228.536 203.927 229.235C203.927 229.943 203.837 230.548 203.657 231.049C203.48 231.55 203.22 231.931 202.878 232.192C202.536 232.453 202.127 232.583 201.65 232.583ZM201.65 231.863C201.962 231.863 202.229 231.761 202.451 231.557C202.673 231.353 202.842 231.055 202.959 230.662C203.076 230.269 203.135 229.793 203.135 229.235C203.135 228.677 203.076 228.2 202.959 227.804C202.842 227.408 202.673 227.106 202.451 226.899C202.229 226.692 201.962 226.589 201.65 226.589C201.338 226.589 201.069 226.692 200.844 226.899C200.622 227.106 200.451 227.408 200.331 227.804C200.214 228.2 200.156 228.677 200.156 229.235C200.156 229.793 200.214 230.269 200.331 230.662C200.448 231.055 200.618 231.353 200.84 231.557C201.065 231.761 201.335 231.863 201.65 231.863ZM206.864 232.583C206.384 232.583 205.973 232.453 205.631 232.192C205.291 231.931 205.032 231.55 204.852 231.049C204.675 230.548 204.586 229.943 204.586 229.235C204.586 228.536 204.676 227.936 204.856 227.435C205.036 226.931 205.297 226.547 205.64 226.283C205.982 226.019 206.39 225.887 206.864 225.887C207.338 225.887 207.746 226.019 208.088 226.283C208.43 226.547 208.691 226.931 208.871 227.435C209.051 227.936 209.141 228.536 209.141 229.235C209.141 229.943 209.051 230.548 208.871 231.049C208.694 231.55 208.434 231.931 208.092 232.192C207.75 232.453 207.341 232.583 206.864 232.583ZM206.864 231.863C207.176 231.863 207.443 231.761 207.665 231.557C207.887 231.353 208.056 231.055 208.173 230.662C208.29 230.269 208.349 229.793 208.349 229.235C208.349 228.677 208.29 228.2 208.173 227.804C208.056 227.408 207.887 227.106 207.665 226.899C207.443 226.692 207.176 226.589 206.864 226.589C206.552 226.589 206.283 226.692 206.058 226.899C205.836 227.106 205.665 227.408 205.545 227.804C205.428 228.2 205.369 228.677 205.369 229.235C205.369 229.793 205.428 230.269 205.545 230.662C205.662 231.055 205.832 231.353 206.054 231.557C206.279 231.761 206.549 231.863 206.864 231.863Z" fill="#3F3F3F" style="fill:#3F3F3F;fill:color(display-p3 0.2489 0.2489 0.2489);fill-opacity:1;"/>
<path d="M171.386 250.516H169.649V249.787H171.386V248.05H172.115V249.787H173.861V250.516H172.115V252.262H171.386V250.516ZM182.632 250.147C182.632 250.822 182.509 251.413 182.263 251.92C182.017 252.424 181.675 252.813 181.237 253.086C180.802 253.359 180.307 253.495 179.752 253.495C179.194 253.495 178.698 253.359 178.263 253.086C177.828 252.813 177.487 252.424 177.241 251.92C176.995 251.413 176.872 250.822 176.872 250.147C176.872 249.472 176.995 248.883 177.241 248.379C177.487 247.872 177.828 247.482 178.263 247.209C178.698 246.935 179.194 246.799 179.752 246.799C180.307 246.799 180.802 246.935 181.237 247.209C181.675 247.482 182.017 247.872 182.263 248.379C182.509 248.883 182.632 249.472 182.632 250.147ZM181.849 250.147C181.849 249.601 181.758 249.133 181.575 248.743C181.392 248.353 181.141 248.058 180.823 247.857C180.508 247.656 180.151 247.555 179.752 247.555C179.353 247.555 178.995 247.656 178.677 247.857C178.362 248.058 178.113 248.353 177.93 248.743C177.747 249.133 177.655 249.601 177.655 250.147C177.655 250.693 177.747 251.161 177.93 251.551C178.113 251.941 178.362 252.237 178.677 252.438C178.995 252.639 179.353 252.739 179.752 252.739C180.151 252.739 180.508 252.639 180.823 252.438C181.141 252.237 181.392 251.941 181.575 251.551C181.758 251.161 181.849 250.693 181.849 250.147ZM185.659 253.405H184.858L183.058 248.518H183.904L185.236 252.397H185.29L186.622 248.518H187.468L185.659 253.405ZM189.919 253.504C189.454 253.504 189.049 253.401 188.704 253.194C188.359 252.987 188.093 252.694 187.907 252.316C187.724 251.938 187.632 251.5 187.632 251.002C187.632 250.504 187.724 250.063 187.907 249.679C188.093 249.292 188.353 248.992 188.686 248.779C189.022 248.563 189.409 248.455 189.847 248.455C190.216 248.455 190.559 248.538 190.877 248.703C191.195 248.865 191.453 249.129 191.651 249.495C191.852 249.858 191.953 250.324 191.953 250.894V251.218H188.407C188.419 251.557 188.489 251.847 188.618 252.087C188.747 252.327 188.923 252.51 189.145 252.636C189.37 252.759 189.628 252.82 189.919 252.82C190.195 252.82 190.427 252.769 190.616 252.667C190.808 252.562 190.954 252.427 191.053 252.262H191.881C191.803 252.508 191.672 252.726 191.489 252.915C191.309 253.101 191.084 253.246 190.814 253.351C190.547 253.453 190.249 253.504 189.919 253.504ZM191.17 250.561C191.17 250.288 191.114 250.045 191.003 249.832C190.895 249.616 190.741 249.447 190.54 249.324C190.339 249.201 190.108 249.139 189.847 249.139C189.574 249.139 189.331 249.204 189.118 249.333C188.908 249.462 188.741 249.636 188.618 249.855C188.498 250.071 188.429 250.306 188.411 250.561H191.17ZM192.684 248.518H193.431V249.265H193.485C193.575 249.016 193.736 248.817 193.967 248.667C194.198 248.514 194.457 248.437 194.745 248.437C194.895 248.437 195.03 248.443 195.15 248.455V249.238C195.117 249.226 195.053 249.214 194.957 249.202C194.864 249.19 194.772 249.184 194.682 249.184C194.451 249.184 194.243 249.234 194.057 249.333C193.871 249.432 193.724 249.568 193.616 249.742C193.511 249.916 193.458 250.111 193.458 250.327V253.405H192.684V248.518ZM197.322 253.504C196.917 253.504 196.557 253.401 196.242 253.194C195.93 252.987 195.685 252.693 195.508 252.312C195.331 251.928 195.243 251.482 195.243 250.975C195.243 250.468 195.331 250.024 195.508 249.643C195.685 249.262 195.931 248.97 196.246 248.766C196.561 248.559 196.923 248.455 197.331 248.455C197.619 248.455 197.857 248.503 198.046 248.599C198.235 248.692 198.375 248.793 198.465 248.901C198.555 249.006 198.648 249.136 198.744 249.292H198.798V246.889H199.581V253.405H198.825V252.658H198.744C198.642 252.817 198.545 252.951 198.451 253.059C198.361 253.167 198.222 253.269 198.033 253.365C197.844 253.458 197.607 253.504 197.322 253.504ZM197.43 252.811C197.721 252.811 197.971 252.735 198.181 252.582C198.391 252.426 198.551 252.208 198.659 251.929C198.77 251.647 198.825 251.323 198.825 250.957C198.825 250.594 198.771 250.278 198.663 250.008C198.558 249.735 198.4 249.523 198.19 249.373C197.98 249.223 197.727 249.148 197.43 249.148C197.127 249.148 196.87 249.228 196.66 249.387C196.45 249.543 196.291 249.757 196.183 250.03C196.078 250.303 196.026 250.612 196.026 250.957C196.026 251.311 196.078 251.629 196.183 251.911C196.291 252.19 196.45 252.411 196.66 252.573C196.873 252.732 197.13 252.811 197.43 252.811ZM203.733 248.518H204.498V253.405H203.733V252.577H203.679C203.553 252.844 203.367 253.06 203.121 253.225C202.878 253.387 202.581 253.468 202.23 253.468C201.915 253.468 201.639 253.401 201.402 253.266C201.165 253.128 200.979 252.921 200.844 252.645C200.712 252.369 200.646 252.028 200.646 251.623V248.518H201.42V251.569C201.42 251.8 201.465 252.003 201.555 252.177C201.645 252.351 201.769 252.486 201.928 252.582C202.09 252.675 202.275 252.721 202.482 252.721C202.677 252.721 202.87 252.672 203.062 252.573C203.257 252.474 203.418 252.325 203.544 252.127C203.67 251.926 203.733 251.683 203.733 251.398V248.518ZM207.515 253.504C207.05 253.504 206.645 253.401 206.3 253.194C205.955 252.987 205.69 252.694 205.504 252.316C205.321 251.938 205.229 251.5 205.229 251.002C205.229 250.504 205.321 250.063 205.504 249.679C205.69 249.292 205.949 248.992 206.282 248.779C206.618 248.563 207.005 248.455 207.443 248.455C207.812 248.455 208.156 248.538 208.474 248.703C208.792 248.865 209.05 249.129 209.248 249.495C209.449 249.858 209.55 250.324 209.55 250.894V251.218H206.003C206.015 251.557 206.086 251.847 206.215 252.087C206.344 252.327 206.519 252.51 206.741 252.636C206.966 252.759 207.224 252.82 207.515 252.82C207.791 252.82 208.024 252.769 208.213 252.667C208.405 252.562 208.55 252.427 208.649 252.262H209.478C209.4 252.508 209.269 252.726 209.086 252.915C208.906 253.101 208.681 253.246 208.411 253.351C208.144 253.453 207.845 253.504 207.515 253.504ZM208.766 250.561C208.766 250.288 208.711 250.045 208.6 249.832C208.492 249.616 208.337 249.447 208.136 249.324C207.935 249.201 207.704 249.139 207.443 249.139C207.17 249.139 206.927 249.204 206.714 249.333C206.504 249.462 206.338 249.636 206.215 249.855C206.095 250.071 206.026 250.306 206.008 250.561H208.766Z" fill="#FF6650" style="fill:#FF6650;fill:color(display-p3 1.0000 0.4000 0.3137);fill-opacity:1;"/>
<line x1="23.041" y1="262.99" x2="210.441" y2="262.991" stroke="#E6E8E8" style="stroke:#E6E8E8;stroke:color(display-p3 0.9020 0.9098 0.9098);stroke-opacity:1;" stroke-width="0.768033"/>
<path d="M23.8811 283.133H26.4642C27.0382 283.133 27.5195 283.238 27.908 283.448C28.2965 283.658 28.5853 283.945 28.7743 284.309C28.9633 284.67 29.0578 285.083 29.0578 285.548C29.0578 286.01 28.9633 286.425 28.7743 286.792C28.5853 287.156 28.2965 287.445 27.908 287.659C27.523 287.869 27.0452 287.974 26.4747 287.974H24.8261V290.735H23.8811V283.133ZM26.4327 287.134C27.0067 287.134 27.432 286.99 27.7085 286.703C27.985 286.413 28.1232 286.028 28.1232 285.548C28.1232 285.065 27.985 284.682 27.7085 284.398C27.432 284.115 27.0032 283.973 26.4222 283.973H24.8261V287.134H26.4327ZM29.9428 285.034H30.8458V290.735H29.9428V285.034ZM30.3943 284.089C30.2193 284.089 30.0705 284.031 29.948 283.915C29.8255 283.8 29.7642 283.658 29.7642 283.49C29.7642 283.322 29.8255 283.18 29.948 283.065C30.0705 282.949 30.2193 282.892 30.3943 282.892C30.5693 282.892 30.7198 282.949 30.8458 283.065C30.9718 283.18 31.0348 283.322 31.0348 283.49C31.0348 283.658 30.9718 283.8 30.8458 283.915C30.7198 284.031 30.5693 284.089 30.3943 284.089ZM32.8648 290.735H31.9618V283.133H32.8648V290.735ZM33.7078 289.118C33.7078 288.527 33.909 288.11 34.3116 287.869C34.7176 287.627 35.2304 287.484 35.8499 287.438C36.0879 287.421 36.3539 287.405 36.6479 287.391C36.9454 287.373 37.1939 287.361 37.3934 287.354V286.892C37.3934 286.525 37.2832 286.243 37.0627 286.047C36.8457 285.847 36.5254 285.748 36.1019 285.748C35.7554 285.748 35.4719 285.819 35.2514 285.963C35.0308 286.103 34.8873 286.287 34.8208 286.514H33.8758C33.9143 286.21 34.0333 285.94 34.2328 285.706C34.4323 285.471 34.6966 285.289 35.0256 285.16C35.3581 285.027 35.7309 284.96 36.1439 284.96C36.6899 284.96 37.1834 285.1 37.6245 285.38C38.0655 285.657 38.286 286.189 38.286 286.976V290.735H37.3934V289.958H37.3514C37.2814 290.105 37.1729 290.249 37.0259 290.389C36.8824 290.525 36.6934 290.641 36.4589 290.735C36.2279 290.826 35.9584 290.872 35.6504 290.872C35.2864 290.872 34.9573 290.802 34.6633 290.662C34.3693 290.522 34.1366 290.321 33.9651 290.058C33.7935 289.792 33.7078 289.479 33.7078 289.118ZM34.6108 289.16C34.6108 289.451 34.7193 289.675 34.9363 289.832C35.1569 289.986 35.4474 290.063 35.8079 290.063C36.1334 290.063 36.4152 289.999 36.6532 289.869C36.8947 289.74 37.0784 289.568 37.2044 289.355C37.3304 289.141 37.3934 288.912 37.3934 288.667V288.094L35.9549 288.194C35.5279 288.222 35.1971 288.315 34.9626 288.473C34.7281 288.63 34.6108 288.859 34.6108 289.16ZM41.9011 285.79H40.704V289.097C40.704 289.433 40.7705 289.659 40.9035 289.775C41.0365 289.89 41.2186 289.948 41.4496 289.948C41.6246 289.948 41.8031 289.941 41.9851 289.927V290.767C41.8031 290.795 41.5931 290.809 41.3551 290.809C41.089 290.809 40.837 290.755 40.599 290.646C40.361 290.534 40.1668 290.366 40.0163 290.142C39.8657 289.918 39.7905 289.647 39.7905 289.328V285.79H38.9295V285.034H39.7905V283.669H40.704V285.034H41.9011V285.79ZM45.0857 290.851C44.5431 290.851 44.0706 290.73 43.6681 290.489C43.2656 290.247 42.9558 289.906 42.7388 289.465C42.5253 289.024 42.4185 288.513 42.4185 287.932C42.4185 287.351 42.5253 286.836 42.7388 286.388C42.9558 285.937 43.2586 285.587 43.6471 285.338C44.0391 285.086 44.4906 284.96 45.0017 284.96C45.4322 284.96 45.8329 285.056 46.204 285.249C46.575 285.438 46.876 285.746 47.107 286.173C47.3415 286.596 47.4588 287.141 47.4588 287.806V288.184H43.3216C43.3356 288.579 43.4178 288.917 43.5683 289.197C43.7188 289.477 43.9236 289.691 44.1826 289.838C44.4451 289.981 44.7461 290.053 45.0857 290.053C45.4077 290.053 45.6789 289.993 45.8994 289.874C46.1235 289.752 46.2932 289.594 46.4087 289.402H47.3748C47.2838 289.689 47.1315 289.943 46.918 290.163C46.708 290.38 46.4455 290.55 46.1305 290.672C45.8189 290.791 45.4707 290.851 45.0857 290.851ZM46.5452 287.417C46.5452 287.099 46.4805 286.815 46.351 286.567C46.225 286.315 46.0447 286.117 45.8102 285.973C45.5757 285.83 45.3062 285.758 45.0017 285.758C44.6831 285.758 44.3996 285.833 44.1511 285.984C43.9061 286.134 43.7118 286.337 43.5683 286.593C43.4283 286.845 43.3478 287.12 43.3268 287.417H46.5452ZM51.4834 286.514C51.4169 286.266 51.2874 286.073 51.0949 285.937C50.9058 285.797 50.6503 285.727 50.3283 285.727C50.0973 285.727 49.889 285.765 49.7035 285.842C49.5215 285.916 49.378 286.019 49.273 286.152C49.1715 286.281 49.1208 286.427 49.1208 286.588C49.1208 286.777 49.1995 286.938 49.357 287.071C49.518 287.204 49.7648 287.309 50.0973 287.386L50.9478 287.596C51.4589 287.718 51.8404 287.907 52.0924 288.163C52.3444 288.415 52.4704 288.74 52.4704 289.139C52.4704 289.472 52.3812 289.768 52.2026 290.027C52.0276 290.282 51.7721 290.483 51.4361 290.63C51.1001 290.777 50.6993 290.851 50.2338 290.851C49.5933 290.851 49.0858 290.714 48.7112 290.441C48.3367 290.165 48.1127 289.766 48.0392 289.244H48.9843C49.0368 289.521 49.1645 289.727 49.3675 289.864C49.5705 289.997 49.8523 290.063 50.2128 290.063C50.6188 290.063 50.9408 289.985 51.1789 289.827C51.4169 289.67 51.5359 289.458 51.5359 289.192C51.5359 288.989 51.4606 288.821 51.3101 288.688C51.1596 288.551 50.9233 288.446 50.6013 288.373L49.7403 288.173C49.2433 288.058 48.8653 287.869 48.6062 287.606C48.3472 287.344 48.2177 287.022 48.2177 286.64C48.2177 286.318 48.3052 286.029 48.4802 285.774C48.6587 285.518 48.9073 285.319 49.2258 285.175C49.5478 285.032 49.9153 284.96 50.3283 284.96C50.7133 284.96 51.0528 285.025 51.3469 285.154C51.6409 285.284 51.8736 285.466 52.0451 285.7C52.2201 285.935 52.3269 286.206 52.3654 286.514H51.4834Z" fill="#121212" style="fill:#121212;fill:color(display-p3 0.0714 0.0714 0.0714);fill-opacity:1;"/>
<path d="M194.763 283.219V289.735H193.403V284.506H193.367L191.873 285.442V284.245L193.484 283.219H194.763ZM196.79 288.943C196.367 288.943 196.025 288.601 196.034 288.187C196.025 287.773 196.367 287.44 196.79 287.44C197.186 287.44 197.537 287.773 197.537 288.187C197.537 288.601 197.186 288.943 196.79 288.943ZM196.79 285.514C196.367 285.514 196.025 285.172 196.034 284.758C196.025 284.344 196.367 284.011 196.79 284.011C197.186 284.011 197.537 284.344 197.537 284.758C197.537 285.172 197.186 285.514 196.79 285.514ZM200.852 289.825C199.223 289.825 198.233 288.61 198.233 286.477C198.233 284.344 199.223 283.129 200.852 283.129C202.481 283.129 203.471 284.353 203.471 286.477C203.471 288.619 202.481 289.825 200.852 289.825ZM200.852 288.709C201.608 288.709 202.094 287.98 202.085 286.477C202.085 284.992 201.608 284.236 200.852 284.236C200.096 284.236 199.619 284.992 199.619 286.477C199.61 287.98 200.096 288.709 200.852 288.709ZM206.66 289.825C205.031 289.825 204.041 288.61 204.041 286.477C204.041 284.344 205.031 283.129 206.66 283.129C208.289 283.129 209.279 284.353 209.279 286.477C209.279 288.619 208.289 289.825 206.66 289.825ZM206.66 288.709C207.416 288.709 207.902 287.98 207.893 286.477C207.893 284.992 207.416 284.236 206.66 284.236C205.904 284.236 205.427 284.992 205.427 286.477C205.418 287.98 205.904 288.709 206.66 288.709Z" fill="#121212" style="fill:#121212;fill:color(display-p3 0.0714 0.0714 0.0714);fill-opacity:1;"/>
<rect x="23.041" y="301.735" width="34.1443" height="12.2885" rx="3.07213" fill="#F5F5F5" style="fill:#F5F5F5;fill:color(display-p3 0.9621 0.9621 0.9621);fill-opacity:1;"/>
<path d="M26.7133 305.449H30.0059V306.049H27.3883V307.864H29.8334V308.457H27.3883V310.279H30.0434V310.879H26.7133V305.449ZM32.2056 308.464L33.1732 306.807H33.9157L32.6032 308.839L33.9157 310.879H33.1807L32.2056 309.304L31.2456 310.879H30.5031L31.7856 308.839L30.5031 306.807H31.2456L32.2056 308.464ZM36.0104 310.962C35.6229 310.962 35.2854 310.876 34.9979 310.703C34.7103 310.531 34.4891 310.287 34.3341 309.972C34.1816 309.657 34.1053 309.292 34.1053 308.877C34.1053 308.462 34.1816 308.094 34.3341 307.774C34.4891 307.452 34.7053 307.202 34.9829 307.024C35.2629 306.844 35.5854 306.754 35.9504 306.754C36.2579 306.754 36.5442 306.823 36.8092 306.96C37.0742 307.095 37.2892 307.315 37.4542 307.621C37.6217 307.923 37.7055 308.312 37.7055 308.787V309.057H34.7504C34.7604 309.339 34.8191 309.581 34.9266 309.781C35.0341 309.981 35.1804 310.133 35.3654 310.238C35.5529 310.341 35.7679 310.392 36.0104 310.392C36.2404 310.392 36.4342 310.349 36.5917 310.264C36.7517 310.177 36.8729 310.064 36.9554 309.927H37.6455C37.5805 310.132 37.4717 310.313 37.3192 310.471C37.1692 310.626 36.9817 310.747 36.7567 310.834C36.5342 310.919 36.2854 310.962 36.0104 310.962ZM37.0529 308.509C37.0529 308.282 37.0067 308.079 36.9142 307.902C36.8242 307.722 36.6954 307.581 36.5279 307.478C36.3604 307.375 36.1679 307.324 35.9504 307.324C35.7229 307.324 35.5204 307.378 35.3429 307.485C35.1679 307.593 35.0291 307.738 34.9266 307.921C34.8266 308.101 34.7691 308.297 34.7541 308.509H37.0529ZM38.3151 306.807H38.9376V307.429H38.9826C39.0576 307.222 39.1914 307.055 39.3839 306.93C39.5764 306.803 39.7927 306.739 40.0327 306.739C40.1577 306.739 40.2702 306.744 40.3702 306.754V307.407C40.3427 307.397 40.2889 307.387 40.2089 307.377C40.1314 307.367 40.0552 307.362 39.9802 307.362C39.7877 307.362 39.6139 307.403 39.4589 307.485C39.3039 307.568 39.1814 307.682 39.0914 307.827C39.0039 307.972 38.9601 308.134 38.9601 308.314V310.879H38.3151V306.807ZM42.3074 310.962C41.9299 310.962 41.5998 310.873 41.3173 310.696C41.0373 310.516 40.8223 310.267 40.6723 309.949C40.5223 309.632 40.4473 309.269 40.4473 308.862C40.4473 308.452 40.5235 308.088 40.6761 307.771C40.8311 307.45 41.0473 307.202 41.3248 307.024C41.6048 306.844 41.9274 306.754 42.2924 306.754C42.5799 306.754 42.8399 306.808 43.0724 306.915C43.3049 307.02 43.4937 307.17 43.6387 307.365C43.7862 307.558 43.8774 307.782 43.9124 308.037H43.2674C43.2374 307.907 43.1799 307.788 43.0949 307.681C43.0099 307.573 42.8999 307.487 42.7649 307.422C42.6324 307.357 42.4799 307.324 42.3074 307.324C42.0674 307.324 41.8549 307.387 41.6698 307.512C41.4873 307.637 41.3448 307.814 41.2423 308.044C41.1423 308.272 41.0923 308.537 41.0923 308.839C41.0923 309.152 41.1411 309.424 41.2386 309.657C41.3386 309.889 41.4798 310.069 41.6623 310.197C41.8474 310.322 42.0624 310.384 42.3074 310.384C42.5499 310.384 42.7561 310.323 42.9261 310.201C43.0987 310.076 43.2124 309.902 43.2674 309.679H43.9124C43.8774 309.924 43.7899 310.144 43.6499 310.339C43.5099 310.532 43.3249 310.684 43.0949 310.797C42.8649 310.907 42.6024 310.962 42.3074 310.962ZM44.4771 306.807H45.1221V310.879H44.4771V306.807ZM44.7996 306.132C44.6746 306.132 44.5683 306.09 44.4808 306.008C44.3933 305.925 44.3496 305.824 44.3496 305.704C44.3496 305.584 44.3933 305.483 44.4808 305.4C44.5683 305.318 44.6746 305.277 44.7996 305.277C44.9246 305.277 45.0321 305.318 45.1221 305.4C45.2121 305.483 45.2571 305.584 45.2571 305.704C45.2571 305.824 45.2121 305.925 45.1221 306.008C45.0321 306.09 44.9246 306.132 44.7996 306.132ZM48.1843 307.864C48.1368 307.687 48.0443 307.549 47.9068 307.452C47.7718 307.352 47.5893 307.302 47.3593 307.302C47.1943 307.302 47.0455 307.329 46.913 307.384C46.783 307.437 46.6805 307.511 46.6055 307.606C46.533 307.698 46.4968 307.802 46.4968 307.917C46.4968 308.052 46.553 308.167 46.6655 308.262C46.7805 308.357 46.9568 308.432 47.1943 308.487L47.8018 308.637C48.1668 308.724 48.4393 308.859 48.6193 309.042C48.7993 309.222 48.8894 309.454 48.8894 309.739C48.8894 309.977 48.8256 310.188 48.6981 310.373C48.5731 310.556 48.3906 310.699 48.1506 310.804C47.9106 310.909 47.6243 310.962 47.2918 310.962C46.8343 310.962 46.4718 310.864 46.2042 310.669C45.9367 310.472 45.7767 310.187 45.7242 309.814H46.3992C46.4367 310.012 46.528 310.159 46.673 310.257C46.818 310.352 47.0193 310.399 47.2768 310.399C47.5668 310.399 47.7968 310.343 47.9668 310.231C48.1368 310.118 48.2218 309.967 48.2218 309.777C48.2218 309.632 48.1681 309.512 48.0606 309.417C47.9531 309.319 47.7843 309.244 47.5543 309.192L46.9393 309.049C46.5843 308.967 46.3142 308.832 46.1292 308.644C45.9442 308.457 45.8517 308.227 45.8517 307.954C45.8517 307.724 45.9142 307.518 46.0392 307.335C46.1667 307.153 46.3442 307.01 46.5718 306.908C46.8018 306.805 47.0643 306.754 47.3593 306.754C47.6343 306.754 47.8768 306.8 48.0868 306.893C48.2968 306.985 48.4631 307.115 48.5856 307.283C48.7106 307.45 48.7868 307.644 48.8144 307.864H48.1843ZM51.2091 310.962C50.8215 310.962 50.484 310.876 50.1965 310.703C49.909 310.531 49.6877 310.287 49.5327 309.972C49.3802 309.657 49.304 309.292 49.304 308.877C49.304 308.462 49.3802 308.094 49.5327 307.774C49.6877 307.452 49.904 307.202 50.1815 307.024C50.4615 306.844 50.784 306.754 51.149 306.754C51.4566 306.754 51.7428 306.823 52.0078 306.96C52.2728 307.095 52.4879 307.315 52.6529 307.621C52.8204 307.923 52.9041 308.312 52.9041 308.787V309.057H49.949C49.959 309.339 50.0178 309.581 50.1253 309.781C50.2328 309.981 50.379 310.133 50.564 310.238C50.7515 310.341 50.9665 310.392 51.2091 310.392C51.4391 310.392 51.6328 310.349 51.7903 310.264C51.9503 310.177 52.0716 310.064 52.1541 309.927H52.8441C52.7791 310.132 52.6704 310.313 52.5179 310.471C52.3679 310.626 52.1803 310.747 51.9553 310.834C51.7328 310.919 51.4841 310.962 51.2091 310.962ZM52.2516 308.509C52.2516 308.282 52.2053 308.079 52.1128 307.902C52.0228 307.722 51.8941 307.581 51.7266 307.478C51.5591 307.375 51.3666 307.324 51.149 307.324C50.9215 307.324 50.719 307.378 50.5415 307.485C50.3665 307.593 50.2278 307.738 50.1253 307.921C50.0253 308.101 49.9677 308.297 49.9527 308.509H52.2516Z" fill="#757575" style="fill:#757575;fill:color(display-p3 0.4588 0.4588 0.4588);fill-opacity:1;"/>
<path d="M173.161 304.363H175.376C175.868 304.363 176.28 304.453 176.613 304.633C176.946 304.813 177.194 305.059 177.356 305.371C177.518 305.68 177.599 306.034 177.599 306.433C177.599 306.829 177.518 307.185 177.356 307.5C177.194 307.812 176.946 308.059 176.613 308.242C176.283 308.422 175.874 308.512 175.385 308.512H173.971V310.879H173.161V304.363ZM175.349 307.792C175.841 307.792 176.205 307.669 176.442 307.423C176.679 307.174 176.798 306.844 176.798 306.433C176.798 306.019 176.679 305.691 176.442 305.448C176.205 305.205 175.838 305.083 175.34 305.083H173.971V307.792H175.349ZM179.131 310.879H178.357V304.363H179.131V310.879ZM179.854 309.493C179.854 308.986 180.026 308.629 180.371 308.422C180.719 308.215 181.159 308.092 181.69 308.053C181.894 308.038 182.122 308.025 182.374 308.013C182.629 307.998 182.842 307.987 183.013 307.981V307.585C183.013 307.27 182.918 307.029 182.729 306.861C182.543 306.69 182.269 306.604 181.906 306.604C181.609 306.604 181.366 306.666 181.177 306.789C180.988 306.909 180.865 307.066 180.808 307.261H179.998C180.031 307 180.133 306.769 180.304 306.568C180.475 306.367 180.701 306.211 180.983 306.1C181.268 305.986 181.588 305.929 181.942 305.929C182.41 305.929 182.833 306.049 183.211 306.289C183.589 306.526 183.778 306.982 183.778 307.657V310.879H183.013V310.213H182.977C182.917 310.339 182.824 310.462 182.698 310.582C182.575 310.699 182.413 310.798 182.212 310.879C182.014 310.957 181.783 310.996 181.519 310.996C181.207 310.996 180.925 310.936 180.673 310.816C180.421 310.696 180.221 310.524 180.074 310.299C179.927 310.071 179.854 309.802 179.854 309.493ZM180.628 309.529C180.628 309.778 180.721 309.97 180.907 310.105C181.096 310.237 181.345 310.303 181.654 310.303C181.933 310.303 182.174 310.248 182.378 310.137C182.585 310.026 182.743 309.879 182.851 309.696C182.959 309.513 183.013 309.316 183.013 309.106V308.616L181.78 308.701C181.414 308.725 181.13 308.805 180.929 308.94C180.728 309.075 180.628 309.271 180.628 309.529ZM185.518 310.879H184.743V305.992H185.491V306.757H185.554C185.677 306.496 185.855 306.294 186.089 306.15C186.326 306.003 186.625 305.929 186.985 305.929C187.321 305.929 187.612 305.998 187.858 306.136C188.104 306.271 188.294 306.477 188.429 306.753C188.564 307.029 188.632 307.369 188.632 307.774V310.879H187.858V307.828C187.858 307.45 187.76 307.155 187.565 306.942C187.37 306.729 187.099 306.622 186.751 306.622C186.511 306.622 186.298 306.675 186.112 306.78C185.926 306.882 185.78 307.033 185.675 307.234C185.57 307.432 185.518 307.669 185.518 307.945V310.879ZM190.146 310.933C190.041 310.933 189.944 310.908 189.854 310.857C189.767 310.803 189.696 310.731 189.642 310.641C189.591 310.551 189.567 310.453 189.57 310.348C189.567 310.246 189.591 310.152 189.642 310.065C189.696 309.975 189.767 309.904 189.854 309.853C189.944 309.799 190.041 309.772 190.146 309.772C190.248 309.772 190.343 309.799 190.43 309.853C190.52 309.904 190.59 309.975 190.641 310.065C190.695 310.152 190.722 310.246 190.722 310.348C190.722 310.453 190.695 310.551 190.641 310.641C190.59 310.731 190.52 310.803 190.43 310.857C190.343 310.908 190.248 310.933 190.146 310.933ZM190.146 307.315C190.041 307.315 189.944 307.29 189.854 307.239C189.767 307.185 189.696 307.113 189.642 307.023C189.591 306.933 189.567 306.835 189.57 306.73C189.567 306.628 189.591 306.534 189.642 306.447C189.696 306.357 189.767 306.286 189.854 306.235C189.944 306.181 190.041 306.154 190.146 306.154C190.248 306.154 190.343 306.181 190.43 306.235C190.52 306.286 190.59 306.357 190.641 306.447C190.695 306.534 190.722 306.628 190.722 306.73C190.722 306.835 190.695 306.933 190.641 307.023C190.59 307.113 190.52 307.185 190.43 307.239C190.343 307.29 190.248 307.315 190.146 307.315ZM195.993 310.879H195.173V305.209H195.137L193.553 306.262V305.443L195.173 304.363H195.993V310.879ZM198.011 310.015C197.906 310.015 197.809 309.99 197.719 309.939C197.632 309.885 197.561 309.813 197.507 309.723C197.456 309.633 197.432 309.535 197.435 309.43C197.432 309.328 197.456 309.234 197.507 309.147C197.561 309.057 197.632 308.986 197.719 308.935C197.809 308.881 197.906 308.854 198.011 308.854C198.113 308.854 198.208 308.881 198.295 308.935C198.385 308.986 198.455 309.057 198.506 309.147C198.56 309.234 198.587 309.328 198.587 309.43C198.587 309.535 198.56 309.633 198.506 309.723C198.455 309.813 198.385 309.885 198.295 309.939C198.208 309.99 198.113 310.015 198.011 310.015ZM198.011 306.397C197.906 306.397 197.809 306.372 197.719 306.321C197.632 306.267 197.561 306.195 197.507 306.105C197.456 306.015 197.432 305.917 197.435 305.812C197.432 305.71 197.456 305.616 197.507 305.529C197.561 305.439 197.632 305.368 197.719 305.317C197.809 305.263 197.906 305.236 198.011 305.236C198.113 305.236 198.208 305.263 198.295 305.317C198.385 305.368 198.455 305.439 198.506 305.529C198.56 305.616 198.587 305.71 198.587 305.812C198.587 305.917 198.56 306.015 198.506 306.105C198.455 306.195 198.385 306.267 198.295 306.321C198.208 306.372 198.113 306.397 198.011 306.397ZM201.65 310.969C201.17 310.969 200.759 310.839 200.417 310.578C200.078 310.317 199.818 309.936 199.638 309.435C199.461 308.934 199.373 308.329 199.373 307.621C199.373 306.922 199.463 306.322 199.643 305.821C199.823 305.317 200.084 304.933 200.426 304.669C200.768 304.405 201.176 304.273 201.65 304.273C202.124 304.273 202.532 304.405 202.874 304.669C203.216 304.933 203.477 305.317 203.657 305.821C203.837 306.322 203.927 306.922 203.927 307.621C203.927 308.329 203.837 308.934 203.657 309.435C203.48 309.936 203.22 310.317 202.878 310.578C202.536 310.839 202.127 310.969 201.65 310.969ZM201.65 310.249C201.962 310.249 202.229 310.147 202.451 309.943C202.673 309.739 202.842 309.441 202.959 309.048C203.076 308.655 203.135 308.179 203.135 307.621C203.135 307.063 203.076 306.586 202.959 306.19C202.842 305.794 202.673 305.493 202.451 305.286C202.229 305.079 201.962 304.975 201.65 304.975C201.338 304.975 201.069 305.079 200.844 305.286C200.622 305.493 200.451 305.794 200.331 306.19C200.214 306.586 200.156 307.063 200.156 307.621C200.156 308.179 200.214 308.655 200.331 309.048C200.448 309.441 200.618 309.739 200.84 309.943C201.065 310.147 201.335 310.249 201.65 310.249ZM206.864 310.969C206.384 310.969 205.973 310.839 205.631 310.578C205.291 310.317 205.032 309.936 204.852 309.435C204.675 308.934 204.586 308.329 204.586 307.621C204.586 306.922 204.676 306.322 204.856 305.821C205.036 305.317 205.297 304.933 205.64 304.669C205.982 304.405 206.39 304.273 206.864 304.273C207.338 304.273 207.746 304.405 208.088 304.669C208.43 304.933 208.691 305.317 208.871 305.821C209.051 306.322 209.141 306.922 209.141 307.621C209.141 308.329 209.051 308.934 208.871 309.435C208.694 309.936 208.434 310.317 208.092 310.578C207.75 310.839 207.341 310.969 206.864 310.969ZM206.864 310.249C207.176 310.249 207.443 310.147 207.665 309.943C207.887 309.739 208.056 309.441 208.173 309.048C208.29 308.655 208.349 308.179 208.349 307.621C208.349 307.063 208.29 306.586 208.173 306.19C208.056 305.794 207.887 305.493 207.665 305.286C207.443 305.079 207.176 304.975 206.864 304.975C206.552 304.975 206.283 305.079 206.058 305.286C205.836 305.493 205.665 305.794 205.545 306.19C205.428 306.586 205.369 307.063 205.369 307.621C205.369 308.179 205.428 308.655 205.545 309.048C205.662 309.441 205.832 309.739 206.054 309.943C206.279 310.147 206.549 310.249 206.864 310.249Z" fill="#121212" style="fill:#121212;fill:color(display-p3 0.0714 0.0714 0.0714);fill-opacity:1;"/>
<line x1="23.041" y1="341.377" x2="210.441" y2="341.377" stroke="#E6E8E8" style="stroke:#E6E8E8;stroke:color(display-p3 0.9020 0.9098 0.9098);stroke-opacity:1;" stroke-width="0.768033"/>
<path d="M29.0683 363.913C28.9983 363.573 28.8583 363.283 28.6483 363.041C28.4417 362.796 28.1897 362.611 27.8922 362.485C27.5982 362.359 27.2832 362.296 26.9472 362.296C26.4817 362.296 26.0634 362.413 25.6924 362.648C25.3249 362.882 25.0344 363.227 24.8208 363.682C24.6073 364.137 24.5006 364.683 24.5006 365.32C24.5006 365.957 24.6073 366.503 24.8208 366.958C25.0344 367.413 25.3249 367.758 25.6924 367.992C26.0634 368.227 26.4817 368.344 26.9472 368.344C27.2832 368.344 27.5982 368.283 27.8922 368.16C28.1862 368.034 28.4365 367.851 28.643 367.609C28.853 367.364 28.9948 367.074 29.0683 366.737H30.0133C29.9223 367.245 29.7333 367.688 29.4463 368.066C29.1593 368.44 28.7988 368.727 28.3647 368.927C27.9342 369.126 27.4617 369.226 26.9472 369.226C26.2962 369.226 25.7169 369.067 25.2094 368.748C24.7018 368.43 24.3046 367.977 24.0176 367.389C23.7305 366.797 23.587 366.107 23.587 365.32C23.587 364.532 23.7305 363.845 24.0176 363.257C24.3046 362.665 24.7018 362.21 25.2094 361.892C25.7169 361.573 26.2962 361.414 26.9472 361.414C27.4582 361.414 27.929 361.514 28.3595 361.713C28.7935 361.913 29.154 362.201 29.441 362.579C29.7316 362.954 29.9223 363.398 30.0133 363.913H29.0683ZM33.2294 369.237C32.7149 369.237 32.2598 369.116 31.8643 368.874C31.4723 368.629 31.1678 368.285 30.9508 367.84C30.7338 367.396 30.6253 366.881 30.6253 366.296C30.6253 365.712 30.7338 365.197 30.9508 364.753C31.1678 364.305 31.4723 363.958 31.8643 363.713C32.2598 363.468 32.7149 363.346 33.2294 363.346C33.7404 363.346 34.1902 363.468 34.5787 363.713C34.9707 363.958 35.2735 364.305 35.487 364.753C35.704 365.197 35.8125 365.712 35.8125 366.296C35.8125 366.881 35.704 367.396 35.487 367.84C35.2735 368.285 34.9707 368.629 34.5787 368.874C34.1902 369.116 33.7404 369.237 33.2294 369.237ZM33.2294 368.439C33.5969 368.439 33.9067 368.342 34.1587 368.15C34.4107 367.954 34.5979 367.695 34.7205 367.373C34.8465 367.047 34.9095 366.688 34.9095 366.296C34.9095 365.904 34.8465 365.546 34.7205 365.22C34.5979 364.895 34.4107 364.634 34.1587 364.438C33.9067 364.242 33.5969 364.144 33.2294 364.144C32.8549 364.144 32.5399 364.242 32.2843 364.438C32.0323 364.634 31.8433 364.895 31.7173 365.22C31.5913 365.546 31.5283 365.904 31.5283 366.296C31.5283 366.688 31.5913 367.047 31.7173 367.373C31.8433 367.695 32.0323 367.954 32.2843 368.15C32.5399 368.342 32.8549 368.439 33.2294 368.439ZM36.6765 363.419H37.548V364.312H37.6215C37.744 364.004 37.9365 363.766 38.199 363.598C38.4651 363.43 38.7836 363.346 39.1546 363.346C39.5186 363.346 39.8284 363.43 40.0839 363.598C40.3394 363.762 40.5371 364 40.6771 364.312H40.7402C40.8907 364.011 41.1129 363.775 41.4069 363.603C41.7009 363.432 42.0492 363.346 42.4517 363.346C42.7982 363.346 43.101 363.418 43.36 363.561C43.6225 363.705 43.8273 363.923 43.9743 364.217C44.1213 364.508 44.1948 364.872 44.1948 365.309V369.121H43.2918V365.32C43.2918 364.924 43.1833 364.632 42.9662 364.443C42.7492 364.251 42.4727 364.154 42.1367 364.154C41.8777 364.154 41.6537 364.209 41.4647 364.317C41.2757 364.426 41.1322 364.574 41.0342 364.763C40.9362 364.952 40.8872 365.169 40.8872 365.414V369.121H39.9736V365.225C39.9736 365.015 39.9264 364.83 39.8319 364.669C39.7374 364.504 39.6044 364.378 39.4328 364.291C39.2648 364.2 39.0741 364.154 38.8606 364.154C38.6331 364.154 38.4213 364.216 38.2253 364.338C38.0293 364.457 37.8718 364.623 37.7528 364.837C37.6373 365.05 37.5795 365.292 37.5795 365.561V369.121H36.6765V363.419ZM45.3213 363.419H46.1928V364.322H46.2978C46.4098 364.14 46.5183 363.988 46.6233 363.866C46.7283 363.74 46.8911 363.622 47.1116 363.514C47.3321 363.402 47.6104 363.346 47.9464 363.346C48.4224 363.346 48.8424 363.467 49.2065 363.708C49.574 363.946 49.8592 364.287 50.0622 364.732C50.2687 365.176 50.372 365.694 50.372 366.286C50.372 366.877 50.2687 367.397 50.0622 367.845C49.8592 368.29 49.574 368.633 49.2065 368.874C48.8424 369.116 48.4259 369.237 47.9569 369.237C47.6244 369.237 47.3461 369.182 47.1221 369.074C46.9016 368.962 46.7353 368.841 46.6233 368.712C46.5113 368.579 46.4028 368.425 46.2978 368.25H46.2243V371.263H45.3213V363.419ZM46.2033 366.265C46.2033 366.695 46.2663 367.074 46.3923 367.399C46.5183 367.725 46.7038 367.978 46.9489 368.16C47.1939 368.339 47.4879 368.428 47.8309 368.428C48.1809 368.428 48.4784 368.335 48.7234 368.15C48.9719 367.961 49.1574 367.704 49.28 367.378C49.406 367.049 49.469 366.678 49.469 366.265C49.469 365.862 49.406 365.502 49.28 365.183C49.1574 364.865 48.9737 364.615 48.7287 364.433C48.4837 364.247 48.1844 364.154 47.8309 364.154C47.4809 364.154 47.1834 364.242 46.9384 364.417C46.6968 364.592 46.5131 364.839 46.3871 365.157C46.2646 365.472 46.2033 365.841 46.2033 366.265ZM52.1285 369.121H51.2255V361.519H52.1285V369.121ZM55.6386 369.237C55.0961 369.237 54.6236 369.116 54.221 368.874C53.8185 368.633 53.5088 368.292 53.2918 367.851C53.0782 367.41 52.9715 366.898 52.9715 366.317C52.9715 365.736 53.0782 365.222 53.2918 364.774C53.5088 364.322 53.8115 363.972 54.2 363.724C54.5921 363.472 55.0436 363.346 55.5546 363.346C55.9851 363.346 56.3859 363.442 56.7569 363.635C57.1279 363.824 57.4289 364.132 57.6599 364.559C57.8945 364.982 58.0117 365.526 58.0117 366.191V366.569H53.8745C53.8885 366.965 53.9708 367.303 54.1213 367.583C54.2718 367.863 54.4766 368.076 54.7356 368.223C54.9981 368.367 55.2991 368.439 55.6386 368.439C55.9606 368.439 56.2319 368.379 56.4524 368.26C56.6764 368.138 56.8462 367.98 56.9617 367.788H57.9277C57.8367 368.075 57.6844 368.328 57.4709 368.549C57.2609 368.766 56.9984 368.936 56.6834 369.058C56.3719 369.177 56.0236 369.237 55.6386 369.237ZM57.0982 365.803C57.0982 365.484 57.0334 365.201 56.9039 364.952C56.7779 364.7 56.5976 364.503 56.3631 364.359C56.1286 364.216 55.8591 364.144 55.5546 364.144C55.2361 364.144 54.9526 364.219 54.7041 364.37C54.4591 364.52 54.2648 364.723 54.1213 364.979C53.9813 365.231 53.9008 365.505 53.8798 365.803H57.0982ZM61.3538 364.175H60.1567V367.483C60.1567 367.819 60.2232 368.045 60.3562 368.16C60.4893 368.276 60.6713 368.334 60.9023 368.334C61.0773 368.334 61.2558 368.327 61.4378 368.313V369.153C61.2558 369.181 61.0458 369.195 60.8078 369.195C60.5418 369.195 60.2897 369.14 60.0517 369.032C59.8137 368.92 59.6195 368.752 59.469 368.528C59.3185 368.304 59.2432 368.033 59.2432 367.714V364.175H58.3822V363.419H59.2432V362.054H60.1567V363.419H61.3538V364.175ZM64.5384 369.237C63.9958 369.237 63.5233 369.116 63.1208 368.874C62.7183 368.633 62.4085 368.292 62.1915 367.851C61.978 367.41 61.8713 366.898 61.8713 366.317C61.8713 365.736 61.978 365.222 62.1915 364.774C62.4085 364.322 62.7113 363.972 63.0998 363.724C63.4918 363.472 63.9433 363.346 64.4544 363.346C64.8849 363.346 65.2856 363.442 65.6567 363.635C66.0277 363.824 66.3287 364.132 66.5597 364.559C66.7942 364.982 66.9115 365.526 66.9115 366.191V366.569H62.7743C62.7883 366.965 62.8705 367.303 63.021 367.583C63.1716 367.863 63.3763 368.076 63.6353 368.223C63.8978 368.367 64.1988 368.439 64.5384 368.439C64.8604 368.439 65.1316 368.379 65.3521 368.26C65.5762 368.138 65.7459 367.98 65.8614 367.788H66.8275C66.7365 368.075 66.5842 368.328 66.3707 368.549C66.1607 368.766 65.8982 368.936 65.5832 369.058C65.2716 369.177 64.9234 369.237 64.5384 369.237ZM65.9979 365.803C65.9979 365.484 65.9332 365.201 65.8037 364.952C65.6777 364.7 65.4974 364.503 65.2629 364.359C65.0284 364.216 64.7589 364.144 64.4544 364.144C64.1358 364.144 63.8523 364.219 63.6038 364.37C63.3588 364.52 63.1646 364.723 63.021 364.979C62.881 365.231 62.8005 365.505 62.7795 365.803H65.9979ZM70.2565 361.519H71.2015V364.9H75.2232V361.519H76.1787V369.121H75.2232V365.729H71.2015V369.121H70.2565V361.519ZM77.4102 363.419H78.3133V369.121H77.4102V363.419ZM77.8618 362.474C77.6867 362.474 77.538 362.417 77.4155 362.301C77.293 362.186 77.2317 362.044 77.2317 361.876C77.2317 361.708 77.293 361.566 77.4155 361.451C77.538 361.335 77.6867 361.277 77.8618 361.277C78.0368 361.277 78.1873 361.335 78.3133 361.451C78.4393 361.566 78.5023 361.708 78.5023 361.876C78.5023 362.044 78.4393 362.186 78.3133 362.301C78.1873 362.417 78.0368 362.474 77.8618 362.474ZM82.6949 366.286H79.3663V365.456H82.6949V366.286ZM83.8739 361.519H88.4521V362.359H84.8189V364.9H88.1056V365.729H84.8189V369.121H83.8739V361.519ZM89.4211 363.419H90.3241V369.121H89.4211V363.419ZM89.8726 362.474C89.6976 362.474 89.5488 362.417 89.4263 362.301C89.3038 362.186 89.2426 362.044 89.2426 361.876C89.2426 361.708 89.3038 361.566 89.4263 361.451C89.5488 361.335 89.6976 361.277 89.8726 361.277C90.0476 361.277 90.1981 361.335 90.3241 361.451C90.4501 361.566 90.5131 361.708 90.5131 361.876C90.5131 362.044 90.4501 362.186 90.3241 362.301C90.1981 362.417 90.0476 362.474 89.8726 362.474Z" fill="#121212" style="fill:#121212;fill:color(display-p3 0.0714 0.0714 0.0714);fill-opacity:1;"/>
<path d="M190.954 368.121L190.945 367.14L193.286 364.989C193.898 364.404 194.222 364.044 194.222 363.531C194.222 362.955 193.781 362.595 193.187 362.595C192.574 362.595 192.178 362.982 192.178 363.603H190.891C190.882 362.325 191.827 361.515 193.205 361.515C194.6 361.515 195.527 362.307 195.527 363.441C195.527 364.179 195.167 364.791 193.826 366.006L192.836 366.969V367.005H195.617V368.121H190.954ZM197.095 367.329C196.672 367.329 196.33 366.987 196.339 366.573C196.33 366.159 196.672 365.826 197.095 365.826C197.491 365.826 197.842 366.159 197.842 366.573C197.842 366.987 197.491 367.329 197.095 367.329ZM197.095 363.9C196.672 363.9 196.33 363.558 196.339 363.144C196.33 362.73 196.672 362.397 197.095 362.397C197.491 362.397 197.842 362.73 197.842 363.144C197.842 363.558 197.491 363.9 197.095 363.9ZM201.157 368.211C199.528 368.211 198.538 366.996 198.538 364.863C198.538 362.73 199.528 361.515 201.157 361.515C202.786 361.515 203.776 362.739 203.776 364.863C203.776 367.005 202.786 368.211 201.157 368.211ZM201.157 367.095C201.913 367.095 202.399 366.366 202.39 364.863C202.39 363.378 201.913 362.622 201.157 362.622C200.401 362.622 199.924 363.378 199.924 364.863C199.915 366.366 200.401 367.095 201.157 367.095ZM206.965 368.211C205.336 368.211 204.346 366.996 204.346 364.863C204.346 362.73 205.336 361.515 206.965 361.515C208.594 361.515 209.584 362.739 209.584 364.863C209.584 367.005 208.594 368.211 206.965 368.211ZM206.965 367.095C207.721 367.095 208.207 366.366 208.198 364.863C208.198 363.378 207.721 362.622 206.965 362.622C206.209 362.622 205.732 363.378 205.732 364.863C205.723 366.366 206.209 367.095 206.965 367.095Z" fill="#121212" style="fill:#121212;fill:color(display-p3 0.0714 0.0714 0.0714);fill-opacity:1;"/>
</g>
<path d="M0 376H0.768033V0H0H-0.768033V376H0Z" fill="#E6E8E8" style="fill:#E6E8E8;fill:color(display-p3 0.9020 0.9098 0.9098);fill-opacity:1;" mask="url(#path-1-inside-1_3511_100960)"/>
<defs>
<clipPath id="clip0_3511_100960">
<path d="M0 0H233V376H0V0Z" fill="white" style="fill:white;fill-opacity:1;"/>
</clipPath>
</defs>
</svg>
