<svg width="660" height="440" viewBox="0 0 660 440" fill="none" xmlns="http://www.w3.org/2000/svg">
<g clip-path="url(#clip0_2955_99363)">
<rect width="660" height="440" rx="16" fill="none" style="fill:none;fill-opacity:0;"/>
<rect x="124" y="56" width="665" height="327.071" rx="5.42857" fill="white" style="fill:white;fill-opacity:1;"/>
<path d="M157.272 98.6428L161.328 87.1283H163.872L167.944 98.6428H165.733L164.771 95.796H160.437L159.483 98.6428H157.272ZM164.214 94.1261L162.648 89.4821H162.552L160.994 94.1261H164.214ZM171.686 98.8019C171.002 98.8019 170.39 98.6269 169.849 98.277C169.313 97.9218 168.892 97.4076 168.584 96.7343C168.277 96.0611 168.123 95.2606 168.123 94.3328C168.123 93.3998 168.28 92.5993 168.592 91.9313C168.905 91.2634 169.332 90.7571 169.873 90.4125C170.413 90.0679 171.023 89.8956 171.702 89.8956C172.847 89.8956 173.668 90.4045 174.167 91.4224H174.246V87.1283H176.266V98.6428H174.278V97.2751H174.167C173.658 98.2929 172.831 98.8019 171.686 98.8019ZM172.242 97.1319C172.672 97.1319 173.04 97.0153 173.348 96.7821C173.655 96.5488 173.888 96.2201 174.047 95.796C174.212 95.3719 174.294 94.8789 174.294 94.3169C174.294 93.7603 174.214 93.2752 174.055 92.8617C173.896 92.4429 173.663 92.1195 173.356 91.8916C173.048 91.6636 172.677 91.5496 172.242 91.5496C171.802 91.5496 171.429 91.6663 171.121 91.8995C170.814 92.1328 170.58 92.4588 170.421 92.8776C170.268 93.2964 170.191 93.7762 170.191 94.3169C170.191 94.8683 170.27 95.356 170.429 95.7801C170.588 96.2042 170.822 96.5355 171.129 96.7741C171.437 97.0127 171.808 97.1319 172.242 97.1319ZM181.042 98.8019C180.358 98.8019 179.746 98.6269 179.205 98.277C178.669 97.9218 178.248 97.4076 177.94 96.7343C177.633 96.0611 177.479 95.2606 177.479 94.3328C177.479 93.3998 177.636 92.5993 177.948 91.9313C178.261 91.2634 178.688 90.7571 179.229 90.4125C179.769 90.0679 180.379 89.8956 181.058 89.8956C182.203 89.8956 183.024 90.4045 183.523 91.4224H183.602V87.1283H185.622V98.6428H183.634V97.2751H183.523C183.014 98.2929 182.187 98.8019 181.042 98.8019ZM181.598 97.1319C182.028 97.1319 182.396 97.0153 182.704 96.7821C183.011 96.5488 183.244 96.2201 183.403 95.796C183.568 95.3719 183.65 94.8789 183.65 94.3169C183.65 93.7603 183.57 93.2752 183.411 92.8617C183.252 92.4429 183.019 92.1195 182.712 91.8916C182.404 91.6636 182.033 91.5496 181.598 91.5496C181.158 91.5496 180.785 91.6663 180.477 91.8995C180.17 92.1328 179.936 92.4588 179.777 92.8776C179.624 93.2964 179.547 93.7762 179.547 94.3169C179.547 94.8683 179.626 95.356 179.785 95.7801C179.944 96.2042 180.178 96.5355 180.485 96.7741C180.793 97.0127 181.164 97.1319 181.598 97.1319ZM190.164 96.2095C190.164 95.3189 190.463 94.6774 191.062 94.2851C191.667 93.8875 192.438 93.6596 193.376 93.6012C194.293 93.5376 195.03 93.4952 195.587 93.474V92.7901C195.587 92.3607 195.452 92.0294 195.181 91.7961C194.911 91.5576 194.527 91.4383 194.028 91.4383C193.588 91.4383 193.228 91.5311 192.947 91.7166C192.666 91.9022 192.486 92.154 192.406 92.4721H190.45C190.498 91.979 190.673 91.539 190.975 91.152C191.277 90.7597 191.693 90.4523 192.223 90.2296C192.753 90.0069 193.371 89.8956 194.076 89.8956C194.68 89.8956 195.248 89.991 195.778 90.1819C196.313 90.3674 196.751 90.6829 197.09 91.1282C197.434 91.5682 197.607 92.1487 197.607 92.8697V98.6428H195.666V97.45H195.603C195.391 97.8529 195.073 98.1816 194.649 98.4361C194.224 98.6905 193.694 98.8178 193.058 98.8178C192.502 98.8178 192.003 98.717 191.563 98.5156C191.128 98.3141 190.787 98.0173 190.537 97.625C190.288 97.2327 190.164 96.7608 190.164 96.2095ZM192.12 96.1936C192.12 96.5594 192.252 96.8404 192.517 97.0365C192.783 97.2274 193.138 97.3228 193.583 97.3228C193.981 97.3228 194.333 97.2433 194.641 97.0842C194.948 96.9252 195.184 96.7105 195.348 96.4401C195.518 96.1644 195.603 95.8649 195.603 95.5415L195.595 94.8338L193.694 94.9531C193.196 94.9955 192.809 95.1201 192.533 95.3268C192.258 95.5336 192.12 95.8225 192.12 96.1936ZM206.713 91.5655H205.011V96.0505C205.011 96.4322 205.091 96.6946 205.25 96.8377C205.414 96.9809 205.642 97.0524 205.933 97.0524C206.188 97.0524 206.485 97.0418 206.824 97.0206V98.6746C206.559 98.7276 206.177 98.7542 205.679 98.7542C205.154 98.7542 204.688 98.6693 204.279 98.4997C203.877 98.3247 203.558 98.0597 203.325 97.7045C203.097 97.3493 202.986 96.9093 202.991 96.3845V91.5655H201.751V90.0069H202.991V87.9394H205.011V90.0069H206.713V91.5655ZM207.385 96.2095C207.385 95.3189 207.685 94.6774 208.284 94.2851C208.888 93.8875 209.659 93.6596 210.598 93.6012C211.515 93.5376 212.252 93.4952 212.808 93.474V92.7901C212.808 92.3607 212.673 92.0294 212.403 91.7961C212.133 91.5576 211.748 91.4383 211.25 91.4383C210.81 91.4383 210.449 91.5311 210.168 91.7166C209.887 91.9022 209.707 92.154 209.628 92.4721H207.671C207.719 91.979 207.894 91.539 208.196 91.152C208.498 90.7597 208.915 90.4523 209.445 90.2296C209.975 90.0069 210.592 89.8956 211.298 89.8956C211.902 89.8956 212.469 89.991 212.999 90.1819C213.535 90.3674 213.972 90.6829 214.311 91.1282C214.656 91.5682 214.828 92.1487 214.828 92.8697V98.6428H212.888V97.45H212.824C212.612 97.8529 212.294 98.1816 211.87 98.4361C211.446 98.6905 210.916 98.8178 210.28 98.8178C209.723 98.8178 209.225 98.717 208.785 98.5156C208.35 98.3141 208.008 98.0173 207.759 97.625C207.51 97.2327 207.385 96.7608 207.385 96.2095ZM209.341 96.1936C209.341 96.5594 209.474 96.8404 209.739 97.0365C210.004 97.2274 210.359 97.3228 210.805 97.3228C211.202 97.3228 211.555 97.2433 211.862 97.0842C212.17 96.9252 212.406 96.7105 212.57 96.4401C212.74 96.1644 212.824 95.8649 212.824 95.5415L212.816 94.8338L210.916 94.9531C210.418 94.9955 210.031 95.1201 209.755 95.3268C209.479 95.5336 209.341 95.8225 209.341 96.1936ZM221.147 92.4721C221.083 92.1434 220.919 91.8836 220.654 91.6928C220.388 91.5019 220.044 91.4065 219.62 91.4065C219.334 91.4065 219.074 91.4516 218.84 91.5417C218.613 91.6265 218.435 91.7484 218.308 91.9075C218.18 92.0612 218.12 92.2335 218.125 92.4244C218.109 92.8856 218.517 93.2143 219.349 93.4104L220.813 93.7126C221.634 93.8981 222.244 94.1817 222.642 94.5634C223.039 94.9451 223.241 95.4461 223.246 96.0664C223.241 96.6071 223.087 97.0869 222.785 97.5057C222.483 97.9192 222.053 98.2426 221.496 98.4758C220.945 98.7038 220.298 98.8178 219.556 98.8178C218.469 98.8178 217.605 98.5872 216.964 98.1259C216.328 97.6594 215.957 97.01 215.851 96.1777H217.918C217.982 96.5435 218.151 96.8192 218.427 97.0047C218.708 97.185 219.084 97.2751 219.556 97.2751C220.044 97.2751 220.436 97.1823 220.733 96.9968C221.03 96.8112 221.178 96.5594 221.178 96.2413C221.178 95.9922 221.075 95.7881 220.868 95.629C220.667 95.4647 220.351 95.3348 219.922 95.2394L218.538 94.9372C217.738 94.7781 217.131 94.4945 216.717 94.0863C216.309 93.6781 216.105 93.1612 216.105 92.5357C216.105 92.0108 216.248 91.5496 216.534 91.152C216.821 90.7491 217.226 90.439 217.751 90.2216C218.276 90.0043 218.888 89.8956 219.588 89.8956C220.267 89.8956 220.858 90.0016 221.361 90.2137C221.87 90.4204 222.27 90.7173 222.562 91.1043C222.854 91.4913 223.023 91.9472 223.071 92.4721H221.147ZM224.3 87.1283H226.336V93.474H226.479L229.58 90.0069H231.95L228.602 93.7285L232.157 98.6428H229.739L227.083 94.9372L226.336 95.7324V98.6428H224.3V87.1283Z" fill="#74A0F8" style="fill:#74A0F8;fill:color(display-p3 0.4549 0.6275 0.9725);fill-opacity:1;"/>
<rect x="156.571" y="121.143" width="129.143" height="29.8571" rx="5.42857" fill="#FBFBFB" style="fill:#FBFBFB;fill:color(display-p3 0.9845 0.9845 0.9845);fill-opacity:1;"/>
<path d="M184.854 133.159L177.452 139.944C177.383 140.007 177.302 140.057 177.212 140.091C177.122 140.125 177.026 140.143 176.929 140.143C176.831 140.143 176.735 140.125 176.645 140.091C176.555 140.057 176.474 140.007 176.405 139.944L169.003 133.159C168.864 133.032 168.786 132.859 168.786 132.679C168.786 132.499 168.864 132.326 169.003 132.199C169.141 132.072 169.33 132 169.526 132C169.723 132 169.911 132.072 170.05 132.199L176.929 138.505L183.807 132.199C183.876 132.136 183.957 132.086 184.047 132.052C184.137 132.018 184.233 132 184.331 132C184.428 132 184.524 132.018 184.614 132.052C184.704 132.086 184.786 132.136 184.854 132.199C184.923 132.262 184.978 132.337 185.015 132.419C185.052 132.501 185.071 132.59 185.071 132.679C185.071 132.768 185.052 132.856 185.015 132.939C184.978 133.021 184.923 133.096 184.854 133.159Z" fill="#757575" style="fill:#757575;fill:color(display-p3 0.4588 0.4588 0.4588);fill-opacity:1;"/>
<path d="M198.372 131.277C198.951 131.281 199.464 131.454 199.91 131.794C200.36 132.13 200.712 132.607 200.963 133.225C201.22 133.844 201.35 134.564 201.354 135.386C201.35 136.207 201.22 136.927 200.963 137.546C200.712 138.164 200.36 138.642 199.91 138.977C199.459 139.313 198.947 139.481 198.372 139.481C197.794 139.481 197.279 139.313 196.828 138.977C196.378 138.642 196.027 138.164 195.775 137.546C195.527 136.927 195.404 136.207 195.404 135.386C195.404 134.564 195.527 133.844 195.775 133.225C196.027 132.607 196.378 132.13 196.828 131.794C197.279 131.454 197.794 131.281 198.372 131.277ZM198.372 132.205C197.984 132.209 197.639 132.344 197.339 132.609C197.038 132.87 196.804 133.241 196.636 133.722C196.468 134.199 196.384 134.754 196.384 135.386C196.384 136.017 196.468 136.574 196.636 137.056C196.804 137.533 197.038 137.902 197.339 138.162C197.643 138.423 197.988 138.553 198.372 138.553C198.761 138.553 199.104 138.423 199.4 138.162C199.7 137.902 199.932 137.533 200.095 137.056C200.263 136.574 200.347 136.017 200.347 135.386C200.347 134.754 200.263 134.199 200.095 133.722C199.932 133.241 199.7 132.87 199.4 132.609C199.104 132.344 198.761 132.209 198.372 132.205ZM204.336 135.068H206.311V135.969H204.336V142.145H203.303V130.363H204.336V135.068ZM216.255 142.171H215.208V130.363H216.255V142.171ZM209.986 131.277C210.569 131.281 211.088 131.454 211.543 131.794C211.998 132.13 212.354 132.607 212.61 133.225C212.866 133.844 212.995 134.564 212.995 135.386C212.995 136.207 212.866 136.927 212.61 137.546C212.354 138.164 211.998 138.642 211.543 138.977C211.088 139.313 210.569 139.481 209.986 139.481C209.403 139.481 208.882 139.313 208.422 138.977C207.967 138.642 207.611 138.164 207.355 137.546C207.103 136.927 206.978 136.207 206.978 135.386C206.978 134.564 207.103 133.844 207.355 133.225C207.611 132.607 207.967 132.13 208.422 131.794C208.877 131.454 209.398 131.281 209.986 131.277ZM209.986 132.205C209.593 132.209 209.244 132.344 208.939 132.609C208.639 132.87 208.404 133.241 208.237 133.722C208.069 134.199 207.985 134.754 207.985 135.386C207.985 136.017 208.069 136.574 208.237 137.056C208.404 137.533 208.641 137.902 208.946 138.162C209.25 138.423 209.597 138.553 209.986 138.553C210.375 138.553 210.722 138.423 211.026 138.162C211.331 137.902 211.568 137.533 211.735 137.056C211.903 136.574 211.987 136.017 211.987 135.386C211.987 134.754 211.903 134.199 211.735 133.722C211.568 133.241 211.331 132.87 211.026 132.609C210.726 132.344 210.379 132.209 209.986 132.205ZM227.259 131.926C227.259 132.673 227.241 133.334 227.206 133.908C227.171 134.478 227.082 135.121 226.941 135.836L225.907 135.743C226.035 135.138 226.126 134.518 226.179 133.881L219.002 134.219L218.856 133.331L226.225 133.093C226.234 132.819 226.238 132.43 226.238 131.926V131.794H219.148V130.946H227.259V131.926ZM228.597 137.48H217.876V136.631H222.249V134.895H223.296V136.631H228.597V137.48ZM227.537 141.959H219.241V138.487H220.288V141.111H227.537V141.959ZM242.918 138.368H238.055V142.171H237.034V138.368H232.183V137.493H242.918V138.368ZM238.068 132.695C238.068 133.168 238.264 133.621 238.658 134.054C239.051 134.482 239.568 134.847 240.208 135.147C240.849 135.447 241.522 135.646 242.229 135.743L241.845 136.578C241.235 136.486 240.648 136.324 240.082 136.095C239.521 135.865 239.02 135.58 238.578 135.24C238.141 134.9 237.8 134.52 237.558 134.1C237.315 134.524 236.97 134.906 236.524 135.246C236.082 135.587 235.578 135.872 235.013 136.101C234.447 136.327 233.858 136.486 233.244 136.578L232.859 135.743C233.566 135.646 234.24 135.45 234.88 135.154C235.521 134.853 236.04 134.489 236.438 134.06C236.835 133.627 237.034 133.172 237.034 132.695V132.682H233.23V131.834H237.034V130.363H238.055V131.834H241.885V132.682H238.068V132.695ZM252.624 135.16H254.532V136.035H252.624V142.145H251.59V130.363H252.624V135.16ZM249.575 131.635C249.575 133.389 249.136 134.979 248.257 136.406C247.378 137.829 246.015 138.995 244.168 139.905L243.585 139.083C245.1 138.328 246.273 137.396 247.104 136.287C247.934 135.174 248.409 133.914 248.528 132.51H244.128V131.635H249.575ZM263.946 135.227H265.92V136.088H263.946V142.145H262.912V130.363H263.946V135.227ZM261.772 133.119H254.761V132.258H257.796V130.508H258.83V132.258H261.772V133.119ZM258.326 134.1C258.879 134.1 259.373 134.215 259.811 134.445C260.248 134.674 260.59 134.995 260.838 135.405C261.085 135.816 261.211 136.282 261.216 136.804C261.211 137.325 261.085 137.791 260.838 138.202C260.59 138.613 260.248 138.933 259.811 139.163C259.373 139.393 258.879 139.507 258.326 139.507C257.77 139.507 257.27 139.393 256.829 139.163C256.391 138.933 256.049 138.613 255.802 138.202C255.554 137.791 255.433 137.325 255.437 136.804C255.433 136.282 255.554 135.816 255.802 135.405C256.049 134.995 256.391 134.674 256.829 134.445C257.27 134.215 257.77 134.1 258.326 134.1ZM258.326 134.975C257.964 134.975 257.637 135.054 257.346 135.213C257.058 135.368 256.833 135.584 256.67 135.863C256.506 136.141 256.427 136.455 256.431 136.804C256.427 137.157 256.506 137.473 256.67 137.751C256.833 138.025 257.058 138.239 257.346 138.394C257.637 138.549 257.964 138.624 258.326 138.619C258.684 138.624 259.007 138.549 259.294 138.394C259.581 138.239 259.806 138.025 259.97 137.751C260.133 137.473 260.217 137.157 260.222 136.804C260.217 136.455 260.133 136.141 259.97 135.863C259.806 135.584 259.581 135.368 259.294 135.213C259.007 135.054 258.684 134.975 258.326 134.975ZM275.891 142.145H274.844V130.363H275.891V142.145ZM272.405 131.648C272.396 133.429 271.946 135.028 271.053 136.446C270.161 137.86 268.765 139.021 266.865 139.932L266.295 139.083C267.868 138.337 269.072 137.409 269.907 136.3C270.746 135.191 271.226 133.923 271.345 132.496H266.839V131.648H272.405Z" fill="#9F9F9F" style="fill:#9F9F9F;fill:color(display-p3 0.6235 0.6235 0.6235);fill-opacity:1;"/>
<path d="M179.643 189V190.357H166.071V189H179.643ZM183.714 184.929V171.357C183.714 169.109 181.891 167.286 179.643 167.286H166.071C163.823 167.286 162 169.109 162 171.357V184.929C162 187.177 163.823 189 166.071 189V190.357L165.792 190.351C163.016 190.21 160.79 187.984 160.649 185.208L160.643 184.929V171.357C160.643 168.359 163.073 165.929 166.071 165.929H179.643C182.641 165.929 185.071 168.359 185.071 171.357V184.929C185.071 187.833 182.79 190.205 179.922 190.351L179.643 190.357V189C181.891 189 183.714 187.177 183.714 184.929Z" fill="#E6E8E8" style="fill:#E6E8E8;fill:color(display-p3 0.9020 0.9098 0.9098);fill-opacity:1;"/>
<path d="M201.132 171.209H206.401C207.403 171.209 208.266 171.401 208.99 171.784C209.713 172.162 210.264 172.694 210.641 173.38C211.018 174.06 211.207 174.846 211.207 175.737C211.207 176.633 211.012 177.425 210.623 178.112C210.239 178.792 209.679 179.321 208.943 179.698C208.214 180.075 207.341 180.264 206.327 180.264H203.915V184.643H201.132V171.209ZM205.882 178.019C206.686 178.019 207.295 177.815 207.709 177.406C208.124 176.992 208.331 176.435 208.331 175.737C208.331 175.044 208.124 174.497 207.709 174.094C207.295 173.692 206.686 173.491 205.882 173.491H203.915V178.019H205.882ZM215.09 184.643H212.344V171.209H215.09V184.643ZM216.172 181.823C216.172 180.783 216.521 180.023 217.22 179.54C217.919 179.058 218.819 178.786 219.92 178.724C220.6 178.681 221.435 178.637 222.424 178.594V177.778C222.412 177.357 222.267 177.029 221.988 176.794C221.71 176.559 221.317 176.442 220.81 176.442C220.353 176.442 219.978 176.541 219.688 176.739C219.397 176.936 219.214 177.209 219.14 177.555H216.524C216.58 176.961 216.784 176.429 217.136 175.959C217.495 175.489 217.993 175.118 218.63 174.846C219.267 174.574 220.019 174.438 220.884 174.438C221.651 174.438 222.356 174.558 223 174.8C223.649 175.041 224.169 175.418 224.558 175.931C224.954 176.439 225.152 177.079 225.152 177.852V184.643H222.554V183.251H222.48C222.214 183.74 221.834 184.126 221.339 184.411C220.85 184.689 220.247 184.828 219.53 184.828C218.874 184.828 218.293 184.717 217.786 184.494C217.285 184.266 216.889 183.925 216.598 183.474C216.314 183.022 216.172 182.472 216.172 181.823ZM218.806 181.748C218.806 182.126 218.942 182.419 219.214 182.63C219.493 182.834 219.858 182.936 220.309 182.936C220.717 182.936 221.082 182.852 221.404 182.685C221.732 182.518 221.985 182.289 222.165 181.999C222.344 181.708 222.431 181.39 222.424 181.043V180.31C222.134 180.316 221.775 180.332 221.348 180.357C220.922 180.381 220.594 180.406 220.365 180.431C219.882 180.48 219.502 180.616 219.224 180.839C218.945 181.062 218.806 181.365 218.806 181.748ZM229.425 184.643H226.679V174.568H229.295V176.33H229.406C229.641 175.737 230.022 175.273 230.547 174.939C231.073 174.605 231.701 174.438 232.431 174.438C233.13 174.438 233.742 174.589 234.268 174.892C234.793 175.195 235.198 175.635 235.483 176.21C235.767 176.779 235.907 177.45 235.9 178.223V184.643H233.173V178.705C233.173 178.087 233.012 177.601 232.69 177.249C232.369 176.896 231.923 176.72 231.354 176.72C230.767 176.72 230.297 176.906 229.944 177.277C229.598 177.648 229.425 178.161 229.425 178.817V184.643ZM240.791 181.823C240.791 180.783 241.14 180.023 241.839 179.54C242.538 179.058 243.438 178.786 244.539 178.724C245.219 178.681 246.054 178.637 247.044 178.594V177.778C247.031 177.357 246.886 177.029 246.608 176.794C246.329 176.559 245.936 176.442 245.429 176.442C244.972 176.442 244.597 176.541 244.307 176.739C244.016 176.936 243.834 177.209 243.759 177.555H241.143C241.199 176.961 241.403 176.429 241.755 175.959C242.114 175.489 242.612 175.118 243.249 174.846C243.886 174.574 244.638 174.438 245.504 174.438C246.27 174.438 246.976 174.558 247.619 174.8C248.268 175.041 248.788 175.418 249.177 175.931C249.573 176.439 249.771 177.079 249.771 177.852V184.643H247.173V183.251H247.099C246.833 183.74 246.453 184.126 245.958 184.411C245.47 184.689 244.866 184.828 244.149 184.828C243.493 184.828 242.912 184.717 242.405 184.494C241.904 184.266 241.508 183.925 241.217 183.474C240.933 183.022 240.791 182.472 240.791 181.823ZM243.425 181.748C243.425 182.126 243.561 182.419 243.834 182.63C244.112 182.834 244.477 182.936 244.928 182.936C245.337 182.936 245.701 182.852 246.023 182.685C246.351 182.518 246.604 182.289 246.784 181.999C246.963 181.708 247.05 181.39 247.044 181.043V180.31C246.753 180.316 246.394 180.332 245.967 180.357C245.541 180.381 245.213 180.406 244.984 180.431C244.502 180.48 244.121 180.616 243.843 180.839C243.565 181.062 243.425 181.365 243.425 181.748ZM257.853 184.643H255.107V174.568H257.723V176.33H257.834C258.069 175.737 258.45 175.273 258.975 174.939C259.501 174.605 260.129 174.438 260.859 174.438C261.558 174.438 262.17 174.589 262.696 174.892C263.221 175.195 263.626 175.635 263.911 176.21C264.195 176.779 264.335 177.45 264.328 178.223V184.643H261.601V178.705C261.601 178.087 261.44 177.601 261.118 177.249C260.797 176.896 260.351 176.72 259.782 176.72C259.195 176.72 258.725 176.906 258.372 177.277C258.026 177.648 257.853 178.161 257.853 178.817V184.643ZM270.457 184.847C269.436 184.847 268.552 184.637 267.803 184.216C267.061 183.795 266.489 183.196 266.087 182.416C265.685 181.631 265.484 180.709 265.484 179.652C265.484 178.619 265.682 177.71 266.078 176.924C266.48 176.132 267.049 175.52 267.785 175.087C268.521 174.654 269.374 174.438 270.345 174.438C271.248 174.438 272.055 174.629 272.767 175.013C273.484 175.39 274.047 175.962 274.455 176.729C274.87 177.496 275.077 178.433 275.077 179.54V180.32H268.193C268.193 180.821 268.286 181.257 268.471 181.628C268.663 181.999 268.932 182.286 269.278 182.49C269.631 182.688 270.042 182.787 270.512 182.787C270.964 182.787 271.353 182.698 271.681 182.518C272.009 182.333 272.244 182.082 272.386 181.767H275.003C274.873 182.385 274.607 182.927 274.205 183.39C273.803 183.854 273.28 184.213 272.637 184.467C272 184.72 271.273 184.847 270.457 184.847ZM272.479 178.594C272.479 178.192 272.389 177.833 272.21 177.518C272.037 177.196 271.793 176.946 271.477 176.766C271.162 176.587 270.803 176.497 270.401 176.497C269.993 176.497 269.622 176.59 269.288 176.776C268.96 176.961 268.697 177.215 268.499 177.536C268.307 177.858 268.205 178.211 268.193 178.594H272.479ZM275.397 174.568H278.181L279.758 181.377H279.85L281.502 174.568H284.229L285.899 181.34H285.992L287.551 174.568H290.334L287.569 184.643H284.675L282.931 178.241H282.801L281.057 184.643H278.143L275.397 174.568ZM300.271 176.627H298.378V181.544C298.378 181.915 298.459 182.175 298.62 182.323C298.78 182.472 299.015 182.552 299.325 182.565C299.721 182.565 300.085 182.546 300.419 182.509V184.68C300.092 184.742 299.603 184.773 298.954 184.773C297.921 184.773 297.107 184.535 296.514 184.058C295.92 183.582 295.626 182.874 295.632 181.934V176.627H294.241V174.568H295.632V172.156H298.378V174.568H300.271V176.627ZM300.944 181.823C300.944 180.783 301.294 180.023 301.993 179.54C302.691 179.058 303.591 178.786 304.692 178.724C305.373 178.681 306.208 178.637 307.197 178.594V177.778C307.185 177.357 307.039 177.029 306.761 176.794C306.483 176.559 306.09 176.442 305.583 176.442C305.125 176.442 304.751 176.541 304.46 176.739C304.17 176.936 303.987 177.209 303.913 177.555H301.297C301.352 176.961 301.556 176.429 301.909 175.959C302.268 175.489 302.766 175.118 303.403 174.846C304.04 174.574 304.791 174.438 305.657 174.438C306.424 174.438 307.129 174.558 307.772 174.8C308.422 175.041 308.941 175.418 309.331 175.931C309.727 176.439 309.925 177.079 309.925 177.852V184.643H307.327V183.251H307.253C306.987 183.74 306.606 184.126 306.112 184.411C305.623 184.689 305.02 184.828 304.303 184.828C303.647 184.828 303.066 184.717 302.558 184.494C302.057 184.266 301.662 183.925 301.371 183.474C301.086 183.022 300.944 182.472 300.944 181.823ZM303.579 181.748C303.579 182.126 303.715 182.419 303.987 182.63C304.265 182.834 304.63 182.936 305.082 182.936C305.49 182.936 305.855 182.852 306.177 182.685C306.504 182.518 306.758 182.289 306.937 181.999C307.117 181.708 307.203 181.39 307.197 181.043V180.31C306.906 180.316 306.548 180.332 306.121 180.357C305.694 180.381 305.366 180.406 305.138 180.431C304.655 180.48 304.275 180.616 303.996 180.839C303.718 181.062 303.579 181.365 303.579 181.748ZM317.203 177.555C317.148 177.202 316.971 176.921 316.674 176.711C316.378 176.494 316.003 176.386 315.552 176.386C315.255 176.386 314.986 176.432 314.745 176.525C314.51 176.612 314.324 176.735 314.188 176.896C314.052 177.051 313.987 177.227 313.993 177.425C313.975 177.901 314.408 178.235 315.292 178.427L317.092 178.798C318.069 179.002 318.796 179.327 319.272 179.772C319.755 180.218 319.999 180.802 320.005 181.526C319.999 182.181 319.807 182.76 319.43 183.26C319.059 183.761 318.536 184.151 317.862 184.429C317.188 184.708 316.412 184.847 315.533 184.847C314.637 184.847 313.86 184.72 313.205 184.467C312.549 184.207 312.033 183.839 311.655 183.363C311.284 182.88 311.062 182.311 310.987 181.656H313.752C313.814 182.051 314 182.351 314.309 182.555C314.618 182.76 315.026 182.862 315.533 182.862C316.034 182.862 316.436 182.766 316.739 182.574C317.049 182.382 317.203 182.126 317.203 181.804C317.203 181.544 317.092 181.334 316.869 181.173C316.653 181.006 316.306 180.87 315.83 180.765L314.16 180.431C313.208 180.245 312.484 179.908 311.989 179.42C311.495 178.931 311.253 178.316 311.266 177.573C311.26 176.936 311.43 176.383 311.776 175.913C312.122 175.437 312.617 175.072 313.26 174.818C313.904 174.565 314.655 174.438 315.515 174.438C316.35 174.438 317.08 174.565 317.704 174.818C318.329 175.072 318.818 175.434 319.17 175.904C319.529 176.367 319.733 176.918 319.782 177.555H317.203ZM321.124 171.209H323.87V178.427H324.018L327.284 174.568H330.438L326.681 178.928L330.642 184.643H327.414L324.64 180.542L323.87 181.414V184.643H321.124V171.209Z" fill="#121212" style="fill:#121212;fill:color(display-p3 0.0714 0.0714 0.0714);fill-opacity:1;"/>
<path d="M179.643 229.714V231.072H166.071V229.714H179.643ZM183.714 225.643V212.072C183.714 209.823 181.891 208 179.643 208H166.071C163.823 208 162 209.823 162 212.072V225.643C162 227.892 163.823 229.714 166.071 229.714V231.072L165.792 231.065C163.016 230.924 160.79 228.698 160.649 225.923L160.643 225.643V212.072C160.643 209.074 163.073 206.643 166.071 206.643H179.643C182.641 206.643 185.071 209.074 185.071 212.072V225.643C185.071 228.547 182.79 230.919 179.922 231.065L179.643 231.072V229.714C181.891 229.714 183.714 227.892 183.714 225.643Z" fill="#E6E8E8" style="fill:#E6E8E8;fill:color(display-p3 0.9020 0.9098 0.9098);fill-opacity:1;"/>
<path d="M200.286 224.857L204.501 213.343H206.012L210.226 224.857H208.715L207.562 221.613H202.934L201.781 224.857H200.286ZM207.125 220.356L205.296 215.203H205.201L203.372 220.356H207.125ZM214.366 225.032C213.65 225.032 213.014 224.849 212.457 224.483C211.906 224.118 211.474 223.598 211.161 222.925C210.848 222.246 210.692 221.459 210.692 220.563C210.692 219.667 210.848 218.883 211.161 218.209C211.474 217.536 211.909 217.019 212.465 216.659C213.022 216.293 213.661 216.11 214.382 216.11C214.891 216.11 215.312 216.195 215.646 216.364C215.98 216.529 216.227 216.706 216.386 216.897C216.545 217.083 216.709 217.313 216.879 217.589H216.974V213.343H218.358V224.857H217.022V223.537H216.879C216.698 223.818 216.526 224.054 216.362 224.245C216.203 224.436 215.956 224.616 215.622 224.786C215.288 224.95 214.869 225.032 214.366 225.032ZM214.557 223.808C215.071 223.808 215.514 223.672 215.885 223.402C216.256 223.126 216.537 222.742 216.728 222.249C216.924 221.751 217.022 221.178 217.022 220.531C217.022 219.89 216.926 219.331 216.735 218.853C216.55 218.371 216.272 217.997 215.901 217.732C215.529 217.467 215.081 217.335 214.557 217.335C214.021 217.335 213.568 217.475 213.197 217.756C212.826 218.032 212.545 218.411 212.354 218.893C212.168 219.376 212.076 219.922 212.076 220.531C212.076 221.157 212.168 221.719 212.354 222.217C212.545 222.71 212.826 223.1 213.197 223.386C213.573 223.667 214.026 223.808 214.557 223.808ZM223.499 225.032C222.783 225.032 222.147 224.849 221.591 224.483C221.039 224.118 220.607 223.598 220.294 222.925C219.982 222.246 219.825 221.459 219.825 220.563C219.825 219.667 219.982 218.883 220.294 218.209C220.607 217.536 221.042 217.019 221.599 216.659C222.155 216.293 222.794 216.11 223.515 216.11C224.024 216.11 224.445 216.195 224.779 216.364C225.113 216.529 225.36 216.706 225.519 216.897C225.678 217.083 225.842 217.313 226.012 217.589H226.107V213.343H227.491V224.857H226.155V223.537H226.012C225.832 223.818 225.659 224.054 225.495 224.245C225.336 224.436 225.09 224.616 224.756 224.786C224.422 224.95 224.003 225.032 223.499 225.032ZM223.69 223.808C224.204 223.808 224.647 223.672 225.018 223.402C225.389 223.126 225.67 222.742 225.861 222.249C226.057 221.751 226.155 221.178 226.155 220.531C226.155 219.89 226.06 219.331 225.869 218.853C225.683 218.371 225.405 217.997 225.034 217.732C224.663 217.467 224.215 217.335 223.69 217.335C223.155 217.335 222.701 217.475 222.33 217.756C221.959 218.032 221.678 218.411 221.487 218.893C221.302 219.376 221.209 219.922 221.209 220.531C221.209 221.157 221.302 221.719 221.487 222.217C221.678 222.71 221.959 223.1 222.33 223.386C222.707 223.667 223.16 223.808 223.69 223.808ZM236.74 217.366H234.927V222.376C234.927 222.885 235.028 223.227 235.229 223.402C235.431 223.577 235.706 223.664 236.056 223.664C236.321 223.664 236.592 223.654 236.867 223.633V224.905C236.592 224.947 236.274 224.969 235.913 224.969C235.51 224.969 235.129 224.886 234.768 224.722C234.408 224.552 234.113 224.298 233.885 223.959C233.657 223.619 233.543 223.208 233.543 222.726V217.366H232.239V216.221H233.543V214.154H234.927V216.221H236.74V217.366ZM237.603 222.408C237.603 221.512 237.908 220.881 238.518 220.515C239.133 220.15 239.91 219.932 240.848 219.863C241.208 219.837 241.611 219.813 242.057 219.792C242.507 219.765 242.884 219.747 243.186 219.736V219.036C243.186 218.48 243.019 218.053 242.685 217.756C242.356 217.454 241.871 217.303 241.23 217.303C240.705 217.303 240.275 217.411 239.941 217.629C239.607 217.841 239.39 218.119 239.289 218.464H237.858C237.916 218.003 238.096 217.594 238.399 217.239C238.701 216.884 239.101 216.608 239.599 216.412C240.103 216.211 240.668 216.11 241.293 216.11C242.12 216.11 242.868 216.322 243.536 216.746C244.204 217.165 244.538 217.971 244.538 219.164V224.857H243.186V223.68H243.122C243.016 223.903 242.852 224.12 242.629 224.332C242.412 224.539 242.125 224.714 241.77 224.857C241.42 224.995 241.012 225.064 240.546 225.064C239.994 225.064 239.496 224.958 239.051 224.746C238.605 224.534 238.253 224.229 237.993 223.831C237.733 223.428 237.603 222.954 237.603 222.408ZM238.971 222.472C238.971 222.912 239.136 223.251 239.464 223.489C239.798 223.723 240.238 223.839 240.784 223.839C241.277 223.839 241.704 223.741 242.065 223.545C242.43 223.349 242.709 223.089 242.899 222.766C243.09 222.442 243.186 222.095 243.186 221.724V220.857L241.007 221.008C240.36 221.051 239.859 221.191 239.504 221.43C239.149 221.668 238.971 222.016 238.971 222.472ZM251.047 218.464C250.946 218.087 250.75 217.796 250.458 217.589C250.172 217.377 249.785 217.271 249.297 217.271C248.947 217.271 248.632 217.329 248.351 217.446C248.075 217.557 247.858 217.714 247.699 217.915C247.545 218.111 247.468 218.331 247.468 218.575C247.468 218.861 247.588 219.105 247.826 219.307C248.07 219.508 248.444 219.667 248.947 219.784L250.236 220.102C251.01 220.287 251.588 220.574 251.969 220.961C252.351 221.342 252.542 221.835 252.542 222.44C252.542 222.943 252.407 223.391 252.136 223.784C251.871 224.171 251.484 224.475 250.975 224.698C250.466 224.921 249.859 225.032 249.154 225.032C248.184 225.032 247.415 224.825 246.848 224.412C246.281 223.993 245.942 223.389 245.83 222.599H247.262C247.341 223.018 247.535 223.33 247.842 223.537C248.15 223.739 248.576 223.839 249.122 223.839C249.737 223.839 250.225 223.72 250.586 223.481C250.946 223.243 251.126 222.922 251.126 222.519C251.126 222.212 251.012 221.957 250.784 221.756C250.556 221.549 250.199 221.39 249.711 221.279L248.407 220.977C247.654 220.802 247.081 220.515 246.689 220.118C246.297 219.72 246.101 219.232 246.101 218.655C246.101 218.167 246.233 217.73 246.498 217.343C246.769 216.956 247.145 216.653 247.627 216.436C248.115 216.219 248.672 216.11 249.297 216.11C249.881 216.11 250.395 216.208 250.84 216.404C251.285 216.6 251.638 216.876 251.898 217.231C252.163 217.586 252.324 217.997 252.383 218.464H251.047ZM253.834 213.343H255.202V220.038H255.361L259.099 216.221H260.785L257.142 219.919L261.055 224.857H259.321L256.117 220.786L255.202 221.637V224.857H253.834V213.343ZM266.562 218.464C266.461 218.087 266.265 217.796 265.974 217.589C265.687 217.377 265.3 217.271 264.813 217.271C264.463 217.271 264.147 217.329 263.866 217.446C263.591 217.557 263.373 217.714 263.214 217.915C263.061 218.111 262.984 218.331 262.984 218.575C262.984 218.861 263.103 219.105 263.342 219.307C263.585 219.508 263.959 219.667 264.463 219.784L265.751 220.102C266.525 220.287 267.103 220.574 267.485 220.961C267.866 221.342 268.057 221.835 268.057 222.44C268.057 222.943 267.922 223.391 267.652 223.784C267.386 224.171 266.999 224.475 266.491 224.698C265.982 224.921 265.375 225.032 264.67 225.032C263.699 225.032 262.931 224.825 262.363 224.412C261.796 223.993 261.457 223.389 261.346 222.599H262.777C262.856 223.018 263.05 223.33 263.357 223.537C263.665 223.739 264.092 223.839 264.638 223.839C265.253 223.839 265.74 223.72 266.101 223.481C266.461 223.243 266.642 222.922 266.642 222.519C266.642 222.212 266.528 221.957 266.3 221.756C266.072 221.549 265.714 221.39 265.226 221.279L263.922 220.977C263.169 220.802 262.597 220.515 262.204 220.118C261.812 219.72 261.616 219.232 261.616 218.655C261.616 218.167 261.749 217.73 262.014 217.343C262.284 216.956 262.66 216.653 263.143 216.436C263.63 216.219 264.187 216.11 264.813 216.11C265.396 216.11 265.91 216.208 266.355 216.404C266.801 216.6 267.153 216.876 267.413 217.231C267.678 217.586 267.84 217.997 267.898 218.464H266.562ZM272.949 216.221H274.316V224.857H272.949V216.221ZM273.632 214.79C273.367 214.79 273.142 214.702 272.956 214.528C272.771 214.353 272.678 214.138 272.678 213.883C272.678 213.629 272.771 213.414 272.956 213.239C273.142 213.064 273.367 212.977 273.632 212.977C273.897 212.977 274.125 213.064 274.316 213.239C274.507 213.414 274.603 213.629 274.603 213.883C274.603 214.138 274.507 214.353 274.316 214.528C274.125 214.702 273.897 214.79 273.632 214.79ZM277.374 224.857H276.007V216.221H277.327V217.573H277.438C277.655 217.112 277.971 216.754 278.384 216.5C278.803 216.24 279.331 216.11 279.967 216.11C280.56 216.11 281.075 216.232 281.509 216.476C281.944 216.714 282.281 217.077 282.519 217.565C282.758 218.053 282.877 218.655 282.877 219.37V224.857H281.509V219.466C281.509 218.798 281.337 218.276 280.992 217.899C280.648 217.523 280.168 217.335 279.553 217.335C279.129 217.335 278.753 217.427 278.424 217.613C278.095 217.793 277.838 218.061 277.653 218.416C277.467 218.766 277.374 219.185 277.374 219.672V224.857ZM292.985 218.464C292.884 218.087 292.688 217.796 292.397 217.589C292.11 217.377 291.723 217.271 291.236 217.271C290.886 217.271 290.57 217.329 290.289 217.446C290.014 217.557 289.796 217.714 289.637 217.915C289.484 218.111 289.407 218.331 289.407 218.575C289.407 218.861 289.526 219.105 289.764 219.307C290.008 219.508 290.382 219.667 290.886 219.784L292.174 220.102C292.948 220.287 293.526 220.574 293.907 220.961C294.289 221.342 294.48 221.835 294.48 222.44C294.48 222.943 294.345 223.391 294.074 223.784C293.809 224.171 293.422 224.475 292.913 224.698C292.405 224.921 291.798 225.032 291.092 225.032C290.122 225.032 289.354 224.825 288.786 224.412C288.219 223.993 287.88 223.389 287.769 222.599H289.2C289.279 223.018 289.473 223.33 289.78 223.537C290.088 223.739 290.515 223.839 291.061 223.839C291.676 223.839 292.163 223.72 292.524 223.481C292.884 223.243 293.065 222.922 293.065 222.519C293.065 222.212 292.951 221.957 292.723 221.756C292.495 221.549 292.137 221.39 291.649 221.279L290.345 220.977C289.592 220.802 289.02 220.515 288.627 220.118C288.235 219.72 288.039 219.232 288.039 218.655C288.039 218.167 288.171 217.73 288.437 217.343C288.707 216.956 289.083 216.653 289.566 216.436C290.053 216.219 290.61 216.11 291.236 216.11C291.819 216.11 292.333 216.208 292.778 216.404C293.224 216.6 293.576 216.876 293.836 217.231C294.101 217.586 294.263 217.997 294.321 218.464H292.985ZM295.773 216.221H297.093V217.573H297.204C297.39 217.107 297.681 216.746 298.079 216.492C298.482 216.237 298.964 216.11 299.526 216.11C300.077 216.11 300.547 216.237 300.934 216.492C301.321 216.741 301.62 217.101 301.832 217.573H301.928C302.156 217.117 302.492 216.759 302.937 216.5C303.383 216.24 303.91 216.11 304.52 216.11C305.045 216.11 305.503 216.219 305.896 216.436C306.293 216.653 306.603 216.985 306.826 217.43C307.049 217.87 307.16 218.421 307.16 219.084V224.857H305.792V219.1C305.792 218.501 305.628 218.058 305.299 217.772C304.971 217.48 304.552 217.335 304.043 217.335C303.651 217.335 303.311 217.417 303.025 217.581C302.739 217.745 302.521 217.971 302.373 218.257C302.224 218.543 302.15 218.872 302.15 219.243V224.857H300.767V218.957C300.767 218.639 300.695 218.358 300.552 218.114C300.409 217.865 300.207 217.674 299.948 217.541C299.693 217.403 299.404 217.335 299.081 217.335C298.736 217.335 298.415 217.427 298.119 217.613C297.822 217.793 297.583 218.045 297.403 218.368C297.228 218.692 297.14 219.058 297.14 219.466V224.857H295.773V216.221ZM308.453 222.408C308.453 221.512 308.757 220.881 309.367 220.515C309.982 220.15 310.759 219.932 311.697 219.863C312.058 219.837 312.46 219.813 312.906 219.792C313.356 219.765 313.733 219.747 314.035 219.736V219.036C314.035 218.48 313.868 218.053 313.534 217.756C313.205 217.454 312.72 217.303 312.079 217.303C311.554 217.303 311.125 217.411 310.791 217.629C310.457 217.841 310.239 218.119 310.138 218.464H308.707C308.765 218.003 308.946 217.594 309.248 217.239C309.55 216.884 309.95 216.608 310.449 216.412C310.952 216.211 311.517 216.11 312.142 216.11C312.969 216.11 313.717 216.322 314.385 216.746C315.053 217.165 315.387 217.971 315.387 219.164V224.857H314.035V223.68H313.971C313.865 223.903 313.701 224.12 313.478 224.332C313.261 224.539 312.975 224.714 312.62 224.857C312.27 224.995 311.861 225.064 311.395 225.064C310.844 225.064 310.345 224.958 309.9 224.746C309.455 224.534 309.102 224.229 308.842 223.831C308.583 223.428 308.453 222.954 308.453 222.408ZM309.82 222.472C309.82 222.912 309.985 223.251 310.313 223.489C310.647 223.723 311.087 223.839 311.633 223.839C312.126 223.839 312.553 223.741 312.914 223.545C313.28 223.349 313.558 223.089 313.749 222.766C313.94 222.442 314.035 222.095 314.035 221.724V220.857L311.856 221.008C311.209 221.051 310.708 221.191 310.353 221.43C309.998 221.668 309.82 222.016 309.82 222.472ZM318.461 224.857H317.093V213.343H318.461V224.857ZM321.519 224.857H320.151V213.343H321.519V224.857ZM332.263 216.221H333.615V224.857H332.263V223.394H332.167C331.945 223.866 331.616 224.248 331.181 224.539C330.752 224.825 330.227 224.969 329.607 224.969C329.05 224.969 328.563 224.849 328.144 224.611C327.725 224.367 327.396 224.001 327.158 223.513C326.924 223.026 326.808 222.424 326.808 221.708V216.221H328.176V221.613C328.176 222.021 328.255 222.379 328.414 222.686C328.573 222.994 328.793 223.232 329.074 223.402C329.36 223.566 329.686 223.648 330.052 223.648C330.397 223.648 330.739 223.561 331.078 223.386C331.423 223.211 331.706 222.949 331.929 222.599C332.152 222.244 332.263 221.814 332.263 221.311V216.221ZM336.689 224.857H335.321V216.221H336.641V217.573H336.752C336.97 217.112 337.285 216.754 337.699 216.5C338.117 216.24 338.645 216.11 339.281 216.11C339.875 216.11 340.389 216.232 340.824 216.476C341.258 216.714 341.595 217.077 341.834 217.565C342.072 218.053 342.191 218.655 342.191 219.37V224.857H340.824V219.466C340.824 218.798 340.651 218.276 340.307 217.899C339.962 217.523 339.482 217.335 338.868 217.335C338.443 217.335 338.067 217.427 337.738 217.613C337.41 217.793 337.153 218.061 336.967 218.416C336.781 218.766 336.689 219.185 336.689 219.672V224.857ZM343.898 216.221H345.265V224.857H343.898V216.221ZM344.582 214.79C344.316 214.79 344.091 214.702 343.906 214.528C343.72 214.353 343.627 214.138 343.627 213.883C343.627 213.629 343.72 213.414 343.906 213.239C344.091 213.064 344.316 212.977 344.582 212.977C344.847 212.977 345.075 213.064 345.265 213.239C345.456 213.414 345.552 213.629 345.552 213.883C345.552 214.138 345.456 214.353 345.265 214.528C345.075 214.702 344.847 214.79 344.582 214.79ZM350.725 217.366H348.912V222.376C348.912 222.885 349.013 223.227 349.214 223.402C349.415 223.577 349.691 223.664 350.041 223.664C350.306 223.664 350.576 223.654 350.852 223.633V224.905C350.576 224.947 350.258 224.969 349.898 224.969C349.495 224.969 349.113 224.886 348.753 224.722C348.392 224.552 348.098 224.298 347.87 223.959C347.642 223.619 347.528 223.208 347.528 222.726V217.366H346.224V216.221H347.528V214.154H348.912V216.221H350.725V217.366ZM356.646 218.464C356.545 218.087 356.349 217.796 356.057 217.589C355.771 217.377 355.384 217.271 354.896 217.271C354.546 217.271 354.231 217.329 353.95 217.446C353.674 217.557 353.457 217.714 353.298 217.915C353.144 218.111 353.067 218.331 353.067 218.575C353.067 218.861 353.187 219.105 353.425 219.307C353.669 219.508 354.043 219.667 354.546 219.784L355.835 220.102C356.609 220.287 357.186 220.574 357.568 220.961C357.95 221.342 358.141 221.835 358.141 222.44C358.141 222.943 358.005 223.391 357.735 223.784C357.47 224.171 357.083 224.475 356.574 224.698C356.065 224.921 355.458 225.032 354.753 225.032C353.783 225.032 353.014 224.825 352.447 224.412C351.88 223.993 351.54 223.389 351.429 222.599H352.861C352.94 223.018 353.134 223.33 353.441 223.537C353.748 223.739 354.175 223.839 354.721 223.839C355.336 223.839 355.824 223.72 356.184 223.481C356.545 223.243 356.725 222.922 356.725 222.519C356.725 222.212 356.611 221.957 356.383 221.756C356.155 221.549 355.797 221.39 355.31 221.279L354.006 220.977C353.253 220.802 352.68 220.515 352.288 220.118C351.896 219.72 351.7 219.232 351.7 218.655C351.7 218.167 351.832 217.73 352.097 217.343C352.367 216.956 352.744 216.653 353.226 216.436C353.714 216.219 354.271 216.11 354.896 216.11C355.479 216.11 355.994 216.208 356.439 216.404C356.884 216.6 357.237 216.876 357.497 217.231C357.762 217.586 357.923 217.997 357.982 218.464H356.646Z" fill="#757575" style="fill:#757575;fill:color(display-p3 0.4588 0.4588 0.4588);fill-opacity:1;"/>
<path d="M157.844 260.628H161.756C162.625 260.628 163.354 260.787 163.943 261.105C164.531 261.424 164.969 261.858 165.255 262.41C165.541 262.956 165.684 263.581 165.684 264.286C165.684 264.986 165.541 265.614 165.255 266.171C164.969 266.722 164.531 267.16 163.943 267.483C163.36 267.801 162.636 267.96 161.772 267.96H159.275V272.143H157.844V260.628ZM161.708 266.688C162.578 266.688 163.222 266.47 163.641 266.036C164.059 265.596 164.269 265.013 164.269 264.286C164.269 263.555 164.059 262.974 163.641 262.545C163.222 262.115 162.572 261.901 161.692 261.901H159.275V266.688H161.708ZM168.392 272.143H167.025V260.628H168.392V272.143ZM173.709 272.318C172.887 272.318 172.171 272.135 171.562 271.769C170.952 271.403 170.483 270.886 170.154 270.218C169.831 269.55 169.669 268.776 169.669 267.896C169.669 267.016 169.831 266.237 170.154 265.559C170.483 264.875 170.942 264.345 171.53 263.968C172.124 263.586 172.808 263.396 173.582 263.396C174.234 263.396 174.841 263.541 175.403 263.833C175.965 264.119 176.42 264.586 176.77 265.233C177.126 265.874 177.303 266.698 177.303 267.706V268.278H171.037C171.058 268.877 171.183 269.389 171.411 269.813C171.639 270.237 171.949 270.56 172.341 270.783C172.739 271 173.195 271.109 173.709 271.109C174.197 271.109 174.607 271.019 174.941 270.839C175.281 270.653 175.538 270.415 175.713 270.123H177.176C177.038 270.558 176.807 270.942 176.484 271.276C176.166 271.605 175.768 271.862 175.291 272.047C174.819 272.228 174.292 272.318 173.709 272.318ZM175.919 267.117C175.919 266.635 175.821 266.205 175.625 265.829C175.434 265.447 175.161 265.148 174.806 264.93C174.451 264.713 174.043 264.604 173.582 264.604C173.099 264.604 172.67 264.718 172.293 264.946C171.922 265.174 171.628 265.482 171.411 265.869C171.199 266.25 171.077 266.667 171.045 267.117H175.919ZM178.182 269.694C178.182 268.798 178.487 268.167 179.097 267.801C179.712 267.435 180.488 267.218 181.427 267.149C181.787 267.122 182.19 267.099 182.635 267.077C183.086 267.051 183.462 267.032 183.765 267.022V266.322C183.765 265.765 183.598 265.339 183.264 265.042C182.935 264.74 182.45 264.588 181.808 264.588C181.284 264.588 180.854 264.697 180.52 264.914C180.186 265.127 179.969 265.405 179.868 265.749H178.437C178.495 265.288 178.675 264.88 178.978 264.525C179.28 264.17 179.68 263.894 180.178 263.698C180.682 263.496 181.246 263.396 181.872 263.396C182.699 263.396 183.447 263.608 184.115 264.032C184.782 264.451 185.116 265.256 185.116 266.449V272.143H183.765V270.966H183.701C183.595 271.189 183.431 271.406 183.208 271.618C182.991 271.825 182.704 272 182.349 272.143C181.999 272.281 181.591 272.35 181.125 272.35C180.573 272.35 180.075 272.244 179.63 272.031C179.184 271.819 178.832 271.515 178.572 271.117C178.312 270.714 178.182 270.24 178.182 269.694ZM179.55 269.757C179.55 270.197 179.714 270.537 180.043 270.775C180.377 271.008 180.817 271.125 181.363 271.125C181.856 271.125 182.283 271.027 182.643 270.831C183.009 270.635 183.287 270.375 183.478 270.051C183.669 269.728 183.765 269.381 183.765 269.01V268.143L181.586 268.294C180.939 268.336 180.438 268.477 180.083 268.716C179.728 268.954 179.55 269.301 179.55 269.757ZM191.626 265.749C191.525 265.373 191.329 265.081 191.037 264.875C190.751 264.663 190.364 264.557 189.876 264.557C189.526 264.557 189.211 264.615 188.93 264.732C188.654 264.843 188.437 264.999 188.278 265.201C188.124 265.397 188.047 265.617 188.047 265.861C188.047 266.147 188.167 266.391 188.405 266.592C188.649 266.794 189.023 266.953 189.526 267.069L190.815 267.388C191.589 267.573 192.166 267.859 192.548 268.246C192.93 268.628 193.121 269.121 193.121 269.725C193.121 270.229 192.985 270.677 192.715 271.069C192.45 271.456 192.063 271.761 191.554 271.984C191.045 272.206 190.438 272.318 189.733 272.318C188.763 272.318 187.994 272.111 187.427 271.698C186.86 271.279 186.52 270.674 186.409 269.884H187.84C187.92 270.303 188.114 270.616 188.421 270.823C188.728 271.024 189.155 271.125 189.701 271.125C190.316 271.125 190.804 271.006 191.164 270.767C191.525 270.529 191.705 270.208 191.705 269.805C191.705 269.497 191.591 269.243 191.363 269.042C191.135 268.835 190.777 268.676 190.29 268.564L188.986 268.262C188.233 268.087 187.66 267.801 187.268 267.403C186.876 267.006 186.68 266.518 186.68 265.94C186.68 265.453 186.812 265.015 187.077 264.628C187.347 264.241 187.724 263.939 188.206 263.722C188.694 263.504 189.251 263.396 189.876 263.396C190.459 263.396 190.974 263.494 191.419 263.69C191.864 263.886 192.217 264.162 192.477 264.517C192.742 264.872 192.903 265.283 192.962 265.749H191.626ZM198.039 272.318C197.218 272.318 196.502 272.135 195.892 271.769C195.283 271.403 194.814 270.886 194.485 270.218C194.161 269.55 194 268.776 194 267.896C194 267.016 194.161 266.237 194.485 265.559C194.814 264.875 195.272 264.345 195.861 263.968C196.454 263.586 197.138 263.396 197.912 263.396C198.564 263.396 199.171 263.541 199.733 263.833C200.295 264.119 200.751 264.586 201.101 265.233C201.456 265.874 201.634 266.698 201.634 267.706V268.278H195.368C195.389 268.877 195.513 269.389 195.741 269.813C195.969 270.237 196.279 270.56 196.672 270.783C197.069 271 197.525 271.109 198.039 271.109C198.527 271.109 198.938 271.019 199.272 270.839C199.611 270.653 199.868 270.415 200.043 270.123H201.506C201.369 270.558 201.138 270.942 200.815 271.276C200.497 271.605 200.099 271.862 199.622 272.047C199.15 272.228 198.623 272.318 198.039 272.318ZM200.25 267.117C200.25 266.635 200.152 266.205 199.956 265.829C199.765 265.447 199.492 265.148 199.137 264.93C198.782 264.713 198.373 264.604 197.912 264.604C197.43 264.604 197 264.718 196.624 264.946C196.253 265.174 195.959 265.482 195.741 265.869C195.529 266.25 195.407 266.667 195.375 267.117H200.25ZM210.151 272.318C209.33 272.318 208.614 272.135 208.004 271.769C207.395 271.403 206.925 270.886 206.597 270.218C206.273 269.55 206.112 268.776 206.112 267.896C206.112 267.016 206.273 266.237 206.597 265.559C206.925 264.875 207.384 264.345 207.972 263.968C208.566 263.586 209.25 263.396 210.024 263.396C210.676 263.396 211.283 263.541 211.845 263.833C212.407 264.119 212.863 264.586 213.213 265.233C213.568 265.874 213.746 266.698 213.746 267.706V268.278H207.479C207.501 268.877 207.625 269.389 207.853 269.813C208.081 270.237 208.391 270.56 208.784 270.783C209.181 271 209.637 271.109 210.151 271.109C210.639 271.109 211.05 271.019 211.384 270.839C211.723 270.653 211.98 270.415 212.155 270.123H213.618C213.481 270.558 213.25 270.942 212.927 271.276C212.608 271.605 212.211 271.862 211.734 272.047C211.262 272.228 210.734 272.318 210.151 272.318ZM212.362 267.117C212.362 266.635 212.264 266.205 212.068 265.829C211.877 265.447 211.604 265.148 211.249 264.93C210.893 264.713 210.485 264.604 210.024 264.604C209.542 264.604 209.112 264.718 208.736 264.946C208.365 265.174 208.071 265.482 207.853 265.869C207.641 266.25 207.519 266.667 207.487 267.117H212.362ZM216.406 272.143H215.038V263.507H216.358V264.859H216.47C216.687 264.398 217.002 264.04 217.416 263.785C217.835 263.525 218.362 263.396 218.998 263.396C219.592 263.396 220.106 263.518 220.541 263.761C220.976 264 221.312 264.363 221.551 264.851C221.79 265.339 221.909 265.94 221.909 266.656V272.143H220.541V266.751C220.541 266.083 220.369 265.561 220.024 265.185C219.68 264.808 219.2 264.62 218.585 264.62C218.161 264.62 217.784 264.713 217.456 264.899C217.127 265.079 216.87 265.347 216.684 265.702C216.499 266.052 216.406 266.47 216.406 266.958V272.143ZM227.384 264.652H225.571V269.662C225.571 270.171 225.672 270.513 225.873 270.688C226.075 270.863 226.35 270.95 226.7 270.95C226.965 270.95 227.236 270.939 227.511 270.918V272.191C227.236 272.233 226.918 272.254 226.557 272.254C226.154 272.254 225.773 272.172 225.412 272.008C225.052 271.838 224.757 271.584 224.529 271.244C224.302 270.905 224.188 270.494 224.188 270.012V264.652H222.883V263.507H224.188V261.439H225.571V263.507H227.384V264.652ZM232.208 272.318C231.386 272.318 230.67 272.135 230.061 271.769C229.451 271.403 228.982 270.886 228.653 270.218C228.33 269.55 228.168 268.776 228.168 267.896C228.168 267.016 228.33 266.237 228.653 265.559C228.982 264.875 229.44 264.345 230.029 263.968C230.623 263.586 231.306 263.396 232.08 263.396C232.732 263.396 233.339 263.541 233.901 263.833C234.463 264.119 234.919 264.586 235.269 265.233C235.624 265.874 235.802 266.698 235.802 267.706V268.278H229.536C229.557 268.877 229.682 269.389 229.909 269.813C230.137 270.237 230.448 270.56 230.84 270.783C231.237 271 231.693 271.109 232.208 271.109C232.695 271.109 233.106 271.019 233.44 270.839C233.779 270.653 234.037 270.415 234.212 270.123H235.675C235.537 270.558 235.306 270.942 234.983 271.276C234.665 271.605 234.267 271.862 233.79 272.047C233.318 272.228 232.791 272.318 232.208 272.318ZM234.418 267.117C234.418 266.635 234.32 266.205 234.124 265.829C233.933 265.447 233.66 265.148 233.305 264.93C232.95 264.713 232.542 264.604 232.08 264.604C231.598 264.604 231.169 264.718 230.792 264.946C230.421 265.174 230.127 265.482 229.909 265.869C229.697 266.25 229.576 266.667 229.544 267.117H234.418ZM237.095 263.507H238.415V264.827H238.51C238.669 264.387 238.953 264.034 239.361 263.769C239.769 263.499 240.228 263.364 240.737 263.364C241.002 263.364 241.24 263.374 241.452 263.396V264.779C241.394 264.758 241.28 264.737 241.11 264.716C240.946 264.694 240.784 264.684 240.625 264.684C240.217 264.684 239.849 264.771 239.52 264.946C239.191 265.121 238.932 265.362 238.741 265.67C238.555 265.977 238.462 266.322 238.462 266.704V272.143H237.095V263.507ZM245.485 269.694C245.485 268.798 245.79 268.167 246.399 267.801C247.014 267.435 247.791 267.218 248.729 267.149C249.09 267.122 249.493 267.099 249.938 267.077C250.389 267.051 250.765 267.032 251.067 267.022V266.322C251.067 265.765 250.9 265.339 250.566 265.042C250.238 264.74 249.752 264.588 249.111 264.588C248.586 264.588 248.157 264.697 247.823 264.914C247.489 265.127 247.271 265.405 247.171 265.749H245.739C245.798 265.288 245.978 264.88 246.28 264.525C246.582 264.17 246.983 263.894 247.481 263.698C247.985 263.496 248.549 263.396 249.175 263.396C250.002 263.396 250.749 263.608 251.417 264.032C252.085 264.451 252.419 265.256 252.419 266.449V272.143H251.067V270.966H251.004C250.898 271.189 250.733 271.406 250.511 271.618C250.293 271.825 250.007 272 249.652 272.143C249.302 272.281 248.894 272.35 248.427 272.35C247.876 272.35 247.377 272.244 246.932 272.031C246.487 271.819 246.134 271.515 245.875 271.117C245.615 270.714 245.485 270.24 245.485 269.694ZM246.853 269.757C246.853 270.197 247.017 270.537 247.346 270.775C247.68 271.008 248.12 271.125 248.666 271.125C249.159 271.125 249.586 271.027 249.946 270.831C250.312 270.635 250.59 270.375 250.781 270.051C250.972 269.728 251.067 269.381 251.067 269.01V268.143L248.888 268.294C248.242 268.336 247.741 268.477 247.385 268.716C247.03 268.954 246.853 269.301 246.853 269.757ZM257.724 263.507H259.044V264.859H259.155C259.341 264.392 259.632 264.032 260.03 263.777C260.433 263.523 260.915 263.396 261.477 263.396C262.029 263.396 262.498 263.523 262.885 263.777C263.272 264.026 263.571 264.387 263.783 264.859H263.879C264.107 264.403 264.443 264.045 264.889 263.785C265.334 263.525 265.862 263.396 266.471 263.396C266.996 263.396 267.455 263.504 267.847 263.722C268.245 263.939 268.555 264.27 268.777 264.716C269 265.156 269.111 265.707 269.111 266.37V272.143H267.744V266.386C267.744 265.787 267.579 265.344 267.251 265.058C266.922 264.766 266.503 264.62 265.994 264.62C265.602 264.62 265.263 264.702 264.976 264.867C264.69 265.031 264.473 265.256 264.324 265.543C264.176 265.829 264.102 266.158 264.102 266.529V272.143H262.718V266.242C262.718 265.924 262.646 265.643 262.503 265.4C262.36 265.15 262.159 264.96 261.899 264.827C261.644 264.689 261.355 264.62 261.032 264.62C260.687 264.62 260.367 264.713 260.07 264.899C259.773 265.079 259.534 265.331 259.354 265.654C259.179 265.977 259.092 266.343 259.092 266.751V272.143H257.724V263.507ZM274.444 272.318C273.622 272.318 272.906 272.135 272.297 271.769C271.687 271.403 271.218 270.886 270.889 270.218C270.566 269.55 270.404 268.776 270.404 267.896C270.404 267.016 270.566 266.237 270.889 265.559C271.218 264.875 271.676 264.345 272.265 263.968C272.858 263.586 273.542 263.396 274.316 263.396C274.968 263.396 275.575 263.541 276.137 263.833C276.699 264.119 277.155 264.586 277.505 265.233C277.86 265.874 278.038 266.698 278.038 267.706V268.278H271.772C271.793 268.877 271.918 269.389 272.145 269.813C272.373 270.237 272.684 270.56 273.076 270.783C273.473 271 273.929 271.109 274.444 271.109C274.931 271.109 275.342 271.019 275.676 270.839C276.015 270.653 276.273 270.415 276.447 270.123H277.911C277.773 270.558 277.542 270.942 277.219 271.276C276.901 271.605 276.503 271.862 276.026 272.047C275.554 272.228 275.027 272.318 274.444 272.318ZM276.654 267.117C276.654 266.635 276.556 266.205 276.36 265.829C276.169 265.447 275.896 265.148 275.541 264.93C275.186 264.713 274.778 264.604 274.316 264.604C273.834 264.604 273.405 264.718 273.028 264.946C272.657 265.174 272.363 265.482 272.145 265.869C271.933 266.25 271.811 266.667 271.78 267.117H276.654ZM279.331 263.507H280.651V264.859H280.762C280.947 264.392 281.239 264.032 281.637 263.777C282.04 263.523 282.522 263.396 283.084 263.396C283.635 263.396 284.104 263.523 284.491 263.777C284.878 264.026 285.178 264.387 285.39 264.859H285.485C285.713 264.403 286.05 264.045 286.495 263.785C286.941 263.525 287.468 263.396 288.078 263.396C288.603 263.396 289.061 263.504 289.453 263.722C289.851 263.939 290.161 264.27 290.384 264.716C290.607 265.156 290.718 265.707 290.718 266.37V272.143H289.35V266.386C289.35 265.787 289.186 265.344 288.857 265.058C288.528 264.766 288.11 264.62 287.601 264.62C287.208 264.62 286.869 264.702 286.583 264.867C286.297 265.031 286.079 265.256 285.931 265.543C285.782 265.829 285.708 266.158 285.708 266.529V272.143H284.324V266.242C284.324 265.924 284.253 265.643 284.11 265.4C283.967 265.15 283.765 264.96 283.505 264.827C283.251 264.689 282.962 264.62 282.639 264.62C282.294 264.62 281.973 264.713 281.676 264.899C281.38 265.079 281.141 265.331 280.961 265.654C280.786 265.977 280.698 266.343 280.698 266.751V272.143H279.331V263.507ZM295.955 272.318C295.175 272.318 294.486 272.135 293.887 271.769C293.293 271.398 292.832 270.876 292.504 270.203C292.175 269.529 292.011 268.75 292.011 267.865C292.011 266.979 292.175 266.2 292.504 265.527C292.832 264.848 293.293 264.323 293.887 263.952C294.486 263.581 295.175 263.396 295.955 263.396C296.729 263.396 297.41 263.581 297.998 263.952C298.592 264.323 299.051 264.848 299.374 265.527C299.703 266.2 299.867 266.979 299.867 267.865C299.867 268.75 299.703 269.529 299.374 270.203C299.051 270.876 298.592 271.398 297.998 271.769C297.41 272.135 296.729 272.318 295.955 272.318ZM295.955 271.109C296.511 271.109 296.981 270.963 297.362 270.672C297.744 270.375 298.028 269.983 298.213 269.495C298.404 269.002 298.499 268.458 298.499 267.865C298.499 267.271 298.404 266.728 298.213 266.234C298.028 265.741 297.744 265.347 297.362 265.05C296.981 264.753 296.511 264.604 295.955 264.604C295.387 264.604 294.91 264.753 294.523 265.05C294.142 265.347 293.855 265.741 293.665 266.234C293.474 266.728 293.378 267.271 293.378 267.865C293.378 268.458 293.474 269.002 293.665 269.495C293.855 269.983 294.142 270.375 294.523 270.672C294.91 270.963 295.387 271.109 295.955 271.109ZM302.146 272.238C301.96 272.238 301.788 272.193 301.629 272.103C301.475 272.008 301.351 271.88 301.255 271.721C301.165 271.562 301.123 271.39 301.128 271.204C301.123 271.024 301.165 270.857 301.255 270.704C301.351 270.544 301.475 270.42 301.629 270.33C301.788 270.234 301.96 270.187 302.146 270.187C302.326 270.187 302.493 270.234 302.647 270.33C302.806 270.42 302.93 270.544 303.021 270.704C303.116 270.857 303.164 271.024 303.164 271.204C303.164 271.39 303.116 271.562 303.021 271.721C302.93 271.88 302.806 272.008 302.647 272.103C302.493 272.193 302.326 272.238 302.146 272.238ZM305.792 272.238C305.607 272.238 305.434 272.193 305.275 272.103C305.122 272.008 304.997 271.88 304.902 271.721C304.812 271.562 304.769 271.39 304.774 271.204C304.769 271.024 304.812 270.857 304.902 270.704C304.997 270.544 305.122 270.42 305.275 270.33C305.434 270.234 305.607 270.187 305.792 270.187C305.973 270.187 306.14 270.234 306.293 270.33C306.452 270.42 306.577 270.544 306.667 270.704C306.762 270.857 306.81 271.024 306.81 271.204C306.81 271.39 306.762 271.562 306.667 271.721C306.577 271.88 306.452 272.008 306.293 272.103C306.14 272.193 305.973 272.238 305.792 272.238Z" fill="#757575" style="fill:#757575;fill:color(display-p3 0.4588 0.4588 0.4588);fill-opacity:1;"/>
<g clip-path="url(#clip1_2955_99363)">
<path d="M163.655 330.226V346.059H179.488V330.226H163.655ZM181.071 346.059C181.071 346.934 180.362 347.643 179.488 347.643H163.655C162.78 347.643 162.071 346.934 162.071 346.059V330.226C162.071 329.352 162.78 328.643 163.655 328.643H179.488C180.362 328.643 181.071 329.352 181.071 330.226V346.059Z" fill="#9F9F9F" style="fill:#9F9F9F;fill:color(display-p3 0.6235 0.6235 0.6235);fill-opacity:1;"/>
<path d="M175.643 330.679V327.964C175.643 327.589 175.946 327.286 176.321 327.286C176.696 327.286 177 327.589 177 327.964V330.679C177 331.053 176.696 331.357 176.321 331.357C175.946 331.357 175.643 331.053 175.643 330.679Z" fill="#9F9F9F" style="fill:#9F9F9F;fill:color(display-p3 0.6235 0.6235 0.6235);fill-opacity:1;"/>
<path d="M166.143 330.679V327.964C166.143 327.589 166.446 327.286 166.821 327.286C167.196 327.286 167.5 327.589 167.5 327.964V330.679C167.5 331.053 167.196 331.357 166.821 331.357C166.446 331.357 166.143 331.053 166.143 330.679Z" fill="#9F9F9F" style="fill:#9F9F9F;fill:color(display-p3 0.6235 0.6235 0.6235);fill-opacity:1;"/>
<path d="M180.28 333.958C180.717 333.958 181.071 334.313 181.071 334.75C181.071 335.187 180.717 335.542 180.28 335.542H162.863C162.426 335.542 162.071 335.187 162.071 334.75C162.071 334.313 162.426 333.958 162.863 333.958H180.28Z" fill="#9F9F9F" style="fill:#9F9F9F;fill:color(display-p3 0.6235 0.6235 0.6235);fill-opacity:1;"/>
<path d="M172.928 340.857C173.678 340.857 174.286 340.249 174.286 339.5C174.286 338.75 173.678 338.143 172.928 338.143C172.179 338.143 171.571 338.75 171.571 339.5C171.571 340.249 172.179 340.857 172.928 340.857Z" fill="#9F9F9F" style="fill:#9F9F9F;fill:color(display-p3 0.6235 0.6235 0.6235);fill-opacity:1;"/>
<path d="M177 340.857C177.749 340.857 178.357 340.249 178.357 339.5C178.357 338.75 177.749 338.143 177 338.143C176.25 338.143 175.643 338.75 175.643 339.5C175.643 340.249 176.25 340.857 177 340.857Z" fill="#9F9F9F" style="fill:#9F9F9F;fill:color(display-p3 0.6235 0.6235 0.6235);fill-opacity:1;"/>
<path d="M168.857 344.929C169.607 344.929 170.214 344.321 170.214 343.571C170.214 342.822 169.607 342.214 168.857 342.214C168.108 342.214 167.5 342.822 167.5 343.571C167.5 344.321 168.108 344.929 168.857 344.929Z" fill="#9F9F9F" style="fill:#9F9F9F;fill:color(display-p3 0.6235 0.6235 0.6235);fill-opacity:1;"/>
<path d="M172.928 344.929C173.678 344.929 174.286 344.321 174.286 343.571C174.286 342.822 173.678 342.214 172.928 342.214C172.179 342.214 171.571 342.822 171.571 343.571C171.571 344.321 172.179 344.929 172.928 344.929Z" fill="#9F9F9F" style="fill:#9F9F9F;fill:color(display-p3 0.6235 0.6235 0.6235);fill-opacity:1;"/>
<path d="M177 344.929C177.749 344.929 178.357 344.321 178.357 343.571C178.357 342.822 177.749 342.214 177 342.214C176.25 342.214 175.643 342.822 175.643 343.571C175.643 344.321 176.25 344.929 177 344.929Z" fill="#9F9F9F" style="fill:#9F9F9F;fill:color(display-p3 0.6235 0.6235 0.6235);fill-opacity:1;"/>
</g>
<path d="M190.203 343.286V333.69H193.304C194.227 333.69 195.023 333.882 195.69 334.267C196.361 334.647 196.874 335.197 197.227 335.917C197.581 336.632 197.757 337.485 197.757 338.475C197.757 339.473 197.578 340.332 197.22 341.052C196.863 341.773 196.341 342.325 195.657 342.709C194.972 343.093 194.148 343.286 193.185 343.286H190.203ZM193.105 342.225C194.263 342.225 195.133 341.898 195.716 341.245C196.299 340.591 196.591 339.667 196.591 338.475C196.591 337.295 196.306 336.381 195.736 335.731C195.166 335.077 194.329 334.75 193.225 334.75H191.396V342.225H193.105ZM198.609 341.245C198.609 340.498 198.863 339.972 199.371 339.667C199.884 339.363 200.531 339.182 201.313 339.124C201.613 339.102 201.949 339.082 202.32 339.064C202.696 339.042 203.009 339.027 203.261 339.018V338.435C203.261 337.971 203.122 337.615 202.844 337.368C202.57 337.116 202.165 336.99 201.631 336.99C201.194 336.99 200.836 337.081 200.557 337.262C200.279 337.439 200.098 337.671 200.014 337.958H198.821C198.87 337.573 199.02 337.233 199.272 336.937C199.524 336.641 199.857 336.412 200.272 336.248C200.692 336.08 201.163 335.996 201.684 335.996C202.373 335.996 202.996 336.173 203.553 336.526C204.109 336.875 204.388 337.547 204.388 338.541V343.286H203.261V342.305H203.208C203.12 342.49 202.983 342.672 202.797 342.848C202.616 343.021 202.378 343.166 202.082 343.286C201.79 343.401 201.45 343.458 201.061 343.458C200.602 343.458 200.186 343.37 199.815 343.193C199.444 343.016 199.15 342.762 198.934 342.431C198.717 342.095 198.609 341.7 198.609 341.245ZM199.749 341.298C199.749 341.664 199.886 341.947 200.16 342.146C200.438 342.34 200.805 342.437 201.26 342.437C201.671 342.437 202.026 342.356 202.327 342.192C202.632 342.029 202.864 341.812 203.023 341.543C203.182 341.273 203.261 340.984 203.261 340.675V339.952L201.445 340.078C200.906 340.114 200.489 340.231 200.193 340.43C199.897 340.628 199.749 340.918 199.749 341.298ZM208.951 337.043H207.44V341.218C207.44 341.642 207.524 341.927 207.691 342.073C207.859 342.219 208.089 342.292 208.381 342.292C208.601 342.292 208.827 342.283 209.057 342.265V343.325C208.827 343.361 208.562 343.378 208.261 343.378C207.926 343.378 207.607 343.31 207.307 343.173C207.007 343.032 206.761 342.82 206.572 342.537C206.382 342.254 206.287 341.912 206.287 341.51V337.043H205.2V336.089H206.287V334.366H207.44V336.089H208.951V337.043ZM212.97 343.431C212.285 343.431 211.689 343.279 211.181 342.974C210.673 342.669 210.282 342.239 210.008 341.682C209.738 341.125 209.604 340.48 209.604 339.747C209.604 339.014 209.738 338.364 210.008 337.799C210.282 337.229 210.664 336.787 211.154 336.473C211.649 336.155 212.219 335.996 212.864 335.996C213.407 335.996 213.913 336.118 214.381 336.361C214.85 336.599 215.23 336.988 215.521 337.527C215.817 338.062 215.965 338.749 215.965 339.588V340.065H210.743C210.761 340.564 210.865 340.991 211.055 341.344C211.245 341.697 211.503 341.967 211.83 342.152C212.162 342.334 212.541 342.424 212.97 342.424C213.376 342.424 213.719 342.349 213.997 342.199C214.28 342.044 214.494 341.845 214.64 341.602H215.859C215.744 341.965 215.552 342.285 215.283 342.563C215.018 342.837 214.686 343.052 214.289 343.206C213.896 343.356 213.456 343.431 212.97 343.431ZM214.812 339.098C214.812 338.696 214.73 338.338 214.567 338.024C214.408 337.706 214.18 337.456 213.884 337.275C213.588 337.094 213.248 337.004 212.864 337.004C212.462 337.004 212.104 337.099 211.79 337.289C211.481 337.478 211.236 337.735 211.055 338.057C210.878 338.375 210.777 338.722 210.75 339.098H214.812Z" fill="#9F9F9F" style="fill:#9F9F9F;fill:color(display-p3 0.6235 0.6235 0.6235);fill-opacity:1;"/>
<g clip-path="url(#clip2_2955_99363)">
<path d="M251.038 338.143C251.038 333.703 247.44 330.104 243 330.104C238.56 330.104 234.962 333.703 234.962 338.143C234.962 342.582 238.56 346.181 243 346.181C247.44 346.181 251.038 342.582 251.038 338.143ZM252.5 338.143C252.5 343.39 248.247 347.643 243 347.643C237.753 347.643 233.5 343.39 233.5 338.143C233.5 332.896 237.753 328.643 243 328.643C248.247 328.643 252.5 332.896 252.5 338.143Z" fill="#9F9F9F" style="fill:#9F9F9F;fill:color(display-p3 0.6235 0.6235 0.6235);fill-opacity:1;"/>
<path d="M242.107 333.996C242.107 333.663 242.377 333.393 242.71 333.393C243.043 333.393 243.313 333.663 243.313 333.996V337.615H246.932C247.265 337.615 247.536 337.885 247.536 338.218C247.536 338.551 247.265 338.821 246.932 338.821H242.71C242.377 338.821 242.107 338.551 242.107 338.218V333.996Z" fill="#9F9F9F" style="fill:#9F9F9F;fill:color(display-p3 0.6235 0.6235 0.6235);fill-opacity:1;"/>
</g>
<path d="M265.828 343.418C265.121 343.418 264.516 343.226 264.012 342.842C263.513 342.457 263.131 341.896 262.866 341.158C262.605 340.421 262.475 339.531 262.475 338.488C262.475 337.459 262.607 336.575 262.872 335.837C263.137 335.095 263.522 334.53 264.025 334.141C264.529 333.752 265.13 333.558 265.828 333.558C266.526 333.558 267.127 333.752 267.63 334.141C268.134 334.53 268.518 335.095 268.783 335.837C269.048 336.575 269.181 337.459 269.181 338.488C269.181 339.531 269.048 340.421 268.783 341.158C268.523 341.896 268.141 342.457 267.637 342.842C267.133 343.226 266.53 343.418 265.828 343.418ZM265.828 342.358C266.287 342.358 266.681 342.208 267.007 341.907C267.334 341.607 267.584 341.167 267.756 340.589C267.929 340.01 268.015 339.31 268.015 338.488C268.015 337.666 267.929 336.964 267.756 336.381C267.584 335.798 267.334 335.354 267.007 335.049C266.681 334.744 266.287 334.591 265.828 334.591C265.368 334.591 264.973 334.744 264.642 335.049C264.315 335.354 264.063 335.798 263.886 336.381C263.714 336.964 263.628 337.666 263.628 338.488C263.628 339.31 263.714 340.01 263.886 340.589C264.059 341.167 264.308 341.607 264.635 341.907C264.966 342.208 265.364 342.358 265.828 342.358ZM273.505 343.418C272.798 343.418 272.193 343.226 271.69 342.842C271.19 342.457 270.808 341.896 270.543 341.158C270.283 340.421 270.152 339.531 270.152 338.488C270.152 337.459 270.285 336.575 270.55 335.837C270.815 335.095 271.199 334.53 271.703 334.141C272.206 333.752 272.807 333.558 273.505 333.558C274.203 333.558 274.804 333.752 275.308 334.141C275.811 334.53 276.196 335.095 276.461 335.837C276.726 336.575 276.858 337.459 276.858 338.488C276.858 339.531 276.726 340.421 276.461 341.158C276.2 341.896 275.818 342.457 275.314 342.842C274.811 343.226 274.208 343.418 273.505 343.418ZM273.505 342.358C273.965 342.358 274.358 342.208 274.685 341.907C275.012 341.607 275.261 341.167 275.434 340.589C275.606 340.01 275.692 339.31 275.692 338.488C275.692 337.666 275.606 336.964 275.434 336.381C275.261 335.798 275.012 335.354 274.685 335.049C274.358 334.744 273.965 334.591 273.505 334.591C273.046 334.591 272.65 334.744 272.319 335.049C271.992 335.354 271.74 335.798 271.564 336.381C271.391 336.964 271.305 337.666 271.305 338.488C271.305 339.31 271.391 340.01 271.564 340.589C271.736 341.167 271.986 341.607 272.313 341.907C272.644 342.208 273.041 342.358 273.505 342.358ZM281.862 342.013C281.708 342.013 281.564 341.976 281.432 341.901C281.303 341.821 281.2 341.715 281.12 341.583C281.045 341.45 281.01 341.306 281.014 341.152C281.01 341.002 281.045 340.862 281.12 340.734C281.2 340.602 281.303 340.498 281.432 340.423C281.564 340.343 281.708 340.304 281.862 340.304C282.013 340.304 282.152 340.343 282.28 340.423C282.412 340.498 282.516 340.602 282.591 340.734C282.671 340.862 282.711 341.002 282.711 341.152C282.711 341.306 282.671 341.45 282.591 341.583C282.516 341.715 282.412 341.821 282.28 341.901C282.152 341.976 282.013 342.013 281.862 342.013ZM281.862 336.685C281.708 336.685 281.564 336.648 281.432 336.573C281.303 336.493 281.2 336.387 281.12 336.255C281.045 336.122 281.01 335.979 281.014 335.824C281.01 335.674 281.045 335.535 281.12 335.407C281.2 335.274 281.303 335.17 281.432 335.095C281.564 335.016 281.708 334.976 281.862 334.976C282.013 334.976 282.152 335.016 282.28 335.095C282.412 335.17 282.516 335.274 282.591 335.407C282.671 335.535 282.711 335.674 282.711 335.824C282.711 335.979 282.671 336.122 282.591 336.255C282.516 336.387 282.412 336.493 282.28 336.573C282.152 336.648 282.013 336.685 281.862 336.685ZM290.219 343.418C289.513 343.418 288.907 343.226 288.404 342.842C287.904 342.457 287.522 341.896 287.257 341.158C286.997 340.421 286.866 339.531 286.866 338.488C286.866 337.459 286.999 336.575 287.264 335.837C287.529 335.095 287.913 334.53 288.417 334.141C288.921 333.752 289.521 333.558 290.219 333.558C290.917 333.558 291.518 333.752 292.022 334.141C292.525 334.53 292.91 335.095 293.175 335.837C293.44 336.575 293.572 337.459 293.572 338.488C293.572 339.531 293.44 340.421 293.175 341.158C292.914 341.896 292.532 342.457 292.028 342.842C291.525 343.226 290.922 343.418 290.219 343.418ZM290.219 342.358C290.679 342.358 291.072 342.208 291.399 341.907C291.726 341.607 291.975 341.167 292.148 340.589C292.32 340.01 292.406 339.31 292.406 338.488C292.406 337.666 292.32 336.964 292.148 336.381C291.975 335.798 291.726 335.354 291.399 335.049C291.072 334.744 290.679 334.591 290.219 334.591C289.76 334.591 289.365 334.744 289.033 335.049C288.706 335.354 288.454 335.798 288.278 336.381C288.105 336.964 288.019 337.666 288.019 338.488C288.019 339.31 288.105 340.01 288.278 340.589C288.45 341.167 288.7 341.607 289.027 341.907C289.358 342.208 289.756 342.358 290.219 342.358ZM297.897 343.418C297.19 343.418 296.585 343.226 296.081 342.842C295.582 342.457 295.2 341.896 294.935 341.158C294.674 340.421 294.544 339.531 294.544 338.488C294.544 337.459 294.676 336.575 294.941 335.837C295.206 335.095 295.591 334.53 296.094 334.141C296.598 333.752 297.199 333.558 297.897 333.558C298.595 333.558 299.196 333.752 299.699 334.141C300.203 334.53 300.587 335.095 300.852 335.837C301.117 336.575 301.25 337.459 301.25 338.488C301.25 339.531 301.117 340.421 300.852 341.158C300.592 341.896 300.209 342.457 299.706 342.842C299.202 343.226 298.599 343.418 297.897 343.418ZM297.897 342.358C298.356 342.358 298.749 342.208 299.076 341.907C299.403 341.607 299.653 341.167 299.825 340.589C299.997 340.01 300.084 339.31 300.084 338.488C300.084 337.666 299.997 336.964 299.825 336.381C299.653 335.798 299.403 335.354 299.076 335.049C298.749 334.744 298.356 334.591 297.897 334.591C297.437 334.591 297.042 334.744 296.711 335.049C296.384 335.354 296.132 335.798 295.955 336.381C295.783 336.964 295.697 337.666 295.697 338.488C295.697 339.31 295.783 340.01 295.955 340.589C296.127 341.167 296.377 341.607 296.704 341.907C297.035 342.208 297.433 342.358 297.897 342.358Z" fill="#9F9F9F" style="fill:#9F9F9F;fill:color(display-p3 0.6235 0.6235 0.6235);fill-opacity:1;"/>
<circle cx="332.5" cy="338.286" r="5.42857" fill="#9F9F9F" style="fill:#9F9F9F;fill:color(display-p3 0.6235 0.6235 0.6235);fill-opacity:1;"/>
<rect x="358.286" y="327.429" width="38.8571" height="21.7143" rx="5.42857" fill="#F5F5F5" style="fill:#F5F5F5;fill:color(display-p3 0.9621 0.9621 0.9621);fill-opacity:1;"/>
<path d="M364.244 333.69H371.481V334.751H368.472V343.286H367.266V334.751H364.244V333.69ZM371.206 341.245C371.206 340.498 371.46 339.973 371.968 339.668C372.481 339.363 373.128 339.182 373.91 339.124C374.21 339.102 374.546 339.082 374.917 339.065C375.293 339.043 375.606 339.027 375.858 339.018V338.435C375.858 337.971 375.719 337.616 375.441 337.368C375.167 337.116 374.763 336.991 374.228 336.991C373.791 336.991 373.433 337.081 373.154 337.262C372.876 337.439 372.695 337.671 372.611 337.958H371.418C371.467 337.574 371.617 337.234 371.869 336.938C372.121 336.642 372.454 336.412 372.87 336.248C373.289 336.08 373.76 335.997 374.281 335.997C374.97 335.997 375.593 336.173 376.15 336.527C376.706 336.876 376.985 337.547 376.985 338.541V343.286H375.858V342.305H375.805C375.717 342.491 375.58 342.672 375.394 342.849C375.213 343.021 374.975 343.167 374.679 343.286C374.387 343.401 374.047 343.458 373.658 343.458C373.199 343.458 372.783 343.37 372.412 343.193C372.041 343.016 371.747 342.762 371.531 342.431C371.314 342.095 371.206 341.7 371.206 341.245ZM372.346 341.298C372.346 341.665 372.483 341.947 372.757 342.146C373.035 342.34 373.402 342.438 373.857 342.438C374.268 342.438 374.623 342.356 374.924 342.192C375.229 342.029 375.461 341.813 375.62 341.543C375.779 341.274 375.858 340.984 375.858 340.675V339.953L374.042 340.079C373.503 340.114 373.086 340.231 372.79 340.43C372.494 340.629 372.346 340.918 372.346 341.298ZM381.322 346.135C380.743 346.135 380.231 346.054 379.785 345.89C379.343 345.727 378.992 345.488 378.731 345.174C378.471 344.861 378.318 344.483 378.274 344.041H379.467C379.546 344.404 379.745 344.677 380.063 344.863C380.386 345.049 380.805 345.141 381.322 345.141C381.958 345.141 382.449 345 382.793 344.717C383.138 344.435 383.31 344.002 383.31 343.418V341.961H383.217C383.089 342.177 382.955 342.367 382.813 342.53C382.672 342.694 382.46 342.844 382.177 342.981C381.899 343.114 381.548 343.18 381.123 343.18C380.536 343.18 380.01 343.036 379.546 342.749C379.082 342.462 378.718 342.049 378.453 341.51C378.192 340.967 378.062 340.326 378.062 339.588C378.062 338.864 378.192 338.23 378.453 337.686C378.714 337.143 379.076 336.725 379.54 336.434C380.004 336.142 380.536 335.997 381.137 335.997C381.556 335.997 381.905 336.065 382.184 336.202C382.466 336.339 382.667 336.48 382.787 336.626C382.91 336.767 383.063 336.968 383.244 337.229H383.337V336.089H384.45V343.485C384.45 344.081 384.313 344.576 384.039 344.969C383.77 345.367 383.401 345.66 382.933 345.85C382.464 346.04 381.927 346.135 381.322 346.135ZM381.282 342.159C381.936 342.159 382.442 341.938 382.8 341.497C383.158 341.05 383.337 340.428 383.337 339.628C383.337 339.111 383.257 338.656 383.098 338.263C382.939 337.87 382.705 337.565 382.396 337.348C382.091 337.127 381.72 337.017 381.282 337.017C380.836 337.017 380.459 337.132 380.149 337.362C379.84 337.591 379.606 337.905 379.447 338.303C379.292 338.696 379.215 339.138 379.215 339.628C379.215 340.132 379.292 340.573 379.447 340.953C379.606 341.333 379.84 341.629 380.149 341.841C380.459 342.053 380.836 342.159 381.282 342.159ZM389.861 337.958C389.777 337.644 389.614 337.401 389.371 337.229C389.132 337.052 388.81 336.964 388.403 336.964C388.112 336.964 387.849 337.013 387.615 337.11C387.385 337.203 387.204 337.333 387.071 337.501C386.943 337.664 386.879 337.848 386.879 338.051C386.879 338.289 386.978 338.493 387.177 338.66C387.381 338.828 387.692 338.961 388.112 339.058L389.185 339.323C389.83 339.478 390.312 339.716 390.63 340.039C390.948 340.357 391.107 340.768 391.107 341.271C391.107 341.691 390.994 342.064 390.769 342.391C390.548 342.714 390.226 342.968 389.801 343.153C389.377 343.339 388.872 343.432 388.284 343.432C387.475 343.432 386.835 343.259 386.362 342.915C385.89 342.566 385.607 342.062 385.514 341.404H386.707C386.773 341.753 386.934 342.014 387.191 342.186C387.447 342.354 387.802 342.438 388.257 342.438C388.77 342.438 389.176 342.338 389.477 342.139C389.777 341.941 389.927 341.673 389.927 341.338C389.927 341.081 389.832 340.869 389.642 340.701C389.452 340.529 389.154 340.397 388.748 340.304L387.661 340.052C387.034 339.906 386.557 339.668 386.23 339.336C385.903 339.005 385.739 338.599 385.739 338.117C385.739 337.711 385.85 337.346 386.071 337.024C386.296 336.701 386.61 336.449 387.012 336.268C387.418 336.087 387.882 335.997 388.403 335.997C388.889 335.997 389.318 336.078 389.689 336.242C390.06 336.405 390.354 336.635 390.57 336.931C390.791 337.227 390.926 337.569 390.974 337.958H389.861Z" fill="#757575" style="fill:#757575;fill:color(display-p3 0.4588 0.4588 0.4588);fill-opacity:1;"/>
<path d="M413.214 330.807C413.214 330.574 413.298 330.351 413.446 330.186C413.595 330.021 413.796 329.929 414.006 329.929H431.423C431.633 329.929 431.834 330.021 431.982 330.186C432.131 330.351 432.214 330.574 432.214 330.807C432.214 331.04 432.131 331.263 431.982 331.428C431.834 331.592 431.633 331.685 431.423 331.685H414.006C413.796 331.685 413.595 331.592 413.446 331.428C413.298 331.263 413.214 331.04 413.214 330.807ZM414.006 336.076H426.673C426.883 336.076 427.084 335.983 427.232 335.819C427.381 335.654 427.464 335.431 427.464 335.198C427.464 334.965 427.381 334.741 427.232 334.577C427.084 334.412 426.883 334.319 426.673 334.319H414.006C413.796 334.319 413.595 334.412 413.446 334.577C413.298 334.741 413.214 334.965 413.214 335.198C413.214 335.431 413.298 335.654 413.446 335.819C413.595 335.983 413.796 336.076 414.006 336.076ZM423.506 338.71H414.006C413.796 338.71 413.595 338.803 413.446 338.967C413.298 339.132 413.214 339.355 413.214 339.588C413.214 339.821 413.298 340.045 413.446 340.209C413.595 340.374 413.796 340.467 414.006 340.467H423.506C423.716 340.467 423.917 340.374 424.066 340.209C424.214 340.045 424.298 339.821 424.298 339.588C424.298 339.355 424.214 339.132 424.066 338.967C423.917 338.803 423.716 338.71 423.506 338.71ZM419.548 343.101H414.006C413.796 343.101 413.595 343.193 413.446 343.358C413.298 343.523 413.214 343.746 413.214 343.979C413.214 344.212 413.298 344.435 413.446 344.6C413.595 344.765 413.796 344.857 414.006 344.857H419.548C419.758 344.857 419.959 344.765 420.107 344.6C420.256 344.435 420.339 344.212 420.339 343.979C420.339 343.746 420.256 343.523 420.107 343.358C419.959 343.193 419.758 343.101 419.548 343.101Z" fill="#9F9F9F" style="fill:#9F9F9F;fill:color(display-p3 0.6235 0.6235 0.6235);fill-opacity:1;"/>
<path d="M459.685 335.648H454.935C454.725 335.648 454.523 335.562 454.375 335.411C454.226 335.259 454.143 335.054 454.143 334.84V329.992C454.143 329.777 454.226 329.572 454.375 329.42C454.523 329.269 454.725 329.184 454.935 329.184C455.145 329.184 455.346 329.269 455.495 329.42C455.643 329.572 455.726 329.777 455.726 329.992V332.889L457.174 331.412C458.94 329.601 461.338 328.579 463.841 328.572H463.893C466.375 328.565 468.76 329.557 470.531 331.332C470.675 331.483 470.756 331.686 470.756 331.897C470.756 332.108 470.675 332.31 470.531 332.461C470.386 332.612 470.189 332.7 469.983 332.704C469.776 332.709 469.575 332.631 469.424 332.487C467.948 331.009 465.961 330.183 463.893 330.188H463.849C461.763 330.194 459.765 331.045 458.293 332.554L456.846 334.032H459.685C459.895 334.032 460.096 334.117 460.245 334.268C460.393 334.42 460.476 334.625 460.476 334.84C460.476 335.054 460.393 335.259 460.245 335.411C460.096 335.562 459.895 335.648 459.685 335.648ZM472.351 340.496H467.601C467.391 340.496 467.19 340.581 467.042 340.732C466.893 340.884 466.81 341.089 466.81 341.304C466.81 341.518 466.893 341.723 467.042 341.875C467.19 342.026 467.391 342.111 467.601 342.111H470.441L468.993 343.589C467.521 345.098 465.524 345.949 463.438 345.956H463.394C461.326 345.96 459.339 345.134 457.863 343.656C457.789 343.579 457.701 343.518 457.604 343.476C457.507 343.434 457.402 343.413 457.297 343.413C457.191 343.413 457.087 343.434 456.99 343.476C456.892 343.518 456.804 343.579 456.731 343.656C456.657 343.733 456.599 343.824 456.56 343.924C456.522 344.024 456.503 344.131 456.505 344.239C456.508 344.347 456.531 344.453 456.574 344.551C456.617 344.649 456.679 344.738 456.757 344.811C458.527 346.586 460.912 347.578 463.394 347.572H463.445C465.948 347.564 468.346 346.542 470.111 344.731L471.56 343.254V346.151C471.56 346.366 471.643 346.571 471.792 346.723C471.94 346.874 472.141 346.959 472.351 346.959C472.561 346.959 472.763 346.874 472.911 346.723C473.06 346.571 473.143 346.366 473.143 346.151V341.304C473.143 341.089 473.06 340.884 472.911 340.732C472.763 340.581 472.561 340.496 472.351 340.496Z" fill="#9F9F9F" style="fill:#9F9F9F;fill:color(display-p3 0.6235 0.6235 0.6235);fill-opacity:1;"/>
<rect x="647.857" y="315.214" width="108.571" height="46.1429" rx="5.42857" fill="#E6E8E8" style="fill:#E6E8E8;fill:color(display-p3 0.9020 0.9098 0.9098);fill-opacity:1;"/>
</g>
<defs>
<clipPath id="clip0_2955_99363">
<rect width="660" height="440" rx="16" fill="white" style="fill:white;fill-opacity:1;"/>
</clipPath>
<clipPath id="clip1_2955_99363">
<rect width="24.4286" height="24.4286" fill="white" style="fill:white;fill-opacity:1;" transform="translate(159.357 326.143)"/>
</clipPath>
<clipPath id="clip2_2955_99363">
<rect width="24.4286" height="24.4286" fill="white" style="fill:white;fill-opacity:1;" transform="translate(230.786 326.143)"/>
</clipPath>
</defs>
</svg>
