<svg width="660" height="440" viewBox="0 0 660 440" fill="none" xmlns="http://www.w3.org/2000/svg">
<g clip-path="url(#clip0_2955_99940)">
<rect width="660" height="440" rx="16" fill="#74A0F8" style="fill:#74A0F8;fill:color(display-p3 0.4549 0.6275 0.9725);fill-opacity:1;"/>
<rect x="124" y="-87" width="665" height="327.071" rx="5.42857" fill="white" style="fill:white;fill-opacity:1;"/>
<rect x="156.571" y="-21.8572" width="129.143" height="29.8571" rx="5.42857" fill="#FBFBFB" style="fill:#FBFBFB;fill:color(display-p3 0.9845 0.9845 0.9845);fill-opacity:1;"/>
<path d="M179.643 46.0001V47.3573H166.071V46.0001H179.643ZM183.714 41.9287V28.3573C183.714 26.1087 181.891 24.2859 179.643 24.2859H166.071C163.823 24.2859 162 26.1087 162 28.3573V41.9287C162 44.1773 163.823 46.0001 166.071 46.0001V47.3573L165.792 47.3507C163.016 47.2098 160.79 44.9839 160.649 42.2084L160.643 41.9287V28.3573C160.643 25.3592 163.073 22.9287 166.071 22.9287H179.643C182.641 22.9287 185.071 25.3592 185.071 28.3573V41.9287C185.071 44.833 182.79 47.2051 179.922 47.3507L179.643 47.3573V46.0001C181.891 46.0001 183.714 44.1773 183.714 41.9287Z" fill="#E6E8E8" style="fill:#E6E8E8;fill:color(display-p3 0.9020 0.9098 0.9098);fill-opacity:1;"/>
<path d="M201.132 28.2092H206.401C207.403 28.2092 208.266 28.401 208.99 28.7844C209.713 29.1617 210.264 29.6936 210.641 30.3801C211.018 31.0605 211.207 31.8459 211.207 32.7366C211.207 33.6334 211.012 34.425 210.623 35.1116C210.239 35.7919 209.679 36.3207 208.943 36.698C208.214 37.0753 207.341 37.2639 206.327 37.2639H203.915V41.6428H201.132V28.2092ZM205.882 35.0188C206.686 35.0188 207.295 34.8147 207.709 34.4065C208.124 33.9921 208.331 33.4355 208.331 32.7366C208.331 32.0439 208.124 31.4965 207.709 31.0945C207.295 30.6925 206.686 30.4915 205.882 30.4915H203.915V35.0188H205.882ZM215.09 41.6428H212.344V28.2092H215.09V41.6428ZM216.172 38.8225C216.172 37.7834 216.521 37.0227 217.22 36.5403C217.919 36.0579 218.819 35.7857 219.92 35.7239C220.6 35.6806 221.435 35.6373 222.424 35.594V34.7776C222.412 34.357 222.267 34.0292 221.988 33.7942C221.71 33.5592 221.317 33.4417 220.81 33.4417C220.353 33.4417 219.978 33.5406 219.688 33.7385C219.397 33.9364 219.214 34.2086 219.14 34.5549H216.524C216.58 33.9612 216.784 33.4293 217.136 32.9592C217.495 32.4892 217.993 32.1181 218.63 31.8459C219.267 31.5738 220.019 31.4377 220.884 31.4377C221.651 31.4377 222.356 31.5583 223 31.7996C223.649 32.0408 224.169 32.4181 224.558 32.9314C224.954 33.4386 225.152 34.0787 225.152 34.8518V41.6428H222.554V40.2512H222.48C222.214 40.7398 221.834 41.1264 221.339 41.4109C220.85 41.6892 220.247 41.8284 219.53 41.8284C218.874 41.8284 218.293 41.717 217.786 41.4944C217.285 41.2655 216.889 40.9254 216.598 40.4739C216.314 40.0224 216.172 39.4719 216.172 38.8225ZM218.806 38.7483C218.806 39.1256 218.942 39.4194 219.214 39.6296C219.493 39.8337 219.858 39.9358 220.309 39.9358C220.717 39.9358 221.082 39.8523 221.404 39.6853C221.732 39.5183 221.985 39.2895 222.165 38.9988C222.344 38.7081 222.431 38.3896 222.424 38.0432V37.3103C222.134 37.3165 221.775 37.3319 221.348 37.3567C220.922 37.3814 220.594 37.4062 220.365 37.4309C219.882 37.4804 219.502 37.6165 219.224 37.8391C218.945 38.0618 218.806 38.3648 218.806 38.7483ZM229.425 41.6428H226.679V31.5676H229.295V33.3303H229.406C229.641 32.7366 230.022 32.2727 230.547 31.9387C231.073 31.6047 231.701 31.4377 232.431 31.4377C233.13 31.4377 233.742 31.5893 234.268 31.8923C234.793 32.1954 235.198 32.6345 235.483 33.2097C235.767 33.7787 235.907 34.4498 235.9 35.2229V41.6428H233.173V35.7053C233.173 35.0868 233.012 34.6013 232.69 34.2488C232.369 33.8962 231.923 33.72 231.354 33.72C230.767 33.72 230.297 33.9055 229.944 34.2766C229.598 34.6477 229.425 35.1611 229.425 35.8167V41.6428ZM240.791 38.8225C240.791 37.7834 241.14 37.0227 241.839 36.5403C242.538 36.0579 243.438 35.7857 244.539 35.7239C245.219 35.6806 246.054 35.6373 247.044 35.594V34.7776C247.031 34.357 246.886 34.0292 246.608 33.7942C246.329 33.5592 245.936 33.4417 245.429 33.4417C244.972 33.4417 244.597 33.5406 244.307 33.7385C244.016 33.9364 243.834 34.2086 243.759 34.5549H241.143C241.199 33.9612 241.403 33.4293 241.755 32.9592C242.114 32.4892 242.612 32.1181 243.249 31.8459C243.886 31.5738 244.638 31.4377 245.504 31.4377C246.27 31.4377 246.976 31.5583 247.619 31.7996C248.268 32.0408 248.788 32.4181 249.177 32.9314C249.573 33.4386 249.771 34.0787 249.771 34.8518V41.6428H247.173V40.2512H247.099C246.833 40.7398 246.453 41.1264 245.958 41.4109C245.47 41.6892 244.866 41.8284 244.149 41.8284C243.493 41.8284 242.912 41.717 242.405 41.4944C241.904 41.2655 241.508 40.9254 241.217 40.4739C240.933 40.0224 240.791 39.4719 240.791 38.8225ZM243.425 38.7483C243.425 39.1256 243.561 39.4194 243.834 39.6296C244.112 39.8337 244.477 39.9358 244.928 39.9358C245.337 39.9358 245.701 39.8523 246.023 39.6853C246.351 39.5183 246.604 39.2895 246.784 38.9988C246.963 38.7081 247.05 38.3896 247.044 38.0432V37.3103C246.753 37.3165 246.394 37.3319 245.967 37.3567C245.541 37.3814 245.213 37.4062 244.984 37.4309C244.502 37.4804 244.121 37.6165 243.843 37.8391C243.565 38.0618 243.425 38.3648 243.425 38.7483ZM257.853 41.6428H255.107V31.5676H257.723V33.3303H257.834C258.069 32.7366 258.45 32.2727 258.975 31.9387C259.501 31.6047 260.129 31.4377 260.859 31.4377C261.558 31.4377 262.17 31.5893 262.696 31.8923C263.221 32.1954 263.626 32.6345 263.911 33.2097C264.195 33.7787 264.335 34.4498 264.328 35.2229V41.6428H261.601V35.7053C261.601 35.0868 261.44 34.6013 261.118 34.2488C260.797 33.8962 260.351 33.72 259.782 33.72C259.195 33.72 258.725 33.9055 258.372 34.2766C258.026 34.6477 257.853 35.1611 257.853 35.8167V41.6428ZM270.457 41.8469C269.436 41.8469 268.552 41.6366 267.803 41.2161C267.061 40.7955 266.489 40.1956 266.087 39.4163C265.685 38.6308 265.484 37.7092 265.484 36.6516C265.484 35.6187 265.682 34.7096 266.078 33.9241C266.48 33.1324 267.049 32.5201 267.785 32.0872C268.521 31.6542 269.374 31.4377 270.345 31.4377C271.248 31.4377 272.055 31.6295 272.767 32.0129C273.484 32.3902 274.047 32.9623 274.455 33.7292C274.87 34.4962 275.077 35.4332 275.077 36.5403V37.3196H268.193C268.193 37.8206 268.286 38.2566 268.471 38.6277C268.663 38.9988 268.932 39.2864 269.278 39.4905C269.631 39.6884 270.042 39.7874 270.512 39.7874C270.964 39.7874 271.353 39.6977 271.681 39.5183C272.009 39.3328 272.244 39.0823 272.386 38.7668H275.003C274.873 39.3853 274.607 39.9265 274.205 40.3904C273.803 40.8542 273.28 41.213 272.637 41.4666C272 41.7201 271.273 41.8469 270.457 41.8469ZM272.479 35.594C272.479 35.192 272.389 34.8333 272.21 34.5178C272.037 34.1962 271.793 33.9457 271.477 33.7664C271.162 33.587 270.803 33.4973 270.401 33.4973C269.993 33.4973 269.622 33.5901 269.288 33.7756C268.96 33.9612 268.697 34.2148 268.499 34.5364C268.307 34.858 268.205 35.2105 268.193 35.594H272.479ZM275.397 31.5676H278.181L279.758 38.3772H279.85L281.502 31.5676H284.229L285.899 38.3401H285.992L287.551 31.5676H290.334L287.569 41.6428H284.675L282.931 35.2415H282.801L281.057 41.6428H278.143L275.397 31.5676ZM300.271 33.6272H298.378V38.5442C298.378 38.9153 298.459 39.175 298.62 39.3235C298.78 39.4719 299.015 39.5523 299.325 39.5647C299.721 39.5647 300.085 39.5461 300.419 39.509V41.6799C300.092 41.7418 299.603 41.7727 298.954 41.7727C297.921 41.7727 297.107 41.5346 296.514 41.0583C295.92 40.5821 295.626 39.8739 295.632 38.9338V33.6272H294.241V31.5676H295.632V29.1555H298.378V31.5676H300.271V33.6272ZM300.944 38.8225C300.944 37.7834 301.294 37.0227 301.993 36.5403C302.691 36.0579 303.591 35.7857 304.692 35.7239C305.373 35.6806 306.208 35.6373 307.197 35.594V34.7776C307.185 34.357 307.039 34.0292 306.761 33.7942C306.483 33.5592 306.09 33.4417 305.583 33.4417C305.125 33.4417 304.751 33.5406 304.46 33.7385C304.17 33.9364 303.987 34.2086 303.913 34.5549H301.297C301.352 33.9612 301.556 33.4293 301.909 32.9592C302.268 32.4892 302.766 32.1181 303.403 31.8459C304.04 31.5738 304.791 31.4377 305.657 31.4377C306.424 31.4377 307.129 31.5583 307.772 31.7996C308.422 32.0408 308.941 32.4181 309.331 32.9314C309.727 33.4386 309.925 34.0787 309.925 34.8518V41.6428H307.327V40.2512H307.253C306.987 40.7398 306.606 41.1264 306.112 41.4109C305.623 41.6892 305.02 41.8284 304.303 41.8284C303.647 41.8284 303.066 41.717 302.558 41.4944C302.057 41.2655 301.662 40.9254 301.371 40.4739C301.086 40.0224 300.944 39.4719 300.944 38.8225ZM303.579 38.7483C303.579 39.1256 303.715 39.4194 303.987 39.6296C304.265 39.8337 304.63 39.9358 305.082 39.9358C305.49 39.9358 305.855 39.8523 306.177 39.6853C306.504 39.5183 306.758 39.2895 306.937 38.9988C307.117 38.7081 307.203 38.3896 307.197 38.0432V37.3103C306.906 37.3165 306.548 37.3319 306.121 37.3567C305.694 37.3814 305.366 37.4062 305.138 37.4309C304.655 37.4804 304.275 37.6165 303.996 37.8391C303.718 38.0618 303.579 38.3648 303.579 38.7483ZM317.203 34.5549C317.148 34.2024 316.971 33.921 316.674 33.7107C316.378 33.4942 316.003 33.386 315.552 33.386C315.255 33.386 314.986 33.4324 314.745 33.5251C314.51 33.6117 314.324 33.7354 314.188 33.8962C314.052 34.0509 313.987 34.2271 313.993 34.425C313.975 34.9013 314.408 35.2353 315.292 35.427L317.092 35.7981C318.069 36.0022 318.796 36.3269 319.272 36.7722C319.755 37.2175 319.999 37.802 320.005 38.5256C319.999 39.1812 319.807 39.7595 319.43 40.2605C319.059 40.7615 318.536 41.1511 317.862 41.4294C317.188 41.7078 316.412 41.8469 315.533 41.8469C314.637 41.8469 313.86 41.7201 313.205 41.4666C312.549 41.2068 312.033 40.8388 311.655 40.3625C311.284 39.8801 311.062 39.3111 310.987 38.6555H313.752C313.814 39.0514 314 39.3513 314.309 39.5554C314.618 39.7595 315.026 39.8616 315.533 39.8616C316.034 39.8616 316.436 39.7657 316.739 39.574C317.049 39.3822 317.203 39.1256 317.203 38.804C317.203 38.5442 317.092 38.3339 316.869 38.1731C316.653 38.0061 316.306 37.87 315.83 37.7649L314.16 37.4309C313.208 37.2454 312.484 36.9083 311.989 36.4197C311.495 35.9311 311.253 35.3157 311.266 34.5735C311.26 33.9364 311.43 33.3829 311.776 32.9128C312.122 32.4366 312.617 32.0717 313.26 31.8181C313.904 31.5645 314.655 31.4377 315.515 31.4377C316.35 31.4377 317.08 31.5645 317.704 31.8181C318.329 32.0717 318.818 32.4335 319.17 32.9036C319.529 33.3674 319.733 33.9179 319.782 34.5549H317.203ZM321.124 28.2092H323.87V35.427H324.018L327.284 31.5676H330.438L326.681 35.928L330.642 41.6428H327.414L324.64 37.5422L323.87 38.4143V41.6428H321.124V28.2092Z" fill="#121212" style="fill:#121212;fill:color(display-p3 0.0714 0.0714 0.0714);fill-opacity:1;"/>
<path d="M179.643 86.7145V88.0716H166.071V86.7145H179.643ZM183.714 82.6431V69.0716C183.714 66.8231 181.891 65.0002 179.643 65.0002H166.071C163.823 65.0002 162 66.8231 162 69.0716V82.6431C162 84.8917 163.823 86.7145 166.071 86.7145V88.0716L165.792 88.065C163.016 87.9242 160.79 85.6983 160.649 82.9227L160.643 82.6431V69.0716C160.643 66.0735 163.073 63.6431 166.071 63.6431H179.643C182.641 63.6431 185.071 66.0735 185.071 69.0716V82.6431C185.071 85.5474 182.79 87.9195 179.922 88.065L179.643 88.0716V86.7145C181.891 86.7145 183.714 84.8917 183.714 82.6431Z" fill="#E6E8E8" style="fill:#E6E8E8;fill:color(display-p3 0.9020 0.9098 0.9098);fill-opacity:1;"/>
<path d="M200.286 81.8572L204.501 70.3427H206.012L210.226 81.8572H208.715L207.562 78.6128H202.934L201.781 81.8572H200.286ZM207.125 77.3563L205.296 72.2034H205.201L203.372 77.3563H207.125ZM214.366 82.0321C213.65 82.0321 213.014 81.8492 212.457 81.4834C211.906 81.1176 211.474 80.5981 211.161 79.9248C210.848 79.2463 210.692 78.459 210.692 77.5631C210.692 76.6672 210.848 75.8826 211.161 75.2093C211.474 74.536 211.909 74.0191 212.465 73.6587C213.022 73.2929 213.661 73.11 214.382 73.11C214.891 73.11 215.312 73.1948 215.646 73.3644C215.98 73.5288 216.227 73.7064 216.386 73.8972C216.545 74.0828 216.709 74.3134 216.879 74.589H216.974V70.3427H218.358V81.8572H217.022V80.5371H216.879C216.698 80.8181 216.526 81.054 216.362 81.2449C216.203 81.4357 215.956 81.616 215.622 81.7856C215.288 81.95 214.869 82.0321 214.366 82.0321ZM214.557 80.8075C215.071 80.8075 215.514 80.6723 215.885 80.402C216.256 80.1263 216.537 79.7419 216.728 79.2489C216.924 78.7506 217.022 78.178 217.022 77.5313C217.022 76.8898 216.926 76.3305 216.735 75.8534C216.55 75.371 216.272 74.9972 215.901 74.7322C215.529 74.4671 215.081 74.3346 214.557 74.3346C214.021 74.3346 213.568 74.4751 213.197 74.756C212.826 75.0317 212.545 75.4107 212.354 75.8932C212.168 76.3756 212.076 76.9216 212.076 77.5313C212.076 78.1568 212.168 78.7188 212.354 79.2171C212.545 79.7101 212.826 80.0998 213.197 80.3861C213.573 80.667 214.026 80.8075 214.557 80.8075ZM223.499 82.0321C222.783 82.0321 222.147 81.8492 221.591 81.4834C221.039 81.1176 220.607 80.5981 220.294 79.9248C219.982 79.2463 219.825 78.459 219.825 77.5631C219.825 76.6672 219.982 75.8826 220.294 75.2093C220.607 74.536 221.042 74.0191 221.599 73.6587C222.155 73.2929 222.794 73.11 223.515 73.11C224.024 73.11 224.445 73.1948 224.779 73.3644C225.113 73.5288 225.36 73.7064 225.519 73.8972C225.678 74.0828 225.842 74.3134 226.012 74.589H226.107V70.3427H227.491V81.8572H226.155V80.5371H226.012C225.832 80.8181 225.659 81.054 225.495 81.2449C225.336 81.4357 225.09 81.616 224.756 81.7856C224.422 81.95 224.003 82.0321 223.499 82.0321ZM223.69 80.8075C224.204 80.8075 224.647 80.6723 225.018 80.402C225.389 80.1263 225.67 79.7419 225.861 79.2489C226.057 78.7506 226.155 78.178 226.155 77.5313C226.155 76.8898 226.06 76.3305 225.869 75.8534C225.683 75.371 225.405 74.9972 225.034 74.7322C224.663 74.4671 224.215 74.3346 223.69 74.3346C223.155 74.3346 222.701 74.4751 222.33 74.756C221.959 75.0317 221.678 75.4107 221.487 75.8932C221.302 76.3756 221.209 76.9216 221.209 77.5313C221.209 78.1568 221.302 78.7188 221.487 79.2171C221.678 79.7101 221.959 80.0998 222.33 80.3861C222.707 80.667 223.16 80.8075 223.69 80.8075ZM236.74 74.3664H234.927V79.3762C234.927 79.8851 235.028 80.227 235.229 80.402C235.431 80.5769 235.706 80.6644 236.056 80.6644C236.321 80.6644 236.592 80.6538 236.867 80.6326V81.9049C236.592 81.9473 236.274 81.9685 235.913 81.9685C235.51 81.9685 235.129 81.8863 234.768 81.722C234.408 81.5524 234.113 81.2979 233.885 80.9586C233.657 80.6193 233.543 80.2085 233.543 79.726V74.3664H232.239V73.2213H233.543V71.1538H234.927V73.2213H236.74V74.3664ZM237.603 79.408C237.603 78.512 237.908 77.8812 238.518 77.5154C239.133 77.1496 239.91 76.9322 240.848 76.8633C241.208 76.8368 241.611 76.813 242.057 76.7917C242.507 76.7652 242.884 76.7467 243.186 76.7361V76.0363C243.186 75.4797 243.019 75.0529 242.685 74.756C242.356 74.4539 241.871 74.3028 241.23 74.3028C240.705 74.3028 240.275 74.4114 239.941 74.6288C239.607 74.8409 239.39 75.1192 239.289 75.4638H237.858C237.916 75.0025 238.096 74.5943 238.399 74.2392C238.701 73.884 239.101 73.6083 239.599 73.4121C240.103 73.2107 240.668 73.11 241.293 73.11C242.12 73.11 242.868 73.322 243.536 73.7461C244.204 74.1649 244.538 74.9707 244.538 76.1635V81.8572H243.186V80.6803H243.122C243.016 80.9029 242.852 81.1203 242.629 81.3323C242.412 81.5391 242.125 81.714 241.77 81.8572C241.42 81.995 241.012 82.0639 240.546 82.0639C239.994 82.0639 239.496 81.9579 239.051 81.7458C238.605 81.5338 238.253 81.229 237.993 80.8314C237.733 80.4285 237.603 79.954 237.603 79.408ZM238.971 79.4716C238.971 79.9116 239.136 80.2509 239.464 80.4894C239.798 80.7227 240.238 80.8393 240.784 80.8393C241.277 80.8393 241.704 80.7412 242.065 80.5451C242.43 80.3489 242.709 80.0892 242.899 79.7658C243.09 79.4424 243.186 79.0952 243.186 78.7241V77.8573L241.007 78.0084C240.36 78.0508 239.859 78.1913 239.504 78.4299C239.149 78.6684 238.971 79.0157 238.971 79.4716ZM251.047 75.4638C250.946 75.0874 250.75 74.7958 250.458 74.589C250.172 74.377 249.785 74.271 249.297 74.271C248.947 74.271 248.632 74.3293 248.351 74.4459C248.075 74.5572 247.858 74.7136 247.699 74.9151C247.545 75.1112 247.468 75.3312 247.468 75.5751C247.468 75.8614 247.588 76.1052 247.826 76.3067C248.07 76.5081 248.444 76.6672 248.947 76.7838L250.236 77.1019C251.01 77.2874 251.588 77.5737 251.969 77.9607C252.351 78.3424 252.542 78.8354 252.542 79.4398C252.542 79.9434 252.407 80.3914 252.136 80.7837C251.871 81.1707 251.484 81.4755 250.975 81.6981C250.466 81.9208 249.859 82.0321 249.154 82.0321C248.184 82.0321 247.415 81.8254 246.848 81.4119C246.281 80.9931 245.942 80.3887 245.83 79.5988H247.262C247.341 80.0176 247.535 80.3304 247.842 80.5371C248.15 80.7386 248.576 80.8393 249.122 80.8393C249.737 80.8393 250.225 80.72 250.586 80.4815C250.946 80.2429 251.126 79.9222 251.126 79.5193C251.126 79.2118 251.012 78.9573 250.784 78.7559C250.556 78.5491 250.199 78.3901 249.711 78.2788L248.407 77.9766C247.654 77.8017 247.081 77.5154 246.689 77.1178C246.297 76.7202 246.101 76.2325 246.101 75.6546C246.101 75.1669 246.233 74.7295 246.498 74.3425C246.769 73.9555 247.145 73.6534 247.627 73.436C248.115 73.2186 248.672 73.11 249.297 73.11C249.881 73.11 250.395 73.208 250.84 73.4042C251.285 73.6003 251.638 73.876 251.898 74.2312C252.163 74.5864 252.324 74.9972 252.383 75.4638H251.047ZM253.834 70.3427H255.202V77.0383H255.361L259.099 73.2213H260.785L257.142 76.919L261.055 81.8572H259.321L256.117 77.7857L255.202 78.6366V81.8572H253.834V70.3427ZM266.562 75.4638C266.461 75.0874 266.265 74.7958 265.974 74.589C265.687 74.377 265.3 74.271 264.813 74.271C264.463 74.271 264.147 74.3293 263.866 74.4459C263.591 74.5572 263.373 74.7136 263.214 74.9151C263.061 75.1112 262.984 75.3312 262.984 75.5751C262.984 75.8614 263.103 76.1052 263.342 76.3067C263.585 76.5081 263.959 76.6672 264.463 76.7838L265.751 77.1019C266.525 77.2874 267.103 77.5737 267.485 77.9607C267.866 78.3424 268.057 78.8354 268.057 79.4398C268.057 79.9434 267.922 80.3914 267.652 80.7837C267.386 81.1707 266.999 81.4755 266.491 81.6981C265.982 81.9208 265.375 82.0321 264.67 82.0321C263.699 82.0321 262.931 81.8254 262.363 81.4119C261.796 80.9931 261.457 80.3887 261.346 79.5988H262.777C262.856 80.0176 263.05 80.3304 263.357 80.5371C263.665 80.7386 264.092 80.8393 264.638 80.8393C265.253 80.8393 265.74 80.72 266.101 80.4815C266.461 80.2429 266.642 79.9222 266.642 79.5193C266.642 79.2118 266.528 78.9573 266.3 78.7559C266.072 78.5491 265.714 78.3901 265.226 78.2788L263.922 77.9766C263.169 77.8017 262.597 77.5154 262.204 77.1178C261.812 76.7202 261.616 76.2325 261.616 75.6546C261.616 75.1669 261.749 74.7295 262.014 74.3425C262.284 73.9555 262.66 73.6534 263.143 73.436C263.63 73.2186 264.187 73.11 264.813 73.11C265.396 73.11 265.91 73.208 266.355 73.4042C266.801 73.6003 267.153 73.876 267.413 74.2312C267.678 74.5864 267.84 74.9972 267.898 75.4638H266.562ZM272.949 73.2213H274.316V81.8572H272.949V73.2213ZM273.632 71.7899C273.367 71.7899 273.142 71.7025 272.956 71.5275C272.771 71.3526 272.678 71.1379 272.678 70.8834C272.678 70.6289 272.771 70.4142 272.956 70.2393C273.142 70.0643 273.367 69.9769 273.632 69.9769C273.897 69.9769 274.125 70.0643 274.316 70.2393C274.507 70.4142 274.603 70.6289 274.603 70.8834C274.603 71.1379 274.507 71.3526 274.316 71.5275C274.125 71.7025 273.897 71.7899 273.632 71.7899ZM277.374 81.8572H276.007V73.2213H277.327V74.5731H277.438C277.655 74.1119 277.971 73.7541 278.384 73.4996C278.803 73.2399 279.331 73.11 279.967 73.11C280.56 73.11 281.075 73.2319 281.509 73.4758C281.944 73.7143 282.281 74.0775 282.519 74.5652C282.758 75.0529 282.877 75.6546 282.877 76.3703V81.8572H281.509V76.4657C281.509 75.7977 281.337 75.2756 280.992 74.8992C280.648 74.5228 280.168 74.3346 279.553 74.3346C279.129 74.3346 278.753 74.4274 278.424 74.6129C278.095 74.7931 277.838 75.0609 277.653 75.4161C277.467 75.7659 277.374 76.1847 277.374 76.6725V81.8572ZM292.985 75.4638C292.884 75.0874 292.688 74.7958 292.397 74.589C292.11 74.377 291.723 74.271 291.236 74.271C290.886 74.271 290.57 74.3293 290.289 74.4459C290.014 74.5572 289.796 74.7136 289.637 74.9151C289.484 75.1112 289.407 75.3312 289.407 75.5751C289.407 75.8614 289.526 76.1052 289.764 76.3067C290.008 76.5081 290.382 76.6672 290.886 76.7838L292.174 77.1019C292.948 77.2874 293.526 77.5737 293.907 77.9607C294.289 78.3424 294.48 78.8354 294.48 79.4398C294.48 79.9434 294.345 80.3914 294.074 80.7837C293.809 81.1707 293.422 81.4755 292.913 81.6981C292.405 81.9208 291.798 82.0321 291.092 82.0321C290.122 82.0321 289.354 81.8254 288.786 81.4119C288.219 80.9931 287.88 80.3887 287.769 79.5988H289.2C289.279 80.0176 289.473 80.3304 289.78 80.5371C290.088 80.7386 290.515 80.8393 291.061 80.8393C291.676 80.8393 292.163 80.72 292.524 80.4815C292.884 80.2429 293.065 79.9222 293.065 79.5193C293.065 79.2118 292.951 78.9573 292.723 78.7559C292.495 78.5491 292.137 78.3901 291.649 78.2788L290.345 77.9766C289.592 77.8017 289.02 77.5154 288.627 77.1178C288.235 76.7202 288.039 76.2325 288.039 75.6546C288.039 75.1669 288.171 74.7295 288.437 74.3425C288.707 73.9555 289.083 73.6534 289.566 73.436C290.053 73.2186 290.61 73.11 291.236 73.11C291.819 73.11 292.333 73.208 292.778 73.4042C293.224 73.6003 293.576 73.876 293.836 74.2312C294.101 74.5864 294.263 74.9972 294.321 75.4638H292.985ZM295.773 73.2213H297.093V74.5731H297.204C297.39 74.1066 297.681 73.7461 298.079 73.4917C298.482 73.2372 298.964 73.11 299.526 73.11C300.077 73.11 300.547 73.2372 300.934 73.4917C301.321 73.7408 301.62 74.1013 301.832 74.5731H301.928C302.156 74.1172 302.492 73.7594 302.937 73.4996C303.383 73.2399 303.91 73.11 304.52 73.11C305.045 73.11 305.503 73.2186 305.896 73.436C306.293 73.6534 306.603 73.9847 306.826 74.43C307.049 74.87 307.16 75.4214 307.16 76.084V81.8572H305.792V76.0999C305.792 75.5009 305.628 75.0582 305.299 74.7719C304.971 74.4804 304.552 74.3346 304.043 74.3346C303.651 74.3346 303.311 74.4167 303.025 74.5811C302.739 74.7454 302.521 74.9707 302.373 75.257C302.224 75.5433 302.15 75.872 302.15 76.2431V81.8572H300.767V75.9568C300.767 75.6387 300.695 75.3577 300.552 75.1139C300.409 74.8647 300.207 74.6739 299.948 74.5413C299.693 74.4035 299.404 74.3346 299.081 74.3346C298.736 74.3346 298.415 74.4274 298.119 74.6129C297.822 74.7931 297.583 75.045 297.403 75.3683C297.228 75.6917 297.14 76.0575 297.14 76.4657V81.8572H295.773V73.2213ZM308.453 79.408C308.453 78.512 308.757 77.8812 309.367 77.5154C309.982 77.1496 310.759 76.9322 311.697 76.8633C312.058 76.8368 312.46 76.813 312.906 76.7917C313.356 76.7652 313.733 76.7467 314.035 76.7361V76.0363C314.035 75.4797 313.868 75.0529 313.534 74.756C313.205 74.4539 312.72 74.3028 312.079 74.3028C311.554 74.3028 311.125 74.4114 310.791 74.6288C310.457 74.8409 310.239 75.1192 310.138 75.4638H308.707C308.765 75.0025 308.946 74.5943 309.248 74.2392C309.55 73.884 309.95 73.6083 310.449 73.4121C310.952 73.2107 311.517 73.11 312.142 73.11C312.969 73.11 313.717 73.322 314.385 73.7461C315.053 74.1649 315.387 74.9707 315.387 76.1635V81.8572H314.035V80.6803H313.971C313.865 80.9029 313.701 81.1203 313.478 81.3323C313.261 81.5391 312.975 81.714 312.62 81.8572C312.27 81.995 311.861 82.0639 311.395 82.0639C310.844 82.0639 310.345 81.9579 309.9 81.7458C309.455 81.5338 309.102 81.229 308.842 80.8314C308.583 80.4285 308.453 79.954 308.453 79.408ZM309.82 79.4716C309.82 79.9116 309.985 80.2509 310.313 80.4894C310.647 80.7227 311.087 80.8393 311.633 80.8393C312.126 80.8393 312.553 80.7412 312.914 80.5451C313.28 80.3489 313.558 80.0892 313.749 79.7658C313.94 79.4424 314.035 79.0952 314.035 78.7241V77.8573L311.856 78.0084C311.209 78.0508 310.708 78.1913 310.353 78.4299C309.998 78.6684 309.82 79.0157 309.82 79.4716ZM318.461 81.8572H317.093V70.3427H318.461V81.8572ZM321.519 81.8572H320.151V70.3427H321.519V81.8572ZM332.263 73.2213H333.615V81.8572H332.263V80.394H332.167C331.945 80.8658 331.616 81.2475 331.181 81.5391C330.752 81.8254 330.227 81.9685 329.607 81.9685C329.05 81.9685 328.563 81.8492 328.144 81.6107C327.725 81.3668 327.396 81.001 327.158 80.5133C326.924 80.0256 326.808 79.4239 326.808 78.7082V73.2213H328.176V78.6128C328.176 79.021 328.255 79.3788 328.414 79.6863C328.573 79.9938 328.793 80.2323 329.074 80.402C329.36 80.5663 329.686 80.6485 330.052 80.6485C330.397 80.6485 330.739 80.561 331.078 80.3861C331.423 80.2111 331.706 79.9487 331.929 79.5988C332.152 79.2436 332.263 78.8142 332.263 78.3106V73.2213ZM336.689 81.8572H335.321V73.2213H336.641V74.5731H336.752C336.97 74.1119 337.285 73.7541 337.699 73.4996C338.117 73.2399 338.645 73.11 339.281 73.11C339.875 73.11 340.389 73.2319 340.824 73.4758C341.258 73.7143 341.595 74.0775 341.834 74.5652C342.072 75.0529 342.191 75.6546 342.191 76.3703V81.8572H340.824V76.4657C340.824 75.7977 340.651 75.2756 340.307 74.8992C339.962 74.5228 339.482 74.3346 338.868 74.3346C338.443 74.3346 338.067 74.4274 337.738 74.6129C337.41 74.7931 337.153 75.0609 336.967 75.4161C336.781 75.7659 336.689 76.1847 336.689 76.6725V81.8572ZM343.898 73.2213H345.265V81.8572H343.898V73.2213ZM344.582 71.7899C344.316 71.7899 344.091 71.7025 343.906 71.5275C343.72 71.3526 343.627 71.1379 343.627 70.8834C343.627 70.6289 343.72 70.4142 343.906 70.2393C344.091 70.0643 344.316 69.9769 344.582 69.9769C344.847 69.9769 345.075 70.0643 345.265 70.2393C345.456 70.4142 345.552 70.6289 345.552 70.8834C345.552 71.1379 345.456 71.3526 345.265 71.5275C345.075 71.7025 344.847 71.7899 344.582 71.7899ZM350.725 74.3664H348.912V79.3762C348.912 79.8851 349.013 80.227 349.214 80.402C349.415 80.5769 349.691 80.6644 350.041 80.6644C350.306 80.6644 350.576 80.6538 350.852 80.6326V81.9049C350.576 81.9473 350.258 81.9685 349.898 81.9685C349.495 81.9685 349.113 81.8863 348.753 81.722C348.392 81.5524 348.098 81.2979 347.87 80.9586C347.642 80.6193 347.528 80.2085 347.528 79.726V74.3664H346.224V73.2213H347.528V71.1538H348.912V73.2213H350.725V74.3664ZM356.646 75.4638C356.545 75.0874 356.349 74.7958 356.057 74.589C355.771 74.377 355.384 74.271 354.896 74.271C354.546 74.271 354.231 74.3293 353.95 74.4459C353.674 74.5572 353.457 74.7136 353.298 74.9151C353.144 75.1112 353.067 75.3312 353.067 75.5751C353.067 75.8614 353.187 76.1052 353.425 76.3067C353.669 76.5081 354.043 76.6672 354.546 76.7838L355.835 77.1019C356.609 77.2874 357.186 77.5737 357.568 77.9607C357.95 78.3424 358.141 78.8354 358.141 79.4398C358.141 79.9434 358.005 80.3914 357.735 80.7837C357.47 81.1707 357.083 81.4755 356.574 81.6981C356.065 81.9208 355.458 82.0321 354.753 82.0321C353.783 82.0321 353.014 81.8254 352.447 81.4119C351.88 80.9931 351.54 80.3887 351.429 79.5988H352.861C352.94 80.0176 353.134 80.3304 353.441 80.5371C353.748 80.7386 354.175 80.8393 354.721 80.8393C355.336 80.8393 355.824 80.72 356.184 80.4815C356.545 80.2429 356.725 79.9222 356.725 79.5193C356.725 79.2118 356.611 78.9573 356.383 78.7559C356.155 78.5491 355.797 78.3901 355.31 78.2788L354.006 77.9766C353.253 77.8017 352.68 77.5154 352.288 77.1178C351.896 76.7202 351.7 76.2325 351.7 75.6546C351.7 75.1669 351.832 74.7295 352.097 74.3425C352.367 73.9555 352.744 73.6534 353.226 73.436C353.714 73.2186 354.271 73.11 354.896 73.11C355.479 73.11 355.994 73.208 356.439 73.4042C356.884 73.6003 357.237 73.876 357.497 74.2312C357.762 74.5864 357.923 74.9972 357.982 75.4638H356.646Z" fill="#757575" style="fill:#757575;fill:color(display-p3 0.4588 0.4588 0.4588);fill-opacity:1;"/>
<path d="M157.844 117.628H161.756C162.625 117.628 163.354 117.787 163.943 118.105C164.531 118.424 164.969 118.858 165.255 119.41C165.541 119.956 165.684 120.581 165.684 121.286C165.684 121.986 165.541 122.614 165.255 123.171C164.969 123.722 164.531 124.16 163.943 124.483C163.36 124.801 162.636 124.96 161.772 124.96H159.275V129.143H157.844V117.628ZM161.708 123.688C162.578 123.688 163.222 123.47 163.641 123.036C164.059 122.596 164.269 122.013 164.269 121.286C164.269 120.555 164.059 119.974 163.641 119.545C163.222 119.115 162.572 118.901 161.692 118.901H159.275V123.688H161.708ZM168.392 129.143H167.025V117.628H168.392V129.143ZM173.709 129.318C172.887 129.318 172.171 129.135 171.562 128.769C170.952 128.403 170.483 127.886 170.154 127.218C169.831 126.55 169.669 125.776 169.669 124.896C169.669 124.016 169.831 123.237 170.154 122.559C170.483 121.875 170.942 121.345 171.53 120.968C172.124 120.586 172.808 120.396 173.582 120.396C174.234 120.396 174.841 120.541 175.403 120.833C175.965 121.119 176.42 121.586 176.77 122.233C177.126 122.874 177.303 123.698 177.303 124.706V125.278H171.037C171.058 125.877 171.183 126.389 171.411 126.813C171.639 127.237 171.949 127.56 172.341 127.783C172.739 128 173.195 128.109 173.709 128.109C174.197 128.109 174.607 128.019 174.941 127.839C175.281 127.653 175.538 127.415 175.713 127.123H177.176C177.038 127.558 176.807 127.942 176.484 128.276C176.166 128.605 175.768 128.862 175.291 129.047C174.819 129.228 174.292 129.318 173.709 129.318ZM175.919 124.117C175.919 123.635 175.821 123.205 175.625 122.829C175.434 122.447 175.161 122.148 174.806 121.93C174.451 121.713 174.043 121.604 173.582 121.604C173.099 121.604 172.67 121.718 172.293 121.946C171.922 122.174 171.628 122.482 171.411 122.869C171.199 123.25 171.077 123.667 171.045 124.117H175.919ZM178.182 126.694C178.182 125.798 178.487 125.167 179.097 124.801C179.712 124.435 180.488 124.218 181.427 124.149C181.787 124.122 182.19 124.099 182.635 124.077C183.086 124.051 183.462 124.032 183.765 124.022V123.322C183.765 122.765 183.598 122.339 183.264 122.042C182.935 121.74 182.45 121.588 181.808 121.588C181.284 121.588 180.854 121.697 180.52 121.914C180.186 122.127 179.969 122.405 179.868 122.749H178.437C178.495 122.288 178.675 121.88 178.978 121.525C179.28 121.17 179.68 120.894 180.178 120.698C180.682 120.496 181.246 120.396 181.872 120.396C182.699 120.396 183.447 120.608 184.115 121.032C184.782 121.451 185.116 122.256 185.116 123.449V129.143H183.765V127.966H183.701C183.595 128.189 183.431 128.406 183.208 128.618C182.991 128.825 182.704 129 182.349 129.143C181.999 129.281 181.591 129.35 181.125 129.35C180.573 129.35 180.075 129.244 179.63 129.031C179.184 128.819 178.832 128.515 178.572 128.117C178.312 127.714 178.182 127.24 178.182 126.694ZM179.55 126.757C179.55 127.197 179.714 127.537 180.043 127.775C180.377 128.008 180.817 128.125 181.363 128.125C181.856 128.125 182.283 128.027 182.643 127.831C183.009 127.635 183.287 127.375 183.478 127.051C183.669 126.728 183.765 126.381 183.765 126.01V125.143L181.586 125.294C180.939 125.336 180.438 125.477 180.083 125.716C179.728 125.954 179.55 126.301 179.55 126.757ZM191.626 122.749C191.525 122.373 191.329 122.081 191.037 121.875C190.751 121.663 190.364 121.557 189.876 121.557C189.526 121.557 189.211 121.615 188.93 121.732C188.654 121.843 188.437 121.999 188.278 122.201C188.124 122.397 188.047 122.617 188.047 122.861C188.047 123.147 188.167 123.391 188.405 123.592C188.649 123.794 189.023 123.953 189.526 124.069L190.815 124.388C191.589 124.573 192.166 124.859 192.548 125.246C192.93 125.628 193.121 126.121 193.121 126.725C193.121 127.229 192.985 127.677 192.715 128.069C192.45 128.456 192.063 128.761 191.554 128.984C191.045 129.206 190.438 129.318 189.733 129.318C188.763 129.318 187.994 129.111 187.427 128.698C186.86 128.279 186.52 127.674 186.409 126.884H187.84C187.92 127.303 188.114 127.616 188.421 127.823C188.728 128.024 189.155 128.125 189.701 128.125C190.316 128.125 190.804 128.006 191.164 127.767C191.525 127.529 191.705 127.208 191.705 126.805C191.705 126.497 191.591 126.243 191.363 126.042C191.135 125.835 190.777 125.676 190.29 125.564L188.986 125.262C188.233 125.087 187.66 124.801 187.268 124.403C186.876 124.006 186.68 123.518 186.68 122.94C186.68 122.453 186.812 122.015 187.077 121.628C187.347 121.241 187.724 120.939 188.206 120.722C188.694 120.504 189.251 120.396 189.876 120.396C190.459 120.396 190.974 120.494 191.419 120.69C191.864 120.886 192.217 121.162 192.477 121.517C192.742 121.872 192.903 122.283 192.962 122.749H191.626ZM198.039 129.318C197.218 129.318 196.502 129.135 195.892 128.769C195.283 128.403 194.814 127.886 194.485 127.218C194.161 126.55 194 125.776 194 124.896C194 124.016 194.161 123.237 194.485 122.559C194.814 121.875 195.272 121.345 195.861 120.968C196.454 120.586 197.138 120.396 197.912 120.396C198.564 120.396 199.171 120.541 199.733 120.833C200.295 121.119 200.751 121.586 201.101 122.233C201.456 122.874 201.634 123.698 201.634 124.706V125.278H195.368C195.389 125.877 195.513 126.389 195.741 126.813C195.969 127.237 196.279 127.56 196.672 127.783C197.069 128 197.525 128.109 198.039 128.109C198.527 128.109 198.938 128.019 199.272 127.839C199.611 127.653 199.868 127.415 200.043 127.123H201.506C201.369 127.558 201.138 127.942 200.815 128.276C200.497 128.605 200.099 128.862 199.622 129.047C199.15 129.228 198.623 129.318 198.039 129.318ZM200.25 124.117C200.25 123.635 200.152 123.205 199.956 122.829C199.765 122.447 199.492 122.148 199.137 121.93C198.782 121.713 198.373 121.604 197.912 121.604C197.43 121.604 197 121.718 196.624 121.946C196.253 122.174 195.959 122.482 195.741 122.869C195.529 123.25 195.407 123.667 195.375 124.117H200.25ZM210.151 129.318C209.33 129.318 208.614 129.135 208.004 128.769C207.395 128.403 206.925 127.886 206.597 127.218C206.273 126.55 206.112 125.776 206.112 124.896C206.112 124.016 206.273 123.237 206.597 122.559C206.925 121.875 207.384 121.345 207.972 120.968C208.566 120.586 209.25 120.396 210.024 120.396C210.676 120.396 211.283 120.541 211.845 120.833C212.407 121.119 212.863 121.586 213.213 122.233C213.568 122.874 213.746 123.698 213.746 124.706V125.278H207.479C207.501 125.877 207.625 126.389 207.853 126.813C208.081 127.237 208.391 127.56 208.784 127.783C209.181 128 209.637 128.109 210.151 128.109C210.639 128.109 211.05 128.019 211.384 127.839C211.723 127.653 211.98 127.415 212.155 127.123H213.618C213.481 127.558 213.25 127.942 212.927 128.276C212.608 128.605 212.211 128.862 211.734 129.047C211.262 129.228 210.734 129.318 210.151 129.318ZM212.362 124.117C212.362 123.635 212.264 123.205 212.068 122.829C211.877 122.447 211.604 122.148 211.249 121.93C210.893 121.713 210.485 121.604 210.024 121.604C209.542 121.604 209.112 121.718 208.736 121.946C208.365 122.174 208.071 122.482 207.853 122.869C207.641 123.25 207.519 123.667 207.487 124.117H212.362ZM216.406 129.143H215.038V120.507H216.358V121.859H216.47C216.687 121.398 217.002 121.04 217.416 120.785C217.835 120.525 218.362 120.396 218.998 120.396C219.592 120.396 220.106 120.518 220.541 120.761C220.976 121 221.312 121.363 221.551 121.851C221.79 122.339 221.909 122.94 221.909 123.656V129.143H220.541V123.751C220.541 123.083 220.369 122.561 220.024 122.185C219.68 121.808 219.2 121.62 218.585 121.62C218.161 121.62 217.784 121.713 217.456 121.899C217.127 122.079 216.87 122.347 216.684 122.702C216.499 123.052 216.406 123.47 216.406 123.958V129.143ZM227.384 121.652H225.571V126.662C225.571 127.171 225.672 127.513 225.873 127.688C226.075 127.863 226.35 127.95 226.7 127.95C226.965 127.95 227.236 127.939 227.511 127.918V129.191C227.236 129.233 226.918 129.254 226.557 129.254C226.154 129.254 225.773 129.172 225.412 129.008C225.052 128.838 224.757 128.584 224.529 128.244C224.302 127.905 224.188 127.494 224.188 127.012V121.652H222.883V120.507H224.188V118.439H225.571V120.507H227.384V121.652ZM232.208 129.318C231.386 129.318 230.67 129.135 230.061 128.769C229.451 128.403 228.982 127.886 228.653 127.218C228.33 126.55 228.168 125.776 228.168 124.896C228.168 124.016 228.33 123.237 228.653 122.559C228.982 121.875 229.44 121.345 230.029 120.968C230.623 120.586 231.306 120.396 232.08 120.396C232.732 120.396 233.339 120.541 233.901 120.833C234.463 121.119 234.919 121.586 235.269 122.233C235.624 122.874 235.802 123.698 235.802 124.706V125.278H229.536C229.557 125.877 229.682 126.389 229.909 126.813C230.137 127.237 230.448 127.56 230.84 127.783C231.237 128 231.693 128.109 232.208 128.109C232.695 128.109 233.106 128.019 233.44 127.839C233.779 127.653 234.037 127.415 234.212 127.123H235.675C235.537 127.558 235.306 127.942 234.983 128.276C234.665 128.605 234.267 128.862 233.79 129.047C233.318 129.228 232.791 129.318 232.208 129.318ZM234.418 124.117C234.418 123.635 234.32 123.205 234.124 122.829C233.933 122.447 233.66 122.148 233.305 121.93C232.95 121.713 232.542 121.604 232.08 121.604C231.598 121.604 231.169 121.718 230.792 121.946C230.421 122.174 230.127 122.482 229.909 122.869C229.697 123.25 229.576 123.667 229.544 124.117H234.418ZM237.095 120.507H238.415V121.827H238.51C238.669 121.387 238.953 121.034 239.361 120.769C239.769 120.499 240.228 120.364 240.737 120.364C241.002 120.364 241.24 120.374 241.452 120.396V121.779C241.394 121.758 241.28 121.737 241.11 121.716C240.946 121.694 240.784 121.684 240.625 121.684C240.217 121.684 239.849 121.771 239.52 121.946C239.191 122.121 238.932 122.362 238.741 122.67C238.555 122.977 238.462 123.322 238.462 123.704V129.143H237.095V120.507ZM245.485 126.694C245.485 125.798 245.79 125.167 246.399 124.801C247.014 124.435 247.791 124.218 248.729 124.149C249.09 124.122 249.493 124.099 249.938 124.077C250.389 124.051 250.765 124.032 251.067 124.022V123.322C251.067 122.765 250.9 122.339 250.566 122.042C250.238 121.74 249.752 121.588 249.111 121.588C248.586 121.588 248.157 121.697 247.823 121.914C247.489 122.127 247.271 122.405 247.171 122.749H245.739C245.798 122.288 245.978 121.88 246.28 121.525C246.582 121.17 246.983 120.894 247.481 120.698C247.985 120.496 248.549 120.396 249.175 120.396C250.002 120.396 250.749 120.608 251.417 121.032C252.085 121.451 252.419 122.256 252.419 123.449V129.143H251.067V127.966H251.004C250.898 128.189 250.733 128.406 250.511 128.618C250.293 128.825 250.007 129 249.652 129.143C249.302 129.281 248.894 129.35 248.427 129.35C247.876 129.35 247.377 129.244 246.932 129.031C246.487 128.819 246.134 128.515 245.875 128.117C245.615 127.714 245.485 127.24 245.485 126.694ZM246.853 126.757C246.853 127.197 247.017 127.537 247.346 127.775C247.68 128.008 248.12 128.125 248.666 128.125C249.159 128.125 249.586 128.027 249.946 127.831C250.312 127.635 250.59 127.375 250.781 127.051C250.972 126.728 251.067 126.381 251.067 126.01V125.143L248.888 125.294C248.242 125.336 247.741 125.477 247.385 125.716C247.03 125.954 246.853 126.301 246.853 126.757ZM257.724 120.507H259.044V121.859H259.155C259.341 121.392 259.632 121.032 260.03 120.777C260.433 120.523 260.915 120.396 261.477 120.396C262.029 120.396 262.498 120.523 262.885 120.777C263.272 121.026 263.571 121.387 263.783 121.859H263.879C264.107 121.403 264.443 121.045 264.889 120.785C265.334 120.525 265.862 120.396 266.471 120.396C266.996 120.396 267.455 120.504 267.847 120.722C268.245 120.939 268.555 121.27 268.777 121.716C269 122.156 269.111 122.707 269.111 123.37V129.143H267.744V123.386C267.744 122.787 267.579 122.344 267.251 122.058C266.922 121.766 266.503 121.62 265.994 121.62C265.602 121.62 265.263 121.702 264.976 121.867C264.69 122.031 264.473 122.256 264.324 122.543C264.176 122.829 264.102 123.158 264.102 123.529V129.143H262.718V123.242C262.718 122.924 262.646 122.643 262.503 122.4C262.36 122.15 262.159 121.96 261.899 121.827C261.644 121.689 261.355 121.62 261.032 121.62C260.687 121.62 260.367 121.713 260.07 121.899C259.773 122.079 259.534 122.331 259.354 122.654C259.179 122.977 259.092 123.343 259.092 123.751V129.143H257.724V120.507ZM274.444 129.318C273.622 129.318 272.906 129.135 272.297 128.769C271.687 128.403 271.218 127.886 270.889 127.218C270.566 126.55 270.404 125.776 270.404 124.896C270.404 124.016 270.566 123.237 270.889 122.559C271.218 121.875 271.676 121.345 272.265 120.968C272.858 120.586 273.542 120.396 274.316 120.396C274.968 120.396 275.575 120.541 276.137 120.833C276.699 121.119 277.155 121.586 277.505 122.233C277.86 122.874 278.038 123.698 278.038 124.706V125.278H271.772C271.793 125.877 271.918 126.389 272.145 126.813C272.373 127.237 272.684 127.56 273.076 127.783C273.473 128 273.929 128.109 274.444 128.109C274.931 128.109 275.342 128.019 275.676 127.839C276.015 127.653 276.273 127.415 276.447 127.123H277.911C277.773 127.558 277.542 127.942 277.219 128.276C276.901 128.605 276.503 128.862 276.026 129.047C275.554 129.228 275.027 129.318 274.444 129.318ZM276.654 124.117C276.654 123.635 276.556 123.205 276.36 122.829C276.169 122.447 275.896 122.148 275.541 121.93C275.186 121.713 274.778 121.604 274.316 121.604C273.834 121.604 273.405 121.718 273.028 121.946C272.657 122.174 272.363 122.482 272.145 122.869C271.933 123.25 271.811 123.667 271.78 124.117H276.654ZM279.331 120.507H280.651V121.859H280.762C280.947 121.392 281.239 121.032 281.637 120.777C282.04 120.523 282.522 120.396 283.084 120.396C283.635 120.396 284.104 120.523 284.491 120.777C284.878 121.026 285.178 121.387 285.39 121.859H285.485C285.713 121.403 286.05 121.045 286.495 120.785C286.941 120.525 287.468 120.396 288.078 120.396C288.603 120.396 289.061 120.504 289.453 120.722C289.851 120.939 290.161 121.27 290.384 121.716C290.607 122.156 290.718 122.707 290.718 123.37V129.143H289.35V123.386C289.35 122.787 289.186 122.344 288.857 122.058C288.528 121.766 288.11 121.62 287.601 121.62C287.208 121.62 286.869 121.702 286.583 121.867C286.297 122.031 286.079 122.256 285.931 122.543C285.782 122.829 285.708 123.158 285.708 123.529V129.143H284.324V123.242C284.324 122.924 284.253 122.643 284.11 122.4C283.967 122.15 283.765 121.96 283.505 121.827C283.251 121.689 282.962 121.62 282.639 121.62C282.294 121.62 281.973 121.713 281.676 121.899C281.38 122.079 281.141 122.331 280.961 122.654C280.786 122.977 280.698 123.343 280.698 123.751V129.143H279.331V120.507ZM295.955 129.318C295.175 129.318 294.486 129.135 293.887 128.769C293.293 128.398 292.832 127.876 292.504 127.203C292.175 126.529 292.011 125.75 292.011 124.865C292.011 123.979 292.175 123.2 292.504 122.527C292.832 121.848 293.293 121.323 293.887 120.952C294.486 120.581 295.175 120.396 295.955 120.396C296.729 120.396 297.41 120.581 297.998 120.952C298.592 121.323 299.051 121.848 299.374 122.527C299.703 123.2 299.867 123.979 299.867 124.865C299.867 125.75 299.703 126.529 299.374 127.203C299.051 127.876 298.592 128.398 297.998 128.769C297.41 129.135 296.729 129.318 295.955 129.318ZM295.955 128.109C296.511 128.109 296.981 127.963 297.362 127.672C297.744 127.375 298.028 126.983 298.213 126.495C298.404 126.002 298.499 125.458 298.499 124.865C298.499 124.271 298.404 123.728 298.213 123.234C298.028 122.741 297.744 122.347 297.362 122.05C296.981 121.753 296.511 121.604 295.955 121.604C295.387 121.604 294.91 121.753 294.523 122.05C294.142 122.347 293.855 122.741 293.665 123.234C293.474 123.728 293.378 124.271 293.378 124.865C293.378 125.458 293.474 126.002 293.665 126.495C293.855 126.983 294.142 127.375 294.523 127.672C294.91 127.963 295.387 128.109 295.955 128.109ZM302.146 129.238C301.96 129.238 301.788 129.193 301.629 129.103C301.475 129.008 301.351 128.88 301.255 128.721C301.165 128.562 301.123 128.39 301.128 128.204C301.123 128.024 301.165 127.857 301.255 127.704C301.351 127.544 301.475 127.42 301.629 127.33C301.788 127.234 301.96 127.187 302.146 127.187C302.326 127.187 302.493 127.234 302.647 127.33C302.806 127.42 302.93 127.544 303.021 127.704C303.116 127.857 303.164 128.024 303.164 128.204C303.164 128.39 303.116 128.562 303.021 128.721C302.93 128.88 302.806 129.008 302.647 129.103C302.493 129.193 302.326 129.238 302.146 129.238ZM305.792 129.238C305.607 129.238 305.434 129.193 305.275 129.103C305.122 129.008 304.997 128.88 304.902 128.721C304.812 128.562 304.769 128.39 304.774 128.204C304.769 128.024 304.812 127.857 304.902 127.704C304.997 127.544 305.122 127.42 305.275 127.33C305.434 127.234 305.607 127.187 305.792 127.187C305.973 127.187 306.14 127.234 306.293 127.33C306.452 127.42 306.577 127.544 306.667 127.704C306.762 127.857 306.81 128.024 306.81 128.204C306.81 128.39 306.762 128.562 306.667 128.721C306.577 128.88 306.452 129.008 306.293 129.103C306.14 129.193 305.973 129.238 305.792 129.238Z" fill="#757575" style="fill:#757575;fill:color(display-p3 0.4588 0.4588 0.4588);fill-opacity:1;"/>
<g clip-path="url(#clip1_2955_99940)">
<path d="M163.655 187.226V203.059H179.488V187.226H163.655ZM181.071 203.059C181.071 203.934 180.362 204.643 179.488 204.643H163.655C162.78 204.643 162.071 203.934 162.071 203.059V187.226C162.071 186.352 162.78 185.643 163.655 185.643H179.488C180.362 185.643 181.071 186.352 181.071 187.226V203.059Z" fill="#9F9F9F" style="fill:#9F9F9F;fill:color(display-p3 0.6235 0.6235 0.6235);fill-opacity:1;"/>
<path d="M175.644 187.679V184.964C175.644 184.589 175.947 184.286 176.322 184.286C176.697 184.286 177.001 184.589 177.001 184.964V187.679C177.001 188.053 176.697 188.357 176.322 188.357C175.947 188.357 175.644 188.053 175.644 187.679Z" fill="#9F9F9F" style="fill:#9F9F9F;fill:color(display-p3 0.6235 0.6235 0.6235);fill-opacity:1;"/>
<path d="M166.144 187.679V184.964C166.144 184.589 166.447 184.286 166.822 184.286C167.197 184.286 167.501 184.589 167.501 184.964V187.679C167.501 188.053 167.197 188.357 166.822 188.357C166.447 188.357 166.144 188.053 166.144 187.679Z" fill="#9F9F9F" style="fill:#9F9F9F;fill:color(display-p3 0.6235 0.6235 0.6235);fill-opacity:1;"/>
<path d="M180.28 190.958C180.717 190.958 181.071 191.313 181.071 191.75C181.071 192.187 180.717 192.542 180.28 192.542H162.863C162.426 192.542 162.071 192.187 162.071 191.75C162.071 191.313 162.426 190.958 162.863 190.958H180.28Z" fill="#9F9F9F" style="fill:#9F9F9F;fill:color(display-p3 0.6235 0.6235 0.6235);fill-opacity:1;"/>
<path d="M172.928 197.857C173.678 197.857 174.286 197.249 174.286 196.5C174.286 195.75 173.678 195.143 172.928 195.143C172.179 195.143 171.571 195.75 171.571 196.5C171.571 197.249 172.179 197.857 172.928 197.857Z" fill="#9F9F9F" style="fill:#9F9F9F;fill:color(display-p3 0.6235 0.6235 0.6235);fill-opacity:1;"/>
<path d="M177.001 197.857C177.75 197.857 178.358 197.249 178.358 196.5C178.358 195.75 177.75 195.143 177.001 195.143C176.251 195.143 175.644 195.75 175.644 196.5C175.644 197.249 176.251 197.857 177.001 197.857Z" fill="#9F9F9F" style="fill:#9F9F9F;fill:color(display-p3 0.6235 0.6235 0.6235);fill-opacity:1;"/>
<path d="M168.857 201.929C169.607 201.929 170.214 201.321 170.214 200.571C170.214 199.822 169.607 199.214 168.857 199.214C168.108 199.214 167.5 199.822 167.5 200.571C167.5 201.321 168.108 201.929 168.857 201.929Z" fill="#9F9F9F" style="fill:#9F9F9F;fill:color(display-p3 0.6235 0.6235 0.6235);fill-opacity:1;"/>
<path d="M172.928 201.929C173.678 201.929 174.286 201.321 174.286 200.571C174.286 199.822 173.678 199.214 172.928 199.214C172.179 199.214 171.571 199.822 171.571 200.571C171.571 201.321 172.179 201.929 172.928 201.929Z" fill="#9F9F9F" style="fill:#9F9F9F;fill:color(display-p3 0.6235 0.6235 0.6235);fill-opacity:1;"/>
<path d="M177.001 201.929C177.75 201.929 178.358 201.321 178.358 200.571C178.358 199.822 177.75 199.214 177.001 199.214C176.251 199.214 175.644 199.822 175.644 200.571C175.644 201.321 176.251 201.929 177.001 201.929Z" fill="#9F9F9F" style="fill:#9F9F9F;fill:color(display-p3 0.6235 0.6235 0.6235);fill-opacity:1;"/>
</g>
<path d="M190.203 200.286V190.69H193.304C194.227 190.69 195.023 190.882 195.69 191.267C196.361 191.647 196.874 192.197 197.227 192.917C197.581 193.632 197.757 194.485 197.757 195.475C197.757 196.473 197.578 197.332 197.22 198.052C196.863 198.773 196.341 199.325 195.657 199.709C194.972 200.093 194.148 200.286 193.185 200.286H190.203ZM193.105 199.225C194.263 199.225 195.133 198.898 195.716 198.245C196.299 197.591 196.591 196.667 196.591 195.475C196.591 194.295 196.306 193.381 195.736 192.731C195.166 192.077 194.329 191.75 193.225 191.75H191.396V199.225H193.105ZM198.609 198.245C198.609 197.498 198.863 196.972 199.371 196.667C199.884 196.363 200.531 196.182 201.313 196.124C201.613 196.102 201.949 196.082 202.32 196.064C202.696 196.042 203.009 196.027 203.261 196.018V195.435C203.261 194.971 203.122 194.615 202.844 194.368C202.57 194.116 202.165 193.99 201.631 193.99C201.194 193.99 200.836 194.081 200.557 194.262C200.279 194.439 200.098 194.671 200.014 194.958H198.821C198.87 194.573 199.02 194.233 199.272 193.937C199.524 193.641 199.857 193.412 200.272 193.248C200.692 193.08 201.163 192.996 201.684 192.996C202.373 192.996 202.996 193.173 203.553 193.526C204.109 193.875 204.388 194.547 204.388 195.541V200.286H203.261V199.305H203.208C203.12 199.49 202.983 199.672 202.797 199.848C202.616 200.021 202.378 200.166 202.082 200.286C201.79 200.401 201.45 200.458 201.061 200.458C200.602 200.458 200.186 200.37 199.815 200.193C199.444 200.016 199.15 199.762 198.934 199.431C198.717 199.095 198.609 198.7 198.609 198.245ZM199.749 198.298C199.749 198.664 199.886 198.947 200.16 199.146C200.438 199.34 200.805 199.437 201.26 199.437C201.671 199.437 202.026 199.356 202.327 199.192C202.632 199.029 202.864 198.812 203.023 198.543C203.182 198.273 203.261 197.984 203.261 197.675V196.952L201.445 197.078C200.906 197.114 200.489 197.231 200.193 197.43C199.897 197.628 199.749 197.918 199.749 198.298ZM208.951 194.043H207.44V198.218C207.44 198.642 207.524 198.927 207.691 199.073C207.859 199.219 208.089 199.292 208.381 199.292C208.601 199.292 208.827 199.283 209.057 199.265V200.325C208.827 200.361 208.562 200.378 208.261 200.378C207.926 200.378 207.607 200.31 207.307 200.173C207.007 200.032 206.761 199.82 206.572 199.537C206.382 199.254 206.287 198.912 206.287 198.51V194.043H205.2V193.089H206.287V191.366H207.44V193.089H208.951V194.043ZM212.97 200.431C212.285 200.431 211.689 200.279 211.181 199.974C210.673 199.669 210.282 199.239 210.008 198.682C209.738 198.125 209.604 197.48 209.604 196.747C209.604 196.014 209.738 195.364 210.008 194.799C210.282 194.229 210.664 193.787 211.154 193.473C211.649 193.155 212.219 192.996 212.864 192.996C213.407 192.996 213.913 193.118 214.381 193.361C214.85 193.599 215.23 193.988 215.521 194.527C215.817 195.062 215.965 195.749 215.965 196.588V197.065H210.743C210.761 197.564 210.865 197.991 211.055 198.344C211.245 198.697 211.503 198.967 211.83 199.152C212.162 199.334 212.541 199.424 212.97 199.424C213.376 199.424 213.719 199.349 213.997 199.199C214.28 199.044 214.494 198.845 214.64 198.602H215.859C215.744 198.965 215.552 199.285 215.283 199.563C215.018 199.837 214.686 200.052 214.289 200.206C213.896 200.356 213.456 200.431 212.97 200.431ZM214.812 196.098C214.812 195.696 214.73 195.338 214.567 195.024C214.408 194.706 214.18 194.456 213.884 194.275C213.588 194.094 213.248 194.004 212.864 194.004C212.462 194.004 212.104 194.099 211.79 194.289C211.481 194.478 211.236 194.735 211.055 195.057C210.878 195.375 210.777 195.722 210.75 196.098H214.812Z" fill="#9F9F9F" style="fill:#9F9F9F;fill:color(display-p3 0.6235 0.6235 0.6235);fill-opacity:1;"/>
<g clip-path="url(#clip2_2955_99940)">
<path d="M251.038 195.143C251.038 190.703 247.44 187.104 243 187.104C238.56 187.104 234.962 190.703 234.962 195.143C234.962 199.582 238.56 203.181 243 203.181C247.44 203.181 251.038 199.582 251.038 195.143ZM252.5 195.143C252.5 200.39 248.247 204.643 243 204.643C237.753 204.643 233.5 200.39 233.5 195.143C233.5 189.896 237.753 185.643 243 185.643C248.247 185.643 252.5 189.896 252.5 195.143Z" fill="#9F9F9F" style="fill:#9F9F9F;fill:color(display-p3 0.6235 0.6235 0.6235);fill-opacity:1;"/>
<path d="M242.107 190.996C242.107 190.663 242.377 190.393 242.711 190.393C243.044 190.393 243.314 190.663 243.314 190.996V194.615H246.933C247.266 194.615 247.536 194.885 247.536 195.218C247.536 195.551 247.266 195.821 246.933 195.821H242.711C242.377 195.821 242.107 195.551 242.107 195.218V190.996Z" fill="#9F9F9F" style="fill:#9F9F9F;fill:color(display-p3 0.6235 0.6235 0.6235);fill-opacity:1;"/>
</g>
<path d="M265.828 200.418C265.122 200.418 264.516 200.226 264.013 199.842C263.513 199.457 263.131 198.896 262.866 198.158C262.606 197.421 262.475 196.531 262.475 195.488C262.475 194.459 262.608 193.575 262.873 192.837C263.138 192.095 263.522 191.53 264.026 191.141C264.53 190.752 265.13 190.558 265.828 190.558C266.526 190.558 267.127 190.752 267.631 191.141C268.134 191.53 268.519 192.095 268.784 192.837C269.049 193.575 269.182 194.459 269.182 195.488C269.182 196.531 269.049 197.421 268.784 198.158C268.523 198.896 268.141 199.457 267.637 199.842C267.134 200.226 266.531 200.418 265.828 200.418ZM265.828 199.358C266.288 199.358 266.681 199.208 267.008 198.907C267.335 198.607 267.584 198.167 267.757 197.589C267.929 197.01 268.015 196.31 268.015 195.488C268.015 194.666 267.929 193.964 267.757 193.381C267.584 192.798 267.335 192.354 267.008 192.049C266.681 191.744 266.288 191.591 265.828 191.591C265.369 191.591 264.974 191.744 264.642 192.049C264.315 192.354 264.063 192.798 263.887 193.381C263.714 193.964 263.628 194.666 263.628 195.488C263.628 196.31 263.714 197.01 263.887 197.589C264.059 198.167 264.309 198.607 264.636 198.907C264.967 199.208 265.365 199.358 265.828 199.358ZM273.506 200.418C272.799 200.418 272.194 200.226 271.69 199.842C271.191 199.457 270.809 198.896 270.544 198.158C270.283 197.421 270.153 196.531 270.153 195.488C270.153 194.459 270.285 193.575 270.55 192.837C270.815 192.095 271.2 191.53 271.703 191.141C272.207 190.752 272.808 190.558 273.506 190.558C274.204 190.558 274.805 190.752 275.308 191.141C275.812 191.53 276.196 192.095 276.461 192.837C276.726 193.575 276.859 194.459 276.859 195.488C276.859 196.531 276.726 197.421 276.461 198.158C276.201 198.896 275.819 199.457 275.315 199.842C274.811 200.226 274.208 200.418 273.506 200.418ZM273.506 199.358C273.965 199.358 274.358 199.208 274.685 198.907C275.012 198.607 275.262 198.167 275.434 197.589C275.606 197.01 275.693 196.31 275.693 195.488C275.693 194.666 275.606 193.964 275.434 193.381C275.262 192.798 275.012 192.354 274.685 192.049C274.358 191.744 273.965 191.591 273.506 191.591C273.046 191.591 272.651 191.744 272.32 192.049C271.993 192.354 271.741 192.798 271.564 193.381C271.392 193.964 271.306 194.666 271.306 195.488C271.306 196.31 271.392 197.01 271.564 197.589C271.736 198.167 271.986 198.607 272.313 198.907C272.644 199.208 273.042 199.358 273.506 199.358ZM281.863 199.013C281.708 199.013 281.565 198.976 281.432 198.901C281.304 198.821 281.2 198.715 281.121 198.583C281.046 198.45 281.01 198.306 281.015 198.152C281.01 198.002 281.046 197.862 281.121 197.734C281.2 197.602 281.304 197.498 281.432 197.423C281.565 197.343 281.708 197.304 281.863 197.304C282.013 197.304 282.152 197.343 282.28 197.423C282.413 197.498 282.517 197.602 282.592 197.734C282.671 197.862 282.711 198.002 282.711 198.152C282.711 198.306 282.671 198.45 282.592 198.583C282.517 198.715 282.413 198.821 282.28 198.901C282.152 198.976 282.013 199.013 281.863 199.013ZM281.863 193.685C281.708 193.685 281.565 193.648 281.432 193.573C281.304 193.493 281.2 193.387 281.121 193.255C281.046 193.122 281.01 192.979 281.015 192.824C281.01 192.674 281.046 192.535 281.121 192.407C281.2 192.274 281.304 192.17 281.432 192.095C281.565 192.016 281.708 191.976 281.863 191.976C282.013 191.976 282.152 192.016 282.28 192.095C282.413 192.17 282.517 192.274 282.592 192.407C282.671 192.535 282.711 192.674 282.711 192.824C282.711 192.979 282.671 193.122 282.592 193.255C282.517 193.387 282.413 193.493 282.28 193.573C282.152 193.648 282.013 193.685 281.863 193.685ZM290.22 200.418C289.513 200.418 288.908 200.226 288.404 199.842C287.905 199.457 287.523 198.896 287.258 198.158C286.997 197.421 286.867 196.531 286.867 195.488C286.867 194.459 286.999 193.575 287.264 192.837C287.529 192.095 287.914 191.53 288.417 191.141C288.921 190.752 289.522 190.558 290.22 190.558C290.918 190.558 291.519 190.752 292.022 191.141C292.526 191.53 292.91 192.095 293.175 192.837C293.44 193.575 293.573 194.459 293.573 195.488C293.573 196.531 293.44 197.421 293.175 198.158C292.915 198.896 292.533 199.457 292.029 199.842C291.525 200.226 290.922 200.418 290.22 200.418ZM290.22 199.358C290.679 199.358 291.072 199.208 291.399 198.907C291.726 198.607 291.976 198.167 292.148 197.589C292.321 197.01 292.407 196.31 292.407 195.488C292.407 194.666 292.321 193.964 292.148 193.381C291.976 192.798 291.726 192.354 291.399 192.049C291.072 191.744 290.679 191.591 290.22 191.591C289.76 191.591 289.365 191.744 289.034 192.049C288.707 192.354 288.455 192.798 288.278 193.381C288.106 193.964 288.02 194.666 288.02 195.488C288.02 196.31 288.106 197.01 288.278 197.589C288.451 198.167 288.7 198.607 289.027 198.907C289.358 199.208 289.756 199.358 290.22 199.358ZM297.897 200.418C297.19 200.418 296.585 200.226 296.082 199.842C295.582 199.457 295.2 198.896 294.935 198.158C294.674 197.421 294.544 196.531 294.544 195.488C294.544 194.459 294.677 193.575 294.942 192.837C295.207 192.095 295.591 191.53 296.095 191.141C296.598 190.752 297.199 190.558 297.897 190.558C298.595 190.558 299.196 190.752 299.7 191.141C300.203 191.53 300.588 192.095 300.853 192.837C301.118 193.575 301.25 194.459 301.25 195.488C301.25 196.531 301.118 197.421 300.853 198.158C300.592 198.896 300.21 199.457 299.706 199.842C299.203 200.226 298.6 200.418 297.897 200.418ZM297.897 199.358C298.357 199.358 298.75 199.208 299.077 198.907C299.404 198.607 299.653 198.167 299.826 197.589C299.998 197.01 300.084 196.31 300.084 195.488C300.084 194.666 299.998 193.964 299.826 193.381C299.653 192.798 299.404 192.354 299.077 192.049C298.75 191.744 298.357 191.591 297.897 191.591C297.438 191.591 297.042 191.744 296.711 192.049C296.384 192.354 296.132 192.798 295.956 193.381C295.783 193.964 295.697 194.666 295.697 195.488C295.697 196.31 295.783 197.01 295.956 197.589C296.128 198.167 296.378 198.607 296.704 198.907C297.036 199.208 297.433 199.358 297.897 199.358Z" fill="#9F9F9F" style="fill:#9F9F9F;fill:color(display-p3 0.6235 0.6235 0.6235);fill-opacity:1;"/>
<circle cx="332.5" cy="195.286" r="5.42857" fill="#9F9F9F" style="fill:#9F9F9F;fill:color(display-p3 0.6235 0.6235 0.6235);fill-opacity:1;"/>
<rect x="358.285" y="184.429" width="38.8571" height="21.7143" rx="5.42857" fill="#F5F5F5" style="fill:#F5F5F5;fill:color(display-p3 0.9621 0.9621 0.9621);fill-opacity:1;"/>
<path d="M364.244 190.69H371.48V191.751H368.472V200.286H367.266V191.751H364.244V190.69ZM371.206 198.245C371.206 197.498 371.46 196.973 371.968 196.668C372.48 196.363 373.127 196.182 373.909 196.124C374.21 196.102 374.546 196.082 374.917 196.065C375.292 196.043 375.606 196.027 375.858 196.018V195.435C375.858 194.971 375.718 194.616 375.44 194.368C375.166 194.116 374.762 193.991 374.227 193.991C373.79 193.991 373.432 194.081 373.154 194.262C372.876 194.439 372.695 194.671 372.611 194.958H371.418C371.466 194.574 371.617 194.234 371.868 193.938C372.12 193.642 372.454 193.412 372.869 193.248C373.289 193.08 373.759 192.997 374.28 192.997C374.97 192.997 375.593 193.173 376.149 193.527C376.706 193.876 376.984 194.547 376.984 195.541V200.286H375.858V199.305H375.805C375.716 199.491 375.579 199.672 375.394 199.849C375.213 200.021 374.974 200.167 374.678 200.286C374.387 200.401 374.046 200.458 373.658 200.458C373.198 200.458 372.783 200.37 372.412 200.193C372.041 200.016 371.747 199.762 371.53 199.431C371.314 199.095 371.206 198.7 371.206 198.245ZM372.346 198.298C372.346 198.665 372.482 198.947 372.756 199.146C373.035 199.34 373.401 199.438 373.856 199.438C374.267 199.438 374.623 199.356 374.923 199.192C375.228 199.029 375.46 198.813 375.619 198.543C375.778 198.274 375.858 197.984 375.858 197.675V196.953L374.042 197.079C373.503 197.114 373.085 197.231 372.789 197.43C372.494 197.629 372.346 197.918 372.346 198.298ZM381.322 203.135C380.743 203.135 380.231 203.054 379.784 202.89C379.343 202.727 378.991 202.488 378.731 202.174C378.47 201.861 378.318 201.483 378.273 201.041H379.466C379.546 201.404 379.745 201.677 380.063 201.863C380.385 202.049 380.805 202.141 381.322 202.141C381.958 202.141 382.448 202 382.793 201.717C383.137 201.435 383.31 201.002 383.31 200.418V198.961H383.217C383.089 199.177 382.954 199.367 382.813 199.53C382.671 199.694 382.459 199.844 382.177 199.981C381.898 200.114 381.547 200.18 381.123 200.18C380.535 200.18 380.01 200.036 379.546 199.749C379.082 199.462 378.717 199.049 378.452 198.51C378.192 197.967 378.061 197.326 378.061 196.588C378.061 195.864 378.192 195.23 378.452 194.686C378.713 194.143 379.075 193.725 379.539 193.434C380.003 193.142 380.535 192.997 381.136 192.997C381.556 192.997 381.905 193.065 382.183 193.202C382.466 193.339 382.667 193.48 382.786 193.626C382.91 193.767 383.062 193.968 383.243 194.229H383.336V193.089H384.45V200.485C384.45 201.081 384.313 201.576 384.039 201.969C383.769 202.367 383.4 202.66 382.932 202.85C382.464 203.04 381.927 203.135 381.322 203.135ZM381.282 199.159C381.936 199.159 382.442 198.938 382.799 198.497C383.157 198.05 383.336 197.428 383.336 196.628C383.336 196.111 383.257 195.656 383.098 195.263C382.939 194.87 382.705 194.565 382.395 194.348C382.09 194.127 381.719 194.017 381.282 194.017C380.836 194.017 380.458 194.132 380.149 194.362C379.84 194.591 379.605 194.905 379.446 195.303C379.292 195.696 379.214 196.138 379.214 196.628C379.214 197.132 379.292 197.573 379.446 197.953C379.605 198.333 379.84 198.629 380.149 198.841C380.458 199.053 380.836 199.159 381.282 199.159ZM389.861 194.958C389.777 194.644 389.613 194.401 389.37 194.229C389.132 194.052 388.809 193.964 388.403 193.964C388.111 193.964 387.848 194.013 387.614 194.11C387.384 194.203 387.203 194.333 387.071 194.501C386.943 194.664 386.879 194.848 386.879 195.051C386.879 195.289 386.978 195.493 387.177 195.66C387.38 195.828 387.691 195.961 388.111 196.058L389.185 196.323C389.83 196.478 390.311 196.716 390.629 197.039C390.947 197.357 391.106 197.768 391.106 198.271C391.106 198.691 390.994 199.064 390.768 199.391C390.548 199.714 390.225 199.968 389.801 200.153C389.377 200.339 388.871 200.432 388.283 200.432C387.475 200.432 386.834 200.259 386.362 199.915C385.889 199.566 385.606 199.062 385.514 198.404H386.706C386.773 198.753 386.934 199.014 387.19 199.186C387.446 199.354 387.802 199.438 388.257 199.438C388.769 199.438 389.176 199.338 389.476 199.139C389.777 198.941 389.927 198.673 389.927 198.338C389.927 198.081 389.832 197.869 389.642 197.701C389.452 197.529 389.154 197.397 388.747 197.304L387.661 197.052C387.033 196.906 386.556 196.668 386.229 196.336C385.902 196.005 385.739 195.599 385.739 195.117C385.739 194.711 385.849 194.346 386.07 194.024C386.295 193.701 386.609 193.449 387.011 193.268C387.418 193.087 387.881 192.997 388.403 192.997C388.889 192.997 389.317 193.078 389.688 193.242C390.059 193.405 390.353 193.635 390.57 193.931C390.791 194.227 390.925 194.569 390.974 194.958H389.861Z" fill="#757575" style="fill:#757575;fill:color(display-p3 0.4588 0.4588 0.4588);fill-opacity:1;"/>
<path d="M413.214 187.807C413.214 187.574 413.297 187.351 413.446 187.186C413.594 187.021 413.796 186.929 414.006 186.929H431.422C431.632 186.929 431.834 187.021 431.982 187.186C432.13 187.351 432.214 187.574 432.214 187.807C432.214 188.04 432.13 188.263 431.982 188.428C431.834 188.592 431.632 188.685 431.422 188.685H414.006C413.796 188.685 413.594 188.592 413.446 188.428C413.297 188.263 413.214 188.04 413.214 187.807ZM414.006 193.076H426.672C426.882 193.076 427.084 192.983 427.232 192.819C427.38 192.654 427.464 192.431 427.464 192.198C427.464 191.965 427.38 191.741 427.232 191.577C427.084 191.412 426.882 191.319 426.672 191.319H414.006C413.796 191.319 413.594 191.412 413.446 191.577C413.297 191.741 413.214 191.965 413.214 192.198C413.214 192.431 413.297 192.654 413.446 192.819C413.594 192.983 413.796 193.076 414.006 193.076ZM423.506 195.71H414.006C413.796 195.71 413.594 195.803 413.446 195.967C413.297 196.132 413.214 196.355 413.214 196.588C413.214 196.821 413.297 197.045 413.446 197.209C413.594 197.374 413.796 197.467 414.006 197.467H423.506C423.715 197.467 423.917 197.374 424.065 197.209C424.214 197.045 424.297 196.821 424.297 196.588C424.297 196.355 424.214 196.132 424.065 195.967C423.917 195.803 423.715 195.71 423.506 195.71ZM419.547 200.101H414.006C413.796 200.101 413.594 200.193 413.446 200.358C413.297 200.523 413.214 200.746 413.214 200.979C413.214 201.212 413.297 201.435 413.446 201.6C413.594 201.765 413.796 201.857 414.006 201.857H419.547C419.757 201.857 419.959 201.765 420.107 201.6C420.255 201.435 420.339 201.212 420.339 200.979C420.339 200.746 420.255 200.523 420.107 200.358C419.959 200.193 419.757 200.101 419.547 200.101Z" fill="#9F9F9F" style="fill:#9F9F9F;fill:color(display-p3 0.6235 0.6235 0.6235);fill-opacity:1;"/>
<path d="M459.683 192.648H454.933C454.723 192.648 454.522 192.562 454.373 192.411C454.225 192.259 454.142 192.054 454.142 191.84V186.992C454.142 186.777 454.225 186.572 454.373 186.42C454.522 186.269 454.723 186.184 454.933 186.184C455.143 186.184 455.345 186.269 455.493 186.42C455.642 186.572 455.725 186.777 455.725 186.992V189.889L457.173 188.412C458.938 186.601 461.336 185.579 463.84 185.572H463.892C466.374 185.565 468.758 186.557 470.529 188.332C470.674 188.483 470.755 188.686 470.755 188.897C470.755 189.108 470.674 189.31 470.529 189.461C470.385 189.612 470.188 189.7 469.981 189.704C469.774 189.709 469.574 189.631 469.423 189.487C467.947 188.009 465.96 187.183 463.892 187.188H463.847C461.762 187.194 459.763 188.045 458.292 189.554L456.844 191.032H459.683C459.893 191.032 460.095 191.117 460.243 191.268C460.392 191.42 460.475 191.625 460.475 191.84C460.475 192.054 460.392 192.259 460.243 192.411C460.095 192.562 459.893 192.648 459.683 192.648ZM472.35 197.496H467.6C467.39 197.496 467.189 197.581 467.04 197.732C466.892 197.884 466.808 198.089 466.808 198.304C466.808 198.518 466.892 198.723 467.04 198.875C467.189 199.026 467.39 199.111 467.6 199.111H470.439L468.991 200.589C467.52 202.098 465.522 202.949 463.437 202.956H463.392C461.324 202.96 459.337 202.134 457.861 200.656C457.788 200.579 457.7 200.518 457.602 200.476C457.505 200.434 457.401 200.413 457.295 200.413C457.19 200.413 457.085 200.434 456.988 200.476C456.891 200.518 456.803 200.579 456.729 200.656C456.655 200.733 456.597 200.824 456.559 200.924C456.52 201.024 456.501 201.131 456.504 201.239C456.506 201.347 456.53 201.453 456.573 201.551C456.616 201.649 456.678 201.738 456.755 201.811C458.526 203.586 460.91 204.578 463.392 204.572H463.444C465.947 204.564 468.344 203.542 470.11 201.731L471.558 200.254V203.151C471.558 203.366 471.642 203.571 471.79 203.723C471.939 203.874 472.14 203.959 472.35 203.959C472.56 203.959 472.761 203.874 472.91 203.723C473.058 203.571 473.142 203.366 473.142 203.151V198.304C473.142 198.089 473.058 197.884 472.91 197.732C472.761 197.581 472.56 197.496 472.35 197.496Z" fill="#9F9F9F" style="fill:#9F9F9F;fill:color(display-p3 0.6235 0.6235 0.6235);fill-opacity:1;"/>
<rect x="647.857" y="172.214" width="108.571" height="46.1429" rx="5.42857" fill="#E6E8E8" style="fill:#E6E8E8;fill:color(display-p3 0.9020 0.9098 0.9098);fill-opacity:1;"/>
<g filter="url(#filter0_d_2955_99940)">
<rect x="223" y="215" width="95" height="184" rx="4" fill="white" style="fill:white;fill-opacity:1;" shape-rendering="crispEdges"/>
<g clip-path="url(#clip3_2955_99940)">
<path d="M244.938 231V228.75C244.938 228.439 245.189 228.188 245.5 228.188C245.811 228.188 246.062 228.439 246.062 228.75V231C246.062 231.311 245.811 231.562 245.5 231.562C245.189 231.562 244.938 231.311 244.938 231Z" fill="#121212" style="fill:#121212;fill:color(display-p3 0.0714 0.0714 0.0714);fill-opacity:1;"/>
<path d="M249.875 230.33C250.095 230.11 250.451 230.11 250.671 230.33C250.89 230.549 250.89 230.906 250.671 231.125L249.079 232.717C248.86 232.936 248.503 232.936 248.284 232.717C248.064 232.497 248.064 232.141 248.284 231.921L249.875 230.33Z" fill="#121212" style="fill:#121212;fill:color(display-p3 0.0714 0.0714 0.0714);fill-opacity:1;"/>
<path d="M252.25 234.938C252.561 234.938 252.812 235.189 252.812 235.5C252.812 235.811 252.561 236.062 252.25 236.062H250C249.689 236.062 249.438 235.811 249.438 235.5C249.438 235.189 249.689 234.938 250 234.938H252.25Z" fill="#121212" style="fill:#121212;fill:color(display-p3 0.0714 0.0714 0.0714);fill-opacity:1;"/>
<path d="M248.284 238.284C248.504 238.064 248.86 238.064 249.079 238.284L250.671 239.875C250.89 240.095 250.89 240.451 250.671 240.671C250.451 240.89 250.095 240.89 249.875 240.671L248.284 239.079C248.064 238.86 248.064 238.504 248.284 238.284Z" fill="#121212" style="fill:#121212;fill:color(display-p3 0.0714 0.0714 0.0714);fill-opacity:1;"/>
<path d="M244.938 242.25V240C244.938 239.689 245.189 239.438 245.5 239.438C245.811 239.438 246.062 239.689 246.062 240V242.25C246.062 242.561 245.811 242.812 245.5 242.812C245.189 242.812 244.938 242.561 244.938 242.25Z" fill="#121212" style="fill:#121212;fill:color(display-p3 0.0714 0.0714 0.0714);fill-opacity:1;"/>
<path d="M241.921 238.284C242.141 238.064 242.497 238.064 242.717 238.284C242.936 238.503 242.936 238.86 242.717 239.079L241.125 240.671C240.906 240.89 240.549 240.89 240.33 240.671C240.11 240.451 240.11 240.095 240.33 239.875L241.921 238.284Z" fill="#121212" style="fill:#121212;fill:color(display-p3 0.0714 0.0714 0.0714);fill-opacity:1;"/>
<path d="M241 234.938C241.311 234.938 241.562 235.189 241.562 235.5C241.562 235.811 241.311 236.062 241 236.062H238.75C238.439 236.062 238.188 235.811 238.188 235.5C238.188 235.189 238.439 234.938 238.75 234.938H241Z" fill="#121212" style="fill:#121212;fill:color(display-p3 0.0714 0.0714 0.0714);fill-opacity:1;"/>
<path d="M240.33 230.33C240.549 230.11 240.906 230.11 241.125 230.33L242.717 231.921C242.936 232.141 242.936 232.497 242.717 232.717C242.497 232.936 242.141 232.936 241.921 232.717L240.33 231.125C240.11 230.906 240.11 230.549 240.33 230.33Z" fill="#121212" style="fill:#121212;fill:color(display-p3 0.0714 0.0714 0.0714);fill-opacity:1;"/>
</g>
<path d="M266.959 240.137C266.23 240.137 265.606 239.938 265.086 239.542C264.571 239.146 264.177 238.567 263.904 237.806C263.635 237.045 263.5 236.126 263.5 235.051C263.5 233.989 263.637 233.077 263.91 232.316C264.184 231.551 264.58 230.967 265.1 230.566C265.619 230.165 266.239 229.965 266.959 229.965C267.679 229.965 268.299 230.165 268.819 230.566C269.338 230.967 269.735 231.551 270.008 232.316C270.281 233.077 270.418 233.989 270.418 235.051C270.418 236.126 270.281 237.045 270.008 237.806C269.739 238.567 269.345 239.146 268.825 239.542C268.306 239.938 267.684 240.137 266.959 240.137ZM266.959 239.043C267.433 239.043 267.839 238.888 268.176 238.578C268.513 238.268 268.771 237.815 268.948 237.218C269.126 236.621 269.215 235.898 269.215 235.051C269.215 234.203 269.126 233.479 268.948 232.877C268.771 232.275 268.513 231.817 268.176 231.503C267.839 231.188 267.433 231.031 266.959 231.031C266.485 231.031 266.077 231.188 265.736 231.503C265.398 231.817 265.139 232.275 264.956 232.877C264.779 233.479 264.69 234.203 264.69 235.051C264.69 235.898 264.779 236.621 264.956 237.218C265.134 237.815 265.392 238.268 265.729 238.578C266.071 238.888 266.481 239.043 266.959 239.043ZM274.879 240.137C274.15 240.137 273.526 239.938 273.006 239.542C272.491 239.146 272.097 238.567 271.823 237.806C271.555 237.045 271.42 236.126 271.42 235.051C271.42 233.989 271.557 233.077 271.83 232.316C272.104 231.551 272.5 230.967 273.02 230.566C273.539 230.165 274.159 229.965 274.879 229.965C275.599 229.965 276.219 230.165 276.738 230.566C277.258 230.967 277.654 231.551 277.928 232.316C278.201 233.077 278.338 233.989 278.338 235.051C278.338 236.126 278.201 237.045 277.928 237.806C277.659 238.567 277.265 239.146 276.745 239.542C276.226 239.938 275.604 240.137 274.879 240.137ZM274.879 239.043C275.353 239.043 275.759 238.888 276.096 238.578C276.433 238.268 276.691 237.815 276.868 237.218C277.046 236.621 277.135 235.898 277.135 235.051C277.135 234.203 277.046 233.479 276.868 232.877C276.691 232.275 276.433 231.817 276.096 231.503C275.759 231.188 275.353 231.031 274.879 231.031C274.405 231.031 273.997 231.188 273.655 231.503C273.318 231.817 273.058 232.275 272.876 232.877C272.698 233.479 272.61 234.203 272.61 235.051C272.61 235.898 272.698 236.621 272.876 237.218C273.054 237.815 273.311 238.268 273.649 238.578C273.99 238.888 274.401 239.043 274.879 239.043ZM283.5 238.688C283.34 238.688 283.192 238.649 283.056 238.571C282.924 238.489 282.816 238.38 282.734 238.243C282.657 238.106 282.62 237.958 282.625 237.799C282.62 237.644 282.657 237.5 282.734 237.368C282.816 237.231 282.924 237.124 283.056 237.047C283.192 236.965 283.34 236.924 283.5 236.924C283.655 236.924 283.799 236.965 283.931 237.047C284.067 237.124 284.174 237.231 284.252 237.368C284.334 237.5 284.375 237.644 284.375 237.799C284.375 237.958 284.334 238.106 284.252 238.243C284.174 238.38 284.067 238.489 283.931 238.571C283.799 238.649 283.655 238.688 283.5 238.688ZM283.5 233.191C283.34 233.191 283.192 233.153 283.056 233.075C282.924 232.993 282.816 232.884 282.734 232.747C282.657 232.61 282.62 232.462 282.625 232.303C282.62 232.148 282.657 232.004 282.734 231.872C282.816 231.735 282.924 231.628 283.056 231.551C283.192 231.469 283.34 231.428 283.5 231.428C283.655 231.428 283.799 231.469 283.931 231.551C284.067 231.628 284.174 231.735 284.252 231.872C284.334 232.004 284.375 232.148 284.375 232.303C284.375 232.462 284.334 232.61 284.252 232.747C284.174 232.884 284.067 232.993 283.931 233.075C283.799 233.153 283.655 233.191 283.5 233.191ZM292.121 240.137C291.392 240.137 290.767 239.938 290.248 239.542C289.733 239.146 289.339 238.567 289.065 237.806C288.796 237.045 288.662 236.126 288.662 235.051C288.662 233.989 288.799 233.077 289.072 232.316C289.346 231.551 289.742 230.967 290.262 230.566C290.781 230.165 291.401 229.965 292.121 229.965C292.841 229.965 293.461 230.165 293.98 230.566C294.5 230.967 294.896 231.551 295.17 232.316C295.443 233.077 295.58 233.989 295.58 235.051C295.58 236.126 295.443 237.045 295.17 237.806C294.901 238.567 294.507 239.146 293.987 239.542C293.468 239.938 292.846 240.137 292.121 240.137ZM292.121 239.043C292.595 239.043 293 238.888 293.338 238.578C293.675 238.268 293.932 237.815 294.11 237.218C294.288 236.621 294.377 235.898 294.377 235.051C294.377 234.203 294.288 233.479 294.11 232.877C293.932 232.275 293.675 231.817 293.338 231.503C293 231.188 292.595 231.031 292.121 231.031C291.647 231.031 291.239 231.188 290.897 231.503C290.56 231.817 290.3 232.275 290.118 232.877C289.94 233.479 289.851 234.203 289.851 235.051C289.851 235.898 289.94 236.621 290.118 237.218C290.296 237.815 290.553 238.268 290.89 238.578C291.232 238.888 291.642 239.043 292.121 239.043ZM300.041 240.137C299.312 240.137 298.687 239.938 298.168 239.542C297.653 239.146 297.259 238.567 296.985 237.806C296.716 237.045 296.582 236.126 296.582 235.051C296.582 233.989 296.719 233.077 296.992 232.316C297.265 231.551 297.662 230.967 298.181 230.566C298.701 230.165 299.321 229.965 300.041 229.965C300.761 229.965 301.381 230.165 301.9 230.566C302.42 230.967 302.816 231.551 303.09 232.316C303.363 233.077 303.5 233.989 303.5 235.051C303.5 236.126 303.363 237.045 303.09 237.806C302.821 238.567 302.427 239.146 301.907 239.542C301.387 239.938 300.765 240.137 300.041 240.137ZM300.041 239.043C300.515 239.043 300.92 238.888 301.258 238.578C301.595 238.268 301.852 237.815 302.03 237.218C302.208 236.621 302.297 235.898 302.297 235.051C302.297 234.203 302.208 233.479 302.03 232.877C301.852 232.275 301.595 231.817 301.258 231.503C300.92 231.188 300.515 231.031 300.041 231.031C299.567 231.031 299.159 231.188 298.817 231.503C298.48 231.817 298.22 232.275 298.038 232.877C297.86 233.479 297.771 234.203 297.771 235.051C297.771 235.898 297.86 236.621 298.038 237.218C298.216 237.815 298.473 238.268 298.81 238.578C299.152 238.888 299.562 239.043 300.041 239.043Z" fill="#121212" style="fill:#121212;fill:color(display-p3 0.0714 0.0714 0.0714);fill-opacity:1;"/>
<path d="M239.43 269H238.186V260.387H238.131L235.725 261.986V260.742L238.186 259.102H239.43V269ZM244.875 269.137C244.287 269.137 243.752 269.025 243.268 268.802C242.79 268.574 242.407 268.262 242.12 267.865C241.837 267.464 241.685 267.013 241.662 266.512H242.851C242.883 266.803 242.993 267.068 243.18 267.305C243.366 267.537 243.608 267.722 243.904 267.858C244.2 267.991 244.524 268.057 244.875 268.057C245.294 268.057 245.672 267.961 246.01 267.77C246.347 267.578 246.611 267.316 246.803 266.983C246.994 266.651 247.09 266.279 247.09 265.869C247.09 265.445 246.99 265.065 246.789 264.728C246.593 264.386 246.32 264.119 245.969 263.928C245.622 263.732 245.23 263.632 244.793 263.627C243.913 263.613 243.298 263.91 242.947 264.516H241.758L242.455 259.102H247.814V260.195H243.48L243.111 263.094H243.207C243.43 262.921 243.701 262.782 244.02 262.677C244.339 262.572 244.67 262.52 245.012 262.52C245.631 262.52 246.19 262.663 246.686 262.95C247.188 263.233 247.58 263.627 247.862 264.133C248.149 264.639 248.293 265.208 248.293 265.842C248.293 266.471 248.145 267.036 247.849 267.537C247.552 268.038 247.144 268.43 246.625 268.713C246.105 268.995 245.522 269.137 244.875 269.137Z" fill="#121212" style="fill:#121212;fill:color(display-p3 0.0714 0.0714 0.0714);fill-opacity:1;"/>
<path d="M285.266 261.576H286.401V262.738H286.496C286.656 262.337 286.906 262.027 287.248 261.809C287.595 261.59 288.009 261.48 288.492 261.48C288.966 261.48 289.37 261.59 289.702 261.809C290.035 262.023 290.292 262.333 290.475 262.738H290.557C290.753 262.346 291.042 262.039 291.425 261.815C291.808 261.592 292.261 261.48 292.785 261.48C293.236 261.48 293.631 261.574 293.968 261.761C294.31 261.948 294.576 262.232 294.768 262.615C294.959 262.993 295.055 263.467 295.055 264.037V269H293.879V264.051C293.879 263.536 293.738 263.155 293.455 262.909C293.173 262.659 292.813 262.533 292.375 262.533C292.038 262.533 291.746 262.604 291.5 262.745C291.254 262.886 291.067 263.08 290.94 263.326C290.812 263.572 290.748 263.855 290.748 264.174V269H289.559V263.928C289.559 263.654 289.497 263.413 289.374 263.203C289.251 262.989 289.078 262.825 288.855 262.711C288.636 262.592 288.388 262.533 288.11 262.533C287.813 262.533 287.538 262.613 287.282 262.772C287.027 262.927 286.822 263.144 286.667 263.422C286.517 263.7 286.442 264.014 286.442 264.365V269H285.266V261.576ZM296.522 261.576H297.697V269H296.522V261.576ZM297.109 260.346C296.882 260.346 296.688 260.271 296.528 260.12C296.369 259.97 296.289 259.785 296.289 259.566C296.289 259.348 296.369 259.163 296.528 259.013C296.688 258.862 296.882 258.787 297.109 258.787C297.337 258.787 297.533 258.862 297.697 259.013C297.861 259.163 297.943 259.348 297.943 259.566C297.943 259.785 297.861 259.97 297.697 260.12C297.533 260.271 297.337 260.346 297.109 260.346ZM300.326 269H299.15V261.576H300.285V262.738H300.381C300.568 262.342 300.839 262.034 301.194 261.815C301.554 261.592 302.008 261.48 302.555 261.48C303.065 261.48 303.507 261.585 303.881 261.795C304.255 262 304.544 262.312 304.749 262.731C304.954 263.151 305.057 263.668 305.057 264.283V269H303.881V264.365C303.881 263.791 303.733 263.342 303.437 263.019C303.14 262.695 302.728 262.533 302.199 262.533C301.835 262.533 301.511 262.613 301.229 262.772C300.946 262.927 300.725 263.158 300.565 263.463C300.406 263.764 300.326 264.124 300.326 264.543V269Z" fill="#121212" style="fill:#121212;fill:color(display-p3 0.0714 0.0714 0.0714);fill-opacity:1;"/>
<path d="M239.348 298.137C238.696 298.137 238.113 298.027 237.598 297.809C237.087 297.59 236.682 297.282 236.381 296.886C236.085 296.489 235.925 296.031 235.902 295.512H237.146C237.169 295.817 237.279 296.086 237.475 296.318C237.675 296.551 237.937 296.731 238.261 296.858C238.584 296.981 238.942 297.043 239.334 297.043C239.762 297.043 240.147 296.97 240.489 296.824C240.836 296.674 241.104 296.469 241.296 296.209C241.492 295.945 241.59 295.644 241.59 295.307C241.59 294.942 241.494 294.621 241.303 294.343C241.116 294.065 240.842 293.848 240.482 293.693C240.122 293.538 239.689 293.461 239.184 293.461H238.377V292.381H239.184C239.58 292.381 239.933 292.31 240.243 292.169C240.553 292.028 240.792 291.829 240.961 291.574C241.134 291.319 241.221 291.023 241.221 290.686C241.221 290.362 241.143 290.075 240.988 289.824C240.838 289.574 240.624 289.38 240.346 289.243C240.068 289.102 239.744 289.031 239.375 289.031C239.02 289.031 238.687 289.095 238.377 289.223C238.067 289.35 237.814 289.533 237.618 289.77C237.422 290.002 237.315 290.275 237.297 290.59H236.107C236.13 290.079 236.29 289.626 236.586 289.229C236.882 288.828 237.276 288.519 237.769 288.3C238.261 288.076 238.801 287.965 239.389 287.965C239.999 287.965 240.533 288.086 240.988 288.327C241.449 288.564 241.802 288.885 242.048 289.291C242.294 289.697 242.415 290.139 242.41 290.617C242.415 291.173 242.267 291.649 241.966 292.046C241.665 292.442 241.253 292.714 240.729 292.859V292.928C241.152 292.996 241.519 293.14 241.829 293.358C242.144 293.573 242.383 293.848 242.547 294.186C242.715 294.518 242.798 294.892 242.793 295.307C242.798 295.84 242.649 296.323 242.349 296.756C242.048 297.184 241.633 297.521 241.104 297.768C240.58 298.014 239.995 298.137 239.348 298.137ZM247.391 298.137C246.661 298.137 246.037 297.938 245.517 297.542C245.003 297.146 244.608 296.567 244.335 295.806C244.066 295.045 243.932 294.126 243.932 293.051C243.932 291.989 244.068 291.077 244.342 290.316C244.615 289.551 245.012 288.967 245.531 288.566C246.051 288.165 246.67 287.965 247.391 287.965C248.111 287.965 248.73 288.165 249.25 288.566C249.769 288.967 250.166 289.551 250.439 290.316C250.713 291.077 250.85 291.989 250.85 293.051C250.85 294.126 250.713 295.045 250.439 295.806C250.17 296.567 249.776 297.146 249.257 297.542C248.737 297.938 248.115 298.137 247.391 298.137ZM247.391 297.043C247.865 297.043 248.27 296.888 248.607 296.578C248.945 296.268 249.202 295.815 249.38 295.218C249.558 294.621 249.646 293.898 249.646 293.051C249.646 292.203 249.558 291.479 249.38 290.877C249.202 290.275 248.945 289.817 248.607 289.503C248.27 289.188 247.865 289.031 247.391 289.031C246.917 289.031 246.509 289.188 246.167 289.503C245.83 289.817 245.57 290.275 245.388 290.877C245.21 291.479 245.121 292.203 245.121 293.051C245.121 293.898 245.21 294.621 245.388 295.218C245.565 295.815 245.823 296.268 246.16 296.578C246.502 296.888 246.912 297.043 247.391 297.043Z" fill="#121212" style="fill:#121212;fill:color(display-p3 0.0714 0.0714 0.0714);fill-opacity:1;"/>
<path d="M285.266 290.576H286.401V291.738H286.496C286.656 291.337 286.906 291.027 287.248 290.809C287.595 290.59 288.009 290.48 288.492 290.48C288.966 290.48 289.37 290.59 289.702 290.809C290.035 291.023 290.292 291.333 290.475 291.738H290.557C290.753 291.346 291.042 291.039 291.425 290.815C291.808 290.592 292.261 290.48 292.785 290.48C293.236 290.48 293.631 290.574 293.968 290.761C294.31 290.948 294.576 291.232 294.768 291.615C294.959 291.993 295.055 292.467 295.055 293.037V298H293.879V293.051C293.879 292.536 293.738 292.155 293.455 291.909C293.173 291.659 292.813 291.533 292.375 291.533C292.038 291.533 291.746 291.604 291.5 291.745C291.254 291.886 291.067 292.08 290.94 292.326C290.812 292.572 290.748 292.855 290.748 293.174V298H289.559V292.928C289.559 292.654 289.497 292.413 289.374 292.203C289.251 291.989 289.078 291.825 288.855 291.711C288.636 291.592 288.388 291.533 288.11 291.533C287.813 291.533 287.538 291.613 287.282 291.772C287.027 291.927 286.822 292.144 286.667 292.422C286.517 292.7 286.442 293.014 286.442 293.365V298H285.266V290.576ZM296.522 290.576H297.697V298H296.522V290.576ZM297.109 289.346C296.882 289.346 296.688 289.271 296.528 289.12C296.369 288.97 296.289 288.785 296.289 288.566C296.289 288.348 296.369 288.163 296.528 288.013C296.688 287.862 296.882 287.787 297.109 287.787C297.337 287.787 297.533 287.862 297.697 288.013C297.861 288.163 297.943 288.348 297.943 288.566C297.943 288.785 297.861 288.97 297.697 289.12C297.533 289.271 297.337 289.346 297.109 289.346ZM300.326 298H299.15V290.576H300.285V291.738H300.381C300.568 291.342 300.839 291.034 301.194 290.815C301.554 290.592 302.008 290.48 302.555 290.48C303.065 290.48 303.507 290.585 303.881 290.795C304.255 291 304.544 291.312 304.749 291.731C304.954 292.151 305.057 292.668 305.057 293.283V298H303.881V293.365C303.881 292.791 303.733 292.342 303.437 292.019C303.14 291.695 302.728 291.533 302.199 291.533C301.835 291.533 301.511 291.613 301.229 291.772C300.946 291.927 300.725 292.158 300.565 292.463C300.406 292.764 300.326 293.124 300.326 293.543V298Z" fill="#121212" style="fill:#121212;fill:color(display-p3 0.0714 0.0714 0.0714);fill-opacity:1;"/>
<path d="M235.684 323.965L240.141 317.102H241.658V323.896H243.039V324.977H241.658V327H240.482V324.977H235.684V323.965ZM240.482 323.896V318.66H240.359L237.01 323.814V323.896H240.482ZM247.473 327.137C246.885 327.137 246.349 327.025 245.866 326.802C245.388 326.574 245.005 326.262 244.718 325.865C244.435 325.464 244.282 325.013 244.26 324.512H245.449C245.481 324.803 245.59 325.068 245.777 325.305C245.964 325.537 246.206 325.722 246.502 325.858C246.798 325.991 247.122 326.057 247.473 326.057C247.892 326.057 248.27 325.961 248.607 325.77C248.945 325.578 249.209 325.316 249.4 324.983C249.592 324.651 249.687 324.279 249.687 323.869C249.687 323.445 249.587 323.065 249.387 322.728C249.191 322.386 248.917 322.119 248.566 321.928C248.22 321.732 247.828 321.632 247.391 321.627C246.511 321.613 245.896 321.91 245.545 322.516H244.355L245.053 317.102H250.412V318.195H246.078L245.709 321.094H245.805C246.028 320.921 246.299 320.782 246.618 320.677C246.937 320.572 247.267 320.52 247.609 320.52C248.229 320.52 248.787 320.663 249.284 320.95C249.785 321.233 250.177 321.627 250.46 322.133C250.747 322.639 250.891 323.208 250.891 323.842C250.891 324.471 250.742 325.036 250.446 325.537C250.15 326.038 249.742 326.43 249.223 326.713C248.703 326.995 248.12 327.137 247.473 327.137Z" fill="#121212" style="fill:#121212;fill:color(display-p3 0.0714 0.0714 0.0714);fill-opacity:1;"/>
<path d="M285.266 319.576H286.401V320.738H286.496C286.656 320.337 286.906 320.027 287.248 319.809C287.595 319.59 288.009 319.48 288.492 319.48C288.966 319.48 289.37 319.59 289.702 319.809C290.035 320.023 290.292 320.333 290.475 320.738H290.557C290.753 320.346 291.042 320.039 291.425 319.815C291.808 319.592 292.261 319.48 292.785 319.48C293.236 319.48 293.631 319.574 293.968 319.761C294.31 319.948 294.576 320.232 294.768 320.615C294.959 320.993 295.055 321.467 295.055 322.037V327H293.879V322.051C293.879 321.536 293.738 321.155 293.455 320.909C293.173 320.659 292.813 320.533 292.375 320.533C292.038 320.533 291.746 320.604 291.5 320.745C291.254 320.886 291.067 321.08 290.94 321.326C290.812 321.572 290.748 321.855 290.748 322.174V327H289.559V321.928C289.559 321.654 289.497 321.413 289.374 321.203C289.251 320.989 289.078 320.825 288.855 320.711C288.636 320.592 288.388 320.533 288.11 320.533C287.813 320.533 287.538 320.613 287.282 320.772C287.027 320.927 286.822 321.144 286.667 321.422C286.517 321.7 286.442 322.014 286.442 322.365V327H285.266V319.576ZM296.522 319.576H297.697V327H296.522V319.576ZM297.109 318.346C296.882 318.346 296.688 318.271 296.528 318.12C296.369 317.97 296.289 317.785 296.289 317.566C296.289 317.348 296.369 317.163 296.528 317.013C296.688 316.862 296.882 316.787 297.109 316.787C297.337 316.787 297.533 316.862 297.697 317.013C297.861 317.163 297.943 317.348 297.943 317.566C297.943 317.785 297.861 317.97 297.697 318.12C297.533 318.271 297.337 318.346 297.109 318.346ZM300.326 327H299.15V319.576H300.285V320.738H300.381C300.568 320.342 300.839 320.034 301.194 319.815C301.554 319.592 302.008 319.48 302.555 319.48C303.065 319.48 303.507 319.585 303.881 319.795C304.255 320 304.544 320.312 304.749 320.731C304.954 321.151 305.057 321.668 305.057 322.283V327H303.881V322.365C303.881 321.791 303.733 321.342 303.437 321.019C303.14 320.695 302.728 320.533 302.199 320.533C301.835 320.533 301.511 320.613 301.229 320.772C300.946 320.927 300.725 321.158 300.565 321.463C300.406 321.764 300.326 322.124 300.326 322.543V327Z" fill="#121212" style="fill:#121212;fill:color(display-p3 0.0714 0.0714 0.0714);fill-opacity:1;"/>
<path d="M239.402 356.137C238.764 356.137 238.172 355.993 237.625 355.706C237.083 355.414 236.636 354.92 236.285 354.223C235.939 353.521 235.766 352.591 235.766 351.434C235.766 350.281 235.916 349.294 236.217 348.474C236.522 347.653 236.955 347.031 237.516 346.607C238.081 346.179 238.751 345.965 239.525 345.965C240.095 345.965 240.605 346.074 241.057 346.293C241.512 346.512 241.884 346.819 242.171 347.216C242.463 347.612 242.652 348.07 242.738 348.59H241.521C241.398 348.13 241.166 347.76 240.824 347.482C240.487 347.2 240.054 347.059 239.525 347.059C238.988 347.059 238.523 347.209 238.131 347.51C237.743 347.806 237.445 348.237 237.235 348.802C237.03 349.367 236.928 350.044 236.928 350.832H237.051C237.342 350.417 237.707 350.096 238.145 349.868C238.582 349.636 239.065 349.52 239.594 349.52C240.177 349.52 240.715 349.661 241.207 349.943C241.704 350.226 242.096 350.618 242.383 351.119C242.674 351.616 242.82 352.176 242.82 352.801C242.82 353.416 242.677 353.979 242.39 354.489C242.107 354.995 241.706 355.396 241.187 355.692C240.667 355.989 240.072 356.137 239.402 356.137ZM239.375 355.057C239.794 355.057 240.175 354.956 240.517 354.756C240.858 354.555 241.127 354.284 241.323 353.942C241.524 353.596 241.626 353.22 241.631 352.814C241.626 352.409 241.528 352.037 241.337 351.7C241.146 351.363 240.881 351.096 240.544 350.9C240.207 350.7 239.826 350.6 239.402 350.6C238.979 350.6 238.591 350.702 238.24 350.907C237.889 351.112 237.611 351.388 237.406 351.734C237.201 352.076 237.096 352.441 237.092 352.828C237.092 353.215 237.19 353.58 237.386 353.922C237.586 354.264 237.86 354.539 238.206 354.749C238.557 354.954 238.947 355.057 239.375 355.057ZM247.336 356.137C246.607 356.137 245.982 355.938 245.463 355.542C244.948 355.146 244.554 354.567 244.28 353.806C244.011 353.045 243.877 352.126 243.877 351.051C243.877 349.989 244.014 349.077 244.287 348.316C244.56 347.551 244.957 346.967 245.476 346.566C245.996 346.165 246.616 345.965 247.336 345.965C248.056 345.965 248.676 346.165 249.195 346.566C249.715 346.967 250.111 347.551 250.385 348.316C250.658 349.077 250.795 349.989 250.795 351.051C250.795 352.126 250.658 353.045 250.385 353.806C250.116 354.567 249.722 355.146 249.202 355.542C248.683 355.938 248.06 356.137 247.336 356.137ZM247.336 355.043C247.81 355.043 248.215 354.888 248.553 354.578C248.89 354.268 249.147 353.815 249.325 353.218C249.503 352.621 249.592 351.898 249.592 351.051C249.592 350.203 249.503 349.479 249.325 348.877C249.147 348.275 248.89 347.817 248.553 347.503C248.215 347.188 247.81 347.031 247.336 347.031C246.862 347.031 246.454 347.188 246.112 347.503C245.775 347.817 245.515 348.275 245.333 348.877C245.155 349.479 245.066 350.203 245.066 351.051C245.066 351.898 245.155 352.621 245.333 353.218C245.511 353.815 245.768 354.268 246.105 354.578C246.447 354.888 246.857 355.043 247.336 355.043Z" fill="#121212" style="fill:#121212;fill:color(display-p3 0.0714 0.0714 0.0714);fill-opacity:1;"/>
<path d="M285.266 348.576H286.401V349.738H286.496C286.656 349.337 286.906 349.027 287.248 348.809C287.595 348.59 288.009 348.48 288.492 348.48C288.966 348.48 289.37 348.59 289.702 348.809C290.035 349.023 290.292 349.333 290.475 349.738H290.557C290.753 349.346 291.042 349.039 291.425 348.815C291.808 348.592 292.261 348.48 292.785 348.48C293.236 348.48 293.631 348.574 293.968 348.761C294.31 348.948 294.576 349.232 294.768 349.615C294.959 349.993 295.055 350.467 295.055 351.037V356H293.879V351.051C293.879 350.536 293.738 350.155 293.455 349.909C293.173 349.659 292.813 349.533 292.375 349.533C292.038 349.533 291.746 349.604 291.5 349.745C291.254 349.886 291.067 350.08 290.94 350.326C290.812 350.572 290.748 350.855 290.748 351.174V356H289.559V350.928C289.559 350.654 289.497 350.413 289.374 350.203C289.251 349.989 289.078 349.825 288.855 349.711C288.636 349.592 288.388 349.533 288.11 349.533C287.813 349.533 287.538 349.613 287.282 349.772C287.027 349.927 286.822 350.144 286.667 350.422C286.517 350.7 286.442 351.014 286.442 351.365V356H285.266V348.576ZM296.522 348.576H297.697V356H296.522V348.576ZM297.109 347.346C296.882 347.346 296.688 347.271 296.528 347.12C296.369 346.97 296.289 346.785 296.289 346.566C296.289 346.348 296.369 346.163 296.528 346.013C296.688 345.862 296.882 345.787 297.109 345.787C297.337 345.787 297.533 345.862 297.697 346.013C297.861 346.163 297.943 346.348 297.943 346.566C297.943 346.785 297.861 346.97 297.697 347.12C297.533 347.271 297.337 347.346 297.109 347.346ZM300.326 356H299.15V348.576H300.285V349.738H300.381C300.568 349.342 300.839 349.034 301.194 348.815C301.554 348.592 302.008 348.48 302.555 348.48C303.065 348.48 303.507 348.585 303.881 348.795C304.255 349 304.544 349.312 304.749 349.731C304.954 350.151 305.057 350.668 305.057 351.283V356H303.881V351.365C303.881 350.791 303.733 350.342 303.437 350.019C303.14 349.695 302.728 349.533 302.199 349.533C301.835 349.533 301.511 349.613 301.229 349.772C300.946 349.927 300.725 350.158 300.565 350.463C300.406 350.764 300.326 351.124 300.326 351.543V356Z" fill="#121212" style="fill:#121212;fill:color(display-p3 0.0714 0.0714 0.0714);fill-opacity:1;"/>
<path d="M239.197 374.965C239.831 374.965 240.419 375.111 240.961 375.402C241.503 375.689 241.948 376.182 242.294 376.879C242.645 377.576 242.82 378.501 242.82 379.654C242.82 380.812 242.668 381.803 242.362 382.628C242.062 383.448 241.629 384.073 241.063 384.501C240.503 384.925 239.835 385.137 239.061 385.137C238.491 385.137 237.978 385.027 237.522 384.809C237.067 384.585 236.693 384.275 236.401 383.879C236.114 383.482 235.93 383.022 235.848 382.498H237.064C237.178 382.963 237.406 383.337 237.748 383.619C238.09 383.902 238.527 384.043 239.061 384.043C239.598 384.043 240.061 383.895 240.448 383.599C240.84 383.298 241.141 382.863 241.351 382.293C241.56 381.723 241.667 381.04 241.672 380.242H241.535C241.243 380.657 240.879 380.98 240.441 381.213C240.004 381.441 239.525 381.555 239.006 381.555C238.418 381.555 237.876 381.416 237.379 381.138C236.882 380.855 236.488 380.465 236.196 379.969C235.909 379.472 235.766 378.911 235.766 378.287C235.766 377.676 235.907 377.118 236.189 376.612C236.477 376.106 236.88 375.705 237.399 375.409C237.919 375.113 238.518 374.965 239.197 374.965ZM239.225 376.045C238.805 376.045 238.423 376.145 238.076 376.346C237.734 376.542 237.463 376.808 237.263 377.146C237.067 377.483 236.969 377.85 236.969 378.246C236.969 378.661 237.062 379.039 237.249 379.381C237.436 379.718 237.698 379.985 238.035 380.181C238.372 380.377 238.755 380.475 239.184 380.475C239.603 380.475 239.988 380.372 240.339 380.167C240.69 379.957 240.968 379.682 241.173 379.34C241.378 378.993 241.48 378.629 241.48 378.246C241.48 377.868 241.382 377.51 241.187 377.173C240.991 376.831 240.719 376.558 240.373 376.353C240.031 376.147 239.648 376.045 239.225 376.045ZM247.336 385.137C246.607 385.137 245.982 384.938 245.463 384.542C244.948 384.146 244.554 383.567 244.28 382.806C244.011 382.045 243.877 381.126 243.877 380.051C243.877 378.989 244.014 378.077 244.287 377.316C244.56 376.551 244.957 375.967 245.476 375.566C245.996 375.165 246.616 374.965 247.336 374.965C248.056 374.965 248.676 375.165 249.195 375.566C249.715 375.967 250.111 376.551 250.385 377.316C250.658 378.077 250.795 378.989 250.795 380.051C250.795 381.126 250.658 382.045 250.385 382.806C250.116 383.567 249.722 384.146 249.202 384.542C248.683 384.938 248.06 385.137 247.336 385.137ZM247.336 384.043C247.81 384.043 248.215 383.888 248.553 383.578C248.89 383.268 249.147 382.815 249.325 382.218C249.503 381.621 249.592 380.898 249.592 380.051C249.592 379.203 249.503 378.479 249.325 377.877C249.147 377.275 248.89 376.817 248.553 376.503C248.215 376.188 247.81 376.031 247.336 376.031C246.862 376.031 246.454 376.188 246.112 376.503C245.775 376.817 245.515 377.275 245.333 377.877C245.155 378.479 245.066 379.203 245.066 380.051C245.066 380.898 245.155 381.621 245.333 382.218C245.511 382.815 245.768 383.268 246.105 383.578C246.447 383.888 246.857 384.043 247.336 384.043Z" fill="#121212" style="fill:#121212;fill:color(display-p3 0.0714 0.0714 0.0714);fill-opacity:1;"/>
<path d="M285.266 377.576H286.401V378.738H286.496C286.656 378.337 286.906 378.027 287.248 377.809C287.595 377.59 288.009 377.48 288.492 377.48C288.966 377.48 289.37 377.59 289.702 377.809C290.035 378.023 290.292 378.333 290.475 378.738H290.557C290.753 378.346 291.042 378.039 291.425 377.815C291.808 377.592 292.261 377.48 292.785 377.48C293.236 377.48 293.631 377.574 293.968 377.761C294.31 377.948 294.576 378.232 294.768 378.615C294.959 378.993 295.055 379.467 295.055 380.037V385H293.879V380.051C293.879 379.536 293.738 379.155 293.455 378.909C293.173 378.659 292.813 378.533 292.375 378.533C292.038 378.533 291.746 378.604 291.5 378.745C291.254 378.886 291.067 379.08 290.94 379.326C290.812 379.572 290.748 379.855 290.748 380.174V385H289.559V379.928C289.559 379.654 289.497 379.413 289.374 379.203C289.251 378.989 289.078 378.825 288.855 378.711C288.636 378.592 288.388 378.533 288.11 378.533C287.813 378.533 287.538 378.613 287.282 378.772C287.027 378.927 286.822 379.144 286.667 379.422C286.517 379.7 286.442 380.014 286.442 380.365V385H285.266V377.576ZM296.522 377.576H297.697V385H296.522V377.576ZM297.109 376.346C296.882 376.346 296.688 376.271 296.528 376.12C296.369 375.97 296.289 375.785 296.289 375.566C296.289 375.348 296.369 375.163 296.528 375.013C296.688 374.862 296.882 374.787 297.109 374.787C297.337 374.787 297.533 374.862 297.697 375.013C297.861 375.163 297.943 375.348 297.943 375.566C297.943 375.785 297.861 375.97 297.697 376.12C297.533 376.271 297.337 376.346 297.109 376.346ZM300.326 385H299.15V377.576H300.285V378.738H300.381C300.568 378.342 300.839 378.034 301.194 377.815C301.554 377.592 302.008 377.48 302.555 377.48C303.065 377.48 303.507 377.585 303.881 377.795C304.255 378 304.544 378.312 304.749 378.731C304.954 379.151 305.057 379.668 305.057 380.283V385H303.881V380.365C303.881 379.791 303.733 379.342 303.437 379.019C303.14 378.695 302.728 378.533 302.199 378.533C301.835 378.533 301.511 378.613 301.229 378.772C300.946 378.927 300.725 379.158 300.565 379.463C300.406 379.764 300.326 380.124 300.326 380.543V385Z" fill="#121212" style="fill:#121212;fill:color(display-p3 0.0714 0.0714 0.0714);fill-opacity:1;"/>
</g>
</g>
<defs>
<filter id="filter0_d_2955_99940" x="220" y="212" width="101" height="190" filterUnits="userSpaceOnUse" color-interpolation-filters="sRGB">
<feFlood flood-opacity="0" result="BackgroundImageFix"/>
<feColorMatrix in="SourceAlpha" type="matrix" values="0 0 0 0 0 0 0 0 0 0 0 0 0 0 0 0 0 0 127 0" result="hardAlpha"/>
<feOffset/>
<feGaussianBlur stdDeviation="1.5"/>
<feComposite in2="hardAlpha" operator="out"/>
<feColorMatrix type="matrix" values="0 0 0 0 0 0 0 0 0 0 0 0 0 0 0 0 0 0 0.12 0"/>
<feBlend mode="normal" in2="BackgroundImageFix" result="effect1_dropShadow_2955_99940"/>
<feBlend mode="normal" in="SourceGraphic" in2="effect1_dropShadow_2955_99940" result="shape"/>
</filter>
<clipPath id="clip0_2955_99940">
<rect width="660" height="440" rx="16" fill="white" style="fill:white;fill-opacity:1;"/>
</clipPath>
<clipPath id="clip1_2955_99940">
<rect width="24.4286" height="24.4286" fill="white" style="fill:white;fill-opacity:1;" transform="translate(159.357 183.143)"/>
</clipPath>
<clipPath id="clip2_2955_99940">
<rect width="24.4286" height="24.4286" fill="white" style="fill:white;fill-opacity:1;" transform="translate(230.786 183.143)"/>
</clipPath>
<clipPath id="clip3_2955_99940">
<rect width="18" height="18" fill="white" style="fill:white;fill-opacity:1;" transform="translate(236.5 226.5)"/>
</clipPath>
</defs>
</svg>
