<svg width="1440" height="395" viewBox="0 0 1440 395" fill="none" xmlns="http://www.w3.org/2000/svg">
<g clip-path="url(#clip0_3022_103724)">
<rect width="1440" height="395" fill="#121212" style="fill:#121212;fill:color(display-p3 0.0714 0.0714 0.0714);fill-opacity:1;"/>
<g opacity="0.6">
<rect x="1333.05" y="313.038" width="20.3477" height="55.9562" transform="rotate(90 1333.05 313.038)" fill="white" style="fill:white;fill-opacity:1;"/>
<path d="M1241.14 340.405L1260.72 345.961L1241.09 415.121L1221.51 409.566L1241.14 340.405Z" fill="#74A0F8" style="fill:#74A0F8;fill:color(display-p3 0.4549 0.6275 0.9725);fill-opacity:1;"/>
<circle cx="1257.13" cy="324.733" r="12.2994" transform="rotate(4.52014 1257.13 324.733)" fill="#F2FC9F" style="fill:#F2FC9F;fill:color(display-p3 0.9490 0.9882 0.6235);fill-opacity:1;"/>
<path d="M1254.35 199.853V215.113" stroke="white" style="stroke:white;stroke-opacity:1;" stroke-width="5.08693" stroke-linecap="round"/>
<path d="M1304.26 209.105L1298.15 223.088" stroke="white" style="stroke:white;stroke-opacity:1;" stroke-width="5.08693" stroke-linecap="round"/>
<path d="M1344.72 237.478L1333.65 247.987" stroke="white" style="stroke:white;stroke-opacity:1;" stroke-width="5.08693" stroke-linecap="round"/>
<path d="M1369.27 275.095L1355.2 280.999" stroke="white" style="stroke:white;stroke-opacity:1;" stroke-width="5.08693" stroke-linecap="round"/>
<path d="M1153.49 365.61L1139.42 371.513" stroke="white" style="stroke:white;stroke-opacity:1;" stroke-width="5.08693" stroke-linecap="round"/>
<path d="M1379.23 324.346H1363.97" stroke="white" style="stroke:white;stroke-opacity:1;" stroke-width="5.08693" stroke-linecap="round"/>
<path d="M1145.23 324.346H1129.97" stroke="white" style="stroke:white;stroke-opacity:1;" stroke-width="5.08693" stroke-linecap="round"/>
<path d="M1372.52 365.978L1358.13 360.889" stroke="white" style="stroke:white;stroke-opacity:1;" stroke-width="5.08693" stroke-linecap="round"/>
<path d="M1151.91 287.951L1137.52 282.862" stroke="white" style="stroke:white;stroke-opacity:1;" stroke-width="5.08693" stroke-linecap="round"/>
<path d="M1350.57 404.555L1338.87 394.761" stroke="white" style="stroke:white;stroke-opacity:1;" stroke-width="5.08693" stroke-linecap="round"/>
<path d="M1171.12 254.375L1159.42 244.58" stroke="white" style="stroke:white;stroke-opacity:1;" stroke-width="5.08693" stroke-linecap="round"/>
<path d="M1206.12 227.019L1199.31 213.362" stroke="white" style="stroke:white;stroke-opacity:1;" stroke-width="5.08693" stroke-linecap="round"/>
</g>
<g opacity="0.6">
<rect x="262.048" y="38.0378" width="20.3477" height="55.9562" transform="rotate(90 262.048 38.0378)" fill="white" style="fill:white;fill-opacity:1;"/>
<path d="M170.141 65.4053L189.715 70.9608L170.087 140.121L150.512 134.566L170.141 65.4053Z" fill="#74A0F8" style="fill:#74A0F8;fill:color(display-p3 0.4549 0.6275 0.9725);fill-opacity:1;"/>
<circle cx="186.126" cy="49.7327" r="12.2994" transform="rotate(4.52014 186.126 49.7327)" fill="#F2FC9F" style="fill:#F2FC9F;fill:color(display-p3 0.9490 0.9882 0.6235);fill-opacity:1;"/>
<path d="M183.347 158.852V174.113" stroke="white" style="stroke:white;stroke-opacity:1;" stroke-width="5.08693" stroke-linecap="round"/>
<path d="M139.548 148.52L133.437 162.503" stroke="white" style="stroke:white;stroke-opacity:1;" stroke-width="5.08693" stroke-linecap="round"/>
<path d="M104.043 123.621L92.9774 134.13" stroke="white" style="stroke:white;stroke-opacity:1;" stroke-width="5.08693" stroke-linecap="round"/>
<path d="M298.274 0.0955811L284.201 5.99871" stroke="white" style="stroke:white;stroke-opacity:1;" stroke-width="5.08693" stroke-linecap="round"/>
<path d="M82.4917 90.6096L68.4189 96.5127" stroke="white" style="stroke:white;stroke-opacity:1;" stroke-width="5.08693" stroke-linecap="round"/>
<path d="M308.226 49.3466H292.965" stroke="white" style="stroke:white;stroke-opacity:1;" stroke-width="5.08693" stroke-linecap="round"/>
<path d="M74.2275 49.3466H58.9667" stroke="white" style="stroke:white;stroke-opacity:1;" stroke-width="5.08693" stroke-linecap="round"/>
<path d="M301.518 90.978L287.131 85.8893" stroke="white" style="stroke:white;stroke-opacity:1;" stroke-width="5.08693" stroke-linecap="round"/>
<path d="M80.9111 12.9506L66.5238 7.86179" stroke="white" style="stroke:white;stroke-opacity:1;" stroke-width="5.08693" stroke-linecap="round"/>
<path d="M279.57 129.555L267.867 119.761" stroke="white" style="stroke:white;stroke-opacity:1;" stroke-width="5.08693" stroke-linecap="round"/>
<path d="M239.541 161.427L232.731 147.77" stroke="white" style="stroke:white;stroke-opacity:1;" stroke-width="5.08693" stroke-linecap="round"/>
</g>
</g>
<defs>
<clipPath id="clip0_3022_103724">
<rect width="1440" height="395" fill="white" style="fill:white;fill-opacity:1;"/>
</clipPath>
</defs>
</svg>
