<svg width="22" height="22" viewBox="0 0 22 22" fill="none" xmlns="http://www.w3.org/2000/svg">
<g clip-path="url(#clip0_3272_132577)">
<path d="M7.36256 14.6371L3.48904 13.2097C3.38223 13.1703 3.29008 13.0991 3.22499 13.0057C3.1599 12.9123 3.125 12.8012 3.125 12.6873C3.125 12.5735 3.1599 12.4624 3.22499 12.3689C3.29008 12.2755 3.38223 12.2043 3.48904 12.1649L7.36256 10.7376L8.7899 6.86404C8.82932 6.75723 8.90054 6.66508 8.99395 6.59999C9.08736 6.5349 9.19847 6.5 9.31232 6.5C9.42617 6.5 9.53729 6.5349 9.6307 6.59999C9.72411 6.66508 9.79532 6.75723 9.83474 6.86404L11.2621 10.7376L15.1356 12.1649C15.2424 12.2043 15.3346 12.2755 15.3997 12.3689C15.4647 12.4624 15.4996 12.5735 15.4996 12.6873C15.4996 12.8012 15.4647 12.9123 15.3997 13.0057C15.3346 13.0991 15.2424 13.1703 15.1356 13.2097L11.2621 14.6371L9.83474 18.5106C9.79532 18.6174 9.72411 18.7096 9.6307 18.7747C9.53729 18.8397 9.42617 18.8746 9.31232 18.8746C9.19847 18.8746 9.08736 18.8397 8.99395 18.7747C8.90054 18.7096 8.82932 18.6174 8.7899 18.5106L7.36256 14.6371Z" fill="#121212" style="fill:#121212;fill:color(display-p3 0.0714 0.0714 0.0714);fill-opacity:1;"/>
<path d="M13.25 7.0625V3.6875C13.25 3.37684 13.5018 3.125 13.8125 3.125C14.1232 3.125 14.375 3.37684 14.375 3.6875V7.0625C14.375 7.37316 14.1232 7.625 13.8125 7.625C13.5018 7.625 13.25 7.37316 13.25 7.0625Z" fill="#121212" style="fill:#121212;fill:color(display-p3 0.0714 0.0714 0.0714);fill-opacity:1;"/>
<path d="M16.625 9.875V7.625C16.625 7.31434 16.8768 7.0625 17.1875 7.0625C17.4982 7.0625 17.75 7.31434 17.75 7.625V9.875C17.75 10.1857 17.4982 10.4375 17.1875 10.4375C16.8768 10.4375 16.625 10.1857 16.625 9.875Z" fill="#121212" style="fill:#121212;fill:color(display-p3 0.0714 0.0714 0.0714);fill-opacity:1;"/>
<path d="M15.5 4.8125C15.8107 4.8125 16.0625 5.06434 16.0625 5.375C16.0625 5.68566 15.8107 5.9375 15.5 5.9375H12.125C11.8143 5.9375 11.5625 5.68566 11.5625 5.375C11.5625 5.06434 11.8143 4.8125 12.125 4.8125H15.5Z" fill="#121212" style="fill:#121212;fill:color(display-p3 0.0714 0.0714 0.0714);fill-opacity:1;"/>
<path d="M18.3125 8.1875C18.6232 8.1875 18.875 8.43934 18.875 8.75C18.875 9.06066 18.6232 9.3125 18.3125 9.3125H16.0625C15.7518 9.3125 15.5 9.06066 15.5 8.75C15.5 8.43934 15.7518 8.1875 16.0625 8.1875H18.3125Z" fill="#121212" style="fill:#121212;fill:color(display-p3 0.0714 0.0714 0.0714);fill-opacity:1;"/>
</g>
<defs>
<clipPath id="clip0_3272_132577">
<rect width="18" height="18" fill="white" style="fill:white;fill-opacity:1;" transform="translate(2 2)"/>
</clipPath>
</defs>
</svg>
