<svg width="275" height="187" viewBox="0 0 275 187" fill="none" xmlns="http://www.w3.org/2000/svg">
<g opacity="0.6">
<rect x="216.048" y="38.0378" width="20.3477" height="55.9562" transform="rotate(90 216.048 38.0378)" fill="white" style="fill:white;fill-opacity:1;"/>
<path d="M124.141 65.4053L143.715 70.9608L124.087 140.121L104.512 134.566L124.141 65.4053Z" fill="#74A0F8" style="fill:#74A0F8;fill:color(display-p3 0.4549 0.6275 0.9725);fill-opacity:1;"/>
<circle cx="140.126" cy="49.7327" r="12.2994" transform="rotate(4.52014 140.126 49.7327)" fill="#F2FC9F" style="fill:#F2FC9F;fill:color(display-p3 0.9490 0.9882 0.6235);fill-opacity:1;"/>
<path d="M137.347 158.852V174.113" stroke="white" style="stroke:white;stroke-opacity:1;" stroke-width="5.08693" stroke-linecap="round"/>
<path d="M93.5483 148.52L87.4369 162.503" stroke="white" style="stroke:white;stroke-opacity:1;" stroke-width="5.08693" stroke-linecap="round"/>
<path d="M58.043 123.621L46.9774 134.13" stroke="white" style="stroke:white;stroke-opacity:1;" stroke-width="5.08693" stroke-linecap="round"/>
<path d="M252.274 0.0955811L238.201 5.99871" stroke="white" style="stroke:white;stroke-opacity:1;" stroke-width="5.08693" stroke-linecap="round"/>
<path d="M36.4917 90.6096L22.4189 96.5127" stroke="white" style="stroke:white;stroke-opacity:1;" stroke-width="5.08693" stroke-linecap="round"/>
<path d="M262.226 49.3466H246.965" stroke="white" style="stroke:white;stroke-opacity:1;" stroke-width="5.08693" stroke-linecap="round"/>
<path d="M28.2275 49.3466H12.9667" stroke="white" style="stroke:white;stroke-opacity:1;" stroke-width="5.08693" stroke-linecap="round"/>
<path d="M255.518 90.978L241.131 85.8893" stroke="white" style="stroke:white;stroke-opacity:1;" stroke-width="5.08693" stroke-linecap="round"/>
<path d="M34.9111 12.9506L20.5238 7.86179" stroke="white" style="stroke:white;stroke-opacity:1;" stroke-width="5.08693" stroke-linecap="round"/>
<path d="M233.57 129.555L221.867 119.761" stroke="white" style="stroke:white;stroke-opacity:1;" stroke-width="5.08693" stroke-linecap="round"/>
<path d="M193.541 161.427L186.731 147.77" stroke="white" style="stroke:white;stroke-opacity:1;" stroke-width="5.08693" stroke-linecap="round"/>
</g>
</svg>
