<svg width="716" height="453" viewBox="0 0 716 453" fill="none" xmlns="http://www.w3.org/2000/svg">
<g clip-path="url(#clip0_2957_102272)">
<rect width="716" height="453" rx="16" fill="transparent" style="fill:transparent;fill-opacity:0;"/>
<path d="M102 84.1443C102 80.7509 104.751 78 108.144 78H805.518V738.508H108.144C104.751 738.508 102 735.757 102 732.364V84.1443Z" fill="white" style="fill:white;fill-opacity:1;"/>
<path d="M102 84.1443C102 80.7509 104.751 78 108.144 78H805.518V698.57H108.144C104.751 698.57 102 695.82 102 692.426V84.1443Z" fill="white" style="fill:white;fill-opacity:1;"/>
<mask id="path-4-inside-1_2957_102272" fill="white">
<path d="M102 84.1443C102 80.7509 104.751 78 108.144 78H805.518V121.01H102V84.1443Z"/>
</mask>
<path d="M102 84.1443C102 80.7509 104.751 78 108.144 78H805.518V121.01H102V84.1443Z" fill="white" style="fill:white;fill-opacity:1;"/>
<path d="M102 78H805.518H102M805.518 121.778H102V120.242H805.518V121.778ZM805.518 120.242M102 121.01V78V121.01M102 121.01M805.518 78V121.01V78" fill="#E6E8E8" style="fill:#E6E8E8;fill:color(display-p3 0.9020 0.9098 0.9098);fill-opacity:1;" mask="url(#path-4-inside-1_2957_102272)"/>
<rect x="117.745" y="87.6003" width="23.809" height="23.809" rx="2.68811" fill="white" style="fill:white;fill-opacity:1;"/>
<rect x="117.745" y="87.6003" width="23.809" height="23.809" rx="2.68811" stroke="#E6E8E8" style="stroke:#E6E8E8;stroke:color(display-p3 0.9020 0.9098 0.9098);stroke-opacity:1;" stroke-width="0.768033"/>
<g clip-path="url(#clip1_2957_102272)">
<path d="M136.148 92.5928H123.151C122.837 92.5928 122.537 92.7252 122.315 92.9609C122.094 93.1966 121.969 93.5162 121.969 93.8496V105.161C121.969 105.494 122.094 105.814 122.315 106.049C122.537 106.285 122.837 106.417 123.151 106.417H136.148C136.462 106.417 136.762 106.285 136.984 106.049C137.205 105.814 137.33 105.494 137.33 105.161V93.8496C137.33 93.5162 137.205 93.1966 136.984 92.9609C136.762 92.7252 136.462 92.5928 136.148 92.5928ZM123.151 93.8496H126.105V105.161H123.151V93.8496ZM136.148 105.161H127.286V93.8496H136.148V105.161Z" fill="#3F3F3F" style="fill:#3F3F3F;fill:color(display-p3 0.2471 0.2471 0.2471);fill-opacity:1;"/>
</g>
<rect x="151.538" y="87.6003" width="23.809" height="23.809" rx="2.68811" fill="white" style="fill:white;fill-opacity:1;"/>
<rect x="151.538" y="87.6003" width="23.809" height="23.809" rx="2.68811" stroke="#E6E8E8" style="stroke:#E6E8E8;stroke:color(display-p3 0.9020 0.9098 0.9098);stroke-opacity:1;" stroke-width="0.768033"/>
<g clip-path="url(#clip2_2957_102272)">
<path d="M165.641 105.486L160.521 99.9003C160.473 99.8484 160.436 99.7868 160.41 99.719C160.384 99.6512 160.371 99.5785 160.371 99.5051C160.371 99.4317 160.384 99.359 160.41 99.2912C160.436 99.2234 160.473 99.1618 160.521 99.1099L165.641 93.5245C165.737 93.4197 165.867 93.3608 166.003 93.3608C166.139 93.3608 166.269 93.4197 166.365 93.5245C166.461 93.6293 166.515 93.7715 166.515 93.9197C166.515 94.0679 166.461 94.2101 166.365 94.3149L161.607 99.5051L166.365 104.695C166.413 104.747 166.45 104.809 166.476 104.877C166.502 104.944 166.515 105.017 166.515 105.091C166.515 105.164 166.502 105.237 166.476 105.304C166.45 105.372 166.413 105.434 166.365 105.486C166.318 105.538 166.261 105.579 166.199 105.607C166.137 105.635 166.07 105.649 166.003 105.649C165.936 105.649 165.869 105.635 165.807 105.607C165.745 105.579 165.688 105.538 165.641 105.486Z" fill="#3F3F3F" style="fill:#3F3F3F;fill:color(display-p3 0.2489 0.2489 0.2489);fill-opacity:1;"/>
</g>
<rect x="181.875" y="87.2163" width="33.7934" height="24.577" rx="3.07213" fill="white" style="fill:white;fill-opacity:1;"/>
<path d="M191 95.9009H192.154V101.288C192.151 102.755 191.234 103.609 189.838 103.609C188.545 103.609 187.576 102.889 187.576 101.6H188.727C188.731 102.231 189.199 102.625 189.864 102.625C190.588 102.625 190.996 102.165 191 101.288V95.9009ZM196.912 101.136V97.8019H198.026V103.505H196.931V102.517H196.872C196.608 103.126 196.025 103.579 195.167 103.579C194.068 103.579 193.292 102.84 193.292 101.429V97.8019H194.414V101.292C194.414 102.068 194.885 102.562 195.572 102.562C196.192 102.562 196.912 102.105 196.912 101.136ZM200.192 100.122V103.505H199.07V97.8019H200.147V98.7339H200.218C200.481 98.1249 201.042 97.7277 201.9 97.7277C203.069 97.7277 203.842 98.4702 203.842 99.8774V103.505H202.72V100.015C202.72 99.1905 202.271 98.6967 201.517 98.6967C200.745 98.6967 200.192 99.2128 200.192 100.122ZM207.342 103.62C205.66 103.62 204.624 102.462 204.624 100.691C204.624 98.9381 205.675 97.7277 207.26 97.7277C208.56 97.7277 209.796 98.5334 209.796 100.594V100.991H205.738C205.768 102.079 206.406 102.699 207.349 102.699C207.984 102.699 208.396 102.424 208.586 102.072H209.722C209.469 103.004 208.593 103.62 207.342 103.62ZM205.742 100.152H208.693C208.69 99.2871 208.129 98.6485 207.275 98.6485C206.376 98.6485 205.794 99.3502 205.742 100.152Z" fill="#3F3F3F" style="fill:#3F3F3F;fill:color(display-p3 0.2489 0.2489 0.2489);fill-opacity:1;"/>
<rect x="222.197" y="87.6003" width="23.809" height="23.809" rx="2.68811" fill="white" style="fill:white;fill-opacity:1;"/>
<rect x="222.197" y="87.6003" width="23.809" height="23.809" rx="2.68811" stroke="#E6E8E8" style="stroke:#E6E8E8;stroke:color(display-p3 0.9020 0.9098 0.9098);stroke-opacity:1;" stroke-width="0.768033"/>
<path d="M231.905 105.486L237.024 99.9003C237.072 99.8484 237.11 99.7868 237.136 99.719C237.161 99.6512 237.175 99.5785 237.175 99.5051C237.175 99.4317 237.161 99.359 237.136 99.2912C237.11 99.2234 237.072 99.1618 237.024 99.1099L231.905 93.5245C231.809 93.4197 231.678 93.3608 231.543 93.3608C231.407 93.3608 231.276 93.4197 231.18 93.5245C231.084 93.6293 231.03 93.7715 231.03 93.9197C231.03 94.0679 231.084 94.2101 231.18 94.3149L235.938 99.5051L231.18 104.695C231.133 104.747 231.095 104.809 231.069 104.877C231.044 104.944 231.03 105.017 231.03 105.091C231.03 105.164 231.044 105.237 231.069 105.304C231.095 105.372 231.133 105.434 231.18 105.486C231.228 105.538 231.284 105.579 231.346 105.607C231.409 105.635 231.475 105.649 231.543 105.649C231.61 105.649 231.676 105.635 231.739 105.607C231.801 105.579 231.857 105.538 231.905 105.486Z" fill="#3F3F3F" style="fill:#3F3F3F;fill:color(display-p3 0.2471 0.2471 0.2471);fill-opacity:1;"/>
<path d="M155.198 161.437H158.548V172.806C158.54 175.973 156.304 177.954 153.026 177.954C150.083 177.954 147.775 176.402 147.783 173.18H151.157C151.181 174.477 151.976 175.225 153.186 175.225C154.474 175.225 155.191 174.397 155.198 172.806V161.437ZM168.357 172.528V165.51H171.683V177.731H168.484V175.519H168.357C167.808 176.943 166.487 177.89 164.657 177.89C162.199 177.89 160.528 176.156 160.52 173.291V165.51H163.854V172.711C163.854 174.159 164.697 175.066 165.994 175.066C167.211 175.066 168.365 174.198 168.357 172.528ZM176.911 170.658V177.731H173.577V165.51H176.751V167.658H176.895C177.444 166.242 178.748 165.351 180.57 165.351C183.116 165.351 184.779 167.094 184.779 169.95V177.731H181.446V170.531C181.454 169.027 180.634 168.12 179.258 168.12C177.865 168.12 176.911 169.051 176.911 170.658ZM192.202 177.97C188.454 177.97 186.155 175.551 186.155 171.676C186.155 167.905 188.486 165.351 192.067 165.351C195.273 165.351 197.803 167.38 197.803 171.549V172.48H189.449C189.449 174.334 190.547 175.471 192.257 175.471C193.403 175.471 194.215 174.978 194.549 174.254H197.715C197.238 176.506 195.217 177.97 192.202 177.97ZM189.449 170.395H194.66C194.644 168.916 193.618 167.841 192.13 167.841C190.595 167.841 189.529 168.995 189.449 170.395Z" fill="#3F3F3F" style="fill:#3F3F3F;fill:color(display-p3 0.2489 0.2489 0.2489);fill-opacity:1;"/>
<path d="M147.986 198.293L147.982 197.454L150.618 194.792C151.454 193.927 151.87 193.448 151.873 192.779C151.87 192.029 151.261 191.554 150.462 191.554C149.62 191.554 149.081 192.085 149.081 192.898H147.982C147.979 191.506 149.037 190.585 150.485 190.585C151.951 190.585 152.965 191.513 152.972 192.746C152.965 193.596 152.564 194.276 151.138 195.675L149.594 197.246V197.302H153.095V198.293H147.986ZM156.702 198.415C154.946 198.415 153.91 196.986 153.913 194.495C153.913 192.018 154.957 190.585 156.702 190.585C158.451 190.585 159.494 192.022 159.494 194.495C159.494 196.986 158.462 198.415 156.702 198.415ZM155.064 194.495C155.061 196.392 155.677 197.42 156.702 197.42C157.73 197.42 158.343 196.392 158.343 194.495C158.343 192.601 157.723 191.569 156.702 191.569C155.684 191.569 155.064 192.601 155.064 194.495ZM160.372 198.293L160.368 197.454L163.004 194.792C163.84 193.927 164.256 193.448 164.259 192.779C164.256 192.029 163.647 191.554 162.848 191.554C162.006 191.554 161.467 192.085 161.467 192.898H160.368C160.364 191.506 161.423 190.585 162.871 190.585C164.337 190.585 165.351 191.513 165.358 192.746C165.351 193.596 164.95 194.276 163.524 195.675L161.98 197.246V197.302H165.481V198.293H160.372ZM169.192 198.397C167.788 198.386 166.318 197.554 166.322 194.743C166.322 192.096 167.469 190.585 169.288 190.585C170.692 190.585 171.664 191.458 171.843 192.664H170.703C170.547 192.044 170.057 191.595 169.288 191.595C168.115 191.595 167.432 192.62 167.432 194.339H167.517C167.926 193.689 168.642 193.31 169.47 193.31C170.825 193.31 171.917 194.35 171.917 195.805C171.917 197.276 170.829 198.408 169.192 198.397ZM167.573 195.839C167.573 196.678 168.249 197.428 169.188 197.428C170.105 197.428 170.792 196.715 170.796 195.824C170.792 194.955 170.127 194.246 169.21 194.246C168.286 194.246 167.58 194.989 167.573 195.839ZM180.339 189.783V196.734H179.344V193.537H176.756V192.739H179.344V191.751H176.756V190.956H179.344V189.783H180.339ZM173.047 195.39V190.433H174.039V194.558C175.286 194.55 176.478 194.476 177.822 194.231L177.926 195.052C176.433 195.33 175.16 195.386 173.771 195.39H173.047ZM174.209 198.991V196.128H175.216V198.174H180.584V198.991H174.209ZM186.841 198.397C185.438 198.386 183.967 197.554 183.971 194.743C183.971 192.096 185.118 190.585 186.938 190.585C188.341 190.585 189.314 191.458 189.492 192.664H188.352C188.196 192.044 187.706 191.595 186.938 191.595C185.764 191.595 185.081 192.62 185.081 194.339H185.167C185.575 193.689 186.292 193.31 187.12 193.31C188.475 193.31 189.566 194.35 189.566 195.805C189.566 197.276 188.479 198.408 186.841 198.397ZM185.222 195.839C185.222 196.678 185.898 197.428 186.837 197.428C187.755 197.428 188.441 196.715 188.445 195.824C188.441 194.955 187.777 194.246 186.86 194.246C185.935 194.246 185.23 194.989 185.222 195.839ZM197.974 189.783V195.3H196.972V194.847H195.137V194.22H196.972V189.783H197.974ZM190.121 193.255C191.944 193.258 194.246 193.24 196.274 193.028L196.333 193.667C195.442 193.789 194.521 193.864 193.619 193.912V195.323H192.635V193.949C191.788 193.975 190.972 193.975 190.236 193.971L190.121 193.255ZM190.823 191.361C190.823 190.5 191.755 189.946 193.181 189.946C194.581 189.946 195.52 190.5 195.527 191.361C195.52 192.241 194.581 192.768 193.181 192.768C191.755 192.768 190.823 192.241 190.823 191.361ZM191.532 196.314V195.616H197.974V197.647H192.55V198.371H198.256V199.095H191.569V196.979H196.983V196.314H191.532ZM191.766 191.361C191.759 191.81 192.312 192.1 193.181 192.1C194.035 192.1 194.588 191.81 194.588 191.361C194.588 190.912 194.035 190.618 193.181 190.618C192.312 190.618 191.759 190.912 191.766 191.361ZM201.743 198.293L201.74 197.454L204.376 194.792C205.211 193.927 205.627 193.448 205.631 192.779C205.627 192.029 205.018 191.554 204.22 191.554C203.377 191.554 202.839 192.085 202.839 192.898H201.74C201.736 191.506 202.794 190.585 204.242 190.585C205.709 190.585 206.722 191.513 206.73 192.746C206.722 193.596 206.321 194.276 204.895 195.675L203.351 197.246V197.302H206.852V198.293H201.743ZM210.47 198.397C208.822 198.397 207.667 197.502 207.674 196.266C207.667 195.293 208.369 194.495 209.26 194.35V194.309C208.484 194.138 207.96 193.44 207.96 192.612C207.96 191.443 209.018 190.585 210.47 190.585C211.907 190.585 212.965 191.443 212.969 192.612C212.965 193.444 212.434 194.138 211.673 194.309V194.35C212.557 194.495 213.259 195.293 213.266 196.266C213.259 197.502 212.1 198.397 210.47 198.397ZM208.851 196.188C208.84 196.938 209.468 197.454 210.47 197.454C211.458 197.454 212.089 196.941 212.089 196.188C212.089 195.408 211.406 194.836 210.47 194.836C209.527 194.836 208.84 195.408 208.851 196.188ZM209.089 192.713C209.089 193.429 209.661 193.919 210.47 193.919C211.265 193.919 211.844 193.429 211.844 192.713C211.844 192.007 211.283 191.528 210.47 191.528C209.638 191.528 209.089 192.007 209.089 192.713ZM216.482 190.099C217.897 190.102 218.94 190.971 218.948 192.208C218.94 193.44 217.897 194.302 216.482 194.302C215.049 194.302 214.006 193.44 214.006 192.208C214.006 190.971 215.049 190.102 216.482 190.099ZM214.979 192.208C214.971 192.98 215.614 193.492 216.482 193.492C217.344 193.492 217.982 192.98 217.982 192.208C217.982 191.439 217.344 190.923 216.482 190.927C215.614 190.923 214.971 191.439 214.979 192.208ZM215.432 195.79V195H221.621V197.365H216.431V198.267H221.929V199.065H215.461V196.622H220.63V195.79H215.432ZM220.622 194.565V189.776H221.621V194.565H220.622ZM232.571 190.166V193.392H229.868V194.487H233.666V195.293H225.09V194.487H228.877V193.392H226.181V190.166H232.571ZM226.04 196.975V196.184H232.612V199.184H231.609V196.975H226.04ZM227.158 192.594H231.587V190.953H227.158V192.594ZM242.67 197.187V198.011H234.06V197.187H236.12V194.725C235.344 194.302 234.873 193.626 234.873 192.783C234.873 191.302 236.325 190.329 238.341 190.321C240.364 190.329 241.82 191.302 241.82 192.783C241.82 193.615 241.363 194.279 240.606 194.706V197.187H242.67ZM235.842 192.783C235.842 193.789 236.867 194.446 238.341 194.446C239.807 194.446 240.847 193.789 240.847 192.783C240.847 191.766 239.807 191.12 238.341 191.127C236.867 191.12 235.842 191.766 235.842 192.783ZM237.101 197.187H239.599V195.089C239.213 195.178 238.79 195.226 238.341 195.226C237.895 195.226 237.479 195.178 237.101 195.092V197.187ZM245.696 190.099C247.111 190.102 248.154 190.971 248.161 192.208C248.154 193.44 247.111 194.302 245.696 194.302C244.263 194.302 243.22 193.44 243.22 192.208C243.22 190.971 244.263 190.102 245.696 190.099ZM244.192 192.208C244.185 192.98 244.827 193.492 245.696 193.492C246.557 193.492 247.196 192.98 247.196 192.208C247.196 191.439 246.557 190.923 245.696 190.927C244.827 190.923 244.185 191.439 244.192 192.208ZM244.645 195.79V195H250.835V197.365H245.644V198.267H251.143V199.065H244.675V196.622H249.843V195.79H244.645ZM249.836 194.565V189.776H250.835V194.565H249.836Z" fill="#121212" style="fill:#121212;fill:color(display-p3 0.0714 0.0714 0.0714);fill-opacity:1;"/>
<path d="M170.423 258.899L172.619 264.263H172.7L174.896 258.899H175.868V265.416H175.103V260.492H175.04L173.015 265.416H172.295L170.27 260.492H170.216V265.416H169.451V258.899H170.423Z" fill="#3F3F3F" style="fill:#3F3F3F;fill:color(display-p3 0.2489 0.2489 0.2489);fill-opacity:1;"/>
<path d="M263.902 258.899H268.816V259.619H266.773V265.416H265.954V259.619H263.902V258.899Z" fill="#3F3F3F" style="fill:#3F3F3F;fill:color(display-p3 0.2489 0.2489 0.2489);fill-opacity:1;"/>
<path d="M355.987 258.899H356.806L358.165 264.173H358.228L359.605 258.899H360.514L361.9 264.173H361.954L363.313 258.899H364.132L362.35 265.416H361.513L360.091 260.258H360.037L358.606 265.416H357.769L355.987 258.899Z" fill="#3F3F3F" style="fill:#3F3F3F;fill:color(display-p3 0.2489 0.2489 0.2489);fill-opacity:1;"/>
<path d="M451.302 258.899H456.217V259.619H454.174V265.416H453.355V259.619H451.302V258.899Z" fill="#3F3F3F" style="fill:#3F3F3F;fill:color(display-p3 0.2489 0.2489 0.2489);fill-opacity:1;"/>
<path d="M545.615 258.899H549.539V259.619H546.425V261.797H549.242V262.508H546.425V265.416H545.615V258.899Z" fill="#3F3F3F" style="fill:#3F3F3F;fill:color(display-p3 0.2489 0.2489 0.2489);fill-opacity:1;"/>
<path d="M642.636 260.537C642.612 260.327 642.536 260.147 642.407 259.997C642.281 259.844 642.112 259.729 641.902 259.651C641.692 259.57 641.457 259.529 641.196 259.529C640.914 259.529 640.663 259.576 640.444 259.669C640.228 259.759 640.06 259.885 639.94 260.047C639.823 260.209 639.765 260.393 639.765 260.6C639.765 260.9 639.886 261.13 640.129 261.289C640.375 261.448 640.674 261.572 641.025 261.662L641.673 261.842C642.177 261.971 642.611 262.171 642.974 262.441C643.337 262.708 643.518 263.108 643.518 263.642C643.518 263.999 643.424 264.322 643.235 264.61C643.049 264.895 642.777 265.12 642.42 265.285C642.066 265.45 641.643 265.533 641.151 265.533C640.689 265.533 640.285 265.458 639.94 265.308C639.595 265.158 639.325 264.946 639.13 264.673C638.935 264.4 638.826 264.083 638.802 263.723H639.63C639.654 263.957 639.736 264.155 639.877 264.317C640.018 264.476 640.198 264.596 640.417 264.677C640.639 264.755 640.884 264.795 641.151 264.795C641.451 264.795 641.719 264.746 641.956 264.65C642.196 264.554 642.384 264.418 642.519 264.241C642.657 264.061 642.726 263.855 642.726 263.624C642.726 263.426 642.669 263.26 642.555 263.125C642.444 262.99 642.297 262.88 642.114 262.796C641.934 262.712 641.709 262.631 641.439 262.553L640.638 262.337C640.104 262.181 639.694 261.965 639.409 261.689C639.124 261.413 638.982 261.062 638.982 260.636C638.982 260.279 639.079 259.963 639.274 259.687C639.472 259.408 639.741 259.192 640.08 259.039C640.422 258.886 640.803 258.809 641.223 258.809C641.637 258.809 642.009 258.884 642.339 259.034C642.669 259.184 642.93 259.391 643.122 259.655C643.314 259.916 643.416 260.21 643.428 260.537H642.636Z" fill="#FF6650" style="fill:#FF6650;fill:color(display-p3 1.0000 0.4000 0.3137);fill-opacity:1;"/>
<rect x="147.313" y="279.993" width="50.6902" height="50.6902" rx="25.3451" fill="#74A0F8" style="fill:#74A0F8;fill:color(display-p3 0.4549 0.6275 0.9725);fill-opacity:1;"/>
<rect x="151.922" y="284.601" width="41.4738" height="41.4738" rx="20.7369" fill="white" style="fill:white;fill-opacity:1;"/>
<path d="M170.245 309.272L174.038 309.89L171.876 324.322L168.083 323.704L170.245 309.272Z" fill="#74A0F8" style="fill:#74A0F8;fill:color(display-p3 0.4549 0.6275 0.9725);fill-opacity:1;"/>
<rect x="187.251" y="303.034" width="3.84016" height="9.98443" transform="rotate(90 187.251 303.034)" fill="#74A0F8" style="fill:#74A0F8;fill:color(display-p3 0.4549 0.6275 0.9725);fill-opacity:1;"/>
<circle cx="172.659" cy="305.338" r="2.3041" fill="#74A0F8" style="fill:#74A0F8;fill:color(display-p3 0.4549 0.6275 0.9725);fill-opacity:1;"/>
<path d="M173.64 342.389V348.363H172.561V343.436H172.526L171.128 344.329V343.346L172.61 342.389H173.64Z" fill="#9F9F9F" style="fill:#9F9F9F;fill:color(display-p3 0.6235 0.6235 0.6235);fill-opacity:1;"/>
<rect x="241.014" y="279.993" width="50.6902" height="50.6902" rx="25.3451" fill="#74A0F8" style="fill:#74A0F8;fill:color(display-p3 0.4549 0.6275 0.9725);fill-opacity:1;"/>
<rect x="245.622" y="284.601" width="41.4738" height="41.4738" rx="20.7369" fill="#74A0F8" style="fill:#74A0F8;fill:color(display-p3 0.4549 0.6275 0.9725);fill-opacity:1;"/>
<path d="M263.945 309.272L267.738 309.89L265.577 324.322L261.783 323.704L263.945 309.272Z" fill="white" style="fill:white;fill-opacity:1;"/>
<rect x="280.952" y="303.034" width="3.84016" height="9.98443" transform="rotate(90 280.952 303.034)" fill="white" style="fill:white;fill-opacity:1;"/>
<circle cx="266.359" cy="305.338" r="2.3041" fill="white" style="fill:white;fill-opacity:1;"/>
<path d="M264.312 348.363L264.309 347.584L266.419 345.551C267.022 344.947 267.338 344.591 267.34 344.092C267.338 343.532 266.897 343.182 266.311 343.182C265.698 343.182 265.301 343.567 265.304 344.174H264.283C264.277 343.042 265.126 342.307 266.325 342.307C267.542 342.307 268.364 343.036 268.367 344.037C268.364 344.714 268.041 345.259 266.865 346.368L265.806 347.421V347.465H268.458V348.363H264.312Z" fill="#9F9F9F" style="fill:#9F9F9F;fill:color(display-p3 0.6235 0.6235 0.6235);fill-opacity:1;"/>
<rect x="334.713" y="279.993" width="50.6902" height="50.6902" rx="25.3451" fill="#DEE9FF" style="fill:#DEE9FF;fill:color(display-p3 0.8710 0.9140 1.0000);fill-opacity:1;"/>
<rect x="339.322" y="284.601" width="41.4738" height="41.4738" rx="20.7369" fill="white" style="fill:white;fill-opacity:1;"/>
<path d="M357.645 309.272L361.438 309.89L359.276 324.322L355.483 323.704L357.645 309.272Z" fill="#C6D8FC" style="fill:#C6D8FC;fill:color(display-p3 0.7765 0.8471 0.9882);fill-opacity:1;"/>
<rect x="374.651" y="303.034" width="3.84016" height="9.98443" transform="rotate(90 374.651 303.034)" fill="#C6D8FC" style="fill:#C6D8FC;fill:color(display-p3 0.7765 0.8471 0.9882);fill-opacity:1;"/>
<circle cx="360.059" cy="305.338" r="2.3041" fill="#C6D8FC" style="fill:#C6D8FC;fill:color(display-p3 0.7765 0.8471 0.9882);fill-opacity:1;"/>
<path d="M360.056 348.445C358.781 348.445 357.871 347.751 357.842 346.741H358.927C358.953 347.226 359.432 347.541 360.053 347.541C360.712 347.541 361.188 347.179 361.185 346.651C361.188 346.111 360.724 345.726 359.945 345.726H359.414V344.898H359.945C360.581 344.898 361.024 344.545 361.024 344.022C361.024 343.521 360.645 343.182 360.068 343.182C359.502 343.182 359.017 343.497 358.997 343.996H357.967C357.99 342.996 358.901 342.307 360.073 342.307C361.281 342.307 362.066 343.048 362.06 343.961C362.066 344.635 361.622 345.116 360.966 345.253V345.3C361.812 345.414 362.29 345.954 362.285 346.706C362.29 347.713 361.348 348.445 360.056 348.445Z" fill="#9F9F9F" style="fill:#9F9F9F;fill:color(display-p3 0.6235 0.6235 0.6235);fill-opacity:1;"/>
<rect x="428.413" y="279.993" width="50.6902" height="50.6902" rx="25.3451" fill="#DEE9FF" style="fill:#DEE9FF;fill:color(display-p3 0.8710 0.9140 1.0000);fill-opacity:1;"/>
<rect x="433.021" y="284.601" width="41.4738" height="41.4738" rx="20.7369" fill="white" style="fill:white;fill-opacity:1;"/>
<path d="M451.344 309.272L455.137 309.89L452.976 324.322L449.182 323.704L451.344 309.272Z" fill="#C6D8FC" style="fill:#C6D8FC;fill:color(display-p3 0.7765 0.8471 0.9882);fill-opacity:1;"/>
<rect x="468.351" y="303.034" width="3.84016" height="9.98443" transform="rotate(90 468.351 303.034)" fill="#C6D8FC" style="fill:#C6D8FC;fill:color(display-p3 0.7765 0.8471 0.9882);fill-opacity:1;"/>
<circle cx="453.758" cy="305.338" r="2.3041" fill="#C6D8FC" style="fill:#C6D8FC;fill:color(display-p3 0.7765 0.8471 0.9882);fill-opacity:1;"/>
<path d="M451.417 347.252V346.394L453.998 342.389H455.34V346.368H456.125V347.252H455.34V348.363H454.316V347.252H451.417ZM452.519 346.368H454.328V343.608H454.267L452.519 346.321V346.368Z" fill="#9F9F9F" style="fill:#9F9F9F;fill:color(display-p3 0.6235 0.6235 0.6235);fill-opacity:1;"/>
<rect x="522.113" y="279.993" width="50.6902" height="50.6902" rx="25.3451" fill="#74A0F8" style="fill:#74A0F8;fill:color(display-p3 0.4549 0.6275 0.9725);fill-opacity:1;"/>
<rect x="526.722" y="284.601" width="41.4738" height="41.4738" rx="20.7369" fill="#DEE9FF" style="fill:#DEE9FF;fill:color(display-p3 0.8710 0.9140 1.0000);fill-opacity:1;"/>
<path d="M545.044 309.272L548.837 309.89L546.676 324.322L542.882 323.704L545.044 309.272Z" fill="#74A0F8" style="fill:#74A0F8;fill:color(display-p3 0.4549 0.6275 0.9725);fill-opacity:1;"/>
<rect x="562.051" y="303.034" width="3.84016" height="9.98443" transform="rotate(90 562.051 303.034)" fill="#74A0F8" style="fill:#74A0F8;fill:color(display-p3 0.4549 0.6275 0.9725);fill-opacity:1;"/>
<circle cx="547.458" cy="305.338" r="2.3041" fill="#74A0F8" style="fill:#74A0F8;fill:color(display-p3 0.4549 0.6275 0.9725);fill-opacity:1;"/>
<path d="M547.465 348.445C546.275 348.445 545.394 347.733 545.362 346.741H546.406C546.444 347.228 546.902 347.576 547.465 347.576C548.136 347.576 548.615 347.094 548.615 346.429C548.615 345.749 548.121 345.265 547.433 345.259C546.969 345.256 546.631 345.42 546.441 345.77H545.449L545.805 342.389H549.335V343.287H546.692L546.511 344.874H546.564C546.797 344.612 547.232 344.422 547.725 344.422C548.833 344.422 549.656 345.251 549.656 346.4C549.656 347.593 548.757 348.445 547.465 348.445Z" fill="#9F9F9F" style="fill:#9F9F9F;fill:color(display-p3 0.6235 0.6235 0.6235);fill-opacity:1;"/>
<rect x="615.813" y="279.993" width="50.6902" height="50.6902" rx="25.3451" fill="#74A0F8" style="fill:#74A0F8;fill:color(display-p3 0.4549 0.6275 0.9725);fill-opacity:1;"/>
<rect x="620.422" y="284.601" width="41.4738" height="41.4738" rx="20.7369" fill="white" style="fill:white;fill-opacity:1;"/>
<path d="M638.744 309.272L642.537 309.89L640.376 324.322L636.583 323.704L638.744 309.272Z" fill="#74A0F8" style="fill:#74A0F8;fill:color(display-p3 0.4549 0.6275 0.9725);fill-opacity:1;"/>
<rect x="655.751" y="303.034" width="3.84016" height="9.98443" transform="rotate(90 655.751 303.034)" fill="#74A0F8" style="fill:#74A0F8;fill:color(display-p3 0.4549 0.6275 0.9725);fill-opacity:1;"/>
<circle cx="641.159" cy="305.338" r="2.3041" fill="#74A0F8" style="fill:#74A0F8;fill:color(display-p3 0.4549 0.6275 0.9725);fill-opacity:1;"/>
<path d="M641.219 348.445C640.049 348.439 638.885 347.745 638.888 345.545C638.888 343.497 639.819 342.307 641.283 342.307C642.432 342.307 643.226 343.031 643.36 343.996H642.298C642.187 343.541 641.826 343.238 641.283 343.238C640.414 343.238 639.932 344.005 639.929 345.265H639.991C640.291 344.746 640.866 344.44 641.522 344.44C642.593 344.44 643.421 345.253 643.419 346.385C643.421 347.573 642.538 348.451 641.219 348.445ZM640.049 346.417C640.052 347.042 640.539 347.576 641.216 347.576C641.881 347.576 642.377 347.062 642.377 346.412C642.377 345.773 641.896 345.262 641.231 345.262C640.56 345.262 640.055 345.793 640.049 346.417Z" fill="#9F9F9F" style="fill:#9F9F9F;fill:color(display-p3 0.6235 0.6235 0.6235);fill-opacity:1;"/>
<rect x="709.514" y="279.993" width="50.6902" height="50.6902" rx="25.3451" fill="#74A0F8" style="fill:#74A0F8;fill:color(display-p3 0.4549 0.6275 0.9725);fill-opacity:1;"/>
<rect x="714.122" y="284.601" width="41.4738" height="41.4738" rx="20.7369" fill="#74A0F8" style="fill:#74A0F8;fill:color(display-p3 0.4549 0.6275 0.9725);fill-opacity:1;"/>
<rect x="147.313" y="366.78" width="50.6902" height="50.6902" rx="25.3451" fill="#74A0F8" style="fill:#74A0F8;fill:color(display-p3 0.4549 0.6275 0.9725);fill-opacity:1;"/>
<rect x="151.922" y="371.389" width="41.4738" height="41.4738" rx="20.7369" fill="#74A0F8" style="fill:#74A0F8;fill:color(display-p3 0.4549 0.6275 0.9725);fill-opacity:1;"/>
<path d="M170.245 396.06L174.038 396.678L171.876 411.109L168.083 410.492L170.245 396.06Z" fill="white" style="fill:white;fill-opacity:1;"/>
<rect x="187.251" y="389.821" width="3.84016" height="9.98443" transform="rotate(90 187.251 389.821)" fill="white" style="fill:white;fill-opacity:1;"/>
<circle cx="172.659" cy="392.125" r="2.3041" fill="white" style="fill:white;fill-opacity:1;"/>
<path d="M172.657 435.233C171.327 435.233 170.385 434.524 170.39 433.549C170.385 432.794 170.951 432.172 171.668 432.062V432.024C171.041 431.892 170.615 431.35 170.615 430.696C170.615 429.771 171.479 429.095 172.657 429.095C173.833 429.095 174.696 429.771 174.699 430.696C174.696 431.35 174.259 431.892 173.643 432.024V432.062C174.355 432.172 174.924 432.794 174.927 433.549C174.924 434.524 173.979 435.233 172.657 435.233ZM171.499 433.473C171.49 434.022 171.948 434.404 172.657 434.404C173.363 434.404 173.818 434.022 173.818 433.473C173.818 432.908 173.328 432.49 172.657 432.49C171.983 432.49 171.49 432.905 171.499 433.473ZM171.665 430.798C171.665 431.318 172.077 431.676 172.657 431.676C173.232 431.676 173.649 431.318 173.649 430.798C173.649 430.288 173.244 429.935 172.657 429.935C172.062 429.935 171.665 430.288 171.665 430.798Z" fill="#9F9F9F" style="fill:#9F9F9F;fill:color(display-p3 0.6235 0.6235 0.6235);fill-opacity:1;"/>
<rect x="241.014" y="366.78" width="50.6902" height="50.6902" rx="25.3451" fill="#74A0F8" style="fill:#74A0F8;fill:color(display-p3 0.4549 0.6275 0.9725);fill-opacity:1;"/>
<rect x="245.622" y="371.389" width="41.4738" height="41.4738" rx="20.7369" fill="#74A0F8" style="fill:#74A0F8;fill:color(display-p3 0.4549 0.6275 0.9725);fill-opacity:1;"/>
<path d="M263.945 396.06L267.738 396.678L265.577 411.109L261.783 410.492L263.945 396.06Z" fill="white" style="fill:white;fill-opacity:1;"/>
<rect x="280.952" y="389.821" width="3.84016" height="9.98443" transform="rotate(90 280.952 389.821)" fill="white" style="fill:white;fill-opacity:1;"/>
<circle cx="266.359" cy="392.125" r="2.3041" fill="white" style="fill:white;fill-opacity:1;"/>
<path d="M266.302 429.095C267.469 429.1 268.63 429.801 268.633 431.98C268.633 434.042 267.703 435.233 266.238 435.233C265.083 435.233 264.287 434.515 264.155 433.529H265.217C265.328 433.999 265.693 434.302 266.238 434.302C267.102 434.302 267.586 433.538 267.592 432.257H267.528C267.227 432.773 266.652 433.083 265.999 433.083C264.928 433.083 264.103 432.272 264.1 431.143C264.097 429.973 264.978 429.089 266.302 429.095ZM265.144 431.116C265.147 431.758 265.623 432.263 266.294 432.263C266.956 432.263 267.469 431.726 267.466 431.11C267.463 430.501 266.976 429.964 266.308 429.964C265.637 429.964 265.138 430.477 265.144 431.116Z" fill="#9F9F9F" style="fill:#9F9F9F;fill:color(display-p3 0.6235 0.6235 0.6235);fill-opacity:1;"/>
<rect x="334.713" y="366.78" width="50.6902" height="50.6902" rx="25.3451" fill="#74A0F8" style="fill:#74A0F8;fill:color(display-p3 0.4549 0.6275 0.9725);fill-opacity:1;"/>
<rect x="339.322" y="371.389" width="41.4738" height="41.4738" rx="20.7369" fill="#DEE9FF" style="fill:#DEE9FF;fill:color(display-p3 0.8710 0.9140 1.0000);fill-opacity:1;"/>
<path d="M357.645 396.06L361.438 396.678L359.276 411.109L355.483 410.492L357.645 396.06Z" fill="#74A0F8" style="fill:#74A0F8;fill:color(display-p3 0.4549 0.6275 0.9725);fill-opacity:1;"/>
<rect x="374.651" y="389.821" width="3.84016" height="9.98443" transform="rotate(90 374.651 389.821)" fill="#74A0F8" style="fill:#74A0F8;fill:color(display-p3 0.4549 0.6275 0.9725);fill-opacity:1;"/>
<circle cx="360.059" cy="392.125" r="2.3041" fill="#74A0F8" style="fill:#74A0F8;fill:color(display-p3 0.4549 0.6275 0.9725);fill-opacity:1;"/>
<path d="M358.469 429.176V435.151H357.389V430.224H357.354L355.957 431.116V430.133L357.439 429.176H358.469ZM361.871 435.265C360.43 435.262 359.572 434.127 359.575 432.169C359.575 430.218 360.439 429.095 361.871 429.095C363.301 429.095 364.167 430.221 364.167 432.169C364.164 434.133 363.309 435.265 361.871 435.265ZM360.658 432.169C360.658 433.605 361.121 434.354 361.871 434.354C362.618 434.354 363.082 433.605 363.082 432.169C363.079 430.743 362.615 429.99 361.871 429.99C361.124 429.99 360.661 430.743 360.658 432.169Z" fill="#9F9F9F" style="fill:#9F9F9F;fill:color(display-p3 0.6235 0.6235 0.6235);fill-opacity:1;"/>
<rect x="428.413" y="366.78" width="50.6902" height="50.6902" rx="25.3451" fill="#F5F5F5" style="fill:#F5F5F5;fill:color(display-p3 0.9621 0.9621 0.9621);fill-opacity:1;"/>
<rect x="433.021" y="371.389" width="41.4738" height="41.4738" rx="20.7369" fill="#F5F5F5" style="fill:#F5F5F5;fill:color(display-p3 0.9621 0.9621 0.9621);fill-opacity:1;"/>
<path d="M452.927 429.176V435.151H451.848V430.224H451.813L450.416 431.116V430.133L451.898 429.176H452.927ZM456.552 429.176V435.151H455.472V430.224H455.437L454.04 431.116V430.133L455.522 429.176H456.552Z" fill="#9F9F9F" style="fill:#9F9F9F;fill:color(display-p3 0.6235 0.6235 0.6235);fill-opacity:1;"/>
<rect x="522.113" y="366.78" width="50.6902" height="50.6902" rx="25.3451" fill="#F5F5F5" style="fill:#F5F5F5;fill:color(display-p3 0.9621 0.9621 0.9621);fill-opacity:1;"/>
<rect x="526.722" y="371.389" width="41.4738" height="41.4738" rx="20.7369" fill="#F5F5F5" style="fill:#F5F5F5;fill:color(display-p3 0.9621 0.9621 0.9621);fill-opacity:1;"/>
<path d="M546.021 429.176V435.151H544.942V430.224H544.907L543.509 431.116V430.133L544.991 429.176H546.021ZM547.224 435.151L547.221 434.372L549.33 432.339C549.934 431.735 550.249 431.379 550.252 430.88C550.249 430.32 549.809 429.97 549.222 429.97C548.61 429.97 548.213 430.355 548.216 430.962H547.195C547.189 429.83 548.038 429.095 549.237 429.095C550.453 429.095 551.276 429.824 551.279 430.825C551.276 431.501 550.952 432.047 549.777 433.155L548.718 434.209V434.252H551.369V435.151H547.224Z" fill="#9F9F9F" style="fill:#9F9F9F;fill:color(display-p3 0.6235 0.6235 0.6235);fill-opacity:1;"/>
<rect x="615.813" y="366.78" width="50.6902" height="50.6902" rx="25.3451" fill="#F5F5F5" style="fill:#F5F5F5;fill:color(display-p3 0.9621 0.9621 0.9621);fill-opacity:1;"/>
<rect x="620.422" y="371.389" width="41.4738" height="41.4738" rx="20.7369" fill="#F5F5F5" style="fill:#F5F5F5;fill:color(display-p3 0.9621 0.9621 0.9621);fill-opacity:1;"/>
<path d="M641.159 435.265C639.718 435.262 638.86 434.127 638.863 432.169C638.863 430.218 639.727 429.095 641.159 429.095C642.589 429.095 643.455 430.221 643.455 432.169C643.452 434.133 642.597 435.265 641.159 435.265ZM639.946 432.169C639.946 433.605 640.409 434.354 641.159 434.354C641.906 434.354 642.37 433.605 642.37 432.169C642.367 430.743 641.903 429.99 641.159 429.99C640.412 429.99 639.948 430.743 639.946 432.169Z" fill="#9F9F9F" style="fill:#9F9F9F;fill:color(display-p3 0.6235 0.6235 0.6235);fill-opacity:1;"/>
<rect x="709.514" y="366.78" width="50.6902" height="50.6902" rx="25.3451" fill="#F5F5F5" style="fill:#F5F5F5;fill:color(display-p3 0.9621 0.9621 0.9621);fill-opacity:1;"/>
<rect x="714.122" y="371.389" width="41.4738" height="41.4738" rx="20.7369" fill="#F5F5F5" style="fill:#F5F5F5;fill:color(display-p3 0.9621 0.9621 0.9621);fill-opacity:1;"/>
</g>
<defs>
<clipPath id="clip0_2957_102272">
<rect width="716" height="453" rx="16" fill="white" style="fill:white;fill-opacity:1;"/>
</clipPath>
<clipPath id="clip1_2957_102272">
<rect width="18.4328" height="18.4328" fill="white" style="fill:white;fill-opacity:1;" transform="translate(120.433 90.2886)"/>
</clipPath>
<clipPath id="clip2_2957_102272">
<rect width="18.4328" height="18.4328" fill="white" style="fill:white;fill-opacity:1;" transform="translate(154.227 90.2886)"/>
</clipPath>
</defs>
</svg>
