<svg width="18" height="18" viewBox="16.5 14.5 18 18" fill="none" xmlns="http://www.w3.org/2000/svg">
  <rect x="16.5" y="14.5" width="18" height="18" fill="white"/>
  <path d="M24.9375 19V16.75C24.9375 16.4393 25.1893 16.1875 25.5 16.1875C25.8107 16.1875 26.0625 16.4393 26.0625 16.75V19C26.0625 19.3107 25.8107 19.5625 25.5 19.5625C25.1893 19.5625 24.9375 19.3107 24.9375 19Z" fill="#74A0F8"/>
  <path d="M29.8752 18.3297C30.0949 18.1102 30.451 18.1101 30.6706 18.3297C30.8902 18.5494 30.8902 18.9055 30.6706 19.1252L29.0793 20.7165C28.8596 20.9361 28.5035 20.9361 28.2838 20.7165C28.0642 20.4969 28.0643 20.1408 28.2838 19.9211L29.8752 18.3297Z" fill="#121212"/>
  <path d="M32.25 22.9375C32.5607 22.9375 32.8125 23.1893 32.8125 23.5C32.8125 23.8107 32.5607 24.0625 32.25 24.0625H30C29.6893 24.0625 29.4375 23.8107 29.4375 23.5C29.4375 23.1893 29.6893 22.9375 30 22.9375H32.25Z" fill="#121212"/>
  <path d="M28.2839 26.2839C28.5036 26.0642 28.8596 26.0642 29.0793 26.2839L30.6707 27.8753C30.8901 28.0949 30.8903 28.4511 30.6707 28.6707C30.4511 28.8903 30.0949 28.8901 29.8753 28.6707L28.2839 27.0793C28.0642 26.8596 28.0642 26.5036 28.2839 26.2839Z" fill="#121212"/>
  <path d="M24.9375 30.25V28C24.9375 27.6893 25.1893 27.4375 25.5 27.4375C25.8107 27.4375 26.0625 27.6893 26.0625 28V30.25C26.0625 30.5607 25.8107 30.8125 25.5 30.8125C25.1893 30.8125 24.9375 30.5607 24.9375 30.25Z" fill="#121212"/>
  <path d="M21.9211 26.2838C22.1408 26.0643 22.4969 26.0642 22.7165 26.2838C22.9361 26.5035 22.9361 26.8596 22.7165 27.0793L21.1252 28.6706C20.9055 28.8902 20.5494 28.8902 20.3297 28.6706C20.1101 28.451 20.1102 28.0949 20.3297 27.8752L21.9211 26.2838Z" fill="#121212"/>
  <path d="M21 22.9375C21.3107 22.9375 21.5625 23.1893 21.5625 23.5C21.5625 23.8107 21.3107 24.0625 21 24.0625H18.75C18.4393 24.0625 18.1875 23.8107 18.1875 23.5C18.1875 23.1893 18.4393 22.9375 18.75 22.9375H21Z" fill="#121212"/>
  <path d="M20.3298 18.3298C20.5495 18.1101 20.9055 18.1101 21.1252 18.3298L22.7166 19.9212C22.936 20.1408 22.9362 20.497 22.7166 20.7166C22.497 20.9362 22.1408 20.936 21.9212 20.7166L20.3298 19.1252C20.1101 18.9055 20.1101 18.5495 20.3298 18.3298Z" fill="#121212"/>
</svg>
