<svg width="431" height="458" viewBox="0 0 431 458" fill="none" xmlns="http://www.w3.org/2000/svg">
<g clip-path="url(#clip0_3022_104030)">
<rect width="431" height="458" rx="16" fill="#F4F4F4" style="fill:#F4F4F4;fill:color(display-p3 0.9569 0.9569 0.9569);fill-opacity:1;"/>
<mask id="path-3-inside-1_3022_104030" fill="white">
<path d="M-9 -191H431V669H-9V-191Z"/>
</mask>
<path d="M-9 -191H431V669H-9V-191Z" fill="white" style="fill:white;fill-opacity:1;"/>
<path d="M-9 669H-8V-191H-9H-10V669H-9Z" fill="#E6E8E8" style="fill:#E6E8E8;fill:color(display-p3 0.9020 0.9098 0.9098);fill-opacity:1;" mask="url(#path-3-inside-1_3022_104030)"/>
<rect x="191" y="131" width="40" height="40" rx="20" fill="#F2FC9F" style="fill:#F2FC9F;fill:color(display-p3 0.9490 0.9882 0.6235);fill-opacity:1;"/>
<path d="M204.396 149.184C204.288 149.054 204.212 148.902 204.172 148.739C204.132 148.577 204.13 148.407 204.165 148.243C204.695 145.785 207.562 144 210.983 144C214.404 144 217.271 145.785 217.8 148.243C217.836 148.407 217.834 148.577 217.795 148.74C217.755 148.903 217.679 149.055 217.571 149.186C217.464 149.316 217.328 149.421 217.173 149.492C217.019 149.564 216.85 149.601 216.68 149.6H205.286C205.115 149.601 204.947 149.563 204.793 149.491C204.638 149.419 204.503 149.314 204.396 149.184ZM218.2 152.994L215.269 154.044L212.622 153C212.486 152.947 212.335 152.947 212.199 153L209.562 154.037L206.92 153C206.79 152.949 206.645 152.947 206.514 152.994L203.378 154.114C203.245 154.171 203.14 154.276 203.083 154.406C203.026 154.537 203.022 154.684 203.072 154.818C203.121 154.952 203.221 155.062 203.35 155.126C203.479 155.19 203.629 155.204 203.768 155.164L204.711 154.828V155.2C204.711 155.943 205.011 156.655 205.546 157.18C206.08 157.705 206.805 158 207.562 158H214.404C215.16 158 215.885 157.705 216.42 157.18C216.955 156.655 217.255 155.943 217.255 155.2V154.523L218.59 154.046C218.665 154.025 218.734 153.989 218.794 153.94C218.854 153.891 218.903 153.83 218.939 153.762C218.974 153.693 218.994 153.619 218.999 153.542C219.004 153.466 218.992 153.389 218.965 153.317C218.939 153.245 218.897 153.179 218.844 153.124C218.79 153.068 218.725 153.024 218.654 152.994C218.582 152.964 218.505 152.949 218.427 152.949C218.349 152.949 218.271 152.966 218.2 152.996V152.994ZM203.57 151.84H218.395C218.547 151.84 218.692 151.781 218.799 151.676C218.906 151.571 218.966 151.429 218.966 151.28C218.966 151.131 218.906 150.989 218.799 150.884C218.692 150.779 218.547 150.72 218.395 150.72H203.57C203.419 150.72 203.274 150.779 203.167 150.884C203.06 150.989 203 151.131 203 151.28C203 151.429 203.06 151.571 203.167 151.676C203.274 151.781 203.419 151.84 203.57 151.84Z" fill="#3F3F3F" style="fill:#3F3F3F;fill:color(display-p3 0.2471 0.2471 0.2471);fill-opacity:1;"/>
<path d="M173.615 220H167.716V197.305H167.56L161.076 201.367V196.172L168.068 191.719H173.615V220ZM189.954 220.391C187.597 220.391 185.566 219.824 183.86 218.691C182.167 217.546 180.865 215.885 179.954 213.711C179.042 211.536 178.587 208.919 178.587 205.859C178.587 202.799 179.042 200.182 179.954 198.008C180.865 195.833 182.167 194.18 183.86 193.047C185.566 191.901 187.597 191.328 189.954 191.328C192.298 191.328 194.322 191.901 196.028 193.047C197.734 194.18 199.042 195.84 199.954 198.027C200.865 200.202 201.321 202.812 201.321 205.859C201.321 208.932 200.865 211.556 199.954 213.73C199.042 215.905 197.734 217.559 196.028 218.691C194.335 219.824 192.311 220.391 189.954 220.391ZM189.954 215.547C191.048 215.547 191.992 215.195 192.786 214.492C193.593 213.789 194.212 212.728 194.641 211.309C195.084 209.889 195.305 208.138 195.305 206.055C195.305 202.812 194.837 200.352 193.899 198.672C192.962 196.979 191.647 196.133 189.954 196.133C188.261 196.133 186.946 196.979 186.009 198.672C185.071 200.352 184.602 202.812 184.602 206.055C184.602 208.138 184.817 209.889 185.247 211.309C185.69 212.728 186.308 213.789 187.102 214.492C187.91 215.195 188.86 215.547 189.954 215.547ZM207.621 216.562C207.022 216.562 206.469 216.413 205.961 216.113C205.453 215.814 205.049 215.417 204.75 214.922C204.464 214.414 204.327 213.867 204.34 213.281C204.327 212.695 204.464 212.155 204.75 211.66C205.049 211.165 205.453 210.775 205.961 210.488C206.469 210.189 207.022 210.039 207.621 210.039C208.181 210.039 208.708 210.189 209.203 210.488C209.711 210.775 210.115 211.165 210.414 211.66C210.714 212.155 210.863 212.695 210.863 213.281C210.863 213.867 210.714 214.414 210.414 214.922C210.115 215.417 209.711 215.814 209.203 216.113C208.708 216.413 208.181 216.562 207.621 216.562ZM207.621 201.68C207.022 201.68 206.469 201.53 205.961 201.23C205.453 200.931 205.049 200.534 204.75 200.039C204.464 199.531 204.327 198.984 204.34 198.398C204.327 197.812 204.464 197.272 204.75 196.777C205.049 196.283 205.453 195.892 205.961 195.605C206.469 195.306 207.022 195.156 207.621 195.156C208.181 195.156 208.708 195.306 209.203 195.605C209.711 195.892 210.115 196.283 210.414 196.777C210.714 197.272 210.863 197.812 210.863 198.398C210.863 198.984 210.714 199.531 210.414 200.039C210.115 200.534 209.711 200.931 209.203 201.23C208.708 201.53 208.181 201.68 207.621 201.68ZM224.741 220.391C222.697 220.391 220.861 220.039 219.234 219.336C217.619 218.62 216.343 217.63 215.405 216.367C214.481 215.091 213.999 213.646 213.96 212.031H219.898C219.937 212.721 220.171 213.333 220.601 213.867C221.03 214.401 221.61 214.818 222.339 215.117C223.068 215.404 223.882 215.547 224.78 215.547C225.705 215.547 226.532 215.384 227.261 215.059C228.003 214.72 228.576 214.258 228.98 213.672C229.396 213.086 229.598 212.422 229.585 211.68C229.598 210.911 229.383 210.228 228.941 209.629C228.511 209.03 227.892 208.568 227.085 208.242C226.278 207.904 225.327 207.734 224.234 207.734H221.616V203.398H224.234C225.145 203.398 225.959 203.242 226.675 202.93C227.391 202.617 227.951 202.174 228.355 201.602C228.758 201.029 228.96 200.378 228.96 199.648C228.96 198.932 228.784 198.301 228.433 197.754C228.094 197.207 227.613 196.784 226.988 196.484C226.363 196.172 225.64 196.016 224.82 196.016C223.986 196.016 223.218 196.165 222.515 196.465C221.825 196.751 221.265 197.168 220.835 197.715C220.418 198.249 220.197 198.867 220.171 199.57H214.546C214.572 197.969 215.034 196.543 215.933 195.293C216.831 194.043 218.055 193.073 219.605 192.383C221.167 191.68 222.905 191.328 224.82 191.328C226.747 191.328 228.452 191.68 229.937 192.383C231.434 193.073 232.593 194.03 233.413 195.254C234.234 196.465 234.637 197.812 234.624 199.297C234.637 200.326 234.416 201.263 233.96 202.109C233.517 202.943 232.886 203.633 232.066 204.18C231.258 204.727 230.327 205.091 229.273 205.273V205.508C230.64 205.677 231.805 206.055 232.769 206.641C233.732 207.227 234.461 207.988 234.956 208.926C235.451 209.85 235.692 210.898 235.679 212.07C235.692 213.659 235.23 215.091 234.292 216.367C233.355 217.63 232.053 218.62 230.386 219.336C228.719 220.039 226.838 220.391 224.741 220.391ZM249.596 220.391C247.239 220.391 245.208 219.824 243.502 218.691C241.81 217.546 240.508 215.885 239.596 213.711C238.685 211.536 238.229 208.919 238.229 205.859C238.229 202.799 238.685 200.182 239.596 198.008C240.508 195.833 241.81 194.18 243.502 193.047C245.208 191.901 247.239 191.328 249.596 191.328C251.94 191.328 253.965 191.901 255.67 193.047C257.376 194.18 258.685 195.84 259.596 198.027C260.508 200.202 260.963 202.812 260.963 205.859C260.963 208.932 260.508 211.556 259.596 213.73C258.685 215.905 257.376 217.559 255.67 218.691C253.978 219.824 251.953 220.391 249.596 220.391ZM249.596 215.547C250.69 215.547 251.634 215.195 252.428 214.492C253.235 213.789 253.854 212.728 254.284 211.309C254.726 209.889 254.948 208.138 254.948 206.055C254.948 202.812 254.479 200.352 253.541 198.672C252.604 196.979 251.289 196.133 249.596 196.133C247.903 196.133 246.588 196.979 245.651 198.672C244.713 200.352 244.245 202.812 244.245 206.055C244.245 208.138 244.459 209.889 244.889 211.309C245.332 212.728 245.95 213.789 246.745 214.492C247.552 215.195 248.502 215.547 249.596 215.547Z" fill="#121212" style="fill:#121212;fill:color(display-p3 0.0714 0.0714 0.0714);fill-opacity:1;"/>
<path d="M199.178 263H196.62V251.34H196.541L193.241 253.449V251.125L196.737 248.859H199.178V263ZM202.016 261.164L207.016 256.34C207.556 255.799 207.973 255.357 208.266 255.012C208.565 254.66 208.793 254.315 208.949 253.977C209.105 253.632 209.184 253.267 209.184 252.883C209.184 252.453 209.079 252.076 208.871 251.75C208.663 251.424 208.373 251.174 208.002 250.998C207.637 250.822 207.224 250.734 206.762 250.734C206.28 250.734 205.857 250.832 205.492 251.027C205.134 251.216 204.857 251.49 204.662 251.848C204.467 252.199 204.372 252.609 204.379 253.078H201.957C201.951 252.199 202.152 251.428 202.562 250.764C202.973 250.093 203.542 249.576 204.271 249.211C205.007 248.846 205.844 248.664 206.781 248.664C207.732 248.664 208.572 248.84 209.301 249.191C210.036 249.543 210.606 250.031 211.01 250.656C211.42 251.275 211.625 251.978 211.625 252.766C211.625 253.312 211.518 253.84 211.303 254.348C211.094 254.855 210.736 255.419 210.229 256.037C209.721 256.649 209.001 257.395 208.07 258.273L205.551 260.773V260.871H211.84V263H202.016V261.164ZM216.728 248.859L220.927 259.133H221.103L225.302 248.859H228.427V263H225.986V253.273H225.849L221.923 262.961H220.107L216.181 253.234H216.064V263H213.603V248.859H216.728Z" fill="#757575" style="fill:#757575;fill:color(display-p3 0.4588 0.4588 0.4588);fill-opacity:1;"/>
<path d="M211 80C277.826 80 332 134.174 332 201C332 267.826 277.826 322 211 322C144.174 322 90 267.826 90 201C90 134.174 144.174 80 211 80ZM211 298.883C265.059 298.883 308.883 255.059 308.883 201C308.883 146.941 265.059 103.117 211 103.117C156.941 103.117 113.117 146.941 113.117 201C113.117 255.059 156.941 298.883 211 298.883Z" fill="#F1F6FE" style="fill:#F1F6FE;fill:color(display-p3 0.9451 0.9647 0.9961);fill-opacity:1;"/>
<rect x="104" y="367" width="58" height="58" rx="29" fill="#F5F5F5" style="fill:#F5F5F5;fill:color(display-p3 0.9621 0.9621 0.9621);fill-opacity:1;"/>
<path d="M142 388.636V403.364C142 403.798 141.828 404.214 141.521 404.521C141.214 404.828 140.798 405 140.364 405H125.636C125.202 405 124.786 404.828 124.479 404.521C124.172 404.214 124 403.798 124 403.364V388.636C124 388.202 124.172 387.786 124.479 387.479C124.786 387.172 125.202 387 125.636 387H140.364C140.798 387 141.214 387.172 141.521 387.479C141.828 387.786 142 388.202 142 388.636Z" fill="#3F3F3F" style="fill:#3F3F3F;fill:color(display-p3 0.2489 0.2489 0.2489);fill-opacity:1;"/>
<rect x="182" y="367" width="58" height="58" rx="29" fill="#F5F5F5" style="fill:#F5F5F5;fill:color(display-p3 0.9621 0.9621 0.9621);fill-opacity:1;"/>
<path d="M221 395.5C221.001 395.748 220.937 395.992 220.816 396.208C220.695 396.425 220.52 396.606 220.309 396.734L207.211 404.785C206.99 404.921 206.737 404.995 206.478 405C206.219 405.005 205.964 404.94 205.738 404.812C205.515 404.687 205.328 404.504 205.199 404.282C205.069 404.06 205 403.807 205 403.55V387.45C205 387.193 205.069 386.94 205.199 386.718C205.328 386.496 205.515 386.313 205.738 386.188C205.964 386.06 206.219 385.995 206.478 386C206.737 386.005 206.99 386.079 207.211 386.215L220.309 394.266C220.52 394.394 220.695 394.575 220.816 394.792C220.937 395.008 221.001 395.252 221 395.5Z" fill="#3F3F3F" style="fill:#3F3F3F;fill:color(display-p3 0.2489 0.2489 0.2489);fill-opacity:1;"/>
<rect x="260" y="367" width="58" height="58" rx="29" fill="#F5F5F5" style="fill:#F5F5F5;fill:color(display-p3 0.9621 0.9621 0.9621);fill-opacity:1;"/>
<path d="M298 396C298 396.199 297.921 396.39 297.78 396.53C297.64 396.671 297.449 396.75 297.25 396.75H289.75V404.25C289.75 404.449 289.671 404.64 289.53 404.78C289.39 404.921 289.199 405 289 405C288.801 405 288.61 404.921 288.47 404.78C288.329 404.64 288.25 404.449 288.25 404.25V396.75H280.75C280.551 396.75 280.36 396.671 280.22 396.53C280.079 396.39 280 396.199 280 396C280 395.801 280.079 395.61 280.22 395.47C280.36 395.329 280.551 395.25 280.75 395.25H288.25V387.75C288.25 387.551 288.329 387.36 288.47 387.22C288.61 387.079 288.801 387 289 387C289.199 387 289.39 387.079 289.53 387.22C289.671 387.36 289.75 387.551 289.75 387.75V395.25H297.25C297.449 395.25 297.64 395.329 297.78 395.47C297.921 395.61 298 395.801 298 396Z" fill="#3F3F3F" style="fill:#3F3F3F;fill:color(display-p3 0.2489 0.2489 0.2489);fill-opacity:1;"/>
<path d="M211 80C232.863 80 254.318 85.9236 273.083 97.1412C291.849 108.359 307.225 124.451 317.577 143.708C327.929 162.965 332.87 184.667 331.875 206.507C330.879 228.348 323.986 249.51 311.925 267.746C299.865 285.982 283.09 300.61 263.381 310.074C243.673 319.539 221.769 323.487 199.997 321.499C178.224 319.51 157.397 311.66 139.729 298.783C122.061 285.905 108.212 268.481 99.6546 248.363L120.927 239.314C127.85 255.589 139.053 269.684 153.345 280.102C167.638 290.519 184.486 296.869 202.099 298.478C219.712 300.086 237.431 296.892 253.374 289.236C269.317 281.579 282.888 269.746 292.644 254.995C302.4 240.243 307.977 223.123 308.782 205.455C309.587 187.787 305.59 170.232 297.216 154.654C288.842 139.076 276.403 126.058 261.222 116.983C246.042 107.909 228.686 103.117 211 103.117L211 80Z" fill="#74A0F8" style="fill:#74A0F8;fill:color(display-p3 0.4549 0.6275 0.9725);fill-opacity:1;"/>
<path d="M211 80C277.826 80 332 134.174 332 201C332 267.826 277.826 322 211 322C144.174 322 90 267.826 90 201C90 134.174 144.174 80 211 80ZM211 298.883C265.059 298.883 308.883 255.059 308.883 201C308.883 146.941 265.059 103.117 211 103.117C156.941 103.117 113.117 146.941 113.117 201C113.117 255.059 156.941 298.883 211 298.883Z" fill="#F1F6FE" style="fill:#F1F6FE;fill:color(display-p3 0.9451 0.9647 0.9961);fill-opacity:1;"/>
<rect x="191" y="131" width="40" height="40" rx="20" fill="#F2FC9F" style="fill:#F2FC9F;fill:color(display-p3 0.9490 0.9882 0.6235);fill-opacity:1;"/>
<path d="M204.396 149.184C204.288 149.054 204.212 148.902 204.172 148.739C204.132 148.577 204.13 148.407 204.165 148.243C204.695 145.785 207.562 144 210.983 144C214.404 144 217.271 145.785 217.8 148.243C217.836 148.407 217.834 148.577 217.795 148.74C217.755 148.903 217.679 149.055 217.571 149.186C217.464 149.316 217.328 149.421 217.173 149.492C217.019 149.564 216.85 149.601 216.68 149.6H205.286C205.115 149.601 204.947 149.563 204.793 149.491C204.638 149.419 204.503 149.314 204.396 149.184ZM218.2 152.994L215.269 154.044L212.622 153C212.486 152.947 212.335 152.947 212.199 153L209.562 154.037L206.92 153C206.79 152.949 206.645 152.947 206.514 152.994L203.378 154.114C203.245 154.171 203.14 154.276 203.083 154.406C203.026 154.537 203.022 154.684 203.072 154.818C203.121 154.952 203.221 155.062 203.35 155.126C203.479 155.19 203.629 155.204 203.768 155.164L204.711 154.828V155.2C204.711 155.943 205.011 156.655 205.546 157.18C206.08 157.705 206.805 158 207.562 158H214.404C215.16 158 215.885 157.705 216.42 157.18C216.955 156.655 217.255 155.943 217.255 155.2V154.523L218.59 154.046C218.665 154.025 218.734 153.989 218.794 153.94C218.854 153.891 218.903 153.83 218.939 153.762C218.974 153.693 218.994 153.619 218.999 153.542C219.004 153.466 218.992 153.389 218.965 153.317C218.939 153.245 218.897 153.179 218.844 153.124C218.79 153.068 218.725 153.024 218.654 152.994C218.582 152.964 218.505 152.949 218.427 152.949C218.349 152.949 218.271 152.966 218.2 152.996V152.994ZM203.57 151.84H218.395C218.547 151.84 218.692 151.781 218.799 151.676C218.906 151.571 218.966 151.429 218.966 151.28C218.966 151.131 218.906 150.989 218.799 150.884C218.692 150.779 218.547 150.72 218.395 150.72H203.57C203.419 150.72 203.274 150.779 203.167 150.884C203.06 150.989 203 151.131 203 151.28C203 151.429 203.06 151.571 203.167 151.676C203.274 151.781 203.419 151.84 203.57 151.84Z" fill="#3F3F3F" style="fill:#3F3F3F;fill:color(display-p3 0.2471 0.2471 0.2471);fill-opacity:1;"/>
<path d="M173.615 220H167.716V197.305H167.56L161.076 201.367V196.172L168.068 191.719H173.615V220ZM189.954 220.391C187.597 220.391 185.566 219.824 183.86 218.691C182.167 217.546 180.865 215.885 179.954 213.711C179.042 211.536 178.587 208.919 178.587 205.859C178.587 202.799 179.042 200.182 179.954 198.008C180.865 195.833 182.167 194.18 183.86 193.047C185.566 191.901 187.597 191.328 189.954 191.328C192.298 191.328 194.322 191.901 196.028 193.047C197.734 194.18 199.042 195.84 199.954 198.027C200.865 200.202 201.321 202.812 201.321 205.859C201.321 208.932 200.865 211.556 199.954 213.73C199.042 215.905 197.734 217.559 196.028 218.691C194.335 219.824 192.311 220.391 189.954 220.391ZM189.954 215.547C191.048 215.547 191.992 215.195 192.786 214.492C193.593 213.789 194.212 212.728 194.641 211.309C195.084 209.889 195.305 208.138 195.305 206.055C195.305 202.812 194.837 200.352 193.899 198.672C192.962 196.979 191.647 196.133 189.954 196.133C188.261 196.133 186.946 196.979 186.009 198.672C185.071 200.352 184.602 202.812 184.602 206.055C184.602 208.138 184.817 209.889 185.247 211.309C185.69 212.728 186.308 213.789 187.102 214.492C187.91 215.195 188.86 215.547 189.954 215.547ZM207.621 216.562C207.022 216.562 206.469 216.413 205.961 216.113C205.453 215.814 205.049 215.417 204.75 214.922C204.464 214.414 204.327 213.867 204.34 213.281C204.327 212.695 204.464 212.155 204.75 211.66C205.049 211.165 205.453 210.775 205.961 210.488C206.469 210.189 207.022 210.039 207.621 210.039C208.181 210.039 208.708 210.189 209.203 210.488C209.711 210.775 210.115 211.165 210.414 211.66C210.714 212.155 210.863 212.695 210.863 213.281C210.863 213.867 210.714 214.414 210.414 214.922C210.115 215.417 209.711 215.814 209.203 216.113C208.708 216.413 208.181 216.562 207.621 216.562ZM207.621 201.68C207.022 201.68 206.469 201.53 205.961 201.23C205.453 200.931 205.049 200.534 204.75 200.039C204.464 199.531 204.327 198.984 204.34 198.398C204.327 197.812 204.464 197.272 204.75 196.777C205.049 196.283 205.453 195.892 205.961 195.605C206.469 195.306 207.022 195.156 207.621 195.156C208.181 195.156 208.708 195.306 209.203 195.605C209.711 195.892 210.115 196.283 210.414 196.777C210.714 197.272 210.863 197.812 210.863 198.398C210.863 198.984 210.714 199.531 210.414 200.039C210.115 200.534 209.711 200.931 209.203 201.23C208.708 201.53 208.181 201.68 207.621 201.68ZM224.741 220.391C222.697 220.391 220.861 220.039 219.234 219.336C217.619 218.62 216.343 217.63 215.405 216.367C214.481 215.091 213.999 213.646 213.96 212.031H219.898C219.937 212.721 220.171 213.333 220.601 213.867C221.03 214.401 221.61 214.818 222.339 215.117C223.068 215.404 223.882 215.547 224.78 215.547C225.705 215.547 226.532 215.384 227.261 215.059C228.003 214.72 228.576 214.258 228.98 213.672C229.396 213.086 229.598 212.422 229.585 211.68C229.598 210.911 229.383 210.228 228.941 209.629C228.511 209.03 227.892 208.568 227.085 208.242C226.278 207.904 225.327 207.734 224.234 207.734H221.616V203.398H224.234C225.145 203.398 225.959 203.242 226.675 202.93C227.391 202.617 227.951 202.174 228.355 201.602C228.758 201.029 228.96 200.378 228.96 199.648C228.96 198.932 228.784 198.301 228.433 197.754C228.094 197.207 227.613 196.784 226.988 196.484C226.363 196.172 225.64 196.016 224.82 196.016C223.986 196.016 223.218 196.165 222.515 196.465C221.825 196.751 221.265 197.168 220.835 197.715C220.418 198.249 220.197 198.867 220.171 199.57H214.546C214.572 197.969 215.034 196.543 215.933 195.293C216.831 194.043 218.055 193.073 219.605 192.383C221.167 191.68 222.905 191.328 224.82 191.328C226.747 191.328 228.452 191.68 229.937 192.383C231.434 193.073 232.593 194.03 233.413 195.254C234.234 196.465 234.637 197.812 234.624 199.297C234.637 200.326 234.416 201.263 233.96 202.109C233.517 202.943 232.886 203.633 232.066 204.18C231.258 204.727 230.327 205.091 229.273 205.273V205.508C230.64 205.677 231.805 206.055 232.769 206.641C233.732 207.227 234.461 207.988 234.956 208.926C235.451 209.85 235.692 210.898 235.679 212.07C235.692 213.659 235.23 215.091 234.292 216.367C233.355 217.63 232.053 218.62 230.386 219.336C228.719 220.039 226.838 220.391 224.741 220.391ZM249.596 220.391C247.239 220.391 245.208 219.824 243.502 218.691C241.81 217.546 240.508 215.885 239.596 213.711C238.685 211.536 238.229 208.919 238.229 205.859C238.229 202.799 238.685 200.182 239.596 198.008C240.508 195.833 241.81 194.18 243.502 193.047C245.208 191.901 247.239 191.328 249.596 191.328C251.94 191.328 253.965 191.901 255.67 193.047C257.376 194.18 258.685 195.84 259.596 198.027C260.508 200.202 260.963 202.812 260.963 205.859C260.963 208.932 260.508 211.556 259.596 213.73C258.685 215.905 257.376 217.559 255.67 218.691C253.978 219.824 251.953 220.391 249.596 220.391ZM249.596 215.547C250.69 215.547 251.634 215.195 252.428 214.492C253.235 213.789 253.854 212.728 254.284 211.309C254.726 209.889 254.948 208.138 254.948 206.055C254.948 202.812 254.479 200.352 253.541 198.672C252.604 196.979 251.289 196.133 249.596 196.133C247.903 196.133 246.588 196.979 245.651 198.672C244.713 200.352 244.245 202.812 244.245 206.055C244.245 208.138 244.459 209.889 244.889 211.309C245.332 212.728 245.95 213.789 246.745 214.492C247.552 215.195 248.502 215.547 249.596 215.547Z" fill="#121212" style="fill:#121212;fill:color(display-p3 0.0714 0.0714 0.0714);fill-opacity:1;"/>
<path d="M199.178 263H196.62V251.34H196.541L193.241 253.449V251.125L196.737 248.859H199.178V263ZM202.016 261.164L207.016 256.34C207.556 255.799 207.973 255.357 208.266 255.012C208.565 254.66 208.793 254.315 208.949 253.977C209.105 253.632 209.184 253.267 209.184 252.883C209.184 252.453 209.079 252.076 208.871 251.75C208.663 251.424 208.373 251.174 208.002 250.998C207.637 250.822 207.224 250.734 206.762 250.734C206.28 250.734 205.857 250.832 205.492 251.027C205.134 251.216 204.857 251.49 204.662 251.848C204.467 252.199 204.372 252.609 204.379 253.078H201.957C201.951 252.199 202.152 251.428 202.562 250.764C202.973 250.093 203.542 249.576 204.271 249.211C205.007 248.846 205.844 248.664 206.781 248.664C207.732 248.664 208.572 248.84 209.301 249.191C210.036 249.543 210.606 250.031 211.01 250.656C211.42 251.275 211.625 251.978 211.625 252.766C211.625 253.312 211.518 253.84 211.303 254.348C211.094 254.855 210.736 255.419 210.229 256.037C209.721 256.649 209.001 257.395 208.07 258.273L205.551 260.773V260.871H211.84V263H202.016V261.164ZM216.728 248.859L220.927 259.133H221.103L225.302 248.859H228.427V263H225.986V253.273H225.849L221.923 262.961H220.107L216.181 253.234H216.064V263H213.603V248.859H216.728Z" fill="#757575" style="fill:#757575;fill:color(display-p3 0.4588 0.4588 0.4588);fill-opacity:1;"/>
<path d="M229.864 397.312C230.099 397.259 230.345 397.268 230.574 397.338V397.339L249.354 403.077V403.076C249.602 403.155 249.813 403.3 249.963 403.486C250.114 403.673 250.198 403.893 250.209 404.116C250.22 404.34 250.159 404.564 250.029 404.761C249.9 404.957 249.707 405.117 249.47 405.217L249.447 405.226L243.568 407.34L242.645 407.672L243.361 408.343L249.997 414.552C250.145 414.69 250.22 414.868 250.22 415.045C250.22 415.222 250.144 415.4 249.997 415.538L248.509 416.932L248.508 416.933C248.434 417.001 248.345 417.058 248.244 417.098C248.143 417.137 248.033 417.157 247.922 417.157C247.81 417.157 247.7 417.137 247.599 417.098C247.498 417.058 247.408 417.001 247.335 416.933L247.334 416.932L240.698 410.722L240.062 410.127L239.733 410.932L237.479 416.434L237.472 416.452C237.379 416.653 237.223 416.832 237.016 416.959C236.808 417.087 236.561 417.156 236.306 417.155H236.235C235.969 417.145 235.716 417.058 235.512 416.912C235.308 416.766 235.162 416.569 235.089 416.354L235.088 416.35L228.956 398.775L228.916 398.626C228.887 398.475 228.891 398.32 228.93 398.17C228.981 397.97 229.091 397.782 229.255 397.629C229.419 397.475 229.629 397.364 229.864 397.312Z" fill="white" stroke="#121212" style="fill:white;fill-opacity:1;stroke:#121212;stroke:color(display-p3 0.0714 0.0714 0.0714);stroke-opacity:1;" stroke-width="1.2"/>
</g>
<rect x="0.5" y="0.5" width="430" height="457" rx="15.5" stroke="#E6E8E8" style="stroke:#E6E8E8;stroke:color(display-p3 0.9020 0.9098 0.9098);stroke-opacity:1;"/>
<defs>
<clipPath id="clip0_3022_104030">
<rect width="431" height="458" rx="16" fill="white" style="fill:white;fill-opacity:1;"/>
</clipPath>
</defs>
</svg>
