<svg width="101" height="190" viewBox="0 0 101 190" fill="none" xmlns="http://www.w3.org/2000/svg">
  <rect x="12" y="10" width="27" height="27" fill="white"/>
  <g transform="translate(12 10) scale(1.22)">
    <path d="M7.36256 14.6371L3.48904 13.2097C3.38223 13.1703 3.29008 13.0991 3.22499 13.0057C3.1599 12.9123 3.125 12.8012 3.125 12.6873C3.125 12.5735 3.1599 12.4624 3.22499 12.3689C3.29008 12.2755 3.38223 12.2043 3.48904 12.1649L7.36256 10.7376L8.7899 6.86404C8.82932 6.75723 8.90054 6.66508 8.99395 6.59999C9.08736 6.5349 9.19847 6.5 9.31232 6.5C9.42617 6.5 9.53729 6.5349 9.6307 6.59999C9.72411 6.66508 9.79532 6.75723 9.83474 6.86404L11.2621 10.7376L15.1356 12.1649C15.2424 12.2043 15.3346 12.2755 15.3997 12.3689C15.4647 12.4624 15.4996 12.5735 15.4996 12.6873C15.4996 12.8012 15.4647 12.9123 15.3997 13.0057C15.3346 13.0991 15.2424 13.1703 15.1356 13.2097L11.2621 14.6371L9.83474 18.5106C9.79532 18.6174 9.72411 18.7096 9.6307 18.7747C9.53729 18.8397 9.42617 18.8746 9.31232 18.8746C9.19847 18.8746 9.08736 18.8397 8.99395 18.7747C8.90054 18.7096 8.82932 18.6174 8.7899 18.5106L7.36256 14.6371Z" fill="#121212"/>
    <path d="M13.25 7.0625V3.6875C13.25 3.37684 13.5018 3.125 13.8125 3.125C14.1232 3.125 14.375 3.37684 14.375 3.6875V7.0625C14.375 7.37316 14.1232 7.625 13.8125 7.625C13.5018 7.625 13.25 7.37316 13.25 7.0625Z" fill="#121212"/>
    <path d="M16.625 9.875V7.625C16.625 7.31434 16.8768 7.0625 17.1875 7.0625C17.4982 7.0625 17.75 7.31434 17.75 7.625V9.875C17.75 10.1857 17.4982 10.4375 17.1875 10.4375C16.8768 10.4375 16.625 10.1857 16.625 9.875Z" fill="#121212"/>
    <path d="M15.5 4.8125C15.8107 4.8125 16.0625 5.06434 16.0625 5.375C16.0625 5.68566 15.8107 5.9375 15.5 5.9375H12.125C11.8143 5.9375 11.5625 5.68566 11.5625 5.375C11.5625 5.06434 11.8143 4.8125 12.125 4.8125H15.5Z" fill="#121212"/>
    <path d="M18.3125 8.1875C18.6232 8.1875 18.875 8.43934 18.875 8.75C18.875 9.06066 18.6232 9.3125 18.3125 9.3125H16.0625C15.7518 9.3125 15.5 9.06066 15.5 8.75C15.5 8.43934 15.7518 8.1875 16.0625 8.1875H18.3125Z" fill="#121212"/>
  </g>
  <rect x="42.9" y="14.2" width="42.8" height="18.8" fill="white"/>
  <path d="M46.9592 28.1367C46.2301 28.1367 45.6057 27.9385 45.0862 27.542C44.5712 27.1455 44.177 26.5667 43.9036 25.8057C43.6347 25.0446 43.5002 24.1263 43.5002 23.0508C43.5002 21.9889 43.637 21.0775 43.9104 20.3164C44.1838 19.5508 44.5803 18.9674 45.0998 18.5664C45.6194 18.1654 46.2392 17.9648 46.9592 17.9648C47.6793 17.9648 48.2991 18.1654 48.8186 18.5664C49.3381 18.9674 49.7346 19.5508 50.008 20.3164C50.2815 21.0775 50.4182 21.9889 50.4182 23.0508C50.4182 24.1263 50.2815 25.0446 50.008 25.8057C49.7392 26.5667 49.345 27.1455 48.8254 27.542C48.3059 27.9385 47.6838 28.1367 46.9592 28.1367ZM46.9592 27.043C47.4332 27.043 47.8388 26.888 48.176 26.5781C48.5133 26.2682 48.7707 25.8148 48.9485 25.2178C49.1262 24.6208 49.2151 23.8984 49.2151 23.0508C49.2151 22.2031 49.1262 21.4785 48.9485 20.877C48.7707 20.2754 48.5133 19.8174 48.176 19.5029C47.8388 19.1885 47.4332 19.0312 46.9592 19.0312C46.4853 19.0312 46.0774 19.1885 45.7356 19.5029C45.3983 19.8174 45.1386 20.2754 44.9563 20.877C44.7786 21.4785 44.6897 22.2031 44.6897 23.0508C44.6897 23.8984 44.7786 24.6208 44.9563 25.2178C45.134 25.8148 45.3915 26.2682 45.7288 26.5781C46.0705 26.888 46.4807 27.043 46.9592 27.043Z" fill="#121212"/>
  <g transform="translate(37.302 -29)">
    <path d="M19.4297 57H18.1855V48.3867H18.1309L15.7246 49.9863V48.7422L18.1855 47.1016H19.4297V57Z" fill="#121212"/>
  </g>
  <path d="M63.5 26.6875C63.3405 26.6875 63.1924 26.6488 63.0557 26.5713C62.9235 26.4893 62.8164 26.3799 62.7344 26.2432C62.6569 26.1064 62.6204 25.9583 62.625 25.7988C62.6204 25.6439 62.6569 25.5003 62.7344 25.3682C62.8164 25.2314 62.9235 25.1243 63.0557 25.0469C63.1924 24.9648 63.3405 24.9238 63.5 24.9238C63.6549 24.9238 63.7985 24.9648 63.9307 25.0469C64.0674 25.1243 64.1745 25.2314 64.252 25.3682C64.334 25.5003 64.375 25.6439 64.375 25.7988C64.375 25.9583 64.334 26.1064 64.252 26.2432C64.1745 26.3799 64.0674 26.4893 63.9307 26.5713C63.7985 26.6488 63.6549 26.6875 63.5 26.6875ZM63.5 21.1914C63.3405 21.1914 63.1924 21.1527 63.0557 21.0752C62.9235 20.9932 62.8164 20.8838 62.7344 20.7471C62.6569 20.6104 62.6204 20.4622 62.625 20.3027C62.6204 20.1478 62.6569 20.0042 62.7344 19.8721C62.8164 19.7354 62.9235 19.6283 63.0557 19.5508C63.1924 19.4688 63.3405 19.4277 63.5 19.4277C63.6549 19.4277 63.7985 19.4688 63.9307 19.5508C64.0674 19.6283 64.1745 19.7354 64.252 19.8721C64.334 20.0042 64.375 20.1478 64.375 20.3027C64.375 20.4622 64.334 20.6104 64.252 20.7471C64.1745 20.8838 64.0674 20.9932 63.9307 21.0752C63.7985 21.1527 63.6549 21.1914 63.5 21.1914Z" fill="#121212"/>
  <g transform="translate(52.773 -58)">
    <path d="M19.3477 86.1367C18.696 86.1367 18.1126 86.0273 17.5977 85.8086C17.0872 85.5898 16.6816 85.2822 16.3809 84.8857C16.0846 84.4893 15.9251 84.0312 15.9023 83.5117H17.1465C17.1693 83.8171 17.2786 84.0859 17.4746 84.3184C17.6751 84.5508 17.9372 84.7308 18.2607 84.8584C18.5843 84.9814 18.9421 85.043 19.334 85.043C19.7624 85.043 20.1475 84.9701 20.4893 84.8242C20.8356 84.6738 21.1045 84.4688 21.2959 84.209C21.4919 83.9447 21.5898 83.6439 21.5898 83.3066C21.5898 82.9421 21.4941 82.6208 21.3027 82.3428C21.1159 82.0648 20.8424 81.8483 20.4824 81.6934C20.1224 81.5384 19.6895 81.4609 19.1836 81.4609H18.377V80.3809H19.1836C19.5801 80.3809 19.9333 80.3102 20.2432 80.1689C20.5531 80.0277 20.7923 79.8294 20.9609 79.5742C21.1341 79.319 21.2207 79.0228 21.2207 78.6855C21.2207 78.362 21.1432 78.0749 20.9883 77.8242C20.8379 77.5736 20.6237 77.3799 20.3457 77.2432C20.0677 77.1019 19.7441 77.0312 19.375 77.0312C19.0195 77.0312 18.6868 77.0951 18.377 77.2227C18.0671 77.3503 17.8141 77.5326 17.6182 77.7695C17.4222 78.002 17.3151 78.2754 17.2969 78.5898H16.1074C16.1302 78.0794 16.2897 77.626 16.5859 77.2295C16.8822 76.8285 17.2764 76.5186 17.7686 76.2998C18.2607 76.0765 18.8008 75.9648 19.3887 75.9648C19.9993 75.9648 20.5326 76.0856 20.9883 76.3271C21.4486 76.5641 21.8018 76.8854 22.0479 77.291C22.2939 77.6966 22.4147 78.1387 22.4102 78.6172C22.4147 79.1732 22.2666 79.6494 21.9658 80.0459C21.665 80.4424 21.2526 80.7135 20.7285 80.8594V80.9277C21.1523 80.9961 21.5192 81.1396 21.8291 81.3584C22.1436 81.5726 22.3828 81.8483 22.5469 82.1855C22.7155 82.5182 22.7975 82.8919 22.793 83.3066C22.7975 83.8398 22.6494 84.3229 22.3486 84.7559C22.0479 85.1842 21.6331 85.5215 21.1045 85.7676C20.5804 86.0137 19.9948 86.1367 19.3477 86.1367Z" fill="#121212"/>
  </g>
  <g transform="translate(33.0816 0)">
    <path d="M46.9592 28.1367C46.2301 28.1367 45.6057 27.9385 45.0862 27.542C44.5712 27.1455 44.177 26.5667 43.9036 25.8057C43.6347 25.0446 43.5002 24.1263 43.5002 23.0508C43.5002 21.9889 43.637 21.0775 43.9104 20.3164C44.1838 19.5508 44.5803 18.9674 45.0998 18.5664C45.6194 18.1654 46.2392 17.9648 46.9592 17.9648C47.6793 17.9648 48.2991 18.1654 48.8186 18.5664C49.3381 18.9674 49.7346 19.5508 50.008 20.3164C50.2815 21.0775 50.4182 21.9889 50.4182 23.0508C50.4182 24.1263 50.2815 25.0446 50.008 25.8057C49.7392 26.5667 49.345 27.1455 48.8254 27.542C48.3059 27.9385 47.6838 28.1367 46.9592 28.1367ZM46.9592 27.043C47.4332 27.043 47.8388 26.888 48.176 26.5781C48.5133 26.2682 48.7707 25.8148 48.9485 25.2178C49.1262 24.6208 49.2151 23.8984 49.2151 23.0508C49.2151 22.2031 49.1262 21.4785 48.9485 20.877C48.7707 20.2754 48.5133 19.8174 48.176 19.5029C47.8388 19.1885 47.4332 19.0312 46.9592 19.0312C46.4853 19.0312 46.0774 19.1885 45.7356 19.5029C45.3983 19.8174 45.1386 20.2754 44.9563 20.877C44.7786 21.4785 44.6897 22.2031 44.6897 23.0508C44.6897 23.8984 44.7786 24.6208 44.9563 25.2178C45.134 25.8148 45.3915 26.2682 45.7288 26.5781C46.0705 26.888 46.4807 27.043 46.9592 27.043Z" fill="#121212"/>
  </g>
</svg>
