<svg width="101" height="190" viewBox="0 0 101 190" fill="none" xmlns="http://www.w3.org/2000/svg">
<g filter="url(#filter0_d_2991_15116)">
<rect x="3" y="3" width="95" height="184" rx="4" fill="white" style="fill:white;fill-opacity:1;" shape-rendering="crispEdges"/>
<g clip-path="url(#clip0_2991_15116)">
<path d="M24.9375 19V16.75C24.9375 16.4393 25.1893 16.1875 25.5 16.1875C25.8107 16.1875 26.0625 16.4393 26.0625 16.75V19C26.0625 19.3107 25.8107 19.5625 25.5 19.5625C25.1893 19.5625 24.9375 19.3107 24.9375 19Z" fill="#74A0F8" style="fill:#74A0F8;fill:color(display-p3 0.4549 0.6275 0.9725);fill-opacity:1;"/>
<path d="M29.8752 18.3297C30.0949 18.1102 30.451 18.1101 30.6706 18.3297C30.8902 18.5494 30.8902 18.9055 30.6706 19.1252L29.0793 20.7165C28.8596 20.9361 28.5035 20.9361 28.2838 20.7165C28.0642 20.4969 28.0643 20.1408 28.2838 19.9211L29.8752 18.3297Z" fill="#121212" style="fill:#121212;fill:color(display-p3 0.0714 0.0714 0.0714);fill-opacity:1;"/>
<path d="M32.25 22.9375C32.5607 22.9375 32.8125 23.1893 32.8125 23.5C32.8125 23.8107 32.5607 24.0625 32.25 24.0625H30C29.6893 24.0625 29.4375 23.8107 29.4375 23.5C29.4375 23.1893 29.6893 22.9375 30 22.9375H32.25Z" fill="#121212" style="fill:#121212;fill:color(display-p3 0.0714 0.0714 0.0714);fill-opacity:1;"/>
<path d="M28.2839 26.2839C28.5036 26.0642 28.8596 26.0642 29.0793 26.2839L30.6707 27.8753C30.8901 28.0949 30.8903 28.4511 30.6707 28.6707C30.4511 28.8903 30.0949 28.8901 29.8753 28.6707L28.2839 27.0793C28.0642 26.8596 28.0642 26.5036 28.2839 26.2839Z" fill="#121212" style="fill:#121212;fill:color(display-p3 0.0714 0.0714 0.0714);fill-opacity:1;"/>
<path d="M24.9375 30.25V28C24.9375 27.6893 25.1893 27.4375 25.5 27.4375C25.8107 27.4375 26.0625 27.6893 26.0625 28V30.25C26.0625 30.5607 25.8107 30.8125 25.5 30.8125C25.1893 30.8125 24.9375 30.5607 24.9375 30.25Z" fill="#121212" style="fill:#121212;fill:color(display-p3 0.0714 0.0714 0.0714);fill-opacity:1;"/>
<path d="M21.9211 26.2838C22.1408 26.0643 22.4969 26.0642 22.7165 26.2838C22.9361 26.5035 22.9361 26.8596 22.7165 27.0793L21.1252 28.6706C20.9055 28.8902 20.5494 28.8902 20.3297 28.6706C20.1101 28.451 20.1102 28.0949 20.3297 27.8752L21.9211 26.2838Z" fill="#121212" style="fill:#121212;fill:color(display-p3 0.0714 0.0714 0.0714);fill-opacity:1;"/>
<path d="M21 22.9375C21.3107 22.9375 21.5625 23.1893 21.5625 23.5C21.5625 23.8107 21.3107 24.0625 21 24.0625H18.75C18.4393 24.0625 18.1875 23.8107 18.1875 23.5C18.1875 23.1893 18.4393 22.9375 18.75 22.9375H21Z" fill="#121212" style="fill:#121212;fill:color(display-p3 0.0714 0.0714 0.0714);fill-opacity:1;"/>
<path d="M20.3298 18.3298C20.5495 18.1101 20.9055 18.1101 21.1252 18.3298L22.7166 19.9212C22.936 20.1408 22.9362 20.497 22.7166 20.7166C22.497 20.9362 22.1408 20.936 21.9212 20.7166L20.3298 19.1252C20.1101 18.9055 20.1101 18.5495 20.3298 18.3298Z" fill="#121212" style="fill:#121212;fill:color(display-p3 0.0714 0.0714 0.0714);fill-opacity:1;"/>
</g>
<path d="M46.9592 28.1367C46.2301 28.1367 45.6057 27.9385 45.0862 27.542C44.5712 27.1455 44.177 26.5667 43.9036 25.8057C43.6347 25.0446 43.5002 24.1263 43.5002 23.0508C43.5002 21.9889 43.637 21.0775 43.9104 20.3164C44.1838 19.5508 44.5803 18.9674 45.0998 18.5664C45.6194 18.1654 46.2392 17.9648 46.9592 17.9648C47.6793 17.9648 48.2991 18.1654 48.8186 18.5664C49.3381 18.9674 49.7346 19.5508 50.008 20.3164C50.2815 21.0775 50.4182 21.9889 50.4182 23.0508C50.4182 24.1263 50.2815 25.0446 50.008 25.8057C49.7392 26.5667 49.345 27.1455 48.8254 27.542C48.3059 27.9385 47.6838 28.1367 46.9592 28.1367ZM46.9592 27.043C47.4332 27.043 47.8388 26.888 48.176 26.5781C48.5133 26.2682 48.7707 25.8148 48.9485 25.2178C49.1262 24.6208 49.2151 23.8984 49.2151 23.0508C49.2151 22.2031 49.1262 21.4785 48.9485 20.877C48.7707 20.2754 48.5133 19.8174 48.176 19.5029C47.8388 19.1885 47.4332 19.0312 46.9592 19.0312C46.4853 19.0312 46.0774 19.1885 45.7356 19.5029C45.3983 19.8174 45.1386 20.2754 44.9563 20.877C44.7786 21.4785 44.6897 22.2031 44.6897 23.0508C44.6897 23.8984 44.7786 24.6208 44.9563 25.2178C45.134 25.8148 45.3915 26.2682 45.7288 26.5781C46.0705 26.888 46.4807 27.043 46.9592 27.043ZM54.8791 28.1367C54.1499 28.1367 53.5255 27.9385 53.006 27.542C52.491 27.1455 52.0968 26.5667 51.8234 25.8057C51.5545 25.0446 51.4201 24.1263 51.4201 23.0508C51.4201 21.9889 51.5568 21.0775 51.8302 20.3164C52.1037 19.5508 52.5002 18.9674 53.0197 18.5664C53.5392 18.1654 54.159 17.9648 54.8791 17.9648C55.5991 17.9648 56.2189 18.1654 56.7384 18.5664C57.258 18.9674 57.6545 19.5508 57.9279 20.3164C58.2013 21.0775 58.338 21.9889 58.338 23.0508C58.338 24.1263 58.2013 25.0446 57.9279 25.8057C57.659 26.5667 57.2648 27.1455 56.7453 27.542C56.2257 27.9385 55.6037 28.1367 54.8791 28.1367ZM54.8791 27.043C55.353 27.043 55.7586 26.888 56.0959 26.5781C56.4331 26.2682 56.6906 25.8148 56.8683 25.2178C57.0461 24.6208 57.1349 23.8984 57.1349 23.0508C57.1349 22.2031 57.0461 21.4785 56.8683 20.877C56.6906 20.2754 56.4331 19.8174 56.0959 19.5029C55.7586 19.1885 55.353 19.0312 54.8791 19.0312C54.4051 19.0312 53.9972 19.1885 53.6554 19.5029C53.3182 19.8174 53.0584 20.2754 52.8761 20.877C52.6984 21.4785 52.6095 22.2031 52.6095 23.0508C52.6095 23.8984 52.6984 24.6208 52.8761 25.2178C53.0539 25.8148 53.3114 26.2682 53.6486 26.5781C53.9904 26.888 54.4005 27.043 54.8791 27.043ZM63.5 26.6875C63.3405 26.6875 63.1924 26.6488 63.0557 26.5713C62.9235 26.4893 62.8164 26.3799 62.7344 26.2432C62.6569 26.1064 62.6204 25.9583 62.625 25.7988C62.6204 25.6439 62.6569 25.5003 62.7344 25.3682C62.8164 25.2314 62.9235 25.1243 63.0557 25.0469C63.1924 24.9648 63.3405 24.9238 63.5 24.9238C63.6549 24.9238 63.7985 24.9648 63.9307 25.0469C64.0674 25.1243 64.1745 25.2314 64.252 25.3682C64.334 25.5003 64.375 25.6439 64.375 25.7988C64.375 25.9583 64.334 26.1064 64.252 26.2432C64.1745 26.3799 64.0674 26.4893 63.9307 26.5713C63.7985 26.6488 63.6549 26.6875 63.5 26.6875ZM63.5 21.1914C63.3405 21.1914 63.1924 21.1527 63.0557 21.0752C62.9235 20.9932 62.8164 20.8838 62.7344 20.7471C62.6569 20.6104 62.6204 20.4622 62.625 20.3027C62.6204 20.1478 62.6569 20.0042 62.7344 19.8721C62.8164 19.7354 62.9235 19.6283 63.0557 19.5508C63.1924 19.4688 63.3405 19.4277 63.5 19.4277C63.6549 19.4277 63.7985 19.4688 63.9307 19.5508C64.0674 19.6283 64.1745 19.7354 64.252 19.8721C64.334 20.0042 64.375 20.1478 64.375 20.3027C64.375 20.4622 64.334 20.6104 64.252 20.7471C64.1745 20.8838 64.0674 20.9932 63.9307 21.0752C63.7985 21.1527 63.6549 21.1914 63.5 21.1914ZM72.1209 28.1367C71.3918 28.1367 70.7674 27.9385 70.2479 27.542C69.7329 27.1455 69.3387 26.5667 69.0653 25.8057C68.7964 25.0446 68.662 24.1263 68.662 23.0508C68.662 21.9889 68.7987 21.0775 69.0721 20.3164C69.3455 19.5508 69.742 18.9674 70.2616 18.5664C70.7811 18.1654 71.4009 17.9648 72.1209 17.9648C72.841 17.9648 73.4608 18.1654 73.9803 18.5664C74.4998 18.9674 74.8963 19.5508 75.1698 20.3164C75.4432 21.0775 75.5799 21.9889 75.5799 23.0508C75.5799 24.1263 75.4432 25.0446 75.1698 25.8057C74.9009 26.5667 74.5067 27.1455 73.9871 27.542C73.4676 27.9385 72.8455 28.1367 72.1209 28.1367ZM72.1209 27.043C72.5949 27.043 73.0005 26.888 73.3377 26.5781C73.675 26.2682 73.9325 25.8148 74.1102 25.2178C74.2879 24.6208 74.3768 23.8984 74.3768 23.0508C74.3768 22.2031 74.2879 21.4785 74.1102 20.877C73.9325 20.2754 73.675 19.8174 73.3377 19.5029C73.0005 19.1885 72.5949 19.0312 72.1209 19.0312C71.647 19.0312 71.2391 19.1885 70.8973 19.5029C70.5601 19.8174 70.3003 20.2754 70.118 20.877C69.9403 21.4785 69.8514 22.2031 69.8514 23.0508C69.8514 23.8984 69.9403 24.6208 70.118 25.2178C70.2957 25.8148 70.5532 26.2682 70.8905 26.5781C71.2323 26.888 71.6424 27.043 72.1209 27.043ZM80.0408 28.1367C79.3116 28.1367 78.6873 27.9385 78.1677 27.542C77.6528 27.1455 77.2586 26.5667 76.9851 25.8057C76.7162 25.0446 76.5818 24.1263 76.5818 23.0508C76.5818 21.9889 76.7185 21.0775 76.992 20.3164C77.2654 19.5508 77.6619 18.9674 78.1814 18.5664C78.7009 18.1654 79.3207 17.9648 80.0408 17.9648C80.7608 17.9648 81.3806 18.1654 81.9002 18.5664C82.4197 18.9674 82.8162 19.5508 83.0896 20.3164C83.363 21.0775 83.4998 21.9889 83.4998 23.0508C83.4998 24.1263 83.363 25.0446 83.0896 25.8057C82.8207 26.5667 82.4265 27.1455 81.907 27.542C81.3875 27.9385 80.7654 28.1367 80.0408 28.1367ZM80.0408 27.043C80.5147 27.043 80.9203 26.888 81.2576 26.5781C81.5948 26.2682 81.8523 25.8148 82.03 25.2178C82.2078 24.6208 82.2966 23.8984 82.2966 23.0508C82.2966 22.2031 82.2078 21.4785 82.03 20.877C81.8523 20.2754 81.5948 19.8174 81.2576 19.5029C80.9203 19.1885 80.5147 19.0312 80.0408 19.0312C79.5668 19.0312 79.1589 19.1885 78.8171 19.5029C78.4799 19.8174 78.2201 20.2754 78.0378 20.877C77.8601 21.4785 77.7712 22.2031 77.7712 23.0508C77.7712 23.8984 77.8601 24.6208 78.0378 25.2178C78.2156 25.8148 78.4731 26.2682 78.8103 26.5781C79.1521 26.888 79.5623 27.043 80.0408 27.043Z" fill="#121212" style="fill:#121212;fill:color(display-p3 0.0714 0.0714 0.0714);fill-opacity:1;"/>
<path d="M19.4297 57H18.1855V48.3867H18.1309L15.7246 49.9863V48.7422L18.1855 47.1016H19.4297V57ZM24.8749 57.1367C24.287 57.1367 23.7515 57.0251 23.2685 56.8018C22.79 56.5739 22.4071 56.2617 22.12 55.8652C21.8375 55.4642 21.6848 55.013 21.662 54.5117H22.8515C22.8834 54.8034 22.9928 55.0677 23.1796 55.3047C23.3665 55.5371 23.608 55.7217 23.9042 55.8584C24.2004 55.9906 24.524 56.0566 24.8749 56.0566C25.2942 56.0566 25.6724 55.9609 26.0097 55.7695C26.3469 55.5781 26.6112 55.3161 26.8027 54.9834C26.9941 54.6507 27.0898 54.2793 27.0898 53.8691C27.0898 53.4453 26.9895 53.0648 26.789 52.7275C26.593 52.3857 26.3196 52.1191 25.9687 51.9277C25.6223 51.7318 25.2304 51.6315 24.7929 51.627C23.9133 51.6133 23.2981 51.9095 22.9472 52.5156H21.7577L22.455 47.1016H27.8144V48.1953H23.4804L23.1112 51.0938H23.207C23.4303 50.9206 23.7014 50.7816 24.0204 50.6768C24.3394 50.5719 24.6698 50.5195 25.0116 50.5195C25.6314 50.5195 26.1897 50.6631 26.6864 50.9502C27.1877 51.2327 27.5797 51.627 27.8622 52.1328C28.1493 52.6387 28.2929 53.2083 28.2929 53.8418C28.2929 54.4707 28.1448 55.0358 27.8486 55.5371C27.5523 56.0384 27.1445 56.4303 26.6249 56.7129C26.1054 56.9954 25.5221 57.1367 24.8749 57.1367Z" fill="#121212" style="fill:#121212;fill:color(display-p3 0.0714 0.0714 0.0714);fill-opacity:1;"/>
<path d="M65.2658 49.5762H66.4005V50.7383H66.4963C66.6558 50.3372 66.9064 50.0273 67.2482 49.8086C67.5946 49.5898 68.0093 49.4805 68.4923 49.4805C68.9663 49.4805 69.3696 49.5898 69.7023 49.8086C70.035 50.0228 70.2925 50.3327 70.4748 50.7383H70.5568C70.7528 50.3464 71.0421 50.0387 71.425 49.8154C71.8078 49.5921 72.2612 49.4805 72.7853 49.4805C73.2365 49.4805 73.6307 49.5739 73.9679 49.7607C74.3097 49.9476 74.5763 50.2324 74.7677 50.6152C74.9591 50.9935 75.0548 51.4674 75.0548 52.0371V57H73.8791V52.0508C73.8791 51.5358 73.7378 51.1553 73.4552 50.9092C73.1727 50.6585 72.8127 50.5332 72.3752 50.5332C72.0379 50.5332 71.7463 50.6038 71.5002 50.7451C71.2541 50.8864 71.0672 51.0801 70.9396 51.3262C70.812 51.5723 70.7482 51.8548 70.7482 52.1738V57H69.5588V51.9277C69.5588 51.6543 69.4972 51.4128 69.3742 51.2031C69.2511 50.9889 69.078 50.8249 68.8546 50.7109C68.6359 50.5924 68.3875 50.5332 68.1095 50.5332C67.8133 50.5332 67.5376 50.613 67.2824 50.7725C67.0272 50.9274 66.8221 51.1439 66.6671 51.4219C66.5168 51.6999 66.4416 52.0143 66.4416 52.3652V57H65.2658V49.5762ZM76.5216 49.5762H77.6973V57H76.5216V49.5762ZM77.1095 48.3457C76.8816 48.3457 76.6879 48.2705 76.5284 48.1201C76.3689 47.9697 76.2891 47.7852 76.2891 47.5664C76.2891 47.3477 76.3689 47.1631 76.5284 47.0127C76.6879 46.8623 76.8816 46.7871 77.1095 46.7871C77.3373 46.7871 77.5333 46.8623 77.6973 47.0127C77.8614 47.1631 77.9434 47.3477 77.9434 47.5664C77.9434 47.7852 77.8614 47.9697 77.6973 48.1201C77.5333 48.2705 77.3373 48.3457 77.1095 48.3457ZM80.3262 57H79.1504V49.5762H80.2852V50.7383H80.3809C80.5677 50.3418 80.8389 50.0342 81.1943 49.8154C81.5544 49.5921 82.0078 49.4805 82.5547 49.4805C83.0651 49.4805 83.5072 49.5853 83.8809 49.7949C84.2546 50 84.5439 50.3122 84.749 50.7314C84.9541 51.1507 85.0566 51.668 85.0566 52.2832V57H83.8809V52.3652C83.8809 51.791 83.7327 51.3421 83.4365 51.0186C83.1403 50.695 82.7279 50.5332 82.1992 50.5332C81.8346 50.5332 81.5111 50.613 81.2285 50.7725C80.946 50.9274 80.7249 51.1576 80.5654 51.4629C80.4059 51.7637 80.3262 52.1237 80.3262 52.543V57Z" fill="#121212" style="fill:#121212;fill:color(display-p3 0.0714 0.0714 0.0714);fill-opacity:1;"/>
<path d="M19.3477 86.1367C18.696 86.1367 18.1126 86.0273 17.5977 85.8086C17.0872 85.5898 16.6816 85.2822 16.3809 84.8857C16.0846 84.4893 15.9251 84.0312 15.9023 83.5117H17.1465C17.1693 83.8171 17.2786 84.0859 17.4746 84.3184C17.6751 84.5508 17.9372 84.7308 18.2607 84.8584C18.5843 84.9814 18.9421 85.043 19.334 85.043C19.7624 85.043 20.1475 84.9701 20.4893 84.8242C20.8356 84.6738 21.1045 84.4688 21.2959 84.209C21.4919 83.9447 21.5898 83.6439 21.5898 83.3066C21.5898 82.9421 21.4941 82.6208 21.3027 82.3428C21.1159 82.0648 20.8424 81.8483 20.4824 81.6934C20.1224 81.5384 19.6895 81.4609 19.1836 81.4609H18.377V80.3809H19.1836C19.5801 80.3809 19.9333 80.3102 20.2432 80.1689C20.5531 80.0277 20.7923 79.8294 20.9609 79.5742C21.1341 79.319 21.2207 79.0228 21.2207 78.6855C21.2207 78.362 21.1432 78.0749 20.9883 77.8242C20.8379 77.5736 20.6237 77.3799 20.3457 77.2432C20.0677 77.1019 19.7441 77.0312 19.375 77.0312C19.0195 77.0312 18.6868 77.0951 18.377 77.2227C18.0671 77.3503 17.8141 77.5326 17.6182 77.7695C17.4222 78.002 17.3151 78.2754 17.2969 78.5898H16.1074C16.1302 78.0794 16.2897 77.626 16.5859 77.2295C16.8822 76.8285 17.2764 76.5186 17.7686 76.2998C18.2607 76.0765 18.8008 75.9648 19.3887 75.9648C19.9993 75.9648 20.5326 76.0856 20.9883 76.3271C21.4486 76.5641 21.8018 76.8854 22.0479 77.291C22.2939 77.6966 22.4147 78.1387 22.4102 78.6172C22.4147 79.1732 22.2666 79.6494 21.9658 80.0459C21.665 80.4424 21.2526 80.7135 20.7285 80.8594V80.9277C21.1523 80.9961 21.5192 81.1396 21.8291 81.3584C22.1436 81.5726 22.3828 81.8483 22.5469 82.1855C22.7155 82.5182 22.7975 82.8919 22.793 83.3066C22.7975 83.8398 22.6494 84.3229 22.3486 84.7559C22.0479 85.1842 21.6331 85.5215 21.1045 85.7676C20.5804 86.0137 19.9948 86.1367 19.3477 86.1367ZM27.3905 86.1367C26.6614 86.1367 26.037 85.9385 25.5175 85.542C25.0025 85.1455 24.6083 84.5667 24.3349 83.8057C24.066 83.0446 23.9316 82.1263 23.9316 81.0508C23.9316 79.9889 24.0683 79.0775 24.3417 78.3164C24.6152 77.5508 25.0116 76.9674 25.5312 76.5664C26.0507 76.1654 26.6705 75.9648 27.3905 75.9648C28.1106 75.9648 28.7304 76.1654 29.2499 76.5664C29.7695 76.9674 30.1659 77.5508 30.4394 78.3164C30.7128 79.0775 30.8495 79.9889 30.8495 81.0508C30.8495 82.1263 30.7128 83.0446 30.4394 83.8057C30.1705 84.5667 29.7763 85.1455 29.2568 85.542C28.7372 85.9385 28.1152 86.1367 27.3905 86.1367ZM27.3905 85.043C27.8645 85.043 28.2701 84.888 28.6073 84.5781C28.9446 84.2682 29.2021 83.8148 29.3798 83.2178C29.5575 82.6208 29.6464 81.8984 29.6464 81.0508C29.6464 80.2031 29.5575 79.4785 29.3798 78.877C29.2021 78.2754 28.9446 77.8174 28.6073 77.5029C28.2701 77.1885 27.8645 77.0312 27.3905 77.0312C26.9166 77.0312 26.5087 77.1885 26.1669 77.5029C25.8297 77.8174 25.5699 78.2754 25.3876 78.877C25.2099 79.4785 25.121 80.2031 25.121 81.0508C25.121 81.8984 25.2099 82.6208 25.3876 83.2178C25.5654 83.8148 25.8228 84.2682 26.1601 84.5781C26.5019 84.888 26.912 85.043 27.3905 85.043Z" fill="#121212" style="fill:#121212;fill:color(display-p3 0.0714 0.0714 0.0714);fill-opacity:1;"/>
<path d="M65.2658 78.5762H66.4005V79.7383H66.4963C66.6558 79.3372 66.9064 79.0273 67.2482 78.8086C67.5946 78.5898 68.0093 78.4805 68.4923 78.4805C68.9663 78.4805 69.3696 78.5898 69.7023 78.8086C70.035 79.0228 70.2925 79.3327 70.4748 79.7383H70.5568C70.7528 79.3464 71.0421 79.0387 71.425 78.8154C71.8078 78.5921 72.2612 78.4805 72.7853 78.4805C73.2365 78.4805 73.6307 78.5739 73.9679 78.7607C74.3097 78.9476 74.5763 79.2324 74.7677 79.6152C74.9591 79.9935 75.0548 80.4674 75.0548 81.0371V86H73.8791V81.0508C73.8791 80.5358 73.7378 80.1553 73.4552 79.9092C73.1727 79.6585 72.8127 79.5332 72.3752 79.5332C72.0379 79.5332 71.7463 79.6038 71.5002 79.7451C71.2541 79.8864 71.0672 80.0801 70.9396 80.3262C70.812 80.5723 70.7482 80.8548 70.7482 81.1738V86H69.5588V80.9277C69.5588 80.6543 69.4972 80.4128 69.3742 80.2031C69.2511 79.9889 69.078 79.8249 68.8546 79.7109C68.6359 79.5924 68.3875 79.5332 68.1095 79.5332C67.8133 79.5332 67.5376 79.613 67.2824 79.7725C67.0272 79.9274 66.8221 80.1439 66.6671 80.4219C66.5168 80.6999 66.4416 81.0143 66.4416 81.3652V86H65.2658V78.5762ZM76.5216 78.5762H77.6973V86H76.5216V78.5762ZM77.1095 77.3457C76.8816 77.3457 76.6879 77.2705 76.5284 77.1201C76.3689 76.9697 76.2891 76.7852 76.2891 76.5664C76.2891 76.3477 76.3689 76.1631 76.5284 76.0127C76.6879 75.8623 76.8816 75.7871 77.1095 75.7871C77.3373 75.7871 77.5333 75.8623 77.6973 76.0127C77.8614 76.1631 77.9434 76.3477 77.9434 76.5664C77.9434 76.7852 77.8614 76.9697 77.6973 77.1201C77.5333 77.2705 77.3373 77.3457 77.1095 77.3457ZM80.3262 86H79.1504V78.5762H80.2852V79.7383H80.3809C80.5677 79.3418 80.8389 79.0342 81.1943 78.8154C81.5544 78.5921 82.0078 78.4805 82.5547 78.4805C83.0651 78.4805 83.5072 78.5853 83.8809 78.7949C84.2546 79 84.5439 79.3122 84.749 79.7314C84.9541 80.1507 85.0566 80.668 85.0566 81.2832V86H83.8809V81.3652C83.8809 80.791 83.7327 80.3421 83.4365 80.0186C83.1403 79.695 82.7279 79.5332 82.1992 79.5332C81.8346 79.5332 81.5111 79.613 81.2285 79.7725C80.946 79.9274 80.7249 80.1576 80.5654 80.4629C80.4059 80.7637 80.3262 81.1237 80.3262 81.543V86Z" fill="#121212" style="fill:#121212;fill:color(display-p3 0.0714 0.0714 0.0714);fill-opacity:1;"/>
<path d="M15.6836 111.965L20.1406 105.102H21.6582V111.896H23.0391V112.977H21.6582V115H20.4824V112.977H15.6836V111.965ZM20.4824 111.896V106.66H20.3594L17.0098 111.814V111.896H20.4824ZM27.4726 115.137C26.8847 115.137 26.3492 115.025 25.8661 114.802C25.3876 114.574 25.0048 114.262 24.7177 113.865C24.4351 113.464 24.2825 113.013 24.2597 112.512H25.4491C25.481 112.803 25.5904 113.068 25.7773 113.305C25.9641 113.537 26.2057 113.722 26.5019 113.858C26.7981 113.991 27.1217 114.057 27.4726 114.057C27.8918 114.057 28.2701 113.961 28.6073 113.77C28.9446 113.578 29.2089 113.316 29.4003 112.983C29.5917 112.651 29.6874 112.279 29.6874 111.869C29.6874 111.445 29.5872 111.065 29.3866 110.728C29.1907 110.386 28.9172 110.119 28.5663 109.928C28.22 109.732 27.828 109.632 27.3905 109.627C26.511 109.613 25.8958 109.91 25.5448 110.516H24.3554L25.0527 105.102H30.412V106.195H26.078L25.7089 109.094H25.8046C26.0279 108.921 26.2991 108.782 26.6181 108.677C26.9371 108.572 27.2675 108.52 27.6093 108.52C28.2291 108.52 28.7874 108.663 29.2841 108.95C29.7854 109.233 30.1773 109.627 30.4599 110.133C30.747 110.639 30.8905 111.208 30.8905 111.842C30.8905 112.471 30.7424 113.036 30.4462 113.537C30.15 114.038 29.7421 114.43 29.2226 114.713C28.703 114.995 28.1197 115.137 27.4726 115.137Z" fill="#121212" style="fill:#121212;fill:color(display-p3 0.0714 0.0714 0.0714);fill-opacity:1;"/>
<path d="M65.2658 107.576H66.4005V108.738H66.4963C66.6558 108.337 66.9064 108.027 67.2482 107.809C67.5946 107.59 68.0093 107.48 68.4923 107.48C68.9663 107.48 69.3696 107.59 69.7023 107.809C70.035 108.023 70.2925 108.333 70.4748 108.738H70.5568C70.7528 108.346 71.0421 108.039 71.425 107.815C71.8078 107.592 72.2612 107.48 72.7853 107.48C73.2365 107.48 73.6307 107.574 73.9679 107.761C74.3097 107.948 74.5763 108.232 74.7677 108.615C74.9591 108.993 75.0548 109.467 75.0548 110.037V115H73.8791V110.051C73.8791 109.536 73.7378 109.155 73.4552 108.909C73.1727 108.659 72.8127 108.533 72.3752 108.533C72.0379 108.533 71.7463 108.604 71.5002 108.745C71.2541 108.886 71.0672 109.08 70.9396 109.326C70.812 109.572 70.7482 109.855 70.7482 110.174V115H69.5588V109.928C69.5588 109.654 69.4972 109.413 69.3742 109.203C69.2511 108.989 69.078 108.825 68.8546 108.711C68.6359 108.592 68.3875 108.533 68.1095 108.533C67.8133 108.533 67.5376 108.613 67.2824 108.772C67.0272 108.927 66.8221 109.144 66.6671 109.422C66.5168 109.7 66.4416 110.014 66.4416 110.365V115H65.2658V107.576ZM76.5216 107.576H77.6973V115H76.5216V107.576ZM77.1095 106.346C76.8816 106.346 76.6879 106.271 76.5284 106.12C76.3689 105.97 76.2891 105.785 76.2891 105.566C76.2891 105.348 76.3689 105.163 76.5284 105.013C76.6879 104.862 76.8816 104.787 77.1095 104.787C77.3373 104.787 77.5333 104.862 77.6973 105.013C77.8614 105.163 77.9434 105.348 77.9434 105.566C77.9434 105.785 77.8614 105.97 77.6973 106.12C77.5333 106.271 77.3373 106.346 77.1095 106.346ZM80.3262 115H79.1504V107.576H80.2852V108.738H80.3809C80.5677 108.342 80.8389 108.034 81.1943 107.815C81.5544 107.592 82.0078 107.48 82.5547 107.48C83.0651 107.48 83.5072 107.585 83.8809 107.795C84.2546 108 84.5439 108.312 84.749 108.731C84.9541 109.151 85.0566 109.668 85.0566 110.283V115H83.8809V110.365C83.8809 109.791 83.7327 109.342 83.4365 109.019C83.1403 108.695 82.7279 108.533 82.1992 108.533C81.8346 108.533 81.5111 108.613 81.2285 108.772C80.946 108.927 80.7249 109.158 80.5654 109.463C80.4059 109.764 80.3262 110.124 80.3262 110.543V115Z" fill="#121212" style="fill:#121212;fill:color(display-p3 0.0714 0.0714 0.0714);fill-opacity:1;"/>
<path d="M19.4023 144.137C18.7643 144.137 18.1719 143.993 17.625 143.706C17.0827 143.414 16.6361 142.92 16.2852 142.223C15.9388 141.521 15.7656 140.591 15.7656 139.434C15.7656 138.281 15.916 137.294 16.2168 136.474C16.5221 135.653 16.9551 135.031 17.5156 134.607C18.0807 134.179 18.7507 133.965 19.5254 133.965C20.0951 133.965 20.6055 134.074 21.0566 134.293C21.5124 134.512 21.8838 134.819 22.1709 135.216C22.4626 135.612 22.6517 136.07 22.7383 136.59H21.5215C21.3984 136.13 21.166 135.76 20.8242 135.482C20.487 135.2 20.054 135.059 19.5254 135.059C18.9876 135.059 18.5228 135.209 18.1309 135.51C17.7435 135.806 17.445 136.237 17.2354 136.802C17.0303 137.367 16.9277 138.044 16.9277 138.832H17.0508C17.3424 138.417 17.707 138.096 18.1445 137.868C18.582 137.636 19.0651 137.52 19.5938 137.52C20.1771 137.52 20.7148 137.661 21.207 137.943C21.7038 138.226 22.0957 138.618 22.3828 139.119C22.6745 139.616 22.8203 140.176 22.8203 140.801C22.8203 141.416 22.6768 141.979 22.3896 142.489C22.1071 142.995 21.7061 143.396 21.1865 143.692C20.667 143.989 20.0723 144.137 19.4023 144.137ZM19.375 143.057C19.7943 143.057 20.1748 142.956 20.5166 142.756C20.8584 142.555 21.1273 142.284 21.3232 141.942C21.5238 141.596 21.6263 141.22 21.6309 140.814C21.6263 140.409 21.5283 140.037 21.3369 139.7C21.1455 139.363 20.8812 139.096 20.5439 138.9C20.2067 138.7 19.8262 138.6 19.4023 138.6C18.9785 138.6 18.5911 138.702 18.2402 138.907C17.8893 139.112 17.6113 139.388 17.4062 139.734C17.2012 140.076 17.0964 140.441 17.0918 140.828C17.0918 141.215 17.1898 141.58 17.3857 141.922C17.5863 142.264 17.8597 142.539 18.2061 142.749C18.557 142.954 18.9466 143.057 19.375 143.057ZM27.3359 144.137C26.6067 144.137 25.9823 143.938 25.4628 143.542C24.9478 143.146 24.5536 142.567 24.2802 141.806C24.0113 141.045 23.8769 140.126 23.8769 139.051C23.8769 137.989 24.0136 137.077 24.287 136.316C24.5605 135.551 24.957 134.967 25.4765 134.566C25.996 134.165 26.6158 133.965 27.3359 133.965C28.0559 133.965 28.6757 134.165 29.1952 134.566C29.7148 134.967 30.1112 135.551 30.3847 136.316C30.6581 137.077 30.7948 137.989 30.7948 139.051C30.7948 140.126 30.6581 141.045 30.3847 141.806C30.1158 142.567 29.7216 143.146 29.2021 143.542C28.6825 143.938 28.0605 144.137 27.3359 144.137ZM27.3359 143.043C27.8098 143.043 28.2154 142.888 28.5527 142.578C28.8899 142.268 29.1474 141.815 29.3251 141.218C29.5029 140.621 29.5917 139.898 29.5917 139.051C29.5917 138.203 29.5029 137.479 29.3251 136.877C29.1474 136.275 28.8899 135.817 28.5527 135.503C28.2154 135.188 27.8098 135.031 27.3359 135.031C26.8619 135.031 26.454 135.188 26.1122 135.503C25.775 135.817 25.5152 136.275 25.3329 136.877C25.1552 137.479 25.0663 138.203 25.0663 139.051C25.0663 139.898 25.1552 140.621 25.3329 141.218C25.5107 141.815 25.7682 142.268 26.1054 142.578C26.4472 142.888 26.8573 143.043 27.3359 143.043Z" fill="#121212" style="fill:#121212;fill:color(display-p3 0.0714 0.0714 0.0714);fill-opacity:1;"/>
<path d="M65.2658 136.576H66.4005V137.738H66.4963C66.6558 137.337 66.9064 137.027 67.2482 136.809C67.5946 136.59 68.0093 136.48 68.4923 136.48C68.9663 136.48 69.3696 136.59 69.7023 136.809C70.035 137.023 70.2925 137.333 70.4748 137.738H70.5568C70.7528 137.346 71.0421 137.039 71.425 136.815C71.8078 136.592 72.2612 136.48 72.7853 136.48C73.2365 136.48 73.6307 136.574 73.9679 136.761C74.3097 136.948 74.5763 137.232 74.7677 137.615C74.9591 137.993 75.0548 138.467 75.0548 139.037V144H73.8791V139.051C73.8791 138.536 73.7378 138.155 73.4552 137.909C73.1727 137.659 72.8127 137.533 72.3752 137.533C72.0379 137.533 71.7463 137.604 71.5002 137.745C71.2541 137.886 71.0672 138.08 70.9396 138.326C70.812 138.572 70.7482 138.855 70.7482 139.174V144H69.5588V138.928C69.5588 138.654 69.4972 138.413 69.3742 138.203C69.2511 137.989 69.078 137.825 68.8546 137.711C68.6359 137.592 68.3875 137.533 68.1095 137.533C67.8133 137.533 67.5376 137.613 67.2824 137.772C67.0272 137.927 66.8221 138.144 66.6671 138.422C66.5168 138.7 66.4416 139.014 66.4416 139.365V144H65.2658V136.576ZM76.5216 136.576H77.6973V144H76.5216V136.576ZM77.1095 135.346C76.8816 135.346 76.6879 135.271 76.5284 135.12C76.3689 134.97 76.2891 134.785 76.2891 134.566C76.2891 134.348 76.3689 134.163 76.5284 134.013C76.6879 133.862 76.8816 133.787 77.1095 133.787C77.3373 133.787 77.5333 133.862 77.6973 134.013C77.8614 134.163 77.9434 134.348 77.9434 134.566C77.9434 134.785 77.8614 134.97 77.6973 135.12C77.5333 135.271 77.3373 135.346 77.1095 135.346ZM80.3262 144H79.1504V136.576H80.2852V137.738H80.3809C80.5677 137.342 80.8389 137.034 81.1943 136.815C81.5544 136.592 82.0078 136.48 82.5547 136.48C83.0651 136.48 83.5072 136.585 83.8809 136.795C84.2546 137 84.5439 137.312 84.749 137.731C84.9541 138.151 85.0566 138.668 85.0566 139.283V144H83.8809V139.365C83.8809 138.791 83.7327 138.342 83.4365 138.019C83.1403 137.695 82.7279 137.533 82.1992 137.533C81.8346 137.533 81.5111 137.613 81.2285 137.772C80.946 137.927 80.7249 138.158 80.5654 138.463C80.4059 138.764 80.3262 139.124 80.3262 139.543V144Z" fill="#121212" style="fill:#121212;fill:color(display-p3 0.0714 0.0714 0.0714);fill-opacity:1;"/>
<path d="M19.1973 162.965C19.8307 162.965 20.4186 163.111 20.9609 163.402C21.5033 163.689 21.9476 164.182 22.2939 164.879C22.6449 165.576 22.8203 166.501 22.8203 167.654C22.8203 168.812 22.6676 169.803 22.3623 170.628C22.0615 171.448 21.6286 172.073 21.0635 172.501C20.5029 172.925 19.8353 173.137 19.0605 173.137C18.4909 173.137 17.9782 173.027 17.5225 172.809C17.0667 172.585 16.693 172.275 16.4014 171.879C16.1143 171.482 15.9297 171.022 15.8477 170.498H17.0645C17.1784 170.963 17.4062 171.337 17.748 171.619C18.0898 171.902 18.5273 172.043 19.0605 172.043C19.5983 172.043 20.0609 171.895 20.4482 171.599C20.8402 171.298 21.141 170.863 21.3506 170.293C21.5602 169.723 21.6673 169.04 21.6719 168.242H21.5352C21.2435 168.657 20.8789 168.98 20.4414 169.213C20.0039 169.441 19.5254 169.555 19.0059 169.555C18.418 169.555 17.8757 169.416 17.3789 169.138C16.8822 168.855 16.488 168.465 16.1963 167.969C15.9092 167.472 15.7656 166.911 15.7656 166.287C15.7656 165.676 15.9069 165.118 16.1895 164.612C16.4766 164.106 16.8799 163.705 17.3994 163.409C17.9189 163.113 18.5182 162.965 19.1973 162.965ZM19.2246 164.045C18.8053 164.045 18.4225 164.145 18.0762 164.346C17.7344 164.542 17.4632 164.808 17.2627 165.146C17.0667 165.483 16.9688 165.85 16.9688 166.246C16.9688 166.661 17.0622 167.039 17.249 167.381C17.4359 167.718 17.6979 167.985 18.0352 168.181C18.3724 168.377 18.7552 168.475 19.1836 168.475C19.6029 168.475 19.988 168.372 20.3389 168.167C20.6898 167.957 20.9678 167.682 21.1729 167.34C21.3779 166.993 21.4805 166.629 21.4805 166.246C21.4805 165.868 21.3825 165.51 21.1865 165.173C20.9906 164.831 20.7194 164.558 20.373 164.353C20.0312 164.147 19.6484 164.045 19.2246 164.045ZM27.3359 173.137C26.6067 173.137 25.9823 172.938 25.4628 172.542C24.9478 172.146 24.5536 171.567 24.2802 170.806C24.0113 170.045 23.8769 169.126 23.8769 168.051C23.8769 166.989 24.0136 166.077 24.287 165.316C24.5605 164.551 24.957 163.967 25.4765 163.566C25.996 163.165 26.6158 162.965 27.3359 162.965C28.0559 162.965 28.6757 163.165 29.1952 163.566C29.7148 163.967 30.1112 164.551 30.3847 165.316C30.6581 166.077 30.7948 166.989 30.7948 168.051C30.7948 169.126 30.6581 170.045 30.3847 170.806C30.1158 171.567 29.7216 172.146 29.2021 172.542C28.6825 172.938 28.0605 173.137 27.3359 173.137ZM27.3359 172.043C27.8098 172.043 28.2154 171.888 28.5527 171.578C28.8899 171.268 29.1474 170.815 29.3251 170.218C29.5029 169.621 29.5917 168.898 29.5917 168.051C29.5917 167.203 29.5029 166.479 29.3251 165.877C29.1474 165.275 28.8899 164.817 28.5527 164.503C28.2154 164.188 27.8098 164.031 27.3359 164.031C26.8619 164.031 26.454 164.188 26.1122 164.503C25.775 164.817 25.5152 165.275 25.3329 165.877C25.1552 166.479 25.0663 167.203 25.0663 168.051C25.0663 168.898 25.1552 169.621 25.3329 170.218C25.5107 170.815 25.7682 171.268 26.1054 171.578C26.4472 171.888 26.8573 172.043 27.3359 172.043Z" fill="#121212" style="fill:#121212;fill:color(display-p3 0.0714 0.0714 0.0714);fill-opacity:1;"/>
<path d="M65.2658 165.576H66.4005V166.738H66.4963C66.6558 166.337 66.9064 166.027 67.2482 165.809C67.5946 165.59 68.0093 165.48 68.4923 165.48C68.9663 165.48 69.3696 165.59 69.7023 165.809C70.035 166.023 70.2925 166.333 70.4748 166.738H70.5568C70.7528 166.346 71.0421 166.039 71.425 165.815C71.8078 165.592 72.2612 165.48 72.7853 165.48C73.2365 165.48 73.6307 165.574 73.9679 165.761C74.3097 165.948 74.5763 166.232 74.7677 166.615C74.9591 166.993 75.0548 167.467 75.0548 168.037V173H73.8791V168.051C73.8791 167.536 73.7378 167.155 73.4552 166.909C73.1727 166.659 72.8127 166.533 72.3752 166.533C72.0379 166.533 71.7463 166.604 71.5002 166.745C71.2541 166.886 71.0672 167.08 70.9396 167.326C70.812 167.572 70.7482 167.855 70.7482 168.174V173H69.5588V167.928C69.5588 167.654 69.4972 167.413 69.3742 167.203C69.2511 166.989 69.078 166.825 68.8546 166.711C68.6359 166.592 68.3875 166.533 68.1095 166.533C67.8133 166.533 67.5376 166.613 67.2824 166.772C67.0272 166.927 66.8221 167.144 66.6671 167.422C66.5168 167.7 66.4416 168.014 66.4416 168.365V173H65.2658V165.576ZM76.5216 165.576H77.6973V173H76.5216V165.576ZM77.1095 164.346C76.8816 164.346 76.6879 164.271 76.5284 164.12C76.3689 163.97 76.2891 163.785 76.2891 163.566C76.2891 163.348 76.3689 163.163 76.5284 163.013C76.6879 162.862 76.8816 162.787 77.1095 162.787C77.3373 162.787 77.5333 162.862 77.6973 163.013C77.8614 163.163 77.9434 163.348 77.9434 163.566C77.9434 163.785 77.8614 163.97 77.6973 164.12C77.5333 164.271 77.3373 164.346 77.1095 164.346ZM80.3262 173H79.1504V165.576H80.2852V166.738H80.3809C80.5677 166.342 80.8389 166.034 81.1943 165.815C81.5544 165.592 82.0078 165.48 82.5547 165.48C83.0651 165.48 83.5072 165.585 83.8809 165.795C84.2546 166 84.5439 166.312 84.749 166.731C84.9541 167.151 85.0566 167.668 85.0566 168.283V173H83.8809V168.365C83.8809 167.791 83.7327 167.342 83.4365 167.019C83.1403 166.695 82.7279 166.533 82.1992 166.533C81.8346 166.533 81.5111 166.613 81.2285 166.772C80.946 166.927 80.7249 167.158 80.5654 167.463C80.4059 167.764 80.3262 168.124 80.3262 168.543V173Z" fill="#121212" style="fill:#121212;fill:color(display-p3 0.0714 0.0714 0.0714);fill-opacity:1;"/>
</g>
<defs>
<filter id="filter0_d_2991_15116" x="0" y="0" width="101" height="190" filterUnits="userSpaceOnUse" color-interpolation-filters="sRGB">
<feFlood flood-opacity="0" result="BackgroundImageFix"/>
<feColorMatrix in="SourceAlpha" type="matrix" values="0 0 0 0 0 0 0 0 0 0 0 0 0 0 0 0 0 0 127 0" result="hardAlpha"/>
<feOffset/>
<feGaussianBlur stdDeviation="1.5"/>
<feComposite in2="hardAlpha" operator="out"/>
<feColorMatrix type="matrix" values="0 0 0 0 0 0 0 0 0 0 0 0 0 0 0 0 0 0 0.12 0"/>
<feBlend mode="normal" in2="BackgroundImageFix" result="effect1_dropShadow_2991_15116"/>
<feBlend mode="normal" in="SourceGraphic" in2="effect1_dropShadow_2991_15116" result="shape"/>
</filter>
<clipPath id="clip0_2991_15116">
<rect width="18" height="18" fill="white" style="fill:white;fill-opacity:1;" transform="translate(16.5 14.5)"/>
</clipPath>
</defs>
</svg>
