<svg width="242" height="242" viewBox="0 0 242 242" fill="none" xmlns="http://www.w3.org/2000/svg">
<rect x="101" y="51" width="40" height="40" rx="20" fill="#F2FC9F" style="fill:#F2FC9F;fill:color(display-p3 0.9490 0.9882 0.6235);fill-opacity:1;"/>
<path d="M114.396 69.1842C114.288 69.0543 114.212 68.9023 114.172 68.7395C114.132 68.5767 114.13 68.4071 114.165 68.2434C114.695 65.785 117.562 64 120.983 64C124.404 64 127.271 65.785 127.8 68.2434C127.836 68.4073 127.834 68.577 127.795 68.7401C127.755 68.9031 127.679 69.0554 127.571 69.1856C127.464 69.3158 127.328 69.4206 127.173 69.4923C127.019 69.5641 126.85 69.6009 126.68 69.6H115.286C115.115 69.6005 114.947 69.5634 114.793 69.4914C114.638 69.4195 114.503 69.3145 114.396 69.1842ZM128.2 72.9936L125.269 74.0436L122.622 72.9999C122.486 72.9465 122.335 72.9465 122.199 72.9999L119.562 74.0366L116.92 72.9999C116.79 72.9489 116.645 72.9466 116.514 72.9936L113.378 74.1136C113.245 74.1709 113.14 74.2756 113.083 74.4064C113.026 74.5372 113.022 74.6844 113.072 74.818C113.121 74.9516 113.221 75.0617 113.35 75.1259C113.479 75.1901 113.629 75.2035 113.768 75.1636L114.711 74.8283V75.2C114.711 75.9426 115.011 76.6548 115.546 77.1799C116.08 77.705 116.805 78 117.562 78H124.404C125.16 78 125.885 77.705 126.42 77.1799C126.955 76.6548 127.255 75.9426 127.255 75.2V74.5231L128.59 74.0464C128.665 74.0249 128.734 73.9885 128.794 73.9395C128.854 73.8906 128.903 73.83 128.939 73.7617C128.974 73.6933 128.994 73.6186 128.999 73.5421C129.004 73.4656 128.992 73.3891 128.965 73.3171C128.939 73.2451 128.897 73.1793 128.844 73.1237C128.79 73.0681 128.725 73.0239 128.654 72.9939C128.582 72.9638 128.505 72.9485 128.427 72.949C128.349 72.9494 128.271 72.9655 128.2 72.9964V72.9936ZM113.57 71.84H128.395C128.547 71.84 128.692 71.781 128.799 71.676C128.906 71.571 128.966 71.4285 128.966 71.28C128.966 71.1315 128.906 70.989 128.799 70.884C128.692 70.779 128.547 70.72 128.395 70.72H113.57C113.419 70.72 113.274 70.779 113.167 70.884C113.06 70.989 113 71.1315 113 71.28C113 71.4285 113.06 71.571 113.167 71.676C113.274 71.781 113.419 71.84 113.57 71.84Z" fill="#3F3F3F" style="fill:#3F3F3F;fill:color(display-p3 0.2471 0.2471 0.2471);fill-opacity:1;"/>
<path d="M83.6148 111.719V140H77.7164V117.305H77.5602L71.0758 121.367V116.172L78.068 111.719H83.6148ZM99.9539 140.391C92.8836 140.391 88.5867 135.117 88.5867 125.859C88.5867 116.602 92.8836 111.328 99.9539 111.328C107.024 111.328 111.321 116.641 111.321 125.859C111.321 135.156 107.024 140.391 99.9539 140.391ZM99.9539 135.547C103.235 135.547 105.345 132.383 105.305 125.859C105.305 119.414 103.235 116.133 99.9539 116.133C96.6727 116.133 94.6023 119.414 94.6023 125.859C94.5633 132.383 96.6727 135.547 99.9539 135.547ZM117.621 136.562C115.785 136.562 114.301 135.078 114.34 133.281C114.301 131.484 115.785 130.039 117.621 130.039C119.34 130.039 120.863 131.484 120.863 133.281C120.863 135.078 119.34 136.562 117.621 136.562ZM117.621 121.68C115.785 121.68 114.301 120.195 114.34 118.398C114.301 116.602 115.785 115.156 117.621 115.156C119.34 115.156 120.863 116.602 120.863 118.398C120.863 120.195 119.34 121.68 117.621 121.68ZM134.741 140.391C128.53 140.391 124.077 136.953 123.96 132.031H129.898C130.015 134.141 132.046 135.547 134.78 135.547C137.593 135.547 139.624 133.945 139.585 131.68C139.624 129.375 137.554 127.734 134.234 127.734H131.616V123.398H134.234C137.007 123.398 138.96 121.875 138.96 119.648C138.96 117.5 137.32 116.016 134.82 116.016C132.32 116.016 130.249 117.422 130.171 119.57H124.546C124.624 114.688 129.038 111.328 134.82 111.328C140.718 111.328 144.663 114.805 144.624 119.297C144.663 122.461 142.437 124.727 139.273 125.273V125.508C143.413 126.016 145.718 128.555 145.679 132.07C145.718 136.914 141.109 140.391 134.741 140.391ZM159.596 140.391C152.526 140.391 148.229 135.117 148.229 125.859C148.229 116.602 152.526 111.328 159.596 111.328C166.666 111.328 170.963 116.641 170.963 125.859C170.963 135.156 166.666 140.391 159.596 140.391ZM159.596 135.547C162.877 135.547 164.987 132.383 164.948 125.859C164.948 119.414 162.877 116.133 159.596 116.133C156.315 116.133 154.245 119.414 154.245 125.859C154.205 132.383 156.315 135.547 159.596 135.547Z" fill="#121212" style="fill:#121212;fill:color(display-p3 0.0714 0.0714 0.0714);fill-opacity:1;"/>
<path d="M109.178 183H106.62V171.34H106.541L103.241 173.449V171.125L106.737 168.859H109.178V183ZM112.016 181.164L117.016 176.34C117.556 175.799 117.973 175.357 118.266 175.012C118.565 174.66 118.793 174.315 118.949 173.977C119.105 173.632 119.184 173.267 119.184 172.883C119.184 172.453 119.079 172.076 118.871 171.75C118.663 171.424 118.373 171.174 118.002 170.998C117.637 170.822 117.224 170.734 116.762 170.734C116.28 170.734 115.857 170.832 115.492 171.027C115.134 171.216 114.857 171.49 114.662 171.848C114.467 172.199 114.372 172.609 114.379 173.078H111.957C111.951 172.199 112.152 171.428 112.562 170.764C112.973 170.093 113.542 169.576 114.271 169.211C115.007 168.846 115.844 168.664 116.781 168.664C117.732 168.664 118.572 168.84 119.301 169.191C120.036 169.543 120.606 170.031 121.01 170.656C121.42 171.275 121.625 171.978 121.625 172.766C121.625 173.312 121.518 173.84 121.303 174.348C121.094 174.855 120.736 175.419 120.229 176.037C119.721 176.649 119.001 177.395 118.07 178.273L115.551 180.773V180.871H121.84V183H112.016V181.164ZM126.728 168.859L130.927 179.133H131.103L135.302 168.859H138.427V183H135.986V173.273H135.849L131.923 182.961H130.107L126.181 173.234H126.064V183H123.603V168.859H126.728Z" fill="#757575" style="fill:#757575;fill:color(display-p3 0.4588 0.4588 0.4588);fill-opacity:1;"/>
<path d="M121 4.04873e-05C187.826 3.75662e-05 242 54.1736 242 121C242 187.826 187.826 242 121 242C54.1735 242 -2.368e-06 187.826 -5.28908e-06 121C-8.21015e-06 54.1736 54.1735 4.34084e-05 121 4.04873e-05ZM121 218.883C175.059 218.883 218.883 175.059 218.883 121C218.883 66.9406 175.059 23.1168 121 23.1168C66.9406 23.1168 23.1168 66.9406 23.1168 121C23.1168 175.059 66.9406 218.883 121 218.883Z" fill="#74A0F8" style="fill:#74A0F8;fill:color(display-p3 0.4549 0.6275 0.9725);fill-opacity:1;"/>
</svg>
