<svg width="421" height="478" viewBox="0 0 421 478" fill="none" xmlns="http://www.w3.org/2000/svg">
<g clip-path="url(#clip0_2957_108112)">
<rect width="421" height="478" rx="16" fill="#F4F4F4" style="fill:#F4F4F4;fill:color(display-p3 0.9569 0.9569 0.9569);fill-opacity:1;"/>
<mask id="path-3-inside-1_2957_108112" fill="white">
<path d="M-9 -191H431V669H-9V-191Z"/>
</mask>
<path d="M-9 -191H431V669H-9V-191Z" fill="white" style="fill:white;fill-opacity:1;"/>
<path d="M-9 669H-8V-191H-9H-10V669H-9Z" fill="#E6E8E8" style="fill:#E6E8E8;fill:color(display-p3 0.9020 0.9098 0.9098);fill-opacity:1;" mask="url(#path-3-inside-1_2957_108112)"/>
<rect x="191" y="131" width="40" height="40" rx="20" fill="#F2FC9F" style="fill:#F2FC9F;fill:color(display-p3 0.9490 0.9882 0.6235);fill-opacity:1;"/>
<path d="M204.396 149.184C204.288 149.054 204.212 148.902 204.172 148.739C204.132 148.577 204.13 148.407 204.165 148.243C204.695 145.785 207.562 144 210.983 144C214.404 144 217.271 145.785 217.8 148.243C217.836 148.407 217.834 148.577 217.795 148.74C217.755 148.903 217.679 149.055 217.571 149.186C217.464 149.316 217.328 149.421 217.173 149.492C217.019 149.564 216.85 149.601 216.68 149.6H205.286C205.115 149.601 204.947 149.563 204.793 149.491C204.638 149.419 204.503 149.314 204.396 149.184ZM218.2 152.994L215.269 154.044L212.622 153C212.486 152.947 212.335 152.947 212.199 153L209.562 154.037L206.92 153C206.79 152.949 206.645 152.947 206.514 152.994L203.378 154.114C203.245 154.171 203.14 154.276 203.083 154.406C203.026 154.537 203.022 154.684 203.072 154.818C203.121 154.952 203.221 155.062 203.35 155.126C203.479 155.19 203.629 155.204 203.768 155.164L204.711 154.828V155.2C204.711 155.943 205.011 156.655 205.546 157.18C206.08 157.705 206.805 158 207.562 158H214.404C215.16 158 215.885 157.705 216.42 157.18C216.955 156.655 217.255 155.943 217.255 155.2V154.523L218.59 154.046C218.665 154.025 218.734 153.989 218.794 153.94C218.854 153.891 218.903 153.83 218.939 153.762C218.974 153.693 218.994 153.619 218.999 153.542C219.004 153.466 218.992 153.389 218.965 153.317C218.939 153.245 218.897 153.179 218.844 153.124C218.79 153.068 218.725 153.024 218.654 152.994C218.582 152.964 218.505 152.949 218.427 152.949C218.349 152.949 218.271 152.966 218.2 152.996V152.994ZM203.57 151.84H218.395C218.547 151.84 218.692 151.781 218.799 151.676C218.906 151.571 218.966 151.429 218.966 151.28C218.966 151.131 218.906 150.989 218.799 150.884C218.692 150.779 218.547 150.72 218.395 150.72H203.57C203.419 150.72 203.274 150.779 203.167 150.884C203.06 150.989 203 151.131 203 151.28C203 151.429 203.06 151.571 203.167 151.676C203.274 151.781 203.419 151.84 203.57 151.84Z" fill="#3F3F3F" style="fill:#3F3F3F;fill:color(display-p3 0.2471 0.2471 0.2471);fill-opacity:1;"/>
<path d="M211 80C277.826 80 332 134.174 332 201C332 267.826 277.826 322 211 322C144.174 322 90 267.826 90 201C90 134.174 144.174 80 211 80ZM211 298.883C265.059 298.883 308.883 255.059 308.883 201C308.883 146.941 265.059 103.117 211 103.117C156.941 103.117 113.117 146.941 113.117 201C113.117 255.059 156.941 298.883 211 298.883Z" fill="#F1F6FE" style="fill:#F1F6FE;fill:color(display-p3 0.9451 0.9647 0.9961);fill-opacity:1;"/>
<rect x="104" y="367" width="58" height="58" rx="29" fill="#F5F5F5" style="fill:#F5F5F5;fill:color(display-p3 0.9621 0.9621 0.9621);fill-opacity:1;"/>
<path d="M142 388.636V403.364C142 403.798 141.828 404.214 141.521 404.521C141.214 404.828 140.798 405 140.364 405H125.636C125.202 405 124.786 404.828 124.479 404.521C124.172 404.214 124 403.798 124 403.364V388.636C124 388.202 124.172 387.786 124.479 387.479C124.786 387.172 125.202 387 125.636 387H140.364C140.798 387 141.214 387.172 141.521 387.479C141.828 387.786 142 388.202 142 388.636Z" fill="#3F3F3F" style="fill:#3F3F3F;fill:color(display-p3 0.2489 0.2489 0.2489);fill-opacity:1;"/>
<rect x="182" y="367" width="58" height="58" rx="29" fill="#F5F5F5" style="fill:#F5F5F5;fill:color(display-p3 0.9621 0.9621 0.9621);fill-opacity:1;"/>
<path d="M221 395.5C221.001 395.748 220.937 395.992 220.816 396.208C220.695 396.425 220.52 396.606 220.309 396.734L207.211 404.785C206.99 404.921 206.737 404.995 206.478 405C206.219 405.005 205.964 404.94 205.738 404.812C205.515 404.687 205.328 404.504 205.199 404.282C205.069 404.06 205 403.807 205 403.55V387.45C205 387.193 205.069 386.94 205.199 386.718C205.328 386.496 205.515 386.313 205.738 386.188C205.964 386.06 206.219 385.995 206.478 386C206.737 386.005 206.99 386.079 207.211 386.215L220.309 394.266C220.52 394.394 220.695 394.575 220.816 394.792C220.937 395.008 221.001 395.252 221 395.5Z" fill="#3F3F3F" style="fill:#3F3F3F;fill:color(display-p3 0.2489 0.2489 0.2489);fill-opacity:1;"/>
<rect x="260" y="367" width="58" height="58" rx="29" fill="#F5F5F5" style="fill:#F5F5F5;fill:color(display-p3 0.9621 0.9621 0.9621);fill-opacity:1;"/>
<path d="M298 396C298 396.199 297.921 396.39 297.78 396.53C297.64 396.671 297.449 396.75 297.25 396.75H289.75V404.25C289.75 404.449 289.671 404.64 289.53 404.78C289.39 404.921 289.199 405 289 405C288.801 405 288.61 404.921 288.47 404.78C288.329 404.64 288.25 404.449 288.25 404.25V396.75H280.75C280.551 396.75 280.36 396.671 280.22 396.53C280.079 396.39 280 396.199 280 396C280 395.801 280.079 395.61 280.22 395.47C280.36 395.329 280.551 395.25 280.75 395.25H288.25V387.75C288.25 387.551 288.329 387.36 288.47 387.22C288.61 387.079 288.801 387 289 387C289.199 387 289.39 387.079 289.53 387.22C289.671 387.36 289.75 387.551 289.75 387.75V395.25H297.25C297.449 395.25 297.64 395.329 297.78 395.47C297.921 395.61 298 395.801 298 396Z" fill="#3F3F3F" style="fill:#3F3F3F;fill:color(display-p3 0.2489 0.2489 0.2489);fill-opacity:1;"/>
<path d="M211 80C232.863 80 254.318 85.9236 273.083 97.1412C291.849 108.359 307.225 124.451 317.577 143.708C327.929 162.965 332.87 184.667 331.875 206.507C330.879 228.348 323.986 249.51 311.925 267.746C299.865 285.982 283.09 300.61 263.381 310.074C243.673 319.539 221.769 323.487 199.997 321.499C178.224 319.51 157.397 311.66 139.729 298.783C122.061 285.905 108.212 268.481 99.6546 248.363L120.927 239.314C127.85 255.589 139.053 269.684 153.345 280.102C167.638 290.519 184.486 296.869 202.099 298.478C219.712 300.086 237.431 296.892 253.374 289.236C269.317 281.579 282.888 269.746 292.644 254.995C302.4 240.243 307.977 223.123 308.782 205.455C309.587 187.787 305.59 170.232 297.216 154.654C288.842 139.076 276.403 126.058 261.222 116.983C246.042 107.909 228.686 103.117 211 103.117L211 80Z" fill="#74A0F8" style="fill:#74A0F8;fill:color(display-p3 0.4549 0.6275 0.9725);fill-opacity:1;"/>
<path d="M211 80C277.826 80 332 134.174 332 201C332 267.826 277.826 322 211 322C144.174 322 90 267.826 90 201C90 134.174 144.174 80 211 80ZM211 298.883C265.059 298.883 308.883 255.059 308.883 201C308.883 146.941 265.059 103.117 211 103.117C156.941 103.117 113.117 146.941 113.117 201C113.117 255.059 156.941 298.883 211 298.883Z" fill="#F1F6FE" style="fill:#F1F6FE;fill:color(display-p3 0.9451 0.9647 0.9961);fill-opacity:1;"/>
<rect x="191" y="131" width="40" height="40" rx="20" fill="#F2FC9F" style="fill:#F2FC9F;fill:color(display-p3 0.9490 0.9882 0.6235);fill-opacity:1;"/>
<path d="M204.396 149.184C204.288 149.054 204.212 148.902 204.172 148.739C204.132 148.577 204.13 148.407 204.165 148.243C204.695 145.785 207.562 144 210.983 144C214.404 144 217.271 145.785 217.8 148.243C217.836 148.407 217.834 148.577 217.795 148.74C217.755 148.903 217.679 149.055 217.571 149.186C217.464 149.316 217.328 149.421 217.173 149.492C217.019 149.564 216.85 149.601 216.68 149.6H205.286C205.115 149.601 204.947 149.563 204.793 149.491C204.638 149.419 204.503 149.314 204.396 149.184ZM218.2 152.994L215.269 154.044L212.622 153C212.486 152.947 212.335 152.947 212.199 153L209.562 154.037L206.92 153C206.79 152.949 206.645 152.947 206.514 152.994L203.378 154.114C203.245 154.171 203.14 154.276 203.083 154.406C203.026 154.537 203.022 154.684 203.072 154.818C203.121 154.952 203.221 155.062 203.35 155.126C203.479 155.19 203.629 155.204 203.768 155.164L204.711 154.828V155.2C204.711 155.943 205.011 156.655 205.546 157.18C206.08 157.705 206.805 158 207.562 158H214.404C215.16 158 215.885 157.705 216.42 157.18C216.955 156.655 217.255 155.943 217.255 155.2V154.523L218.59 154.046C218.665 154.025 218.734 153.989 218.794 153.94C218.854 153.891 218.903 153.83 218.939 153.762C218.974 153.693 218.994 153.619 218.999 153.542C219.004 153.466 218.992 153.389 218.965 153.317C218.939 153.245 218.897 153.179 218.844 153.124C218.79 153.068 218.725 153.024 218.654 152.994C218.582 152.964 218.505 152.949 218.427 152.949C218.349 152.949 218.271 152.966 218.2 152.996V152.994ZM203.57 151.84H218.395C218.547 151.84 218.692 151.781 218.799 151.676C218.906 151.571 218.966 151.429 218.966 151.28C218.966 151.131 218.906 150.989 218.799 150.884C218.692 150.779 218.547 150.72 218.395 150.72H203.57C203.419 150.72 203.274 150.779 203.167 150.884C203.06 150.989 203 151.131 203 151.28C203 151.429 203.06 151.571 203.167 151.676C203.274 151.781 203.419 151.84 203.57 151.84Z" fill="#3F3F3F" style="fill:#3F3F3F;fill:color(display-p3 0.2471 0.2471 0.2471);fill-opacity:1;"/>
<path d="M224.542 414.634C224.763 414.581 224.994 414.591 225.21 414.661L243.553 420.649C243.787 420.729 243.991 420.877 244.141 421.074C244.291 421.273 244.378 421.511 244.39 421.76C244.401 422.008 244.338 422.254 244.207 422.466C244.077 422.676 243.887 422.841 243.662 422.942L243.643 422.95L237.9 425.156L237.038 425.488L237.691 426.141L244.173 432.621C244.318 432.766 244.4 432.964 244.4 433.17C244.4 433.375 244.318 433.573 244.173 433.718L242.719 435.171L242.718 435.172C242.646 435.244 242.561 435.302 242.467 435.341C242.373 435.38 242.271 435.4 242.169 435.4C242.067 435.4 241.966 435.38 241.872 435.341C241.778 435.302 241.692 435.244 241.62 435.172L235.138 428.689L234.483 428.036L234.153 428.899L231.951 434.642L231.943 434.662C231.849 434.881 231.693 435.067 231.494 435.198C231.295 435.329 231.061 435.398 230.822 435.397H230.749C230.503 435.386 230.267 435.3 230.071 435.15C229.874 435 229.727 434.791 229.651 434.555L229.65 434.551L223.661 416.21V416.209L223.619 416.045C223.589 415.879 223.594 415.707 223.634 415.542C223.687 415.321 223.8 415.12 223.96 414.96C224.12 414.8 224.321 414.687 224.542 414.634Z" fill="white" stroke="#121212" style="fill:white;fill-opacity:1;stroke:#121212;stroke:color(display-p3 0.0714 0.0714 0.0714);stroke-opacity:1;" stroke-width="1.2"/>
</g>
<defs>
<clipPath id="clip0_2957_108112">
<rect width="421" height="478" rx="16" fill="white" style="fill:white;fill-opacity:1;"/>
</clipPath>
</defs>
</svg>
