<svg width="421" height="478" viewBox="0 0 421 478" fill="none" xmlns="http://www.w3.org/2000/svg">
<g transform="translate(90 80)">
<path d="M83.6148 111.719V140H77.7164V117.305H77.5602L71.0758 121.367V116.172L78.068 111.719H83.6148ZM99.9539 140.391C92.8836 140.391 88.5867 135.117 88.5867 125.859C88.5867 116.602 92.8836 111.328 99.9539 111.328C107.024 111.328 111.321 116.641 111.321 125.859C111.321 135.156 107.024 140.391 99.9539 140.391ZM99.9539 135.547C103.235 135.547 105.345 132.383 105.305 125.859C105.305 119.414 103.235 116.133 99.9539 116.133C96.6727 116.133 94.6023 119.414 94.6023 125.859C94.5633 132.383 96.6727 135.547 99.9539 135.547ZM117.621 136.562C115.785 136.562 114.301 135.078 114.34 133.281C114.301 131.484 115.785 130.039 117.621 130.039C119.34 130.039 120.863 131.484 120.863 133.281C120.863 135.078 119.34 136.562 117.621 136.562ZM117.621 121.68C115.785 121.68 114.301 120.195 114.34 118.398C114.301 116.602 115.785 115.156 117.621 115.156C119.34 115.156 120.863 116.602 120.863 118.398C120.863 120.195 119.34 121.68 117.621 121.68ZM134.741 140.391C128.53 140.391 124.077 136.953 123.96 132.031H129.898C130.015 134.141 132.046 135.547 134.78 135.547C137.593 135.547 139.624 133.945 139.585 131.68C139.624 129.375 137.554 127.734 134.234 127.734H131.616V123.398H134.234C137.007 123.398 138.96 121.875 138.96 119.648C138.96 117.5 137.32 116.016 134.82 116.016C132.32 116.016 130.249 117.422 130.171 119.57H124.546C124.624 114.688 129.038 111.328 134.82 111.328C140.718 111.328 144.663 114.805 144.624 119.297C144.663 122.461 142.437 124.727 139.273 125.273V125.508C143.413 126.016 145.718 128.555 145.679 132.07C145.718 136.914 141.109 140.391 134.741 140.391ZM159.596 140.391C152.526 140.391 148.229 135.117 148.229 125.859C148.229 116.602 152.526 111.328 159.596 111.328C166.666 111.328 170.963 116.641 170.963 125.859C170.963 135.156 166.666 140.391 159.596 140.391ZM159.596 135.547C162.877 135.547 164.987 132.383 164.948 125.859C164.948 119.414 162.877 116.133 159.596 116.133C156.315 116.133 154.245 119.414 154.245 125.859C154.205 132.383 156.315 135.547 159.596 135.547Z" fill="#121212" style="fill:#121212;fill:color(display-p3 0.0714 0.0714 0.0714);fill-opacity:1;"/>
<path d="M109.178 183H106.62V171.34H106.541L103.241 173.449V171.125L106.737 168.859H109.178V183ZM112.016 181.164L117.016 176.34C117.556 175.799 117.973 175.357 118.266 175.012C118.565 174.66 118.793 174.315 118.949 173.977C119.105 173.632 119.184 173.267 119.184 172.883C119.184 172.453 119.079 172.076 118.871 171.75C118.663 171.424 118.373 171.174 118.002 170.998C117.637 170.822 117.224 170.734 116.762 170.734C116.28 170.734 115.857 170.832 115.492 171.027C115.134 171.216 114.857 171.49 114.662 171.848C114.467 172.199 114.372 172.609 114.379 173.078H111.957C111.951 172.199 112.152 171.428 112.562 170.764C112.973 170.093 113.542 169.576 114.271 169.211C115.007 168.846 115.844 168.664 116.781 168.664C117.732 168.664 118.572 168.84 119.301 169.191C120.036 169.543 120.606 170.031 121.01 170.656C121.42 171.275 121.625 171.978 121.625 172.766C121.625 173.312 121.518 173.84 121.303 174.348C121.094 174.855 120.736 175.419 120.229 176.037C119.721 176.649 119.001 177.395 118.07 178.273L115.551 180.773V180.871H121.84V183H112.016V181.164ZM126.728 168.859L130.927 179.133H131.103L135.302 168.859H138.427V183H135.986V173.273H135.849L131.923 182.961H130.107L126.181 173.234H126.064V183H123.603V168.859H126.728Z" fill="#757575" style="fill:#757575;fill:color(display-p3 0.4588 0.4588 0.4588);fill-opacity:1;"/>
</g>
</svg>
